G04 #@! TF.FileFunction,Legend,Bot*
%FSLAX46Y46*%
G04 Gerber Fmt 4.6, Leading zero omitted, Abs format (unit mm)*
G04 Created by KiCad (PCBNEW 4.0.3+e1-6302~38~ubuntu14.04.1-stable) date Sun Sep 11 21:11:21 2016*
%MOMM*%
%LPD*%
G01*
G04 APERTURE LIST*
%ADD10C,0.100000*%
%ADD11C,0.300000*%
G04 APERTURE END LIST*
D10*
D11*
X199063286Y-93618857D02*
X198849000Y-93690286D01*
X198777572Y-93761714D01*
X198706143Y-93904571D01*
X198706143Y-94118857D01*
X198777572Y-94261714D01*
X198849000Y-94333143D01*
X198991858Y-94404571D01*
X199563286Y-94404571D01*
X199563286Y-92904571D01*
X199063286Y-92904571D01*
X198920429Y-92976000D01*
X198849000Y-93047429D01*
X198777572Y-93190286D01*
X198777572Y-93333143D01*
X198849000Y-93476000D01*
X198920429Y-93547429D01*
X199063286Y-93618857D01*
X199563286Y-93618857D01*
X198063286Y-94404571D02*
X198063286Y-93404571D01*
X198063286Y-93690286D02*
X197991858Y-93547429D01*
X197920429Y-93476000D01*
X197777572Y-93404571D01*
X197634715Y-93404571D01*
X196920429Y-94404571D02*
X197063287Y-94333143D01*
X197134715Y-94261714D01*
X197206144Y-94118857D01*
X197206144Y-93690286D01*
X197134715Y-93547429D01*
X197063287Y-93476000D01*
X196920429Y-93404571D01*
X196706144Y-93404571D01*
X196563287Y-93476000D01*
X196491858Y-93547429D01*
X196420429Y-93690286D01*
X196420429Y-94118857D01*
X196491858Y-94261714D01*
X196563287Y-94333143D01*
X196706144Y-94404571D01*
X196920429Y-94404571D01*
X195920429Y-93404571D02*
X195634715Y-94404571D01*
X195349001Y-93690286D01*
X195063286Y-94404571D01*
X194777572Y-93404571D01*
X194206143Y-93404571D02*
X194206143Y-94404571D01*
X194206143Y-93547429D02*
X194134715Y-93476000D01*
X193991857Y-93404571D01*
X193777572Y-93404571D01*
X193634715Y-93476000D01*
X193563286Y-93618857D01*
X193563286Y-94404571D01*
X191706143Y-94404571D02*
X191706143Y-92904571D01*
X191349000Y-92904571D01*
X191134715Y-92976000D01*
X190991857Y-93118857D01*
X190920429Y-93261714D01*
X190849000Y-93547429D01*
X190849000Y-93761714D01*
X190920429Y-94047429D01*
X190991857Y-94190286D01*
X191134715Y-94333143D01*
X191349000Y-94404571D01*
X191706143Y-94404571D01*
X189991857Y-94404571D02*
X190134715Y-94333143D01*
X190206143Y-94261714D01*
X190277572Y-94118857D01*
X190277572Y-93690286D01*
X190206143Y-93547429D01*
X190134715Y-93476000D01*
X189991857Y-93404571D01*
X189777572Y-93404571D01*
X189634715Y-93476000D01*
X189563286Y-93547429D01*
X189491857Y-93690286D01*
X189491857Y-94118857D01*
X189563286Y-94261714D01*
X189634715Y-94333143D01*
X189777572Y-94404571D01*
X189991857Y-94404571D01*
X188206143Y-93404571D02*
X188206143Y-94618857D01*
X188277572Y-94761714D01*
X188349000Y-94833143D01*
X188491857Y-94904571D01*
X188706143Y-94904571D01*
X188849000Y-94833143D01*
X188206143Y-94333143D02*
X188349000Y-94404571D01*
X188634714Y-94404571D01*
X188777572Y-94333143D01*
X188849000Y-94261714D01*
X188920429Y-94118857D01*
X188920429Y-93690286D01*
X188849000Y-93547429D01*
X188777572Y-93476000D01*
X188634714Y-93404571D01*
X188349000Y-93404571D01*
X188206143Y-93476000D01*
X185563286Y-92976000D02*
X185706143Y-92904571D01*
X185920429Y-92904571D01*
X186134714Y-92976000D01*
X186277572Y-93118857D01*
X186349000Y-93261714D01*
X186420429Y-93547429D01*
X186420429Y-93761714D01*
X186349000Y-94047429D01*
X186277572Y-94190286D01*
X186134714Y-94333143D01*
X185920429Y-94404571D01*
X185777572Y-94404571D01*
X185563286Y-94333143D01*
X185491857Y-94261714D01*
X185491857Y-93761714D01*
X185777572Y-93761714D01*
X184206143Y-94404571D02*
X184206143Y-93618857D01*
X184277572Y-93476000D01*
X184420429Y-93404571D01*
X184706143Y-93404571D01*
X184849000Y-93476000D01*
X184206143Y-94333143D02*
X184349000Y-94404571D01*
X184706143Y-94404571D01*
X184849000Y-94333143D01*
X184920429Y-94190286D01*
X184920429Y-94047429D01*
X184849000Y-93904571D01*
X184706143Y-93833143D01*
X184349000Y-93833143D01*
X184206143Y-93761714D01*
X182849000Y-94404571D02*
X182849000Y-92904571D01*
X182849000Y-94333143D02*
X182991857Y-94404571D01*
X183277571Y-94404571D01*
X183420429Y-94333143D01*
X183491857Y-94261714D01*
X183563286Y-94118857D01*
X183563286Y-93690286D01*
X183491857Y-93547429D01*
X183420429Y-93476000D01*
X183277571Y-93404571D01*
X182991857Y-93404571D01*
X182849000Y-93476000D01*
X181491857Y-93404571D02*
X181491857Y-94618857D01*
X181563286Y-94761714D01*
X181634714Y-94833143D01*
X181777571Y-94904571D01*
X181991857Y-94904571D01*
X182134714Y-94833143D01*
X181491857Y-94333143D02*
X181634714Y-94404571D01*
X181920428Y-94404571D01*
X182063286Y-94333143D01*
X182134714Y-94261714D01*
X182206143Y-94118857D01*
X182206143Y-93690286D01*
X182134714Y-93547429D01*
X182063286Y-93476000D01*
X181920428Y-93404571D01*
X181634714Y-93404571D01*
X181491857Y-93476000D01*
X180206143Y-94333143D02*
X180349000Y-94404571D01*
X180634714Y-94404571D01*
X180777571Y-94333143D01*
X180849000Y-94190286D01*
X180849000Y-93618857D01*
X180777571Y-93476000D01*
X180634714Y-93404571D01*
X180349000Y-93404571D01*
X180206143Y-93476000D01*
X180134714Y-93618857D01*
X180134714Y-93761714D01*
X180849000Y-93904571D01*
X179706143Y-93404571D02*
X179134714Y-93404571D01*
X179491857Y-92904571D02*
X179491857Y-94190286D01*
X179420429Y-94333143D01*
X179277571Y-94404571D01*
X179134714Y-94404571D01*
X178706143Y-94333143D02*
X178563286Y-94404571D01*
X178277571Y-94404571D01*
X178134714Y-94333143D01*
X178063286Y-94190286D01*
X178063286Y-94118857D01*
X178134714Y-93976000D01*
X178277571Y-93904571D01*
X178491857Y-93904571D01*
X178634714Y-93833143D01*
X178706143Y-93690286D01*
X178706143Y-93618857D01*
X178634714Y-93476000D01*
X178491857Y-93404571D01*
X178277571Y-93404571D01*
X178134714Y-93476000D01*
X196634713Y-92499571D02*
X197348999Y-92499571D01*
X197348999Y-90999571D01*
X196134713Y-92499571D02*
X196134713Y-90999571D01*
X195777570Y-90999571D01*
X195563285Y-91071000D01*
X195420427Y-91213857D01*
X195348999Y-91356714D01*
X195277570Y-91642429D01*
X195277570Y-91856714D01*
X195348999Y-92142429D01*
X195420427Y-92285286D01*
X195563285Y-92428143D01*
X195777570Y-92499571D01*
X196134713Y-92499571D01*
X193777570Y-92499571D02*
X194277570Y-91785286D01*
X194634713Y-92499571D02*
X194634713Y-90999571D01*
X194063285Y-90999571D01*
X193920427Y-91071000D01*
X193848999Y-91142429D01*
X193777570Y-91285286D01*
X193777570Y-91499571D01*
X193848999Y-91642429D01*
X193920427Y-91713857D01*
X194063285Y-91785286D01*
X194634713Y-91785286D01*
X191491856Y-91713857D02*
X191277570Y-91785286D01*
X191206142Y-91856714D01*
X191134713Y-91999571D01*
X191134713Y-92213857D01*
X191206142Y-92356714D01*
X191277570Y-92428143D01*
X191420428Y-92499571D01*
X191991856Y-92499571D01*
X191991856Y-90999571D01*
X191491856Y-90999571D01*
X191348999Y-91071000D01*
X191277570Y-91142429D01*
X191206142Y-91285286D01*
X191206142Y-91428143D01*
X191277570Y-91571000D01*
X191348999Y-91642429D01*
X191491856Y-91713857D01*
X191991856Y-91713857D01*
X190277570Y-92499571D02*
X190420428Y-92428143D01*
X190491856Y-92356714D01*
X190563285Y-92213857D01*
X190563285Y-91785286D01*
X190491856Y-91642429D01*
X190420428Y-91571000D01*
X190277570Y-91499571D01*
X190063285Y-91499571D01*
X189920428Y-91571000D01*
X189848999Y-91642429D01*
X189777570Y-91785286D01*
X189777570Y-92213857D01*
X189848999Y-92356714D01*
X189920428Y-92428143D01*
X190063285Y-92499571D01*
X190277570Y-92499571D01*
X188491856Y-92499571D02*
X188491856Y-91713857D01*
X188563285Y-91571000D01*
X188706142Y-91499571D01*
X188991856Y-91499571D01*
X189134713Y-91571000D01*
X188491856Y-92428143D02*
X188634713Y-92499571D01*
X188991856Y-92499571D01*
X189134713Y-92428143D01*
X189206142Y-92285286D01*
X189206142Y-92142429D01*
X189134713Y-91999571D01*
X188991856Y-91928143D01*
X188634713Y-91928143D01*
X188491856Y-91856714D01*
X187777570Y-92499571D02*
X187777570Y-91499571D01*
X187777570Y-91785286D02*
X187706142Y-91642429D01*
X187634713Y-91571000D01*
X187491856Y-91499571D01*
X187348999Y-91499571D01*
X186206142Y-92499571D02*
X186206142Y-90999571D01*
X186206142Y-92428143D02*
X186348999Y-92499571D01*
X186634713Y-92499571D01*
X186777571Y-92428143D01*
X186848999Y-92356714D01*
X186920428Y-92213857D01*
X186920428Y-91785286D01*
X186848999Y-91642429D01*
X186777571Y-91571000D01*
X186634713Y-91499571D01*
X186348999Y-91499571D01*
X186206142Y-91571000D01*
X184491856Y-91499571D02*
X184134713Y-92499571D01*
X183777571Y-91499571D01*
X182420428Y-92499571D02*
X183277571Y-92499571D01*
X182848999Y-92499571D02*
X182848999Y-90999571D01*
X182991856Y-91213857D01*
X183134714Y-91356714D01*
X183277571Y-91428143D01*
X181777571Y-92356714D02*
X181706143Y-92428143D01*
X181777571Y-92499571D01*
X181849000Y-92428143D01*
X181777571Y-92356714D01*
X181777571Y-92499571D01*
X180777571Y-90999571D02*
X180634714Y-90999571D01*
X180491857Y-91071000D01*
X180420428Y-91142429D01*
X180348999Y-91285286D01*
X180277571Y-91571000D01*
X180277571Y-91928143D01*
X180348999Y-92213857D01*
X180420428Y-92356714D01*
X180491857Y-92428143D01*
X180634714Y-92499571D01*
X180777571Y-92499571D01*
X180920428Y-92428143D01*
X180991857Y-92356714D01*
X181063285Y-92213857D01*
X181134714Y-91928143D01*
X181134714Y-91571000D01*
X181063285Y-91285286D01*
X180991857Y-91142429D01*
X180920428Y-91071000D01*
X180777571Y-90999571D01*
X160899714Y-116478857D02*
X160685428Y-116550286D01*
X160614000Y-116621714D01*
X160542571Y-116764571D01*
X160542571Y-116978857D01*
X160614000Y-117121714D01*
X160685428Y-117193143D01*
X160828286Y-117264571D01*
X161399714Y-117264571D01*
X161399714Y-115764571D01*
X160899714Y-115764571D01*
X160756857Y-115836000D01*
X160685428Y-115907429D01*
X160614000Y-116050286D01*
X160614000Y-116193143D01*
X160685428Y-116336000D01*
X160756857Y-116407429D01*
X160899714Y-116478857D01*
X161399714Y-116478857D01*
X159899714Y-117264571D02*
X159899714Y-116264571D01*
X159899714Y-116550286D02*
X159828286Y-116407429D01*
X159756857Y-116336000D01*
X159614000Y-116264571D01*
X159471143Y-116264571D01*
X158756857Y-117264571D02*
X158899715Y-117193143D01*
X158971143Y-117121714D01*
X159042572Y-116978857D01*
X159042572Y-116550286D01*
X158971143Y-116407429D01*
X158899715Y-116336000D01*
X158756857Y-116264571D01*
X158542572Y-116264571D01*
X158399715Y-116336000D01*
X158328286Y-116407429D01*
X158256857Y-116550286D01*
X158256857Y-116978857D01*
X158328286Y-117121714D01*
X158399715Y-117193143D01*
X158542572Y-117264571D01*
X158756857Y-117264571D01*
X157756857Y-116264571D02*
X157471143Y-117264571D01*
X157185429Y-116550286D01*
X156899714Y-117264571D01*
X156614000Y-116264571D01*
X156042571Y-116264571D02*
X156042571Y-117264571D01*
X156042571Y-116407429D02*
X155971143Y-116336000D01*
X155828285Y-116264571D01*
X155614000Y-116264571D01*
X155471143Y-116336000D01*
X155399714Y-116478857D01*
X155399714Y-117264571D01*
X153542571Y-117264571D02*
X153542571Y-115764571D01*
X153185428Y-115764571D01*
X152971143Y-115836000D01*
X152828285Y-115978857D01*
X152756857Y-116121714D01*
X152685428Y-116407429D01*
X152685428Y-116621714D01*
X152756857Y-116907429D01*
X152828285Y-117050286D01*
X152971143Y-117193143D01*
X153185428Y-117264571D01*
X153542571Y-117264571D01*
X151828285Y-117264571D02*
X151971143Y-117193143D01*
X152042571Y-117121714D01*
X152114000Y-116978857D01*
X152114000Y-116550286D01*
X152042571Y-116407429D01*
X151971143Y-116336000D01*
X151828285Y-116264571D01*
X151614000Y-116264571D01*
X151471143Y-116336000D01*
X151399714Y-116407429D01*
X151328285Y-116550286D01*
X151328285Y-116978857D01*
X151399714Y-117121714D01*
X151471143Y-117193143D01*
X151614000Y-117264571D01*
X151828285Y-117264571D01*
X150042571Y-116264571D02*
X150042571Y-117478857D01*
X150114000Y-117621714D01*
X150185428Y-117693143D01*
X150328285Y-117764571D01*
X150542571Y-117764571D01*
X150685428Y-117693143D01*
X150042571Y-117193143D02*
X150185428Y-117264571D01*
X150471142Y-117264571D01*
X150614000Y-117193143D01*
X150685428Y-117121714D01*
X150756857Y-116978857D01*
X150756857Y-116550286D01*
X150685428Y-116407429D01*
X150614000Y-116336000D01*
X150471142Y-116264571D01*
X150185428Y-116264571D01*
X150042571Y-116336000D01*
X147399714Y-115836000D02*
X147542571Y-115764571D01*
X147756857Y-115764571D01*
X147971142Y-115836000D01*
X148114000Y-115978857D01*
X148185428Y-116121714D01*
X148256857Y-116407429D01*
X148256857Y-116621714D01*
X148185428Y-116907429D01*
X148114000Y-117050286D01*
X147971142Y-117193143D01*
X147756857Y-117264571D01*
X147614000Y-117264571D01*
X147399714Y-117193143D01*
X147328285Y-117121714D01*
X147328285Y-116621714D01*
X147614000Y-116621714D01*
X146042571Y-117264571D02*
X146042571Y-116478857D01*
X146114000Y-116336000D01*
X146256857Y-116264571D01*
X146542571Y-116264571D01*
X146685428Y-116336000D01*
X146042571Y-117193143D02*
X146185428Y-117264571D01*
X146542571Y-117264571D01*
X146685428Y-117193143D01*
X146756857Y-117050286D01*
X146756857Y-116907429D01*
X146685428Y-116764571D01*
X146542571Y-116693143D01*
X146185428Y-116693143D01*
X146042571Y-116621714D01*
X144685428Y-117264571D02*
X144685428Y-115764571D01*
X144685428Y-117193143D02*
X144828285Y-117264571D01*
X145113999Y-117264571D01*
X145256857Y-117193143D01*
X145328285Y-117121714D01*
X145399714Y-116978857D01*
X145399714Y-116550286D01*
X145328285Y-116407429D01*
X145256857Y-116336000D01*
X145113999Y-116264571D01*
X144828285Y-116264571D01*
X144685428Y-116336000D01*
X143328285Y-116264571D02*
X143328285Y-117478857D01*
X143399714Y-117621714D01*
X143471142Y-117693143D01*
X143613999Y-117764571D01*
X143828285Y-117764571D01*
X143971142Y-117693143D01*
X143328285Y-117193143D02*
X143471142Y-117264571D01*
X143756856Y-117264571D01*
X143899714Y-117193143D01*
X143971142Y-117121714D01*
X144042571Y-116978857D01*
X144042571Y-116550286D01*
X143971142Y-116407429D01*
X143899714Y-116336000D01*
X143756856Y-116264571D01*
X143471142Y-116264571D01*
X143328285Y-116336000D01*
X142042571Y-117193143D02*
X142185428Y-117264571D01*
X142471142Y-117264571D01*
X142613999Y-117193143D01*
X142685428Y-117050286D01*
X142685428Y-116478857D01*
X142613999Y-116336000D01*
X142471142Y-116264571D01*
X142185428Y-116264571D01*
X142042571Y-116336000D01*
X141971142Y-116478857D01*
X141971142Y-116621714D01*
X142685428Y-116764571D01*
X141542571Y-116264571D02*
X140971142Y-116264571D01*
X141328285Y-115764571D02*
X141328285Y-117050286D01*
X141256857Y-117193143D01*
X141113999Y-117264571D01*
X140971142Y-117264571D01*
X140542571Y-117193143D02*
X140399714Y-117264571D01*
X140113999Y-117264571D01*
X139971142Y-117193143D01*
X139899714Y-117050286D01*
X139899714Y-116978857D01*
X139971142Y-116836000D01*
X140113999Y-116764571D01*
X140328285Y-116764571D01*
X140471142Y-116693143D01*
X140542571Y-116550286D01*
X140542571Y-116478857D01*
X140471142Y-116336000D01*
X140328285Y-116264571D01*
X140113999Y-116264571D01*
X139971142Y-116336000D01*
X167538998Y-81633143D02*
X167324712Y-81704571D01*
X166967569Y-81704571D01*
X166824712Y-81633143D01*
X166753283Y-81561714D01*
X166681855Y-81418857D01*
X166681855Y-81276000D01*
X166753283Y-81133143D01*
X166824712Y-81061714D01*
X166967569Y-80990286D01*
X167253283Y-80918857D01*
X167396141Y-80847429D01*
X167467569Y-80776000D01*
X167538998Y-80633143D01*
X167538998Y-80490286D01*
X167467569Y-80347429D01*
X167396141Y-80276000D01*
X167253283Y-80204571D01*
X166896141Y-80204571D01*
X166681855Y-80276000D01*
X165824712Y-81704571D02*
X165967570Y-81633143D01*
X166038998Y-81561714D01*
X166110427Y-81418857D01*
X166110427Y-80990286D01*
X166038998Y-80847429D01*
X165967570Y-80776000D01*
X165824712Y-80704571D01*
X165610427Y-80704571D01*
X165467570Y-80776000D01*
X165396141Y-80847429D01*
X165324712Y-80990286D01*
X165324712Y-81418857D01*
X165396141Y-81561714D01*
X165467570Y-81633143D01*
X165610427Y-81704571D01*
X165824712Y-81704571D01*
X164467569Y-81704571D02*
X164610427Y-81633143D01*
X164681855Y-81490286D01*
X164681855Y-80204571D01*
X163253284Y-81704571D02*
X163253284Y-80918857D01*
X163324713Y-80776000D01*
X163467570Y-80704571D01*
X163753284Y-80704571D01*
X163896141Y-80776000D01*
X163253284Y-81633143D02*
X163396141Y-81704571D01*
X163753284Y-81704571D01*
X163896141Y-81633143D01*
X163967570Y-81490286D01*
X163967570Y-81347429D01*
X163896141Y-81204571D01*
X163753284Y-81133143D01*
X163396141Y-81133143D01*
X163253284Y-81061714D01*
X162538998Y-81704571D02*
X162538998Y-80704571D01*
X162538998Y-80990286D02*
X162467570Y-80847429D01*
X162396141Y-80776000D01*
X162253284Y-80704571D01*
X162110427Y-80704571D01*
X160681856Y-80204571D02*
X159824713Y-80204571D01*
X160253284Y-81704571D02*
X160253284Y-80204571D01*
X159324713Y-81704571D02*
X159324713Y-80704571D01*
X159324713Y-80990286D02*
X159253285Y-80847429D01*
X159181856Y-80776000D01*
X159038999Y-80704571D01*
X158896142Y-80704571D01*
X157753285Y-81704571D02*
X157753285Y-80918857D01*
X157824714Y-80776000D01*
X157967571Y-80704571D01*
X158253285Y-80704571D01*
X158396142Y-80776000D01*
X157753285Y-81633143D02*
X157896142Y-81704571D01*
X158253285Y-81704571D01*
X158396142Y-81633143D01*
X158467571Y-81490286D01*
X158467571Y-81347429D01*
X158396142Y-81204571D01*
X158253285Y-81133143D01*
X157896142Y-81133143D01*
X157753285Y-81061714D01*
X156396142Y-81633143D02*
X156538999Y-81704571D01*
X156824713Y-81704571D01*
X156967571Y-81633143D01*
X157038999Y-81561714D01*
X157110428Y-81418857D01*
X157110428Y-80990286D01*
X157038999Y-80847429D01*
X156967571Y-80776000D01*
X156824713Y-80704571D01*
X156538999Y-80704571D01*
X156396142Y-80776000D01*
X155753285Y-81704571D02*
X155753285Y-80204571D01*
X155610428Y-81133143D02*
X155181857Y-81704571D01*
X155181857Y-80704571D02*
X155753285Y-81276000D01*
X153967571Y-81633143D02*
X154110428Y-81704571D01*
X154396142Y-81704571D01*
X154538999Y-81633143D01*
X154610428Y-81490286D01*
X154610428Y-80918857D01*
X154538999Y-80776000D01*
X154396142Y-80704571D01*
X154110428Y-80704571D01*
X153967571Y-80776000D01*
X153896142Y-80918857D01*
X153896142Y-81061714D01*
X154610428Y-81204571D01*
X153253285Y-81704571D02*
X153253285Y-80704571D01*
X153253285Y-80990286D02*
X153181857Y-80847429D01*
X153110428Y-80776000D01*
X152967571Y-80704571D01*
X152824714Y-80704571D01*
X151253286Y-81633143D02*
X151039000Y-81704571D01*
X150681857Y-81704571D01*
X150539000Y-81633143D01*
X150467571Y-81561714D01*
X150396143Y-81418857D01*
X150396143Y-81276000D01*
X150467571Y-81133143D01*
X150539000Y-81061714D01*
X150681857Y-80990286D01*
X150967571Y-80918857D01*
X151110429Y-80847429D01*
X151181857Y-80776000D01*
X151253286Y-80633143D01*
X151253286Y-80490286D01*
X151181857Y-80347429D01*
X151110429Y-80276000D01*
X150967571Y-80204571D01*
X150610429Y-80204571D01*
X150396143Y-80276000D01*
X149753286Y-81704571D02*
X149753286Y-80204571D01*
X149110429Y-81704571D02*
X149110429Y-80918857D01*
X149181858Y-80776000D01*
X149324715Y-80704571D01*
X149539000Y-80704571D01*
X149681858Y-80776000D01*
X149753286Y-80847429D01*
X148396143Y-81704571D02*
X148396143Y-80704571D01*
X148396143Y-80204571D02*
X148467572Y-80276000D01*
X148396143Y-80347429D01*
X148324715Y-80276000D01*
X148396143Y-80204571D01*
X148396143Y-80347429D01*
X147110429Y-81633143D02*
X147253286Y-81704571D01*
X147539000Y-81704571D01*
X147681857Y-81633143D01*
X147753286Y-81490286D01*
X147753286Y-80918857D01*
X147681857Y-80776000D01*
X147539000Y-80704571D01*
X147253286Y-80704571D01*
X147110429Y-80776000D01*
X147039000Y-80918857D01*
X147039000Y-81061714D01*
X147753286Y-81204571D01*
X146181857Y-81704571D02*
X146324715Y-81633143D01*
X146396143Y-81490286D01*
X146396143Y-80204571D01*
X144967572Y-81704571D02*
X144967572Y-80204571D01*
X144967572Y-81633143D02*
X145110429Y-81704571D01*
X145396143Y-81704571D01*
X145539001Y-81633143D01*
X145610429Y-81561714D01*
X145681858Y-81418857D01*
X145681858Y-80990286D01*
X145610429Y-80847429D01*
X145539001Y-80776000D01*
X145396143Y-80704571D01*
X145110429Y-80704571D01*
X144967572Y-80776000D01*
X143253286Y-80704571D02*
X142896143Y-81704571D01*
X142539001Y-80704571D01*
X141181858Y-81704571D02*
X142039001Y-81704571D01*
X141610429Y-81704571D02*
X141610429Y-80204571D01*
X141753286Y-80418857D01*
X141896144Y-80561714D01*
X142039001Y-80633143D01*
X140539001Y-81561714D02*
X140467573Y-81633143D01*
X140539001Y-81704571D01*
X140610430Y-81633143D01*
X140539001Y-81561714D01*
X140539001Y-81704571D01*
X139539001Y-80204571D02*
X139396144Y-80204571D01*
X139253287Y-80276000D01*
X139181858Y-80347429D01*
X139110429Y-80490286D01*
X139039001Y-80776000D01*
X139039001Y-81133143D01*
X139110429Y-81418857D01*
X139181858Y-81561714D01*
X139253287Y-81633143D01*
X139396144Y-81704571D01*
X139539001Y-81704571D01*
X139681858Y-81633143D01*
X139753287Y-81561714D01*
X139824715Y-81418857D01*
X139896144Y-81133143D01*
X139896144Y-80776000D01*
X139824715Y-80490286D01*
X139753287Y-80347429D01*
X139681858Y-80276000D01*
X139539001Y-80204571D01*
M02*
