G04 This is an RS-274x file exported by *
G04 gerbv version 2.6.0 *
G04 More information is available about gerbv at *
G04 http://gerbv.gpleda.org/ *
G04 --End of header info--*
%MOIN*%
%FSLAX36Y36*%
%IPPOS*%
G04 --Define apertures--*
%ADD10C,0.0039*%
%ADD11R,0.0800X0.0800*%
%ADD12O,0.0800X0.0800*%
%ADD13O,0.0680X0.0800*%
%ADD14C,0.0787*%
%ADD15C,0.0800*%
%ADD16R,0.0800X0.0680*%
%ADD17O,0.0800X0.0680*%
%ADD18C,0.0200*%
%ADD19C,0.0100*%
G04 --Start main section--*
G54D11*
G01X7660000Y-4340000D03*
G54D12*
G01X7560000Y-4340000D03*
G01X7460000Y-4340000D03*
G01X7360000Y-4340000D03*
G01X7260000Y-4340000D03*
G54D13*
G01X5468000Y-4875000D03*
G01X5568000Y-4875000D03*
G01X5668000Y-4875000D03*
G01X5768000Y-4875000D03*
G01X5868000Y-4875000D03*
G01X5968000Y-4875000D03*
G01X6068000Y-4875000D03*
G01X6168000Y-4875000D03*
G01X6369000Y-4875000D03*
G01X6469000Y-4875000D03*
G01X6569000Y-4875000D03*
G01X6669000Y-4875000D03*
G01X6369000Y-2975000D03*
G01X6469000Y-2975000D03*
G01X6269000Y-2975000D03*
G01X6169000Y-2975000D03*
G01X6569000Y-2975000D03*
G01X6669000Y-2975000D03*
G01X5509000Y-2975000D03*
G01X5609000Y-2975000D03*
G01X5709000Y-2975000D03*
G01X6009000Y-2975000D03*
G01X5909000Y-2975000D03*
G01X5809000Y-2975000D03*
G01X5309000Y-2975000D03*
G01X5409000Y-2975000D03*
G54D14*
G01X6110000Y-3740000D03*
G01X5810000Y-3740000D03*
G54D15*
G01X7137795Y-3411775D03*
G54D12*
G01X7237795Y-3411775D03*
G54D14*
G01X6110000Y-4040000D03*
G01X5810000Y-4040000D03*
G54D15*
G01X7737795Y-3411775D03*
G54D12*
G01X7637795Y-3411775D03*
G54D14*
G01X6110000Y-3440000D03*
G01X5810000Y-3440000D03*
G54D15*
G01X7237795Y-3911775D03*
G54D12*
G01X7137795Y-3911775D03*
G54D14*
G01X6110000Y-4340000D03*
G01X5810000Y-4340000D03*
G54D15*
G01X7737795Y-3911775D03*
G54D12*
G01X7637795Y-3911775D03*
G54D16*
G01X5535000Y-4140000D03*
G54D17*
G01X5535000Y-4240000D03*
G01X5535000Y-4340000D03*
G54D16*
G01X5535000Y-3540000D03*
G54D17*
G01X5535000Y-3640000D03*
G01X5535000Y-3740000D03*
G54D11*
G01X6410000Y-4140000D03*
G54D12*
G01X6410000Y-4040000D03*
G01X6410000Y-3940000D03*
G01X6410000Y-3840000D03*
G01X6410000Y-3740000D03*
G54D18*
G01X5435000Y-3640000D02*
G01X5435000Y-4200000D01*
G01X5435000Y-4200000D02*
G01X5475000Y-4240000D01*
G01X5475000Y-4240000D02*
G01X5535000Y-4240000D01*
G01X5309000Y-3514000D02*
G01X5435000Y-3640000D01*
G01X5435000Y-3640000D02*
G01X5535000Y-3640000D01*
G01X5309000Y-2975000D02*
G01X5309000Y-3514000D01*
G54D19*
G36*
G01X6732047Y-2922822D02*
G01X6727281Y-2926007D01*
G01X6719000Y-2938400D01*
G01X6710719Y-2926007D01*
G01X6691578Y-2913218D01*
G01X6669000Y-2908727D01*
G01X6646422Y-2913218D01*
G01X6627281Y-2926007D01*
G01X6619000Y-2938400D01*
G01X6610719Y-2926007D01*
G01X6591578Y-2913218D01*
G01X6569000Y-2908727D01*
G01X6546422Y-2913218D01*
G01X6527281Y-2926007D01*
G01X6519000Y-2938400D01*
G01X6510719Y-2926007D01*
G01X6491578Y-2913218D01*
G01X6469000Y-2908727D01*
G01X6446422Y-2913218D01*
G01X6427281Y-2926007D01*
G01X6419000Y-2938400D01*
G01X6410719Y-2926007D01*
G01X6391578Y-2913218D01*
G01X6369000Y-2908727D01*
G01X6346422Y-2913218D01*
G01X6327281Y-2926007D01*
G01X6319000Y-2938400D01*
G01X6310719Y-2926007D01*
G01X6291578Y-2913218D01*
G01X6269000Y-2908727D01*
G01X6246422Y-2913218D01*
G01X6227281Y-2926007D01*
G01X6219000Y-2938400D01*
G01X6210719Y-2926007D01*
G01X6191578Y-2913218D01*
G01X6169000Y-2908727D01*
G01X6146422Y-2913218D01*
G01X6127281Y-2926007D01*
G01X6114491Y-2945148D01*
G01X6110000Y-2967727D01*
G01X6110000Y-2982273D01*
G01X6114491Y-3004852D01*
G01X6127281Y-3023993D01*
G01X6146422Y-3036782D01*
G01X6169000Y-3041273D01*
G01X6191578Y-3036782D01*
G01X6210719Y-3023993D01*
G01X6219000Y-3011600D01*
G01X6227281Y-3023993D01*
G01X6246422Y-3036782D01*
G01X6269000Y-3041273D01*
G01X6291578Y-3036782D01*
G01X6310719Y-3023993D01*
G01X6319000Y-3011600D01*
G01X6327281Y-3023993D01*
G01X6346422Y-3036782D01*
G01X6369000Y-3041273D01*
G01X6391578Y-3036782D01*
G01X6410719Y-3023993D01*
G01X6419000Y-3011600D01*
G01X6427281Y-3023993D01*
G01X6446422Y-3036782D01*
G01X6469000Y-3041273D01*
G01X6491578Y-3036782D01*
G01X6510719Y-3023993D01*
G01X6519000Y-3011600D01*
G01X6527281Y-3023993D01*
G01X6546422Y-3036782D01*
G01X6569000Y-3041273D01*
G01X6591578Y-3036782D01*
G01X6610719Y-3023993D01*
G01X6619000Y-3011600D01*
G01X6627281Y-3023993D01*
G01X6646422Y-3036782D01*
G01X6669000Y-3041273D01*
G01X6691578Y-3036782D01*
G01X6710719Y-3023993D01*
G01X6719000Y-3011600D01*
G01X6727281Y-3023993D01*
G01X6732047Y-3027178D01*
G01X6732047Y-4822822D01*
G01X6727281Y-4826007D01*
G01X6719000Y-4838400D01*
G01X6710719Y-4826007D01*
G01X6691578Y-4813218D01*
G01X6669000Y-4808727D01*
G01X6646422Y-4813218D01*
G01X6627281Y-4826007D01*
G01X6619000Y-4838400D01*
G01X6610719Y-4826007D01*
G01X6591578Y-4813218D01*
G01X6569000Y-4808727D01*
G01X6546422Y-4813218D01*
G01X6527281Y-4826007D01*
G01X6519000Y-4838400D01*
G01X6510719Y-4826007D01*
G01X6491578Y-4813218D01*
G01X6469000Y-4808727D01*
G01X6446422Y-4813218D01*
G01X6427281Y-4826007D01*
G01X6419000Y-4838400D01*
G01X6410719Y-4826007D01*
G01X6391578Y-4813218D01*
G01X6369000Y-4808727D01*
G01X6346422Y-4813218D01*
G01X6327281Y-4826007D01*
G01X6314491Y-4845148D01*
G01X6310000Y-4867727D01*
G01X6310000Y-4882273D01*
G01X6314491Y-4904852D01*
G01X6327281Y-4923993D01*
G01X6346422Y-4936782D01*
G01X6369000Y-4941273D01*
G01X6391578Y-4936782D01*
G01X6410719Y-4923993D01*
G01X6419000Y-4911600D01*
G01X6427281Y-4923993D01*
G01X6446422Y-4936782D01*
G01X6469000Y-4941273D01*
G01X6491578Y-4936782D01*
G01X6510719Y-4923993D01*
G01X6519000Y-4911600D01*
G01X6527281Y-4923993D01*
G01X6546422Y-4936782D01*
G01X6569000Y-4941273D01*
G01X6591578Y-4936782D01*
G01X6610719Y-4923993D01*
G01X6619000Y-4911600D01*
G01X6627281Y-4923993D01*
G01X6646422Y-4936782D01*
G01X6669000Y-4941273D01*
G01X6691578Y-4936782D01*
G01X6710719Y-4923993D01*
G01X6719000Y-4911600D01*
G01X6727281Y-4923993D01*
G01X6732047Y-4927178D01*
G01X6732047Y-4952047D01*
G01X5267953Y-4952047D01*
G01X5267953Y-4867727D01*
G01X5409000Y-4867727D01*
G01X5409000Y-4882273D01*
G01X5413491Y-4904852D01*
G01X5426281Y-4923993D01*
G01X5445422Y-4936782D01*
G01X5468000Y-4941273D01*
G01X5490578Y-4936782D01*
G01X5509719Y-4923993D01*
G01X5518000Y-4911600D01*
G01X5526281Y-4923993D01*
G01X5545422Y-4936782D01*
G01X5568000Y-4941273D01*
G01X5590578Y-4936782D01*
G01X5609719Y-4923993D01*
G01X5618000Y-4911600D01*
G01X5626281Y-4923993D01*
G01X5645422Y-4936782D01*
G01X5668000Y-4941273D01*
G01X5690578Y-4936782D01*
G01X5709719Y-4923993D01*
G01X5718000Y-4911600D01*
G01X5726281Y-4923993D01*
G01X5745422Y-4936782D01*
G01X5768000Y-4941273D01*
G01X5790578Y-4936782D01*
G01X5809719Y-4923993D01*
G01X5818000Y-4911600D01*
G01X5826281Y-4923993D01*
G01X5845422Y-4936782D01*
G01X5868000Y-4941273D01*
G01X5890578Y-4936782D01*
G01X5909719Y-4923993D01*
G01X5917861Y-4911808D01*
G01X5932487Y-4928178D01*
G01X5953244Y-4938178D01*
G01X5953865Y-4938282D01*
G01X5963000Y-4933512D01*
G01X5963000Y-4880000D01*
G01X5973000Y-4880000D01*
G01X5973000Y-4933512D01*
G01X5982135Y-4938282D01*
G01X5982756Y-4938178D01*
G01X6003513Y-4928178D01*
G01X6018000Y-4911964D01*
G01X6032487Y-4928178D01*
G01X6053244Y-4938178D01*
G01X6053865Y-4938282D01*
G01X6063000Y-4933512D01*
G01X6063000Y-4880000D01*
G01X5973000Y-4880000D01*
G01X5963000Y-4880000D01*
G01X5962213Y-4880000D01*
G01X5962213Y-4870000D01*
G01X5963000Y-4870000D01*
G01X5963000Y-4816488D01*
G01X5973000Y-4816488D01*
G01X5973000Y-4870000D01*
G01X6063000Y-4870000D01*
G01X6063000Y-4816488D01*
G01X6073000Y-4816488D01*
G01X6073000Y-4870000D01*
G01X6073787Y-4870000D01*
G01X6073787Y-4880000D01*
G01X6073000Y-4880000D01*
G01X6073000Y-4933512D01*
G01X6082135Y-4938282D01*
G01X6082756Y-4938178D01*
G01X6103513Y-4928178D01*
G01X6118139Y-4911808D01*
G01X6126281Y-4923993D01*
G01X6145422Y-4936782D01*
G01X6168000Y-4941273D01*
G01X6190578Y-4936782D01*
G01X6209719Y-4923993D01*
G01X6222509Y-4904852D01*
G01X6227000Y-4882273D01*
G01X6227000Y-4867727D01*
G01X6222509Y-4845148D01*
G01X6209719Y-4826007D01*
G01X6190578Y-4813218D01*
G01X6168000Y-4808727D01*
G01X6145422Y-4813218D01*
G01X6126281Y-4826007D01*
G01X6118139Y-4838192D01*
G01X6103513Y-4821822D01*
G01X6082756Y-4811822D01*
G01X6082135Y-4811718D01*
G01X6073000Y-4816488D01*
G01X6063000Y-4816488D01*
G01X6053865Y-4811718D01*
G01X6053244Y-4811822D01*
G01X6032487Y-4821822D01*
G01X6018000Y-4838036D01*
G01X6003513Y-4821822D01*
G01X5982756Y-4811822D01*
G01X5982135Y-4811718D01*
G01X5973000Y-4816488D01*
G01X5963000Y-4816488D01*
G01X5953865Y-4811718D01*
G01X5953244Y-4811822D01*
G01X5932487Y-4821822D01*
G01X5917861Y-4838192D01*
G01X5909719Y-4826007D01*
G01X5890578Y-4813218D01*
G01X5868000Y-4808727D01*
G01X5845422Y-4813218D01*
G01X5826281Y-4826007D01*
G01X5818000Y-4838400D01*
G01X5809719Y-4826007D01*
G01X5790578Y-4813218D01*
G01X5768000Y-4808727D01*
G01X5745422Y-4813218D01*
G01X5726281Y-4826007D01*
G01X5718000Y-4838400D01*
G01X5709719Y-4826007D01*
G01X5690578Y-4813218D01*
G01X5668000Y-4808727D01*
G01X5645422Y-4813218D01*
G01X5626281Y-4826007D01*
G01X5618000Y-4838400D01*
G01X5609719Y-4826007D01*
G01X5590578Y-4813218D01*
G01X5568000Y-4808727D01*
G01X5545422Y-4813218D01*
G01X5526281Y-4826007D01*
G01X5518000Y-4838400D01*
G01X5509719Y-4826007D01*
G01X5490578Y-4813218D01*
G01X5468000Y-4808727D01*
G01X5445422Y-4813218D01*
G01X5426281Y-4826007D01*
G01X5413491Y-4845148D01*
G01X5409000Y-4867727D01*
G01X5267953Y-4867727D01*
G01X5267953Y-4354135D01*
G01X5471718Y-4354135D01*
G01X5471822Y-4354756D01*
G01X5481822Y-4375513D01*
G01X5499003Y-4390864D01*
G01X5520751Y-4398472D01*
G01X5530000Y-4392792D01*
G01X5530000Y-4345000D01*
G01X5540000Y-4345000D01*
G01X5540000Y-4392792D01*
G01X5549249Y-4398472D01*
G01X5570997Y-4390864D01*
G01X5577157Y-4385361D01*
G01X5771710Y-4385361D01*
G01X5775592Y-4395865D01*
G01X5799590Y-4404780D01*
G01X5825172Y-4403832D01*
G01X5844408Y-4395865D01*
G01X5848290Y-4385361D01*
G01X5810000Y-4347071D01*
G01X5771710Y-4385361D01*
G01X5577157Y-4385361D01*
G01X5588178Y-4375513D01*
G01X5598178Y-4354756D01*
G01X5598282Y-4354135D01*
G01X5593512Y-4345000D01*
G01X5540000Y-4345000D01*
G01X5530000Y-4345000D01*
G01X5476488Y-4345000D01*
G01X5471718Y-4354135D01*
G01X5267953Y-4354135D01*
G01X5267953Y-3024442D01*
G01X5274000Y-3028482D01*
G01X5274000Y-3514000D01*
G01X5276664Y-3527394D01*
G01X5282156Y-3535613D01*
G01X5284251Y-3538749D01*
G01X5400000Y-3654497D01*
G01X5400000Y-4200000D01*
G01X5402664Y-4213394D01*
G01X5410251Y-4224749D01*
G01X5450251Y-4264749D01*
G01X5461606Y-4272336D01*
G01X5475000Y-4275000D01*
G01X5481518Y-4275000D01*
G01X5486007Y-4281719D01*
G01X5498192Y-4289861D01*
G01X5481822Y-4304487D01*
G01X5471822Y-4325244D01*
G01X5471718Y-4325865D01*
G01X5476488Y-4335000D01*
G01X5530000Y-4335000D01*
G01X5530000Y-4334213D01*
G01X5540000Y-4334213D01*
G01X5540000Y-4335000D01*
G01X5593512Y-4335000D01*
G01X5596337Y-4329590D01*
G01X5745220Y-4329590D01*
G01X5746168Y-4355172D01*
G01X5754135Y-4374408D01*
G01X5764639Y-4378290D01*
G01X5802929Y-4340000D01*
G01X5817071Y-4340000D01*
G01X5855361Y-4378290D01*
G01X5865865Y-4374408D01*
G01X5873913Y-4352744D01*
G01X6045639Y-4352744D01*
G01X6055415Y-4376404D01*
G01X6073501Y-4394521D01*
G01X6097144Y-4404339D01*
G01X6122744Y-4404361D01*
G01X6146404Y-4394585D01*
G01X6164521Y-4376499D01*
G01X6174339Y-4352856D01*
G01X6174361Y-4327256D01*
G01X6164585Y-4303596D01*
G01X6146499Y-4285479D01*
G01X6122856Y-4275661D01*
G01X6097256Y-4275639D01*
G01X6073596Y-4285415D01*
G01X6055479Y-4303501D01*
G01X6045661Y-4327144D01*
G01X6045639Y-4352744D01*
G01X5873913Y-4352744D01*
G01X5874780Y-4350410D01*
G01X5873832Y-4324828D01*
G01X5865865Y-4305592D01*
G01X5855361Y-4301710D01*
G01X5817071Y-4340000D01*
G01X5802929Y-4340000D01*
G01X5764639Y-4301710D01*
G01X5754135Y-4305592D01*
G01X5745220Y-4329590D01*
G01X5596337Y-4329590D01*
G01X5598282Y-4325865D01*
G01X5598178Y-4325244D01*
G01X5588178Y-4304487D01*
G01X5577157Y-4294639D01*
G01X5771710Y-4294639D01*
G01X5810000Y-4332929D01*
G01X5848290Y-4294639D01*
G01X5844408Y-4284135D01*
G01X5820410Y-4275220D01*
G01X5794828Y-4276168D01*
G01X5775592Y-4284135D01*
G01X5771710Y-4294639D01*
G01X5577157Y-4294639D01*
G01X5571808Y-4289861D01*
G01X5583993Y-4281719D01*
G01X5596782Y-4262578D01*
G01X5601273Y-4240000D01*
G01X5596782Y-4217422D01*
G01X5583993Y-4198281D01*
G01X5583429Y-4197904D01*
G01X5584264Y-4197747D01*
G01X5592773Y-4192271D01*
G01X5598482Y-4183917D01*
G01X5600490Y-4174000D01*
G01X5600490Y-4106000D01*
G01X5598747Y-4096736D01*
G01X5593271Y-4088227D01*
G01X5589077Y-4085361D01*
G01X5771710Y-4085361D01*
G01X5775592Y-4095865D01*
G01X5799590Y-4104780D01*
G01X5825172Y-4103832D01*
G01X5844408Y-4095865D01*
G01X5848290Y-4085361D01*
G01X5810000Y-4047071D01*
G01X5771710Y-4085361D01*
G01X5589077Y-4085361D01*
G01X5584917Y-4082518D01*
G01X5575000Y-4080510D01*
G01X5495000Y-4080510D01*
G01X5485736Y-4082253D01*
G01X5477227Y-4087729D01*
G01X5471518Y-4096083D01*
G01X5470000Y-4103581D01*
G01X5470000Y-4029590D01*
G01X5745220Y-4029590D01*
G01X5746168Y-4055172D01*
G01X5754135Y-4074408D01*
G01X5764639Y-4078290D01*
G01X5802929Y-4040000D01*
G01X5817071Y-4040000D01*
G01X5855361Y-4078290D01*
G01X5865865Y-4074408D01*
G01X5873913Y-4052744D01*
G01X6045639Y-4052744D01*
G01X6055415Y-4076404D01*
G01X6073501Y-4094521D01*
G01X6097144Y-4104339D01*
G01X6122744Y-4104361D01*
G01X6146404Y-4094585D01*
G01X6164521Y-4076499D01*
G01X6174339Y-4052856D01*
G01X6174361Y-4027256D01*
G01X6164585Y-4003596D01*
G01X6146499Y-3985479D01*
G01X6122856Y-3975661D01*
G01X6097256Y-3975639D01*
G01X6073596Y-3985415D01*
G01X6055479Y-4003501D01*
G01X6045661Y-4027144D01*
G01X6045639Y-4052744D01*
G01X5873913Y-4052744D01*
G01X5874780Y-4050410D01*
G01X5873832Y-4024828D01*
G01X5865865Y-4005592D01*
G01X5855361Y-4001710D01*
G01X5817071Y-4040000D01*
G01X5802929Y-4040000D01*
G01X5764639Y-4001710D01*
G01X5754135Y-4005592D01*
G01X5745220Y-4029590D01*
G01X5470000Y-4029590D01*
G01X5470000Y-3994639D01*
G01X5771710Y-3994639D01*
G01X5810000Y-4032929D01*
G01X5848290Y-3994639D01*
G01X5844408Y-3984135D01*
G01X5820410Y-3975220D01*
G01X5794828Y-3976168D01*
G01X5775592Y-3984135D01*
G01X5771710Y-3994639D01*
G01X5470000Y-3994639D01*
G01X5470000Y-3754135D01*
G01X5471718Y-3754135D01*
G01X5471822Y-3754756D01*
G01X5481822Y-3775513D01*
G01X5499003Y-3790864D01*
G01X5520751Y-3798472D01*
G01X5530000Y-3792792D01*
G01X5530000Y-3745000D01*
G01X5540000Y-3745000D01*
G01X5540000Y-3792792D01*
G01X5549249Y-3798472D01*
G01X5570997Y-3790864D01*
G01X5577157Y-3785361D01*
G01X5771710Y-3785361D01*
G01X5775592Y-3795865D01*
G01X5799590Y-3804780D01*
G01X5825172Y-3803832D01*
G01X5844408Y-3795865D01*
G01X5848290Y-3785361D01*
G01X5810000Y-3747071D01*
G01X5771710Y-3785361D01*
G01X5577157Y-3785361D01*
G01X5588178Y-3775513D01*
G01X5598178Y-3754756D01*
G01X5598282Y-3754135D01*
G01X5593512Y-3745000D01*
G01X5540000Y-3745000D01*
G01X5530000Y-3745000D01*
G01X5476488Y-3745000D01*
G01X5471718Y-3754135D01*
G01X5470000Y-3754135D01*
G01X5470000Y-3675000D01*
G01X5481518Y-3675000D01*
G01X5486007Y-3681719D01*
G01X5498192Y-3689861D01*
G01X5481822Y-3704487D01*
G01X5471822Y-3725244D01*
G01X5471718Y-3725865D01*
G01X5476488Y-3735000D01*
G01X5530000Y-3735000D01*
G01X5530000Y-3734213D01*
G01X5540000Y-3734213D01*
G01X5540000Y-3735000D01*
G01X5593512Y-3735000D01*
G01X5596337Y-3729590D01*
G01X5745220Y-3729590D01*
G01X5746168Y-3755172D01*
G01X5754135Y-3774408D01*
G01X5764639Y-3778290D01*
G01X5802929Y-3740000D01*
G01X5817071Y-3740000D01*
G01X5855361Y-3778290D01*
G01X5865865Y-3774408D01*
G01X5873913Y-3752744D01*
G01X6045639Y-3752744D01*
G01X6055415Y-3776404D01*
G01X6073501Y-3794521D01*
G01X6097144Y-3804339D01*
G01X6122744Y-3804361D01*
G01X6146404Y-3794585D01*
G01X6164521Y-3776499D01*
G01X6174339Y-3752856D01*
G01X6174350Y-3740000D01*
G01X6343727Y-3740000D01*
G01X6348674Y-3764874D01*
G01X6362765Y-3785962D01*
G01X6368808Y-3790000D01*
G01X6362765Y-3794038D01*
G01X6348674Y-3815126D01*
G01X6343727Y-3840000D01*
G01X6348674Y-3864874D01*
G01X6362765Y-3885962D01*
G01X6368808Y-3890000D01*
G01X6362765Y-3894038D01*
G01X6348674Y-3915126D01*
G01X6343727Y-3940000D01*
G01X6348674Y-3964874D01*
G01X6362765Y-3985962D01*
G01X6368808Y-3990000D01*
G01X6362765Y-3994038D01*
G01X6348674Y-4015126D01*
G01X6343727Y-4040000D01*
G01X6348674Y-4064874D01*
G01X6357618Y-4078260D01*
G01X6352227Y-4081729D01*
G01X6346518Y-4090083D01*
G01X6344510Y-4100000D01*
G01X6344510Y-4180000D01*
G01X6346253Y-4189264D01*
G01X6351729Y-4197773D01*
G01X6360083Y-4203482D01*
G01X6370000Y-4205490D01*
G01X6450000Y-4205490D01*
G01X6459264Y-4203747D01*
G01X6467773Y-4198271D01*
G01X6473482Y-4189917D01*
G01X6475490Y-4180000D01*
G01X6475490Y-4100000D01*
G01X6473747Y-4090736D01*
G01X6468271Y-4082227D01*
G01X6462408Y-4078221D01*
G01X6471326Y-4064874D01*
G01X6476273Y-4040000D01*
G01X6471326Y-4015126D01*
G01X6457235Y-3994038D01*
G01X6451192Y-3990000D01*
G01X6457235Y-3985962D01*
G01X6471326Y-3964874D01*
G01X6476273Y-3940000D01*
G01X6471326Y-3915126D01*
G01X6457235Y-3894038D01*
G01X6451192Y-3890000D01*
G01X6457235Y-3885962D01*
G01X6471326Y-3864874D01*
G01X6476273Y-3840000D01*
G01X6471326Y-3815126D01*
G01X6457235Y-3794038D01*
G01X6451192Y-3790000D01*
G01X6457235Y-3785962D01*
G01X6471326Y-3764874D01*
G01X6476273Y-3740000D01*
G01X6471326Y-3715126D01*
G01X6457235Y-3694038D01*
G01X6436148Y-3679948D01*
G01X6411273Y-3675000D01*
G01X6408727Y-3675000D01*
G01X6383852Y-3679948D01*
G01X6362765Y-3694038D01*
G01X6348674Y-3715126D01*
G01X6343727Y-3740000D01*
G01X6174350Y-3740000D01*
G01X6174361Y-3727256D01*
G01X6164585Y-3703596D01*
G01X6146499Y-3685479D01*
G01X6122856Y-3675661D01*
G01X6097256Y-3675639D01*
G01X6073596Y-3685415D01*
G01X6055479Y-3703501D01*
G01X6045661Y-3727144D01*
G01X6045639Y-3752744D01*
G01X5873913Y-3752744D01*
G01X5874780Y-3750410D01*
G01X5873832Y-3724828D01*
G01X5865865Y-3705592D01*
G01X5855361Y-3701710D01*
G01X5817071Y-3740000D01*
G01X5802929Y-3740000D01*
G01X5764639Y-3701710D01*
G01X5754135Y-3705592D01*
G01X5745220Y-3729590D01*
G01X5596337Y-3729590D01*
G01X5598282Y-3725865D01*
G01X5598178Y-3725244D01*
G01X5588178Y-3704487D01*
G01X5577157Y-3694639D01*
G01X5771710Y-3694639D01*
G01X5810000Y-3732929D01*
G01X5848290Y-3694639D01*
G01X5844408Y-3684135D01*
G01X5820410Y-3675220D01*
G01X5794828Y-3676168D01*
G01X5775592Y-3684135D01*
G01X5771710Y-3694639D01*
G01X5577157Y-3694639D01*
G01X5571808Y-3689861D01*
G01X5583993Y-3681719D01*
G01X5596782Y-3662578D01*
G01X5601273Y-3640000D01*
G01X5596782Y-3617422D01*
G01X5583993Y-3598281D01*
G01X5583429Y-3597904D01*
G01X5584264Y-3597747D01*
G01X5592773Y-3592271D01*
G01X5598482Y-3583917D01*
G01X5600490Y-3574000D01*
G01X5600490Y-3506000D01*
G01X5598747Y-3496736D01*
G01X5593271Y-3488227D01*
G01X5589077Y-3485361D01*
G01X5771710Y-3485361D01*
G01X5775592Y-3495865D01*
G01X5799590Y-3504780D01*
G01X5825172Y-3503832D01*
G01X5844408Y-3495865D01*
G01X5848290Y-3485361D01*
G01X5810000Y-3447071D01*
G01X5771710Y-3485361D01*
G01X5589077Y-3485361D01*
G01X5584917Y-3482518D01*
G01X5575000Y-3480510D01*
G01X5495000Y-3480510D01*
G01X5485736Y-3482253D01*
G01X5477227Y-3487729D01*
G01X5471518Y-3496083D01*
G01X5469510Y-3506000D01*
G01X5469510Y-3574000D01*
G01X5471253Y-3583264D01*
G01X5476729Y-3591773D01*
G01X5485083Y-3597482D01*
G01X5486710Y-3597811D01*
G01X5486007Y-3598281D01*
G01X5481518Y-3605000D01*
G01X5449497Y-3605000D01*
G01X5344000Y-3499503D01*
G01X5344000Y-3429590D01*
G01X5745220Y-3429590D01*
G01X5746168Y-3455172D01*
G01X5754135Y-3474408D01*
G01X5764639Y-3478290D01*
G01X5802929Y-3440000D01*
G01X5817071Y-3440000D01*
G01X5855361Y-3478290D01*
G01X5865865Y-3474408D01*
G01X5873913Y-3452744D01*
G01X6045639Y-3452744D01*
G01X6055415Y-3476404D01*
G01X6073501Y-3494521D01*
G01X6097144Y-3504339D01*
G01X6122744Y-3504361D01*
G01X6146404Y-3494585D01*
G01X6164521Y-3476499D01*
G01X6174339Y-3452856D01*
G01X6174361Y-3427256D01*
G01X6164585Y-3403596D01*
G01X6146499Y-3385479D01*
G01X6122856Y-3375661D01*
G01X6097256Y-3375639D01*
G01X6073596Y-3385415D01*
G01X6055479Y-3403501D01*
G01X6045661Y-3427144D01*
G01X6045639Y-3452744D01*
G01X5873913Y-3452744D01*
G01X5874780Y-3450410D01*
G01X5873832Y-3424828D01*
G01X5865865Y-3405592D01*
G01X5855361Y-3401710D01*
G01X5817071Y-3440000D01*
G01X5802929Y-3440000D01*
G01X5764639Y-3401710D01*
G01X5754135Y-3405592D01*
G01X5745220Y-3429590D01*
G01X5344000Y-3429590D01*
G01X5344000Y-3394639D01*
G01X5771710Y-3394639D01*
G01X5810000Y-3432929D01*
G01X5848290Y-3394639D01*
G01X5844408Y-3384135D01*
G01X5820410Y-3375220D01*
G01X5794828Y-3376168D01*
G01X5775592Y-3384135D01*
G01X5771710Y-3394639D01*
G01X5344000Y-3394639D01*
G01X5344000Y-3028482D01*
G01X5350719Y-3023993D01*
G01X5358861Y-3011808D01*
G01X5373487Y-3028178D01*
G01X5394244Y-3038178D01*
G01X5394865Y-3038282D01*
G01X5404000Y-3033512D01*
G01X5404000Y-2980000D01*
G01X5403213Y-2980000D01*
G01X5403213Y-2970000D01*
G01X5404000Y-2970000D01*
G01X5404000Y-2916488D01*
G01X5414000Y-2916488D01*
G01X5414000Y-2970000D01*
G01X5414787Y-2970000D01*
G01X5414787Y-2980000D01*
G01X5414000Y-2980000D01*
G01X5414000Y-3033512D01*
G01X5423135Y-3038282D01*
G01X5423756Y-3038178D01*
G01X5444513Y-3028178D01*
G01X5459139Y-3011808D01*
G01X5467281Y-3023993D01*
G01X5486422Y-3036782D01*
G01X5509000Y-3041273D01*
G01X5531578Y-3036782D01*
G01X5550719Y-3023993D01*
G01X5559000Y-3011600D01*
G01X5567281Y-3023993D01*
G01X5586422Y-3036782D01*
G01X5609000Y-3041273D01*
G01X5631578Y-3036782D01*
G01X5650719Y-3023993D01*
G01X5659000Y-3011600D01*
G01X5667281Y-3023993D01*
G01X5686422Y-3036782D01*
G01X5709000Y-3041273D01*
G01X5731578Y-3036782D01*
G01X5750719Y-3023993D01*
G01X5759000Y-3011600D01*
G01X5767281Y-3023993D01*
G01X5786422Y-3036782D01*
G01X5809000Y-3041273D01*
G01X5831578Y-3036782D01*
G01X5850719Y-3023993D01*
G01X5859000Y-3011600D01*
G01X5867281Y-3023993D01*
G01X5886422Y-3036782D01*
G01X5909000Y-3041273D01*
G01X5931578Y-3036782D01*
G01X5950719Y-3023993D01*
G01X5959000Y-3011600D01*
G01X5967281Y-3023993D01*
G01X5986422Y-3036782D01*
G01X6009000Y-3041273D01*
G01X6031578Y-3036782D01*
G01X6050719Y-3023993D01*
G01X6063509Y-3004852D01*
G01X6068000Y-2982273D01*
G01X6068000Y-2967727D01*
G01X6063509Y-2945148D01*
G01X6050719Y-2926007D01*
G01X6031578Y-2913218D01*
G01X6009000Y-2908727D01*
G01X5986422Y-2913218D01*
G01X5967281Y-2926007D01*
G01X5959000Y-2938400D01*
G01X5950719Y-2926007D01*
G01X5931578Y-2913218D01*
G01X5909000Y-2908727D01*
G01X5886422Y-2913218D01*
G01X5867281Y-2926007D01*
G01X5859000Y-2938400D01*
G01X5850719Y-2926007D01*
G01X5831578Y-2913218D01*
G01X5809000Y-2908727D01*
G01X5786422Y-2913218D01*
G01X5767281Y-2926007D01*
G01X5759000Y-2938400D01*
G01X5750719Y-2926007D01*
G01X5731578Y-2913218D01*
G01X5709000Y-2908727D01*
G01X5686422Y-2913218D01*
G01X5667281Y-2926007D01*
G01X5659000Y-2938400D01*
G01X5650719Y-2926007D01*
G01X5631578Y-2913218D01*
G01X5609000Y-2908727D01*
G01X5586422Y-2913218D01*
G01X5567281Y-2926007D01*
G01X5559000Y-2938400D01*
G01X5550719Y-2926007D01*
G01X5531578Y-2913218D01*
G01X5509000Y-2908727D01*
G01X5486422Y-2913218D01*
G01X5467281Y-2926007D01*
G01X5459139Y-2938192D01*
G01X5444513Y-2921822D01*
G01X5423756Y-2911822D01*
G01X5423135Y-2911718D01*
G01X5414000Y-2916488D01*
G01X5404000Y-2916488D01*
G01X5394865Y-2911718D01*
G01X5394244Y-2911822D01*
G01X5373487Y-2921822D01*
G01X5358861Y-2938192D01*
G01X5350719Y-2926007D01*
G01X5331578Y-2913218D01*
G01X5309000Y-2908727D01*
G01X5286422Y-2913218D01*
G01X5267953Y-2925558D01*
G01X5267953Y-2907953D01*
G01X6732047Y-2907953D01*
G01X6732047Y-2922822D01*
G01X6732047Y-2922822D01*
G37*
G01X6732047Y-2922822D02*
G01X6727281Y-2926007D01*
G01X6727281Y-2926007D02*
G01X6719000Y-2938400D01*
G01X6719000Y-2938400D02*
G01X6710719Y-2926007D01*
G01X6710719Y-2926007D02*
G01X6691578Y-2913218D01*
G01X6691578Y-2913218D02*
G01X6669000Y-2908727D01*
G01X6669000Y-2908727D02*
G01X6646422Y-2913218D01*
G01X6646422Y-2913218D02*
G01X6627281Y-2926007D01*
G01X6627281Y-2926007D02*
G01X6619000Y-2938400D01*
G01X6619000Y-2938400D02*
G01X6610719Y-2926007D01*
G01X6610719Y-2926007D02*
G01X6591578Y-2913218D01*
G01X6591578Y-2913218D02*
G01X6569000Y-2908727D01*
G01X6569000Y-2908727D02*
G01X6546422Y-2913218D01*
G01X6546422Y-2913218D02*
G01X6527281Y-2926007D01*
G01X6527281Y-2926007D02*
G01X6519000Y-2938400D01*
G01X6519000Y-2938400D02*
G01X6510719Y-2926007D01*
G01X6510719Y-2926007D02*
G01X6491578Y-2913218D01*
G01X6491578Y-2913218D02*
G01X6469000Y-2908727D01*
G01X6469000Y-2908727D02*
G01X6446422Y-2913218D01*
G01X6446422Y-2913218D02*
G01X6427281Y-2926007D01*
G01X6427281Y-2926007D02*
G01X6419000Y-2938400D01*
G01X6419000Y-2938400D02*
G01X6410719Y-2926007D01*
G01X6410719Y-2926007D02*
G01X6391578Y-2913218D01*
G01X6391578Y-2913218D02*
G01X6369000Y-2908727D01*
G01X6369000Y-2908727D02*
G01X6346422Y-2913218D01*
G01X6346422Y-2913218D02*
G01X6327281Y-2926007D01*
G01X6327281Y-2926007D02*
G01X6319000Y-2938400D01*
G01X6319000Y-2938400D02*
G01X6310719Y-2926007D01*
G01X6310719Y-2926007D02*
G01X6291578Y-2913218D01*
G01X6291578Y-2913218D02*
G01X6269000Y-2908727D01*
G01X6269000Y-2908727D02*
G01X6246422Y-2913218D01*
G01X6246422Y-2913218D02*
G01X6227281Y-2926007D01*
G01X6227281Y-2926007D02*
G01X6219000Y-2938400D01*
G01X6219000Y-2938400D02*
G01X6210719Y-2926007D01*
G01X6210719Y-2926007D02*
G01X6191578Y-2913218D01*
G01X6191578Y-2913218D02*
G01X6169000Y-2908727D01*
G01X6169000Y-2908727D02*
G01X6146422Y-2913218D01*
G01X6146422Y-2913218D02*
G01X6127281Y-2926007D01*
G01X6127281Y-2926007D02*
G01X6114491Y-2945148D01*
G01X6114491Y-2945148D02*
G01X6110000Y-2967727D01*
G01X6110000Y-2967727D02*
G01X6110000Y-2982273D01*
G01X6110000Y-2982273D02*
G01X6114491Y-3004852D01*
G01X6114491Y-3004852D02*
G01X6127281Y-3023993D01*
G01X6127281Y-3023993D02*
G01X6146422Y-3036782D01*
G01X6146422Y-3036782D02*
G01X6169000Y-3041273D01*
G01X6169000Y-3041273D02*
G01X6191578Y-3036782D01*
G01X6191578Y-3036782D02*
G01X6210719Y-3023993D01*
G01X6210719Y-3023993D02*
G01X6219000Y-3011600D01*
G01X6219000Y-3011600D02*
G01X6227281Y-3023993D01*
G01X6227281Y-3023993D02*
G01X6246422Y-3036782D01*
G01X6246422Y-3036782D02*
G01X6269000Y-3041273D01*
G01X6269000Y-3041273D02*
G01X6291578Y-3036782D01*
G01X6291578Y-3036782D02*
G01X6310719Y-3023993D01*
G01X6310719Y-3023993D02*
G01X6319000Y-3011600D01*
G01X6319000Y-3011600D02*
G01X6327281Y-3023993D01*
G01X6327281Y-3023993D02*
G01X6346422Y-3036782D01*
G01X6346422Y-3036782D02*
G01X6369000Y-3041273D01*
G01X6369000Y-3041273D02*
G01X6391578Y-3036782D01*
G01X6391578Y-3036782D02*
G01X6410719Y-3023993D01*
G01X6410719Y-3023993D02*
G01X6419000Y-3011600D01*
G01X6419000Y-3011600D02*
G01X6427281Y-3023993D01*
G01X6427281Y-3023993D02*
G01X6446422Y-3036782D01*
G01X6446422Y-3036782D02*
G01X6469000Y-3041273D01*
G01X6469000Y-3041273D02*
G01X6491578Y-3036782D01*
G01X6491578Y-3036782D02*
G01X6510719Y-3023993D01*
G01X6510719Y-3023993D02*
G01X6519000Y-3011600D01*
G01X6519000Y-3011600D02*
G01X6527281Y-3023993D01*
G01X6527281Y-3023993D02*
G01X6546422Y-3036782D01*
G01X6546422Y-3036782D02*
G01X6569000Y-3041273D01*
G01X6569000Y-3041273D02*
G01X6591578Y-3036782D01*
G01X6591578Y-3036782D02*
G01X6610719Y-3023993D01*
G01X6610719Y-3023993D02*
G01X6619000Y-3011600D01*
G01X6619000Y-3011600D02*
G01X6627281Y-3023993D01*
G01X6627281Y-3023993D02*
G01X6646422Y-3036782D01*
G01X6646422Y-3036782D02*
G01X6669000Y-3041273D01*
G01X6669000Y-3041273D02*
G01X6691578Y-3036782D01*
G01X6691578Y-3036782D02*
G01X6710719Y-3023993D01*
G01X6710719Y-3023993D02*
G01X6719000Y-3011600D01*
G01X6719000Y-3011600D02*
G01X6727281Y-3023993D01*
G01X6727281Y-3023993D02*
G01X6732047Y-3027178D01*
G01X6732047Y-3027178D02*
G01X6732047Y-4822822D01*
G01X6727281Y-4826007D02*
G01X6719000Y-4838400D01*
G01X6719000Y-4838400D02*
G01X6710719Y-4826007D01*
G01X6710719Y-4826007D02*
G01X6691578Y-4813218D01*
G01X6691578Y-4813218D02*
G01X6669000Y-4808727D01*
G01X6669000Y-4808727D02*
G01X6646422Y-4813218D01*
G01X6646422Y-4813218D02*
G01X6627281Y-4826007D01*
G01X6627281Y-4826007D02*
G01X6619000Y-4838400D01*
G01X6619000Y-4838400D02*
G01X6610719Y-4826007D01*
G01X6610719Y-4826007D02*
G01X6591578Y-4813218D01*
G01X6591578Y-4813218D02*
G01X6569000Y-4808727D01*
G01X6569000Y-4808727D02*
G01X6546422Y-4813218D01*
G01X6546422Y-4813218D02*
G01X6527281Y-4826007D01*
G01X6527281Y-4826007D02*
G01X6519000Y-4838400D01*
G01X6519000Y-4838400D02*
G01X6510719Y-4826007D01*
G01X6510719Y-4826007D02*
G01X6491578Y-4813218D01*
G01X6491578Y-4813218D02*
G01X6469000Y-4808727D01*
G01X6469000Y-4808727D02*
G01X6446422Y-4813218D01*
G01X6446422Y-4813218D02*
G01X6427281Y-4826007D01*
G01X6427281Y-4826007D02*
G01X6419000Y-4838400D01*
G01X6419000Y-4838400D02*
G01X6410719Y-4826007D01*
G01X6410719Y-4826007D02*
G01X6391578Y-4813218D01*
G01X6391578Y-4813218D02*
G01X6369000Y-4808727D01*
G01X6369000Y-4808727D02*
G01X6346422Y-4813218D01*
G01X6346422Y-4813218D02*
G01X6327281Y-4826007D01*
G01X6327281Y-4826007D02*
G01X6314491Y-4845148D01*
G01X6314491Y-4845148D02*
G01X6310000Y-4867727D01*
G01X6310000Y-4867727D02*
G01X6310000Y-4882273D01*
G01X6310000Y-4882273D02*
G01X6314491Y-4904852D01*
G01X6314491Y-4904852D02*
G01X6327281Y-4923993D01*
G01X6327281Y-4923993D02*
G01X6346422Y-4936782D01*
G01X6346422Y-4936782D02*
G01X6369000Y-4941273D01*
G01X6369000Y-4941273D02*
G01X6391578Y-4936782D01*
G01X6391578Y-4936782D02*
G01X6410719Y-4923993D01*
G01X6410719Y-4923993D02*
G01X6419000Y-4911600D01*
G01X6419000Y-4911600D02*
G01X6427281Y-4923993D01*
G01X6427281Y-4923993D02*
G01X6446422Y-4936782D01*
G01X6446422Y-4936782D02*
G01X6469000Y-4941273D01*
G01X6469000Y-4941273D02*
G01X6491578Y-4936782D01*
G01X6491578Y-4936782D02*
G01X6510719Y-4923993D01*
G01X6510719Y-4923993D02*
G01X6519000Y-4911600D01*
G01X6519000Y-4911600D02*
G01X6527281Y-4923993D01*
G01X6527281Y-4923993D02*
G01X6546422Y-4936782D01*
G01X6546422Y-4936782D02*
G01X6569000Y-4941273D01*
G01X6569000Y-4941273D02*
G01X6591578Y-4936782D01*
G01X6591578Y-4936782D02*
G01X6610719Y-4923993D01*
G01X6610719Y-4923993D02*
G01X6619000Y-4911600D01*
G01X6619000Y-4911600D02*
G01X6627281Y-4923993D01*
G01X6627281Y-4923993D02*
G01X6646422Y-4936782D01*
G01X6646422Y-4936782D02*
G01X6669000Y-4941273D01*
G01X6669000Y-4941273D02*
G01X6691578Y-4936782D01*
G01X6691578Y-4936782D02*
G01X6710719Y-4923993D01*
G01X6710719Y-4923993D02*
G01X6719000Y-4911600D01*
G01X6719000Y-4911600D02*
G01X6727281Y-4923993D01*
G01X6732047Y-4952047D02*
G01X5267953Y-4952047D01*
G01X5267953Y-4952047D02*
G01X5267953Y-4867727D01*
G01X5267953Y-4867727D02*
G01X5409000Y-4867727D01*
G01X5409000Y-4867727D02*
G01X5409000Y-4882273D01*
G01X5409000Y-4882273D02*
G01X5413491Y-4904852D01*
G01X5413491Y-4904852D02*
G01X5426281Y-4923993D01*
G01X5426281Y-4923993D02*
G01X5445422Y-4936782D01*
G01X5445422Y-4936782D02*
G01X5468000Y-4941273D01*
G01X5468000Y-4941273D02*
G01X5490578Y-4936782D01*
G01X5490578Y-4936782D02*
G01X5509719Y-4923993D01*
G01X5509719Y-4923993D02*
G01X5518000Y-4911600D01*
G01X5518000Y-4911600D02*
G01X5526281Y-4923993D01*
G01X5526281Y-4923993D02*
G01X5545422Y-4936782D01*
G01X5545422Y-4936782D02*
G01X5568000Y-4941273D01*
G01X5568000Y-4941273D02*
G01X5590578Y-4936782D01*
G01X5590578Y-4936782D02*
G01X5609719Y-4923993D01*
G01X5609719Y-4923993D02*
G01X5618000Y-4911600D01*
G01X5618000Y-4911600D02*
G01X5626281Y-4923993D01*
G01X5626281Y-4923993D02*
G01X5645422Y-4936782D01*
G01X5645422Y-4936782D02*
G01X5668000Y-4941273D01*
G01X5668000Y-4941273D02*
G01X5690578Y-4936782D01*
G01X5690578Y-4936782D02*
G01X5709719Y-4923993D01*
G01X5709719Y-4923993D02*
G01X5718000Y-4911600D01*
G01X5718000Y-4911600D02*
G01X5726281Y-4923993D01*
G01X5726281Y-4923993D02*
G01X5745422Y-4936782D01*
G01X5745422Y-4936782D02*
G01X5768000Y-4941273D01*
G01X5768000Y-4941273D02*
G01X5790578Y-4936782D01*
G01X5790578Y-4936782D02*
G01X5809719Y-4923993D01*
G01X5809719Y-4923993D02*
G01X5818000Y-4911600D01*
G01X5818000Y-4911600D02*
G01X5826281Y-4923993D01*
G01X5826281Y-4923993D02*
G01X5845422Y-4936782D01*
G01X5845422Y-4936782D02*
G01X5868000Y-4941273D01*
G01X5868000Y-4941273D02*
G01X5890578Y-4936782D01*
G01X5890578Y-4936782D02*
G01X5909719Y-4923993D01*
G01X5909719Y-4923993D02*
G01X5917861Y-4911808D01*
G01X5917861Y-4911808D02*
G01X5932487Y-4928178D01*
G01X5932487Y-4928178D02*
G01X5953244Y-4938178D01*
G01X5953244Y-4938178D02*
G01X5953865Y-4938282D01*
G01X5953865Y-4938282D02*
G01X5963000Y-4933512D01*
G01X5963000Y-4933512D02*
G01X5963000Y-4880000D01*
G01X5963000Y-4880000D02*
G01X5973000Y-4880000D01*
G01X5973000Y-4880000D02*
G01X5973000Y-4933512D01*
G01X5973000Y-4933512D02*
G01X5982135Y-4938282D01*
G01X5982135Y-4938282D02*
G01X5982756Y-4938178D01*
G01X5982756Y-4938178D02*
G01X6003513Y-4928178D01*
G01X6003513Y-4928178D02*
G01X6018000Y-4911964D01*
G01X6018000Y-4911964D02*
G01X6032487Y-4928178D01*
G01X6032487Y-4928178D02*
G01X6053244Y-4938178D01*
G01X6053244Y-4938178D02*
G01X6053865Y-4938282D01*
G01X6053865Y-4938282D02*
G01X6063000Y-4933512D01*
G01X6063000Y-4933512D02*
G01X6063000Y-4880000D01*
G01X6063000Y-4880000D02*
G01X5973000Y-4880000D01*
G01X5973000Y-4880000D02*
G01X5963000Y-4880000D01*
G01X5963000Y-4880000D02*
G01X5962213Y-4880000D01*
G01X5962213Y-4880000D02*
G01X5962213Y-4870000D01*
G01X5962213Y-4870000D02*
G01X5963000Y-4870000D01*
G01X5963000Y-4870000D02*
G01X5963000Y-4816488D01*
G01X5963000Y-4816488D02*
G01X5973000Y-4816488D01*
G01X5973000Y-4816488D02*
G01X5973000Y-4870000D01*
G01X5973000Y-4870000D02*
G01X6063000Y-4870000D01*
G01X6063000Y-4870000D02*
G01X6063000Y-4816488D01*
G01X6063000Y-4816488D02*
G01X6073000Y-4816488D01*
G01X6073000Y-4816488D02*
G01X6073000Y-4870000D01*
G01X6073000Y-4870000D02*
G01X6073787Y-4870000D01*
G01X6073787Y-4870000D02*
G01X6073787Y-4880000D01*
G01X6073787Y-4880000D02*
G01X6073000Y-4880000D01*
G01X6073000Y-4880000D02*
G01X6073000Y-4933512D01*
G01X6073000Y-4933512D02*
G01X6082135Y-4938282D01*
G01X6082135Y-4938282D02*
G01X6082756Y-4938178D01*
G01X6082756Y-4938178D02*
G01X6103513Y-4928178D01*
G01X6103513Y-4928178D02*
G01X6118139Y-4911808D01*
G01X6118139Y-4911808D02*
G01X6126281Y-4923993D01*
G01X6126281Y-4923993D02*
G01X6145422Y-4936782D01*
G01X6145422Y-4936782D02*
G01X6168000Y-4941273D01*
G01X6168000Y-4941273D02*
G01X6190578Y-4936782D01*
G01X6190578Y-4936782D02*
G01X6209719Y-4923993D01*
G01X6209719Y-4923993D02*
G01X6222509Y-4904852D01*
G01X6222509Y-4904852D02*
G01X6227000Y-4882273D01*
G01X6227000Y-4882273D02*
G01X6227000Y-4867727D01*
G01X6227000Y-4867727D02*
G01X6222509Y-4845148D01*
G01X6222509Y-4845148D02*
G01X6209719Y-4826007D01*
G01X6209719Y-4826007D02*
G01X6190578Y-4813218D01*
G01X6190578Y-4813218D02*
G01X6168000Y-4808727D01*
G01X6168000Y-4808727D02*
G01X6145422Y-4813218D01*
G01X6145422Y-4813218D02*
G01X6126281Y-4826007D01*
G01X6126281Y-4826007D02*
G01X6118139Y-4838192D01*
G01X6118139Y-4838192D02*
G01X6103513Y-4821822D01*
G01X6103513Y-4821822D02*
G01X6082756Y-4811822D01*
G01X6082756Y-4811822D02*
G01X6082135Y-4811718D01*
G01X6082135Y-4811718D02*
G01X6073000Y-4816488D01*
G01X6073000Y-4816488D02*
G01X6063000Y-4816488D01*
G01X6063000Y-4816488D02*
G01X6053865Y-4811718D01*
G01X6053865Y-4811718D02*
G01X6053244Y-4811822D01*
G01X6053244Y-4811822D02*
G01X6032487Y-4821822D01*
G01X6032487Y-4821822D02*
G01X6018000Y-4838036D01*
G01X6018000Y-4838036D02*
G01X6003513Y-4821822D01*
G01X6003513Y-4821822D02*
G01X5982756Y-4811822D01*
G01X5982756Y-4811822D02*
G01X5982135Y-4811718D01*
G01X5982135Y-4811718D02*
G01X5973000Y-4816488D01*
G01X5973000Y-4816488D02*
G01X5963000Y-4816488D01*
G01X5963000Y-4816488D02*
G01X5953865Y-4811718D01*
G01X5953865Y-4811718D02*
G01X5953244Y-4811822D01*
G01X5953244Y-4811822D02*
G01X5932487Y-4821822D01*
G01X5932487Y-4821822D02*
G01X5917861Y-4838192D01*
G01X5917861Y-4838192D02*
G01X5909719Y-4826007D01*
G01X5909719Y-4826007D02*
G01X5890578Y-4813218D01*
G01X5890578Y-4813218D02*
G01X5868000Y-4808727D01*
G01X5868000Y-4808727D02*
G01X5845422Y-4813218D01*
G01X5845422Y-4813218D02*
G01X5826281Y-4826007D01*
G01X5826281Y-4826007D02*
G01X5818000Y-4838400D01*
G01X5818000Y-4838400D02*
G01X5809719Y-4826007D01*
G01X5809719Y-4826007D02*
G01X5790578Y-4813218D01*
G01X5790578Y-4813218D02*
G01X5768000Y-4808727D01*
G01X5768000Y-4808727D02*
G01X5745422Y-4813218D01*
G01X5745422Y-4813218D02*
G01X5726281Y-4826007D01*
G01X5726281Y-4826007D02*
G01X5718000Y-4838400D01*
G01X5718000Y-4838400D02*
G01X5709719Y-4826007D01*
G01X5709719Y-4826007D02*
G01X5690578Y-4813218D01*
G01X5690578Y-4813218D02*
G01X5668000Y-4808727D01*
G01X5668000Y-4808727D02*
G01X5645422Y-4813218D01*
G01X5645422Y-4813218D02*
G01X5626281Y-4826007D01*
G01X5626281Y-4826007D02*
G01X5618000Y-4838400D01*
G01X5618000Y-4838400D02*
G01X5609719Y-4826007D01*
G01X5609719Y-4826007D02*
G01X5590578Y-4813218D01*
G01X5590578Y-4813218D02*
G01X5568000Y-4808727D01*
G01X5568000Y-4808727D02*
G01X5545422Y-4813218D01*
G01X5545422Y-4813218D02*
G01X5526281Y-4826007D01*
G01X5526281Y-4826007D02*
G01X5518000Y-4838400D01*
G01X5518000Y-4838400D02*
G01X5509719Y-4826007D01*
G01X5509719Y-4826007D02*
G01X5490578Y-4813218D01*
G01X5490578Y-4813218D02*
G01X5468000Y-4808727D01*
G01X5468000Y-4808727D02*
G01X5445422Y-4813218D01*
G01X5445422Y-4813218D02*
G01X5426281Y-4826007D01*
G01X5426281Y-4826007D02*
G01X5413491Y-4845148D01*
G01X5413491Y-4845148D02*
G01X5409000Y-4867727D01*
G01X5409000Y-4867727D02*
G01X5267953Y-4867727D01*
G01X5267953Y-4867727D02*
G01X5267953Y-4354135D01*
G01X5267953Y-4354135D02*
G01X5471718Y-4354135D01*
G01X5471718Y-4354135D02*
G01X5471822Y-4354756D01*
G01X5471822Y-4354756D02*
G01X5481822Y-4375513D01*
G01X5481822Y-4375513D02*
G01X5499003Y-4390864D01*
G01X5499003Y-4390864D02*
G01X5520751Y-4398472D01*
G01X5520751Y-4398472D02*
G01X5530000Y-4392792D01*
G01X5530000Y-4392792D02*
G01X5530000Y-4345000D01*
G01X5530000Y-4345000D02*
G01X5540000Y-4345000D01*
G01X5540000Y-4345000D02*
G01X5540000Y-4392792D01*
G01X5540000Y-4392792D02*
G01X5549249Y-4398472D01*
G01X5549249Y-4398472D02*
G01X5570997Y-4390864D01*
G01X5570997Y-4390864D02*
G01X5577157Y-4385361D01*
G01X5577157Y-4385361D02*
G01X5771710Y-4385361D01*
G01X5771710Y-4385361D02*
G01X5775592Y-4395865D01*
G01X5775592Y-4395865D02*
G01X5799590Y-4404780D01*
G01X5799590Y-4404780D02*
G01X5825172Y-4403832D01*
G01X5825172Y-4403832D02*
G01X5844408Y-4395865D01*
G01X5844408Y-4395865D02*
G01X5848290Y-4385361D01*
G01X5848290Y-4385361D02*
G01X5810000Y-4347071D01*
G01X5810000Y-4347071D02*
G01X5771710Y-4385361D01*
G01X5771710Y-4385361D02*
G01X5577157Y-4385361D01*
G01X5577157Y-4385361D02*
G01X5588178Y-4375513D01*
G01X5588178Y-4375513D02*
G01X5598178Y-4354756D01*
G01X5598178Y-4354756D02*
G01X5598282Y-4354135D01*
G01X5598282Y-4354135D02*
G01X5593512Y-4345000D01*
G01X5593512Y-4345000D02*
G01X5540000Y-4345000D01*
G01X5540000Y-4345000D02*
G01X5530000Y-4345000D01*
G01X5530000Y-4345000D02*
G01X5476488Y-4345000D01*
G01X5476488Y-4345000D02*
G01X5471718Y-4354135D01*
G01X5471718Y-4354135D02*
G01X5267953Y-4354135D01*
G01X5267953Y-4354135D02*
G01X5267953Y-3024442D01*
G01X5267953Y-3024442D02*
G01X5274000Y-3028482D01*
G01X5274000Y-3028482D02*
G01X5274000Y-3514000D01*
G01X5274000Y-3514000D02*
G01X5276664Y-3527394D01*
G01X5276664Y-3527394D02*
G01X5282156Y-3535613D01*
G01X5282156Y-3535613D02*
G01X5284251Y-3538749D01*
G01X5284251Y-3538749D02*
G01X5400000Y-3654497D01*
G01X5400000Y-3654497D02*
G01X5400000Y-4200000D01*
G01X5400000Y-4200000D02*
G01X5402664Y-4213394D01*
G01X5402664Y-4213394D02*
G01X5410251Y-4224749D01*
G01X5410251Y-4224749D02*
G01X5450251Y-4264749D01*
G01X5450251Y-4264749D02*
G01X5461606Y-4272336D01*
G01X5461606Y-4272336D02*
G01X5475000Y-4275000D01*
G01X5475000Y-4275000D02*
G01X5481518Y-4275000D01*
G01X5481518Y-4275000D02*
G01X5486007Y-4281719D01*
G01X5486007Y-4281719D02*
G01X5498192Y-4289861D01*
G01X5498192Y-4289861D02*
G01X5481822Y-4304487D01*
G01X5481822Y-4304487D02*
G01X5471822Y-4325244D01*
G01X5471822Y-4325244D02*
G01X5471718Y-4325865D01*
G01X5471718Y-4325865D02*
G01X5476488Y-4335000D01*
G01X5476488Y-4335000D02*
G01X5530000Y-4335000D01*
G01X5530000Y-4335000D02*
G01X5530000Y-4334213D01*
G01X5530000Y-4334213D02*
G01X5540000Y-4334213D01*
G01X5540000Y-4334213D02*
G01X5540000Y-4335000D01*
G01X5540000Y-4335000D02*
G01X5593512Y-4335000D01*
G01X5593512Y-4335000D02*
G01X5596337Y-4329590D01*
G01X5596337Y-4329590D02*
G01X5745220Y-4329590D01*
G01X5745220Y-4329590D02*
G01X5746168Y-4355172D01*
G01X5746168Y-4355172D02*
G01X5754135Y-4374408D01*
G01X5754135Y-4374408D02*
G01X5764639Y-4378290D01*
G01X5764639Y-4378290D02*
G01X5802929Y-4340000D01*
G01X5802929Y-4340000D02*
G01X5817071Y-4340000D01*
G01X5817071Y-4340000D02*
G01X5855361Y-4378290D01*
G01X5855361Y-4378290D02*
G01X5865865Y-4374408D01*
G01X5865865Y-4374408D02*
G01X5873913Y-4352744D01*
G01X5873913Y-4352744D02*
G01X6045639Y-4352744D01*
G01X6045639Y-4352744D02*
G01X6055415Y-4376404D01*
G01X6055415Y-4376404D02*
G01X6073501Y-4394521D01*
G01X6073501Y-4394521D02*
G01X6097144Y-4404339D01*
G01X6097144Y-4404339D02*
G01X6122744Y-4404361D01*
G01X6122744Y-4404361D02*
G01X6146404Y-4394585D01*
G01X6146404Y-4394585D02*
G01X6164521Y-4376499D01*
G01X6164521Y-4376499D02*
G01X6174339Y-4352856D01*
G01X6174339Y-4352856D02*
G01X6174361Y-4327256D01*
G01X6174361Y-4327256D02*
G01X6164585Y-4303596D01*
G01X6164585Y-4303596D02*
G01X6146499Y-4285479D01*
G01X6146499Y-4285479D02*
G01X6122856Y-4275661D01*
G01X6122856Y-4275661D02*
G01X6097256Y-4275639D01*
G01X6097256Y-4275639D02*
G01X6073596Y-4285415D01*
G01X6073596Y-4285415D02*
G01X6055479Y-4303501D01*
G01X6055479Y-4303501D02*
G01X6045661Y-4327144D01*
G01X6045661Y-4327144D02*
G01X6045639Y-4352744D01*
G01X6045639Y-4352744D02*
G01X5873913Y-4352744D01*
G01X5873913Y-4352744D02*
G01X5874780Y-4350410D01*
G01X5874780Y-4350410D02*
G01X5873832Y-4324828D01*
G01X5873832Y-4324828D02*
G01X5865865Y-4305592D01*
G01X5865865Y-4305592D02*
G01X5855361Y-4301710D01*
G01X5855361Y-4301710D02*
G01X5817071Y-4340000D01*
G01X5817071Y-4340000D02*
G01X5802929Y-4340000D01*
G01X5802929Y-4340000D02*
G01X5764639Y-4301710D01*
G01X5764639Y-4301710D02*
G01X5754135Y-4305592D01*
G01X5754135Y-4305592D02*
G01X5745220Y-4329590D01*
G01X5745220Y-4329590D02*
G01X5596337Y-4329590D01*
G01X5596337Y-4329590D02*
G01X5598282Y-4325865D01*
G01X5598282Y-4325865D02*
G01X5598178Y-4325244D01*
G01X5598178Y-4325244D02*
G01X5588178Y-4304487D01*
G01X5588178Y-4304487D02*
G01X5577157Y-4294639D01*
G01X5577157Y-4294639D02*
G01X5771710Y-4294639D01*
G01X5771710Y-4294639D02*
G01X5810000Y-4332929D01*
G01X5810000Y-4332929D02*
G01X5848290Y-4294639D01*
G01X5848290Y-4294639D02*
G01X5844408Y-4284135D01*
G01X5844408Y-4284135D02*
G01X5820410Y-4275220D01*
G01X5820410Y-4275220D02*
G01X5794828Y-4276168D01*
G01X5794828Y-4276168D02*
G01X5775592Y-4284135D01*
G01X5775592Y-4284135D02*
G01X5771710Y-4294639D01*
G01X5771710Y-4294639D02*
G01X5577157Y-4294639D01*
G01X5577157Y-4294639D02*
G01X5571808Y-4289861D01*
G01X5571808Y-4289861D02*
G01X5583993Y-4281719D01*
G01X5583993Y-4281719D02*
G01X5596782Y-4262578D01*
G01X5596782Y-4262578D02*
G01X5601273Y-4240000D01*
G01X5601273Y-4240000D02*
G01X5596782Y-4217422D01*
G01X5596782Y-4217422D02*
G01X5583993Y-4198281D01*
G01X5583993Y-4198281D02*
G01X5583429Y-4197904D01*
G01X5583429Y-4197904D02*
G01X5584264Y-4197747D01*
G01X5584264Y-4197747D02*
G01X5592773Y-4192271D01*
G01X5592773Y-4192271D02*
G01X5598482Y-4183917D01*
G01X5598482Y-4183917D02*
G01X5600490Y-4174000D01*
G01X5600490Y-4174000D02*
G01X5600490Y-4106000D01*
G01X5600490Y-4106000D02*
G01X5598747Y-4096736D01*
G01X5598747Y-4096736D02*
G01X5593271Y-4088227D01*
G01X5593271Y-4088227D02*
G01X5589077Y-4085361D01*
G01X5589077Y-4085361D02*
G01X5771710Y-4085361D01*
G01X5771710Y-4085361D02*
G01X5775592Y-4095865D01*
G01X5775592Y-4095865D02*
G01X5799590Y-4104780D01*
G01X5799590Y-4104780D02*
G01X5825172Y-4103832D01*
G01X5825172Y-4103832D02*
G01X5844408Y-4095865D01*
G01X5844408Y-4095865D02*
G01X5848290Y-4085361D01*
G01X5848290Y-4085361D02*
G01X5810000Y-4047071D01*
G01X5810000Y-4047071D02*
G01X5771710Y-4085361D01*
G01X5771710Y-4085361D02*
G01X5589077Y-4085361D01*
G01X5589077Y-4085361D02*
G01X5584917Y-4082518D01*
G01X5584917Y-4082518D02*
G01X5575000Y-4080510D01*
G01X5575000Y-4080510D02*
G01X5495000Y-4080510D01*
G01X5495000Y-4080510D02*
G01X5485736Y-4082253D01*
G01X5485736Y-4082253D02*
G01X5477227Y-4087729D01*
G01X5477227Y-4087729D02*
G01X5471518Y-4096083D01*
G01X5471518Y-4096083D02*
G01X5470000Y-4103581D01*
G01X5470000Y-4103581D02*
G01X5470000Y-4029590D01*
G01X5470000Y-4029590D02*
G01X5745220Y-4029590D01*
G01X5745220Y-4029590D02*
G01X5746168Y-4055172D01*
G01X5746168Y-4055172D02*
G01X5754135Y-4074408D01*
G01X5754135Y-4074408D02*
G01X5764639Y-4078290D01*
G01X5764639Y-4078290D02*
G01X5802929Y-4040000D01*
G01X5802929Y-4040000D02*
G01X5817071Y-4040000D01*
G01X5817071Y-4040000D02*
G01X5855361Y-4078290D01*
G01X5855361Y-4078290D02*
G01X5865865Y-4074408D01*
G01X5865865Y-4074408D02*
G01X5873913Y-4052744D01*
G01X5873913Y-4052744D02*
G01X6045639Y-4052744D01*
G01X6045639Y-4052744D02*
G01X6055415Y-4076404D01*
G01X6055415Y-4076404D02*
G01X6073501Y-4094521D01*
G01X6073501Y-4094521D02*
G01X6097144Y-4104339D01*
G01X6097144Y-4104339D02*
G01X6122744Y-4104361D01*
G01X6122744Y-4104361D02*
G01X6146404Y-4094585D01*
G01X6146404Y-4094585D02*
G01X6164521Y-4076499D01*
G01X6164521Y-4076499D02*
G01X6174339Y-4052856D01*
G01X6174339Y-4052856D02*
G01X6174361Y-4027256D01*
G01X6174361Y-4027256D02*
G01X6164585Y-4003596D01*
G01X6164585Y-4003596D02*
G01X6146499Y-3985479D01*
G01X6146499Y-3985479D02*
G01X6122856Y-3975661D01*
G01X6122856Y-3975661D02*
G01X6097256Y-3975639D01*
G01X6097256Y-3975639D02*
G01X6073596Y-3985415D01*
G01X6073596Y-3985415D02*
G01X6055479Y-4003501D01*
G01X6055479Y-4003501D02*
G01X6045661Y-4027144D01*
G01X6045661Y-4027144D02*
G01X6045639Y-4052744D01*
G01X6045639Y-4052744D02*
G01X5873913Y-4052744D01*
G01X5873913Y-4052744D02*
G01X5874780Y-4050410D01*
G01X5874780Y-4050410D02*
G01X5873832Y-4024828D01*
G01X5873832Y-4024828D02*
G01X5865865Y-4005592D01*
G01X5865865Y-4005592D02*
G01X5855361Y-4001710D01*
G01X5855361Y-4001710D02*
G01X5817071Y-4040000D01*
G01X5817071Y-4040000D02*
G01X5802929Y-4040000D01*
G01X5802929Y-4040000D02*
G01X5764639Y-4001710D01*
G01X5764639Y-4001710D02*
G01X5754135Y-4005592D01*
G01X5754135Y-4005592D02*
G01X5745220Y-4029590D01*
G01X5745220Y-4029590D02*
G01X5470000Y-4029590D01*
G01X5470000Y-4029590D02*
G01X5470000Y-3994639D01*
G01X5470000Y-3994639D02*
G01X5771710Y-3994639D01*
G01X5771710Y-3994639D02*
G01X5810000Y-4032929D01*
G01X5810000Y-4032929D02*
G01X5848290Y-3994639D01*
G01X5848290Y-3994639D02*
G01X5844408Y-3984135D01*
G01X5844408Y-3984135D02*
G01X5820410Y-3975220D01*
G01X5820410Y-3975220D02*
G01X5794828Y-3976168D01*
G01X5794828Y-3976168D02*
G01X5775592Y-3984135D01*
G01X5775592Y-3984135D02*
G01X5771710Y-3994639D01*
G01X5771710Y-3994639D02*
G01X5470000Y-3994639D01*
G01X5470000Y-3994639D02*
G01X5470000Y-3754135D01*
G01X5470000Y-3754135D02*
G01X5471718Y-3754135D01*
G01X5471718Y-3754135D02*
G01X5471822Y-3754756D01*
G01X5471822Y-3754756D02*
G01X5481822Y-3775513D01*
G01X5481822Y-3775513D02*
G01X5499003Y-3790864D01*
G01X5499003Y-3790864D02*
G01X5520751Y-3798472D01*
G01X5520751Y-3798472D02*
G01X5530000Y-3792792D01*
G01X5530000Y-3792792D02*
G01X5530000Y-3745000D01*
G01X5530000Y-3745000D02*
G01X5540000Y-3745000D01*
G01X5540000Y-3745000D02*
G01X5540000Y-3792792D01*
G01X5540000Y-3792792D02*
G01X5549249Y-3798472D01*
G01X5549249Y-3798472D02*
G01X5570997Y-3790864D01*
G01X5570997Y-3790864D02*
G01X5577157Y-3785361D01*
G01X5577157Y-3785361D02*
G01X5771710Y-3785361D01*
G01X5771710Y-3785361D02*
G01X5775592Y-3795865D01*
G01X5775592Y-3795865D02*
G01X5799590Y-3804780D01*
G01X5799590Y-3804780D02*
G01X5825172Y-3803832D01*
G01X5825172Y-3803832D02*
G01X5844408Y-3795865D01*
G01X5844408Y-3795865D02*
G01X5848290Y-3785361D01*
G01X5848290Y-3785361D02*
G01X5810000Y-3747071D01*
G01X5810000Y-3747071D02*
G01X5771710Y-3785361D01*
G01X5771710Y-3785361D02*
G01X5577157Y-3785361D01*
G01X5577157Y-3785361D02*
G01X5588178Y-3775513D01*
G01X5588178Y-3775513D02*
G01X5598178Y-3754756D01*
G01X5598178Y-3754756D02*
G01X5598282Y-3754135D01*
G01X5598282Y-3754135D02*
G01X5593512Y-3745000D01*
G01X5593512Y-3745000D02*
G01X5540000Y-3745000D01*
G01X5540000Y-3745000D02*
G01X5530000Y-3745000D01*
G01X5530000Y-3745000D02*
G01X5476488Y-3745000D01*
G01X5476488Y-3745000D02*
G01X5471718Y-3754135D01*
G01X5471718Y-3754135D02*
G01X5470000Y-3754135D01*
G01X5470000Y-3754135D02*
G01X5470000Y-3675000D01*
G01X5470000Y-3675000D02*
G01X5481518Y-3675000D01*
G01X5481518Y-3675000D02*
G01X5486007Y-3681719D01*
G01X5486007Y-3681719D02*
G01X5498192Y-3689861D01*
G01X5498192Y-3689861D02*
G01X5481822Y-3704487D01*
G01X5481822Y-3704487D02*
G01X5471822Y-3725244D01*
G01X5471822Y-3725244D02*
G01X5471718Y-3725865D01*
G01X5471718Y-3725865D02*
G01X5476488Y-3735000D01*
G01X5476488Y-3735000D02*
G01X5530000Y-3735000D01*
G01X5530000Y-3735000D02*
G01X5530000Y-3734213D01*
G01X5530000Y-3734213D02*
G01X5540000Y-3734213D01*
G01X5540000Y-3734213D02*
G01X5540000Y-3735000D01*
G01X5540000Y-3735000D02*
G01X5593512Y-3735000D01*
G01X5593512Y-3735000D02*
G01X5596337Y-3729590D01*
G01X5596337Y-3729590D02*
G01X5745220Y-3729590D01*
G01X5745220Y-3729590D02*
G01X5746168Y-3755172D01*
G01X5746168Y-3755172D02*
G01X5754135Y-3774408D01*
G01X5754135Y-3774408D02*
G01X5764639Y-3778290D01*
G01X5764639Y-3778290D02*
G01X5802929Y-3740000D01*
G01X5802929Y-3740000D02*
G01X5817071Y-3740000D01*
G01X5817071Y-3740000D02*
G01X5855361Y-3778290D01*
G01X5855361Y-3778290D02*
G01X5865865Y-3774408D01*
G01X5865865Y-3774408D02*
G01X5873913Y-3752744D01*
G01X5873913Y-3752744D02*
G01X6045639Y-3752744D01*
G01X6045639Y-3752744D02*
G01X6055415Y-3776404D01*
G01X6055415Y-3776404D02*
G01X6073501Y-3794521D01*
G01X6073501Y-3794521D02*
G01X6097144Y-3804339D01*
G01X6097144Y-3804339D02*
G01X6122744Y-3804361D01*
G01X6122744Y-3804361D02*
G01X6146404Y-3794585D01*
G01X6146404Y-3794585D02*
G01X6164521Y-3776499D01*
G01X6164521Y-3776499D02*
G01X6174339Y-3752856D01*
G01X6174339Y-3752856D02*
G01X6174350Y-3740000D01*
G01X6174350Y-3740000D02*
G01X6343727Y-3740000D01*
G01X6343727Y-3740000D02*
G01X6348674Y-3764874D01*
G01X6348674Y-3764874D02*
G01X6362765Y-3785962D01*
G01X6362765Y-3785962D02*
G01X6368808Y-3790000D01*
G01X6368808Y-3790000D02*
G01X6362765Y-3794038D01*
G01X6362765Y-3794038D02*
G01X6348674Y-3815126D01*
G01X6348674Y-3815126D02*
G01X6343727Y-3840000D01*
G01X6343727Y-3840000D02*
G01X6348674Y-3864874D01*
G01X6348674Y-3864874D02*
G01X6362765Y-3885962D01*
G01X6362765Y-3885962D02*
G01X6368808Y-3890000D01*
G01X6368808Y-3890000D02*
G01X6362765Y-3894038D01*
G01X6362765Y-3894038D02*
G01X6348674Y-3915126D01*
G01X6348674Y-3915126D02*
G01X6343727Y-3940000D01*
G01X6343727Y-3940000D02*
G01X6348674Y-3964874D01*
G01X6348674Y-3964874D02*
G01X6362765Y-3985962D01*
G01X6362765Y-3985962D02*
G01X6368808Y-3990000D01*
G01X6368808Y-3990000D02*
G01X6362765Y-3994038D01*
G01X6362765Y-3994038D02*
G01X6348674Y-4015126D01*
G01X6348674Y-4015126D02*
G01X6343727Y-4040000D01*
G01X6343727Y-4040000D02*
G01X6348674Y-4064874D01*
G01X6348674Y-4064874D02*
G01X6357618Y-4078260D01*
G01X6357618Y-4078260D02*
G01X6352227Y-4081729D01*
G01X6352227Y-4081729D02*
G01X6346518Y-4090083D01*
G01X6346518Y-4090083D02*
G01X6344510Y-4100000D01*
G01X6344510Y-4100000D02*
G01X6344510Y-4180000D01*
G01X6344510Y-4180000D02*
G01X6346253Y-4189264D01*
G01X6346253Y-4189264D02*
G01X6351729Y-4197773D01*
G01X6351729Y-4197773D02*
G01X6360083Y-4203482D01*
G01X6360083Y-4203482D02*
G01X6370000Y-4205490D01*
G01X6370000Y-4205490D02*
G01X6450000Y-4205490D01*
G01X6450000Y-4205490D02*
G01X6459264Y-4203747D01*
G01X6459264Y-4203747D02*
G01X6467773Y-4198271D01*
G01X6467773Y-4198271D02*
G01X6473482Y-4189917D01*
G01X6473482Y-4189917D02*
G01X6475490Y-4180000D01*
G01X6475490Y-4180000D02*
G01X6475490Y-4100000D01*
G01X6475490Y-4100000D02*
G01X6473747Y-4090736D01*
G01X6473747Y-4090736D02*
G01X6468271Y-4082227D01*
G01X6468271Y-4082227D02*
G01X6462408Y-4078221D01*
G01X6462408Y-4078221D02*
G01X6471326Y-4064874D01*
G01X6471326Y-4064874D02*
G01X6476273Y-4040000D01*
G01X6476273Y-4040000D02*
G01X6471326Y-4015126D01*
G01X6471326Y-4015126D02*
G01X6457235Y-3994038D01*
G01X6457235Y-3994038D02*
G01X6451192Y-3990000D01*
G01X6451192Y-3990000D02*
G01X6457235Y-3985962D01*
G01X6457235Y-3985962D02*
G01X6471326Y-3964874D01*
G01X6471326Y-3964874D02*
G01X6476273Y-3940000D01*
G01X6476273Y-3940000D02*
G01X6471326Y-3915126D01*
G01X6471326Y-3915126D02*
G01X6457235Y-3894038D01*
G01X6457235Y-3894038D02*
G01X6451192Y-3890000D01*
G01X6451192Y-3890000D02*
G01X6457235Y-3885962D01*
G01X6457235Y-3885962D02*
G01X6471326Y-3864874D01*
G01X6471326Y-3864874D02*
G01X6476273Y-3840000D01*
G01X6476273Y-3840000D02*
G01X6471326Y-3815126D01*
G01X6471326Y-3815126D02*
G01X6457235Y-3794038D01*
G01X6457235Y-3794038D02*
G01X6451192Y-3790000D01*
G01X6451192Y-3790000D02*
G01X6457235Y-3785962D01*
G01X6457235Y-3785962D02*
G01X6471326Y-3764874D01*
G01X6471326Y-3764874D02*
G01X6476273Y-3740000D01*
G01X6476273Y-3740000D02*
G01X6471326Y-3715126D01*
G01X6471326Y-3715126D02*
G01X6457235Y-3694038D01*
G01X6457235Y-3694038D02*
G01X6436148Y-3679948D01*
G01X6436148Y-3679948D02*
G01X6411273Y-3675000D01*
G01X6411273Y-3675000D02*
G01X6408727Y-3675000D01*
G01X6408727Y-3675000D02*
G01X6383852Y-3679948D01*
G01X6383852Y-3679948D02*
G01X6362765Y-3694038D01*
G01X6362765Y-3694038D02*
G01X6348674Y-3715126D01*
G01X6348674Y-3715126D02*
G01X6343727Y-3740000D01*
G01X6343727Y-3740000D02*
G01X6174350Y-3740000D01*
G01X6174350Y-3740000D02*
G01X6174361Y-3727256D01*
G01X6174361Y-3727256D02*
G01X6164585Y-3703596D01*
G01X6164585Y-3703596D02*
G01X6146499Y-3685479D01*
G01X6146499Y-3685479D02*
G01X6122856Y-3675661D01*
G01X6122856Y-3675661D02*
G01X6097256Y-3675639D01*
G01X6097256Y-3675639D02*
G01X6073596Y-3685415D01*
G01X6073596Y-3685415D02*
G01X6055479Y-3703501D01*
G01X6055479Y-3703501D02*
G01X6045661Y-3727144D01*
G01X6045661Y-3727144D02*
G01X6045639Y-3752744D01*
G01X6045639Y-3752744D02*
G01X5873913Y-3752744D01*
G01X5873913Y-3752744D02*
G01X5874780Y-3750410D01*
G01X5874780Y-3750410D02*
G01X5873832Y-3724828D01*
G01X5873832Y-3724828D02*
G01X5865865Y-3705592D01*
G01X5865865Y-3705592D02*
G01X5855361Y-3701710D01*
G01X5855361Y-3701710D02*
G01X5817071Y-3740000D01*
G01X5817071Y-3740000D02*
G01X5802929Y-3740000D01*
G01X5802929Y-3740000D02*
G01X5764639Y-3701710D01*
G01X5764639Y-3701710D02*
G01X5754135Y-3705592D01*
G01X5754135Y-3705592D02*
G01X5745220Y-3729590D01*
G01X5745220Y-3729590D02*
G01X5596337Y-3729590D01*
G01X5596337Y-3729590D02*
G01X5598282Y-3725865D01*
G01X5598282Y-3725865D02*
G01X5598178Y-3725244D01*
G01X5598178Y-3725244D02*
G01X5588178Y-3704487D01*
G01X5588178Y-3704487D02*
G01X5577157Y-3694639D01*
G01X5577157Y-3694639D02*
G01X5771710Y-3694639D01*
G01X5771710Y-3694639D02*
G01X5810000Y-3732929D01*
G01X5810000Y-3732929D02*
G01X5848290Y-3694639D01*
G01X5848290Y-3694639D02*
G01X5844408Y-3684135D01*
G01X5844408Y-3684135D02*
G01X5820410Y-3675220D01*
G01X5820410Y-3675220D02*
G01X5794828Y-3676168D01*
G01X5794828Y-3676168D02*
G01X5775592Y-3684135D01*
G01X5775592Y-3684135D02*
G01X5771710Y-3694639D01*
G01X5771710Y-3694639D02*
G01X5577157Y-3694639D01*
G01X5577157Y-3694639D02*
G01X5571808Y-3689861D01*
G01X5571808Y-3689861D02*
G01X5583993Y-3681719D01*
G01X5583993Y-3681719D02*
G01X5596782Y-3662578D01*
G01X5596782Y-3662578D02*
G01X5601273Y-3640000D01*
G01X5601273Y-3640000D02*
G01X5596782Y-3617422D01*
G01X5596782Y-3617422D02*
G01X5583993Y-3598281D01*
G01X5583993Y-3598281D02*
G01X5583429Y-3597904D01*
G01X5583429Y-3597904D02*
G01X5584264Y-3597747D01*
G01X5584264Y-3597747D02*
G01X5592773Y-3592271D01*
G01X5592773Y-3592271D02*
G01X5598482Y-3583917D01*
G01X5598482Y-3583917D02*
G01X5600490Y-3574000D01*
G01X5600490Y-3574000D02*
G01X5600490Y-3506000D01*
G01X5600490Y-3506000D02*
G01X5598747Y-3496736D01*
G01X5598747Y-3496736D02*
G01X5593271Y-3488227D01*
G01X5593271Y-3488227D02*
G01X5589077Y-3485361D01*
G01X5589077Y-3485361D02*
G01X5771710Y-3485361D01*
G01X5771710Y-3485361D02*
G01X5775592Y-3495865D01*
G01X5775592Y-3495865D02*
G01X5799590Y-3504780D01*
G01X5799590Y-3504780D02*
G01X5825172Y-3503832D01*
G01X5825172Y-3503832D02*
G01X5844408Y-3495865D01*
G01X5844408Y-3495865D02*
G01X5848290Y-3485361D01*
G01X5848290Y-3485361D02*
G01X5810000Y-3447071D01*
G01X5810000Y-3447071D02*
G01X5771710Y-3485361D01*
G01X5771710Y-3485361D02*
G01X5589077Y-3485361D01*
G01X5589077Y-3485361D02*
G01X5584917Y-3482518D01*
G01X5584917Y-3482518D02*
G01X5575000Y-3480510D01*
G01X5575000Y-3480510D02*
G01X5495000Y-3480510D01*
G01X5495000Y-3480510D02*
G01X5485736Y-3482253D01*
G01X5485736Y-3482253D02*
G01X5477227Y-3487729D01*
G01X5477227Y-3487729D02*
G01X5471518Y-3496083D01*
G01X5471518Y-3496083D02*
G01X5469510Y-3506000D01*
G01X5469510Y-3506000D02*
G01X5469510Y-3574000D01*
G01X5469510Y-3574000D02*
G01X5471253Y-3583264D01*
G01X5471253Y-3583264D02*
G01X5476729Y-3591773D01*
G01X5476729Y-3591773D02*
G01X5485083Y-3597482D01*
G01X5485083Y-3597482D02*
G01X5486710Y-3597811D01*
G01X5486710Y-3597811D02*
G01X5486007Y-3598281D01*
G01X5486007Y-3598281D02*
G01X5481518Y-3605000D01*
G01X5481518Y-3605000D02*
G01X5449497Y-3605000D01*
G01X5449497Y-3605000D02*
G01X5344000Y-3499503D01*
G01X5344000Y-3499503D02*
G01X5344000Y-3429590D01*
G01X5344000Y-3429590D02*
G01X5745220Y-3429590D01*
G01X5745220Y-3429590D02*
G01X5746168Y-3455172D01*
G01X5746168Y-3455172D02*
G01X5754135Y-3474408D01*
G01X5754135Y-3474408D02*
G01X5764639Y-3478290D01*
G01X5764639Y-3478290D02*
G01X5802929Y-3440000D01*
G01X5802929Y-3440000D02*
G01X5817071Y-3440000D01*
G01X5817071Y-3440000D02*
G01X5855361Y-3478290D01*
G01X5855361Y-3478290D02*
G01X5865865Y-3474408D01*
G01X5865865Y-3474408D02*
G01X5873913Y-3452744D01*
G01X5873913Y-3452744D02*
G01X6045639Y-3452744D01*
G01X6045639Y-3452744D02*
G01X6055415Y-3476404D01*
G01X6055415Y-3476404D02*
G01X6073501Y-3494521D01*
G01X6073501Y-3494521D02*
G01X6097144Y-3504339D01*
G01X6097144Y-3504339D02*
G01X6122744Y-3504361D01*
G01X6122744Y-3504361D02*
G01X6146404Y-3494585D01*
G01X6146404Y-3494585D02*
G01X6164521Y-3476499D01*
G01X6164521Y-3476499D02*
G01X6174339Y-3452856D01*
G01X6174339Y-3452856D02*
G01X6174361Y-3427256D01*
G01X6174361Y-3427256D02*
G01X6164585Y-3403596D01*
G01X6164585Y-3403596D02*
G01X6146499Y-3385479D01*
G01X6146499Y-3385479D02*
G01X6122856Y-3375661D01*
G01X6122856Y-3375661D02*
G01X6097256Y-3375639D01*
G01X6097256Y-3375639D02*
G01X6073596Y-3385415D01*
G01X6073596Y-3385415D02*
G01X6055479Y-3403501D01*
G01X6055479Y-3403501D02*
G01X6045661Y-3427144D01*
G01X6045661Y-3427144D02*
G01X6045639Y-3452744D01*
G01X6045639Y-3452744D02*
G01X5873913Y-3452744D01*
G01X5873913Y-3452744D02*
G01X5874780Y-3450410D01*
G01X5874780Y-3450410D02*
G01X5873832Y-3424828D01*
G01X5873832Y-3424828D02*
G01X5865865Y-3405592D01*
G01X5865865Y-3405592D02*
G01X5855361Y-3401710D01*
G01X5855361Y-3401710D02*
G01X5817071Y-3440000D01*
G01X5817071Y-3440000D02*
G01X5802929Y-3440000D01*
G01X5802929Y-3440000D02*
G01X5764639Y-3401710D01*
G01X5764639Y-3401710D02*
G01X5754135Y-3405592D01*
G01X5754135Y-3405592D02*
G01X5745220Y-3429590D01*
G01X5745220Y-3429590D02*
G01X5344000Y-3429590D01*
G01X5344000Y-3429590D02*
G01X5344000Y-3394639D01*
G01X5344000Y-3394639D02*
G01X5771710Y-3394639D01*
G01X5771710Y-3394639D02*
G01X5810000Y-3432929D01*
G01X5810000Y-3432929D02*
G01X5848290Y-3394639D01*
G01X5848290Y-3394639D02*
G01X5844408Y-3384135D01*
G01X5844408Y-3384135D02*
G01X5820410Y-3375220D01*
G01X5820410Y-3375220D02*
G01X5794828Y-3376168D01*
G01X5794828Y-3376168D02*
G01X5775592Y-3384135D01*
G01X5775592Y-3384135D02*
G01X5771710Y-3394639D01*
G01X5771710Y-3394639D02*
G01X5344000Y-3394639D01*
G01X5344000Y-3394639D02*
G01X5344000Y-3028482D01*
G01X5344000Y-3028482D02*
G01X5350719Y-3023993D01*
G01X5350719Y-3023993D02*
G01X5358861Y-3011808D01*
G01X5358861Y-3011808D02*
G01X5373487Y-3028178D01*
G01X5373487Y-3028178D02*
G01X5394244Y-3038178D01*
G01X5394244Y-3038178D02*
G01X5394865Y-3038282D01*
G01X5394865Y-3038282D02*
G01X5404000Y-3033512D01*
G01X5404000Y-3033512D02*
G01X5404000Y-2980000D01*
G01X5404000Y-2980000D02*
G01X5403213Y-2980000D01*
G01X5403213Y-2980000D02*
G01X5403213Y-2970000D01*
G01X5403213Y-2970000D02*
G01X5404000Y-2970000D01*
G01X5404000Y-2970000D02*
G01X5404000Y-2916488D01*
G01X5404000Y-2916488D02*
G01X5414000Y-2916488D01*
G01X5414000Y-2916488D02*
G01X5414000Y-2970000D01*
G01X5414000Y-2970000D02*
G01X5414787Y-2970000D01*
G01X5414787Y-2970000D02*
G01X5414787Y-2980000D01*
G01X5414787Y-2980000D02*
G01X5414000Y-2980000D01*
G01X5414000Y-2980000D02*
G01X5414000Y-3033512D01*
G01X5414000Y-3033512D02*
G01X5423135Y-3038282D01*
G01X5423135Y-3038282D02*
G01X5423756Y-3038178D01*
G01X5423756Y-3038178D02*
G01X5444513Y-3028178D01*
G01X5444513Y-3028178D02*
G01X5459139Y-3011808D01*
G01X5459139Y-3011808D02*
G01X5467281Y-3023993D01*
G01X5467281Y-3023993D02*
G01X5486422Y-3036782D01*
G01X5486422Y-3036782D02*
G01X5509000Y-3041273D01*
G01X5509000Y-3041273D02*
G01X5531578Y-3036782D01*
G01X5531578Y-3036782D02*
G01X5550719Y-3023993D01*
G01X5550719Y-3023993D02*
G01X5559000Y-3011600D01*
G01X5559000Y-3011600D02*
G01X5567281Y-3023993D01*
G01X5567281Y-3023993D02*
G01X5586422Y-3036782D01*
G01X5586422Y-3036782D02*
G01X5609000Y-3041273D01*
G01X5609000Y-3041273D02*
G01X5631578Y-3036782D01*
G01X5631578Y-3036782D02*
G01X5650719Y-3023993D01*
G01X5650719Y-3023993D02*
G01X5659000Y-3011600D01*
G01X5659000Y-3011600D02*
G01X5667281Y-3023993D01*
G01X5667281Y-3023993D02*
G01X5686422Y-3036782D01*
G01X5686422Y-3036782D02*
G01X5709000Y-3041273D01*
G01X5709000Y-3041273D02*
G01X5731578Y-3036782D01*
G01X5731578Y-3036782D02*
G01X5750719Y-3023993D01*
G01X5750719Y-3023993D02*
G01X5759000Y-3011600D01*
G01X5759000Y-3011600D02*
G01X5767281Y-3023993D01*
G01X5767281Y-3023993D02*
G01X5786422Y-3036782D01*
G01X5786422Y-3036782D02*
G01X5809000Y-3041273D01*
G01X5809000Y-3041273D02*
G01X5831578Y-3036782D01*
G01X5831578Y-3036782D02*
G01X5850719Y-3023993D01*
G01X5850719Y-3023993D02*
G01X5859000Y-3011600D01*
G01X5859000Y-3011600D02*
G01X5867281Y-3023993D01*
G01X5867281Y-3023993D02*
G01X5886422Y-3036782D01*
G01X5886422Y-3036782D02*
G01X5909000Y-3041273D01*
G01X5909000Y-3041273D02*
G01X5931578Y-3036782D01*
G01X5931578Y-3036782D02*
G01X5950719Y-3023993D01*
G01X5950719Y-3023993D02*
G01X5959000Y-3011600D01*
G01X5959000Y-3011600D02*
G01X5967281Y-3023993D01*
G01X5967281Y-3023993D02*
G01X5986422Y-3036782D01*
G01X5986422Y-3036782D02*
G01X6009000Y-3041273D01*
G01X6009000Y-3041273D02*
G01X6031578Y-3036782D01*
G01X6031578Y-3036782D02*
G01X6050719Y-3023993D01*
G01X6050719Y-3023993D02*
G01X6063509Y-3004852D01*
G01X6063509Y-3004852D02*
G01X6068000Y-2982273D01*
G01X6068000Y-2982273D02*
G01X6068000Y-2967727D01*
G01X6068000Y-2967727D02*
G01X6063509Y-2945148D01*
G01X6063509Y-2945148D02*
G01X6050719Y-2926007D01*
G01X6050719Y-2926007D02*
G01X6031578Y-2913218D01*
G01X6031578Y-2913218D02*
G01X6009000Y-2908727D01*
G01X6009000Y-2908727D02*
G01X5986422Y-2913218D01*
G01X5986422Y-2913218D02*
G01X5967281Y-2926007D01*
G01X5967281Y-2926007D02*
G01X5959000Y-2938400D01*
G01X5959000Y-2938400D02*
G01X5950719Y-2926007D01*
G01X5950719Y-2926007D02*
G01X5931578Y-2913218D01*
G01X5931578Y-2913218D02*
G01X5909000Y-2908727D01*
G01X5909000Y-2908727D02*
G01X5886422Y-2913218D01*
G01X5886422Y-2913218D02*
G01X5867281Y-2926007D01*
G01X5867281Y-2926007D02*
G01X5859000Y-2938400D01*
G01X5859000Y-2938400D02*
G01X5850719Y-2926007D01*
G01X5850719Y-2926007D02*
G01X5831578Y-2913218D01*
G01X5831578Y-2913218D02*
G01X5809000Y-2908727D01*
G01X5809000Y-2908727D02*
G01X5786422Y-2913218D01*
G01X5786422Y-2913218D02*
G01X5767281Y-2926007D01*
G01X5767281Y-2926007D02*
G01X5759000Y-2938400D01*
G01X5759000Y-2938400D02*
G01X5750719Y-2926007D01*
G01X5750719Y-2926007D02*
G01X5731578Y-2913218D01*
G01X5731578Y-2913218D02*
G01X5709000Y-2908727D01*
G01X5709000Y-2908727D02*
G01X5686422Y-2913218D01*
G01X5686422Y-2913218D02*
G01X5667281Y-2926007D01*
G01X5667281Y-2926007D02*
G01X5659000Y-2938400D01*
G01X5659000Y-2938400D02*
G01X5650719Y-2926007D01*
G01X5650719Y-2926007D02*
G01X5631578Y-2913218D01*
G01X5631578Y-2913218D02*
G01X5609000Y-2908727D01*
G01X5609000Y-2908727D02*
G01X5586422Y-2913218D01*
G01X5586422Y-2913218D02*
G01X5567281Y-2926007D01*
G01X5567281Y-2926007D02*
G01X5559000Y-2938400D01*
G01X5559000Y-2938400D02*
G01X5550719Y-2926007D01*
G01X5550719Y-2926007D02*
G01X5531578Y-2913218D01*
G01X5531578Y-2913218D02*
G01X5509000Y-2908727D01*
G01X5509000Y-2908727D02*
G01X5486422Y-2913218D01*
G01X5486422Y-2913218D02*
G01X5467281Y-2926007D01*
G01X5467281Y-2926007D02*
G01X5459139Y-2938192D01*
G01X5459139Y-2938192D02*
G01X5444513Y-2921822D01*
G01X5444513Y-2921822D02*
G01X5423756Y-2911822D01*
G01X5423756Y-2911822D02*
G01X5423135Y-2911718D01*
G01X5423135Y-2911718D02*
G01X5414000Y-2916488D01*
G01X5414000Y-2916488D02*
G01X5404000Y-2916488D01*
G01X5404000Y-2916488D02*
G01X5394865Y-2911718D01*
G01X5394865Y-2911718D02*
G01X5394244Y-2911822D01*
G01X5394244Y-2911822D02*
G01X5373487Y-2921822D01*
G01X5373487Y-2921822D02*
G01X5358861Y-2938192D01*
G01X5358861Y-2938192D02*
G01X5350719Y-2926007D01*
G01X5350719Y-2926007D02*
G01X5331578Y-2913218D01*
G01X5331578Y-2913218D02*
G01X5309000Y-2908727D01*
G01X5309000Y-2908727D02*
G01X5286422Y-2913218D01*
G01X5286422Y-2913218D02*
G01X5267953Y-2925558D01*
G01X5267953Y-2925558D02*
G01X5267953Y-2907953D01*
G01X5267953Y-2907953D02*
G01X6732047Y-2907953D01*
G01X6732047Y-2907953D02*
G01X6732047Y-2922822D01*
M02*
