G04 This is an RS-274x file exported by *
G04 gerbv version 2.6.0 *
G04 More information is available about gerbv at *
G04 http://gerbv.gpleda.org/ *
G04 --End of header info--*
%MOIN*%
%FSLAX36Y36*%
%IPPOS*%
G04 --Define apertures--*
%ADD10C,0.0039*%
%ADD11C,0.0100*%
%ADD12C,0.0059*%
%ADD13C,0.0020*%
%ADD14C,0.0080*%
%ADD15C,0.0060*%
G04 --Start main section--*
G54D11*
G01X6618333Y-4036429D02*
G01X6625476Y-4038810D01*
G01X6625476Y-4038810D02*
G01X6627857Y-4041190D01*
G01X6627857Y-4041190D02*
G01X6630238Y-4045952D01*
G01X6630238Y-4045952D02*
G01X6630238Y-4053095D01*
G01X6630238Y-4053095D02*
G01X6627857Y-4057857D01*
G01X6627857Y-4057857D02*
G01X6625476Y-4060238D01*
G01X6625476Y-4060238D02*
G01X6620714Y-4062619D01*
G01X6620714Y-4062619D02*
G01X6601667Y-4062619D01*
G01X6601667Y-4062619D02*
G01X6601667Y-4012619D01*
G01X6601667Y-4012619D02*
G01X6618333Y-4012619D01*
G01X6618333Y-4012619D02*
G01X6623095Y-4015000D01*
G01X6623095Y-4015000D02*
G01X6625476Y-4017381D01*
G01X6625476Y-4017381D02*
G01X6627857Y-4022143D01*
G01X6627857Y-4022143D02*
G01X6627857Y-4026905D01*
G01X6627857Y-4026905D02*
G01X6625476Y-4031667D01*
G01X6625476Y-4031667D02*
G01X6623095Y-4034048D01*
G01X6623095Y-4034048D02*
G01X6618333Y-4036429D01*
G01X6618333Y-4036429D02*
G01X6601667Y-4036429D01*
G01X6675476Y-4062619D02*
G01X6651667Y-4062619D01*
G01X6651667Y-4062619D02*
G01X6651667Y-4012619D01*
G01X6595714Y-3712619D02*
G01X6624286Y-3712619D01*
G01X6610000Y-3762619D02*
G01X6610000Y-3712619D01*
G01X6669524Y-3762619D02*
G01X6652857Y-3738810D01*
G01X6640952Y-3762619D02*
G01X6640952Y-3712619D01*
G01X6640952Y-3712619D02*
G01X6660000Y-3712619D01*
G01X6660000Y-3712619D02*
G01X6664762Y-3715000D01*
G01X6664762Y-3715000D02*
G01X6667143Y-3717381D01*
G01X6667143Y-3717381D02*
G01X6669524Y-3722143D01*
G01X6669524Y-3722143D02*
G01X6669524Y-3729286D01*
G01X6669524Y-3729286D02*
G01X6667143Y-3734048D01*
G01X6667143Y-3734048D02*
G01X6664762Y-3736429D01*
G01X6664762Y-3736429D02*
G01X6660000Y-3738810D01*
G01X6660000Y-3738810D02*
G01X6640952Y-3738810D01*
G01X6600476Y-3812619D02*
G01X6629048Y-3812619D01*
G01X6614762Y-3862619D02*
G01X6614762Y-3812619D01*
G01X6669524Y-3862619D02*
G01X6645714Y-3862619D01*
G01X6645714Y-3862619D02*
G01X6645714Y-3812619D01*
G01X6613571Y-3936429D02*
G01X6620714Y-3938810D01*
G01X6620714Y-3938810D02*
G01X6623095Y-3941190D01*
G01X6623095Y-3941190D02*
G01X6625476Y-3945952D01*
G01X6625476Y-3945952D02*
G01X6625476Y-3953095D01*
G01X6625476Y-3953095D02*
G01X6623095Y-3957857D01*
G01X6623095Y-3957857D02*
G01X6620714Y-3960238D01*
G01X6620714Y-3960238D02*
G01X6615952Y-3962619D01*
G01X6615952Y-3962619D02*
G01X6596905Y-3962619D01*
G01X6596905Y-3962619D02*
G01X6596905Y-3912619D01*
G01X6596905Y-3912619D02*
G01X6613571Y-3912619D01*
G01X6613571Y-3912619D02*
G01X6618333Y-3915000D01*
G01X6618333Y-3915000D02*
G01X6620714Y-3917381D01*
G01X6620714Y-3917381D02*
G01X6623095Y-3922143D01*
G01X6623095Y-3922143D02*
G01X6623095Y-3926905D01*
G01X6623095Y-3926905D02*
G01X6620714Y-3931667D01*
G01X6620714Y-3931667D02*
G01X6618333Y-3934048D01*
G01X6618333Y-3934048D02*
G01X6613571Y-3936429D01*
G01X6613571Y-3936429D02*
G01X6596905Y-3936429D01*
G01X6675476Y-3962619D02*
G01X6658810Y-3938810D01*
G01X6646905Y-3962619D02*
G01X6646905Y-3912619D01*
G01X6646905Y-3912619D02*
G01X6665952Y-3912619D01*
G01X6665952Y-3912619D02*
G01X6670714Y-3915000D01*
G01X6670714Y-3915000D02*
G01X6673095Y-3917381D01*
G01X6673095Y-3917381D02*
G01X6675476Y-3922143D01*
G01X6675476Y-3922143D02*
G01X6675476Y-3929286D01*
G01X6675476Y-3929286D02*
G01X6673095Y-3934048D01*
G01X6673095Y-3934048D02*
G01X6670714Y-3936429D01*
G01X6670714Y-3936429D02*
G01X6665952Y-3938810D01*
G01X6665952Y-3938810D02*
G01X6646905Y-3938810D01*
G01X6625476Y-4112619D02*
G01X6601667Y-4112619D01*
G01X6601667Y-4112619D02*
G01X6599286Y-4136429D01*
G01X6599286Y-4136429D02*
G01X6601667Y-4134048D01*
G01X6601667Y-4134048D02*
G01X6606429Y-4131667D01*
G01X6606429Y-4131667D02*
G01X6618333Y-4131667D01*
G01X6618333Y-4131667D02*
G01X6623095Y-4134048D01*
G01X6623095Y-4134048D02*
G01X6625476Y-4136429D01*
G01X6625476Y-4136429D02*
G01X6627857Y-4141190D01*
G01X6627857Y-4141190D02*
G01X6627857Y-4153095D01*
G01X6627857Y-4153095D02*
G01X6625476Y-4157857D01*
G01X6625476Y-4157857D02*
G01X6623095Y-4160238D01*
G01X6623095Y-4160238D02*
G01X6618333Y-4162619D01*
G01X6618333Y-4162619D02*
G01X6606429Y-4162619D01*
G01X6606429Y-4162619D02*
G01X6601667Y-4160238D01*
G01X6601667Y-4160238D02*
G01X6599286Y-4157857D01*
G01X6642143Y-4112619D02*
G01X6658810Y-4162619D01*
G01X6658810Y-4162619D02*
G01X6675476Y-4112619D01*
G01X7632619Y-4549524D02*
G01X7632619Y-4573333D01*
G01X7632619Y-4573333D02*
G01X7656429Y-4575714D01*
G01X7656429Y-4575714D02*
G01X7654048Y-4573333D01*
G01X7654048Y-4573333D02*
G01X7651667Y-4568571D01*
G01X7651667Y-4568571D02*
G01X7651667Y-4556667D01*
G01X7651667Y-4556667D02*
G01X7654048Y-4551905D01*
G01X7654048Y-4551905D02*
G01X7656429Y-4549524D01*
G01X7656429Y-4549524D02*
G01X7661190Y-4547143D01*
G01X7661190Y-4547143D02*
G01X7673095Y-4547143D01*
G01X7673095Y-4547143D02*
G01X7677857Y-4549524D01*
G01X7677857Y-4549524D02*
G01X7680238Y-4551905D01*
G01X7680238Y-4551905D02*
G01X7682619Y-4556667D01*
G01X7682619Y-4556667D02*
G01X7682619Y-4568571D01*
G01X7682619Y-4568571D02*
G01X7680238Y-4573333D01*
G01X7680238Y-4573333D02*
G01X7677857Y-4575714D01*
G01X7632619Y-4532857D02*
G01X7682619Y-4516190D01*
G01X7682619Y-4516190D02*
G01X7632619Y-4499524D01*
G01X7232619Y-4579286D02*
G01X7232619Y-4550714D01*
G01X7282619Y-4565000D02*
G01X7232619Y-4565000D01*
G01X7282619Y-4505476D02*
G01X7258810Y-4522143D01*
G01X7282619Y-4534048D02*
G01X7232619Y-4534048D01*
G01X7232619Y-4534048D02*
G01X7232619Y-4515000D01*
G01X7232619Y-4515000D02*
G01X7235000Y-4510238D01*
G01X7235000Y-4510238D02*
G01X7237381Y-4507857D01*
G01X7237381Y-4507857D02*
G01X7242143Y-4505476D01*
G01X7242143Y-4505476D02*
G01X7249286Y-4505476D01*
G01X7249286Y-4505476D02*
G01X7254048Y-4507857D01*
G01X7254048Y-4507857D02*
G01X7256429Y-4510238D01*
G01X7256429Y-4510238D02*
G01X7258810Y-4515000D01*
G01X7258810Y-4515000D02*
G01X7258810Y-4534048D01*
G01X7332619Y-4574524D02*
G01X7332619Y-4545952D01*
G01X7382619Y-4560238D02*
G01X7332619Y-4560238D01*
G01X7382619Y-4505476D02*
G01X7382619Y-4529286D01*
G01X7382619Y-4529286D02*
G01X7332619Y-4529286D01*
G01X7456429Y-4561429D02*
G01X7458810Y-4554286D01*
G01X7458810Y-4554286D02*
G01X7461190Y-4551905D01*
G01X7461190Y-4551905D02*
G01X7465952Y-4549524D01*
G01X7465952Y-4549524D02*
G01X7473095Y-4549524D01*
G01X7473095Y-4549524D02*
G01X7477857Y-4551905D01*
G01X7477857Y-4551905D02*
G01X7480238Y-4554286D01*
G01X7480238Y-4554286D02*
G01X7482619Y-4559048D01*
G01X7482619Y-4559048D02*
G01X7482619Y-4578095D01*
G01X7482619Y-4578095D02*
G01X7432619Y-4578095D01*
G01X7432619Y-4578095D02*
G01X7432619Y-4561429D01*
G01X7432619Y-4561429D02*
G01X7435000Y-4556667D01*
G01X7435000Y-4556667D02*
G01X7437381Y-4554286D01*
G01X7437381Y-4554286D02*
G01X7442143Y-4551905D01*
G01X7442143Y-4551905D02*
G01X7446905Y-4551905D01*
G01X7446905Y-4551905D02*
G01X7451667Y-4554286D01*
G01X7451667Y-4554286D02*
G01X7454048Y-4556667D01*
G01X7454048Y-4556667D02*
G01X7456429Y-4561429D01*
G01X7456429Y-4561429D02*
G01X7456429Y-4578095D01*
G01X7482619Y-4499524D02*
G01X7458810Y-4516190D01*
G01X7482619Y-4528095D02*
G01X7432619Y-4528095D01*
G01X7432619Y-4528095D02*
G01X7432619Y-4509048D01*
G01X7432619Y-4509048D02*
G01X7435000Y-4504286D01*
G01X7435000Y-4504286D02*
G01X7437381Y-4501905D01*
G01X7437381Y-4501905D02*
G01X7442143Y-4499524D01*
G01X7442143Y-4499524D02*
G01X7449286Y-4499524D01*
G01X7449286Y-4499524D02*
G01X7454048Y-4501905D01*
G01X7454048Y-4501905D02*
G01X7456429Y-4504286D01*
G01X7456429Y-4504286D02*
G01X7458810Y-4509048D01*
G01X7458810Y-4509048D02*
G01X7458810Y-4528095D01*
G01X7556429Y-4556667D02*
G01X7558810Y-4549524D01*
G01X7558810Y-4549524D02*
G01X7561190Y-4547143D01*
G01X7561190Y-4547143D02*
G01X7565952Y-4544762D01*
G01X7565952Y-4544762D02*
G01X7573095Y-4544762D01*
G01X7573095Y-4544762D02*
G01X7577857Y-4547143D01*
G01X7577857Y-4547143D02*
G01X7580238Y-4549524D01*
G01X7580238Y-4549524D02*
G01X7582619Y-4554286D01*
G01X7582619Y-4554286D02*
G01X7582619Y-4573333D01*
G01X7582619Y-4573333D02*
G01X7532619Y-4573333D01*
G01X7532619Y-4573333D02*
G01X7532619Y-4556667D01*
G01X7532619Y-4556667D02*
G01X7535000Y-4551905D01*
G01X7535000Y-4551905D02*
G01X7537381Y-4549524D01*
G01X7537381Y-4549524D02*
G01X7542143Y-4547143D01*
G01X7542143Y-4547143D02*
G01X7546905Y-4547143D01*
G01X7546905Y-4547143D02*
G01X7551667Y-4549524D01*
G01X7551667Y-4549524D02*
G01X7554048Y-4551905D01*
G01X7554048Y-4551905D02*
G01X7556429Y-4556667D01*
G01X7556429Y-4556667D02*
G01X7556429Y-4573333D01*
G01X7582619Y-4499524D02*
G01X7582619Y-4523333D01*
G01X7582619Y-4523333D02*
G01X7532619Y-4523333D01*
G01X5296905Y-4315000D02*
G01X5292143Y-4312619D01*
G01X5292143Y-4312619D02*
G01X5285000Y-4312619D01*
G01X5285000Y-4312619D02*
G01X5277857Y-4315000D01*
G01X5277857Y-4315000D02*
G01X5273095Y-4319762D01*
G01X5273095Y-4319762D02*
G01X5270714Y-4324524D01*
G01X5270714Y-4324524D02*
G01X5268333Y-4334048D01*
G01X5268333Y-4334048D02*
G01X5268333Y-4341190D01*
G01X5268333Y-4341190D02*
G01X5270714Y-4350714D01*
G01X5270714Y-4350714D02*
G01X5273095Y-4355476D01*
G01X5273095Y-4355476D02*
G01X5277857Y-4360238D01*
G01X5277857Y-4360238D02*
G01X5285000Y-4362619D01*
G01X5285000Y-4362619D02*
G01X5289762Y-4362619D01*
G01X5289762Y-4362619D02*
G01X5296905Y-4360238D01*
G01X5296905Y-4360238D02*
G01X5299286Y-4357857D01*
G01X5299286Y-4357857D02*
G01X5299286Y-4341190D01*
G01X5299286Y-4341190D02*
G01X5289762Y-4341190D01*
G01X5320714Y-4362619D02*
G01X5320714Y-4312619D01*
G01X5320714Y-4312619D02*
G01X5349286Y-4362619D01*
G01X5349286Y-4362619D02*
G01X5349286Y-4312619D01*
G01X5373095Y-4362619D02*
G01X5373095Y-4312619D01*
G01X5373095Y-4312619D02*
G01X5385000Y-4312619D01*
G01X5385000Y-4312619D02*
G01X5392143Y-4315000D01*
G01X5392143Y-4315000D02*
G01X5396905Y-4319762D01*
G01X5396905Y-4319762D02*
G01X5399286Y-4324524D01*
G01X5399286Y-4324524D02*
G01X5401667Y-4334048D01*
G01X5401667Y-4334048D02*
G01X5401667Y-4341190D01*
G01X5401667Y-4341190D02*
G01X5399286Y-4350714D01*
G01X5399286Y-4350714D02*
G01X5396905Y-4355476D01*
G01X5396905Y-4355476D02*
G01X5392143Y-4360238D01*
G01X5392143Y-4360238D02*
G01X5385000Y-4362619D01*
G01X5385000Y-4362619D02*
G01X5373095Y-4362619D01*
G01X5325476Y-4212619D02*
G01X5301667Y-4212619D01*
G01X5301667Y-4212619D02*
G01X5299286Y-4236429D01*
G01X5299286Y-4236429D02*
G01X5301667Y-4234048D01*
G01X5301667Y-4234048D02*
G01X5306429Y-4231667D01*
G01X5306429Y-4231667D02*
G01X5318333Y-4231667D01*
G01X5318333Y-4231667D02*
G01X5323095Y-4234048D01*
G01X5323095Y-4234048D02*
G01X5325476Y-4236429D01*
G01X5325476Y-4236429D02*
G01X5327857Y-4241190D01*
G01X5327857Y-4241190D02*
G01X5327857Y-4253095D01*
G01X5327857Y-4253095D02*
G01X5325476Y-4257857D01*
G01X5325476Y-4257857D02*
G01X5323095Y-4260238D01*
G01X5323095Y-4260238D02*
G01X5318333Y-4262619D01*
G01X5318333Y-4262619D02*
G01X5306429Y-4262619D01*
G01X5306429Y-4262619D02*
G01X5301667Y-4260238D01*
G01X5301667Y-4260238D02*
G01X5299286Y-4257857D01*
G01X5342143Y-4212619D02*
G01X5358810Y-4262619D01*
G01X5358810Y-4262619D02*
G01X5375476Y-4212619D01*
G01X5296905Y-3715000D02*
G01X5292143Y-3712619D01*
G01X5292143Y-3712619D02*
G01X5285000Y-3712619D01*
G01X5285000Y-3712619D02*
G01X5277857Y-3715000D01*
G01X5277857Y-3715000D02*
G01X5273095Y-3719762D01*
G01X5273095Y-3719762D02*
G01X5270714Y-3724524D01*
G01X5270714Y-3724524D02*
G01X5268333Y-3734048D01*
G01X5268333Y-3734048D02*
G01X5268333Y-3741190D01*
G01X5268333Y-3741190D02*
G01X5270714Y-3750714D01*
G01X5270714Y-3750714D02*
G01X5273095Y-3755476D01*
G01X5273095Y-3755476D02*
G01X5277857Y-3760238D01*
G01X5277857Y-3760238D02*
G01X5285000Y-3762619D01*
G01X5285000Y-3762619D02*
G01X5289762Y-3762619D01*
G01X5289762Y-3762619D02*
G01X5296905Y-3760238D01*
G01X5296905Y-3760238D02*
G01X5299286Y-3757857D01*
G01X5299286Y-3757857D02*
G01X5299286Y-3741190D01*
G01X5299286Y-3741190D02*
G01X5289762Y-3741190D01*
G01X5320714Y-3762619D02*
G01X5320714Y-3712619D01*
G01X5320714Y-3712619D02*
G01X5349286Y-3762619D01*
G01X5349286Y-3762619D02*
G01X5349286Y-3712619D01*
G01X5373095Y-3762619D02*
G01X5373095Y-3712619D01*
G01X5373095Y-3712619D02*
G01X5385000Y-3712619D01*
G01X5385000Y-3712619D02*
G01X5392143Y-3715000D01*
G01X5392143Y-3715000D02*
G01X5396905Y-3719762D01*
G01X5396905Y-3719762D02*
G01X5399286Y-3724524D01*
G01X5399286Y-3724524D02*
G01X5401667Y-3734048D01*
G01X5401667Y-3734048D02*
G01X5401667Y-3741190D01*
G01X5401667Y-3741190D02*
G01X5399286Y-3750714D01*
G01X5399286Y-3750714D02*
G01X5396905Y-3755476D01*
G01X5396905Y-3755476D02*
G01X5392143Y-3760238D01*
G01X5392143Y-3760238D02*
G01X5385000Y-3762619D01*
G01X5385000Y-3762619D02*
G01X5373095Y-3762619D01*
G01X5325476Y-3612619D02*
G01X5301667Y-3612619D01*
G01X5301667Y-3612619D02*
G01X5299286Y-3636429D01*
G01X5299286Y-3636429D02*
G01X5301667Y-3634048D01*
G01X5301667Y-3634048D02*
G01X5306429Y-3631667D01*
G01X5306429Y-3631667D02*
G01X5318333Y-3631667D01*
G01X5318333Y-3631667D02*
G01X5323095Y-3634048D01*
G01X5323095Y-3634048D02*
G01X5325476Y-3636429D01*
G01X5325476Y-3636429D02*
G01X5327857Y-3641190D01*
G01X5327857Y-3641190D02*
G01X5327857Y-3653095D01*
G01X5327857Y-3653095D02*
G01X5325476Y-3657857D01*
G01X5325476Y-3657857D02*
G01X5323095Y-3660238D01*
G01X5323095Y-3660238D02*
G01X5318333Y-3662619D01*
G01X5318333Y-3662619D02*
G01X5306429Y-3662619D01*
G01X5306429Y-3662619D02*
G01X5301667Y-3660238D01*
G01X5301667Y-3660238D02*
G01X5299286Y-3657857D01*
G01X5342143Y-3612619D02*
G01X5358810Y-3662619D01*
G01X5358810Y-3662619D02*
G01X5375476Y-3612619D01*
G01X5283810Y-3560238D02*
G01X5290952Y-3562619D01*
G01X5290952Y-3562619D02*
G01X5302857Y-3562619D01*
G01X5302857Y-3562619D02*
G01X5307619Y-3560238D01*
G01X5307619Y-3560238D02*
G01X5310000Y-3557857D01*
G01X5310000Y-3557857D02*
G01X5312381Y-3553095D01*
G01X5312381Y-3553095D02*
G01X5312381Y-3548333D01*
G01X5312381Y-3548333D02*
G01X5310000Y-3543571D01*
G01X5310000Y-3543571D02*
G01X5307619Y-3541190D01*
G01X5307619Y-3541190D02*
G01X5302857Y-3538810D01*
G01X5302857Y-3538810D02*
G01X5293333Y-3536429D01*
G01X5293333Y-3536429D02*
G01X5288571Y-3534048D01*
G01X5288571Y-3534048D02*
G01X5286190Y-3531667D01*
G01X5286190Y-3531667D02*
G01X5283810Y-3526905D01*
G01X5283810Y-3526905D02*
G01X5283810Y-3522143D01*
G01X5283810Y-3522143D02*
G01X5286190Y-3517381D01*
G01X5286190Y-3517381D02*
G01X5288571Y-3515000D01*
G01X5288571Y-3515000D02*
G01X5293333Y-3512619D01*
G01X5293333Y-3512619D02*
G01X5305238Y-3512619D01*
G01X5305238Y-3512619D02*
G01X5312381Y-3515000D01*
G01X5333810Y-3562619D02*
G01X5333810Y-3512619D01*
G01X5383810Y-3515000D02*
G01X5379048Y-3512619D01*
G01X5379048Y-3512619D02*
G01X5371905Y-3512619D01*
G01X5371905Y-3512619D02*
G01X5364762Y-3515000D01*
G01X5364762Y-3515000D02*
G01X5360000Y-3519762D01*
G01X5360000Y-3519762D02*
G01X5357619Y-3524524D01*
G01X5357619Y-3524524D02*
G01X5355238Y-3534048D01*
G01X5355238Y-3534048D02*
G01X5355238Y-3541190D01*
G01X5355238Y-3541190D02*
G01X5357619Y-3550714D01*
G01X5357619Y-3550714D02*
G01X5360000Y-3555476D01*
G01X5360000Y-3555476D02*
G01X5364762Y-3560238D01*
G01X5364762Y-3560238D02*
G01X5371905Y-3562619D01*
G01X5371905Y-3562619D02*
G01X5376667Y-3562619D01*
G01X5376667Y-3562619D02*
G01X5383810Y-3560238D01*
G01X5383810Y-3560238D02*
G01X5386190Y-3557857D01*
G01X5386190Y-3557857D02*
G01X5386190Y-3541190D01*
G01X5386190Y-3541190D02*
G01X5376667Y-3541190D01*
G01X5283810Y-4160238D02*
G01X5290952Y-4162619D01*
G01X5290952Y-4162619D02*
G01X5302857Y-4162619D01*
G01X5302857Y-4162619D02*
G01X5307619Y-4160238D01*
G01X5307619Y-4160238D02*
G01X5310000Y-4157857D01*
G01X5310000Y-4157857D02*
G01X5312381Y-4153095D01*
G01X5312381Y-4153095D02*
G01X5312381Y-4148333D01*
G01X5312381Y-4148333D02*
G01X5310000Y-4143571D01*
G01X5310000Y-4143571D02*
G01X5307619Y-4141190D01*
G01X5307619Y-4141190D02*
G01X5302857Y-4138810D01*
G01X5302857Y-4138810D02*
G01X5293333Y-4136429D01*
G01X5293333Y-4136429D02*
G01X5288571Y-4134048D01*
G01X5288571Y-4134048D02*
G01X5286190Y-4131667D01*
G01X5286190Y-4131667D02*
G01X5283810Y-4126905D01*
G01X5283810Y-4126905D02*
G01X5283810Y-4122143D01*
G01X5283810Y-4122143D02*
G01X5286190Y-4117381D01*
G01X5286190Y-4117381D02*
G01X5288571Y-4115000D01*
G01X5288571Y-4115000D02*
G01X5293333Y-4112619D01*
G01X5293333Y-4112619D02*
G01X5305238Y-4112619D01*
G01X5305238Y-4112619D02*
G01X5312381Y-4115000D01*
G01X5333810Y-4162619D02*
G01X5333810Y-4112619D01*
G01X5383810Y-4115000D02*
G01X5379048Y-4112619D01*
G01X5379048Y-4112619D02*
G01X5371905Y-4112619D01*
G01X5371905Y-4112619D02*
G01X5364762Y-4115000D01*
G01X5364762Y-4115000D02*
G01X5360000Y-4119762D01*
G01X5360000Y-4119762D02*
G01X5357619Y-4124524D01*
G01X5357619Y-4124524D02*
G01X5355238Y-4134048D01*
G01X5355238Y-4134048D02*
G01X5355238Y-4141190D01*
G01X5355238Y-4141190D02*
G01X5357619Y-4150714D01*
G01X5357619Y-4150714D02*
G01X5360000Y-4155476D01*
G01X5360000Y-4155476D02*
G01X5364762Y-4160238D01*
G01X5364762Y-4160238D02*
G01X5371905Y-4162619D01*
G01X5371905Y-4162619D02*
G01X5376667Y-4162619D01*
G01X5376667Y-4162619D02*
G01X5383810Y-4160238D01*
G01X5383810Y-4160238D02*
G01X5386190Y-4157857D01*
G01X5386190Y-4157857D02*
G01X5386190Y-4141190D01*
G01X5386190Y-4141190D02*
G01X5376667Y-4141190D01*
G54D12*
G01X7721024Y-4278976D02*
G01X7721024Y-4401024D01*
G01X5414000Y-4925000D02*
G01X6218000Y-4925000D01*
G01X6218000Y-4925000D02*
G01X6218000Y-4825000D01*
G01X6218000Y-4825000D02*
G01X5414000Y-4825000D01*
G01X5414000Y-4925000D02*
G01X5414000Y-4825000D01*
G01X6919000Y-4826000D02*
G01X6315000Y-4826000D01*
G01X6919000Y-4926000D02*
G01X6919000Y-4826000D01*
G01X6315000Y-4926000D02*
G01X6919000Y-4926000D01*
G01X6315000Y-4926000D02*
G01X6315000Y-4826000D01*
G01X6919000Y-2925000D02*
G01X6115000Y-2925000D01*
G01X6115000Y-3025000D02*
G01X6115000Y-2925000D01*
G01X6115000Y-3025000D02*
G01X6919000Y-3025000D01*
G01X6059000Y-2925000D02*
G01X5056000Y-2925000D01*
G01X5056000Y-3025000D02*
G01X6059000Y-3025000D01*
G01X6059000Y-3025000D02*
G01X6059000Y-2925000D01*
G01X6060000Y-3790000D02*
G01X5860000Y-3790000D01*
G01X5860000Y-3790000D02*
G01X5860000Y-3690000D01*
G01X5860000Y-3690000D02*
G01X6060000Y-3690000D01*
G01X6060000Y-3690000D02*
G01X6060000Y-3790000D01*
G54D13*
G01X7287795Y-3411775D02*
G75*
G03X7287795Y-3411775I-100000J0000000D01*
G54D12*
G01X6060000Y-4090000D02*
G01X5860000Y-4090000D01*
G01X5860000Y-4090000D02*
G01X5860000Y-3990000D01*
G01X5860000Y-3990000D02*
G01X6060000Y-3990000D01*
G01X6060000Y-3990000D02*
G01X6060000Y-4090000D01*
G54D13*
G01X7787795Y-3411775D02*
G75*
G03X7787795Y-3411775I-100000J0000000D01*
G54D12*
G01X6060000Y-3490000D02*
G01X5860000Y-3490000D01*
G01X5860000Y-3490000D02*
G01X5860000Y-3390000D01*
G01X5860000Y-3390000D02*
G01X6060000Y-3390000D01*
G01X6060000Y-3390000D02*
G01X6060000Y-3490000D01*
G54D13*
G01X7287795Y-3911775D02*
G75*
G03X7287795Y-3911775I-100000J0000000D01*
G54D12*
G01X6060000Y-4390000D02*
G01X5860000Y-4390000D01*
G01X5860000Y-4390000D02*
G01X5860000Y-4290000D01*
G01X5860000Y-4290000D02*
G01X6060000Y-4290000D01*
G01X6060000Y-4290000D02*
G01X6060000Y-4390000D01*
G54D13*
G01X7787795Y-3911775D02*
G75*
G03X7787795Y-3911775I-100000J0000000D01*
G54D12*
G01X5485000Y-4190000D02*
G01X5485000Y-4390000D01*
G01X5485000Y-4390000D02*
G01X5585000Y-4390000D01*
G01X5585000Y-4390000D02*
G01X5585000Y-4190000D01*
G01X5596024Y-4078976D02*
G01X5596024Y-4140000D01*
G01X5585000Y-4190000D02*
G01X5485000Y-4190000D01*
G01X5473976Y-4140000D02*
G01X5473976Y-4078976D01*
G01X5473976Y-4078976D02*
G01X5596024Y-4078976D01*
G01X5485000Y-3590000D02*
G01X5485000Y-3790000D01*
G01X5485000Y-3790000D02*
G01X5585000Y-3790000D01*
G01X5585000Y-3790000D02*
G01X5585000Y-3590000D01*
G01X5596024Y-3478976D02*
G01X5596024Y-3540000D01*
G01X5585000Y-3590000D02*
G01X5485000Y-3590000D01*
G01X5473976Y-3540000D02*
G01X5473976Y-3478976D01*
G01X5473976Y-3478976D02*
G01X5596024Y-3478976D01*
G01X6471024Y-4201024D02*
G01X6348976Y-4201024D01*
G54D14*
G01X7200000Y-4118095D02*
G01X7222857Y-4118095D01*
G01X7211429Y-4158095D02*
G01X7211429Y-4118095D01*
G01X7243810Y-4118095D02*
G01X7251429Y-4118095D01*
G01X7251429Y-4118095D02*
G01X7255238Y-4120000D01*
G01X7255238Y-4120000D02*
G01X7259048Y-4123810D01*
G01X7259048Y-4123810D02*
G01X7260952Y-4131429D01*
G01X7260952Y-4131429D02*
G01X7260952Y-4144762D01*
G01X7260952Y-4144762D02*
G01X7259048Y-4152381D01*
G01X7259048Y-4152381D02*
G01X7255238Y-4156190D01*
G01X7255238Y-4156190D02*
G01X7251429Y-4158095D01*
G01X7251429Y-4158095D02*
G01X7243810Y-4158095D01*
G01X7243810Y-4158095D02*
G01X7240000Y-4156190D01*
G01X7240000Y-4156190D02*
G01X7236191Y-4152381D01*
G01X7236191Y-4152381D02*
G01X7234286Y-4144762D01*
G01X7234286Y-4144762D02*
G01X7234286Y-4131429D01*
G01X7234286Y-4131429D02*
G01X7236191Y-4123810D01*
G01X7236191Y-4123810D02*
G01X7240000Y-4120000D01*
G01X7240000Y-4120000D02*
G01X7243810Y-4118095D01*
G01X7306667Y-4156190D02*
G01X7312381Y-4158095D01*
G01X7312381Y-4158095D02*
G01X7321905Y-4158095D01*
G01X7321905Y-4158095D02*
G01X7325714Y-4156190D01*
G01X7325714Y-4156190D02*
G01X7327619Y-4154286D01*
G01X7327619Y-4154286D02*
G01X7329524Y-4150476D01*
G01X7329524Y-4150476D02*
G01X7329524Y-4146667D01*
G01X7329524Y-4146667D02*
G01X7327619Y-4142857D01*
G01X7327619Y-4142857D02*
G01X7325714Y-4140952D01*
G01X7325714Y-4140952D02*
G01X7321905Y-4139048D01*
G01X7321905Y-4139048D02*
G01X7314286Y-4137143D01*
G01X7314286Y-4137143D02*
G01X7310476Y-4135238D01*
G01X7310476Y-4135238D02*
G01X7308571Y-4133333D01*
G01X7308571Y-4133333D02*
G01X7306667Y-4129524D01*
G01X7306667Y-4129524D02*
G01X7306667Y-4125714D01*
G01X7306667Y-4125714D02*
G01X7308571Y-4121905D01*
G01X7308571Y-4121905D02*
G01X7310476Y-4120000D01*
G01X7310476Y-4120000D02*
G01X7314286Y-4118095D01*
G01X7314286Y-4118095D02*
G01X7323810Y-4118095D01*
G01X7323810Y-4118095D02*
G01X7329524Y-4120000D01*
G01X7354286Y-4118095D02*
G01X7361905Y-4118095D01*
G01X7361905Y-4118095D02*
G01X7365714Y-4120000D01*
G01X7365714Y-4120000D02*
G01X7369524Y-4123810D01*
G01X7369524Y-4123810D02*
G01X7371429Y-4131429D01*
G01X7371429Y-4131429D02*
G01X7371429Y-4144762D01*
G01X7371429Y-4144762D02*
G01X7369524Y-4152381D01*
G01X7369524Y-4152381D02*
G01X7365714Y-4156190D01*
G01X7365714Y-4156190D02*
G01X7361905Y-4158095D01*
G01X7361905Y-4158095D02*
G01X7354286Y-4158095D01*
G01X7354286Y-4158095D02*
G01X7350476Y-4156190D01*
G01X7350476Y-4156190D02*
G01X7346667Y-4152381D01*
G01X7346667Y-4152381D02*
G01X7344762Y-4144762D01*
G01X7344762Y-4144762D02*
G01X7344762Y-4131429D01*
G01X7344762Y-4131429D02*
G01X7346667Y-4123810D01*
G01X7346667Y-4123810D02*
G01X7350476Y-4120000D01*
G01X7350476Y-4120000D02*
G01X7354286Y-4118095D01*
G01X7407619Y-4158095D02*
G01X7388571Y-4158095D01*
G01X7388571Y-4158095D02*
G01X7388571Y-4118095D01*
G01X7419048Y-4146667D02*
G01X7438095Y-4146667D01*
G01X7415238Y-4158095D02*
G01X7428571Y-4118095D01*
G01X7428571Y-4118095D02*
G01X7441905Y-4158095D01*
G01X7478095Y-4158095D02*
G01X7464762Y-4139048D01*
G01X7455238Y-4158095D02*
G01X7455238Y-4118095D01*
G01X7455238Y-4118095D02*
G01X7470476Y-4118095D01*
G01X7470476Y-4118095D02*
G01X7474286Y-4120000D01*
G01X7474286Y-4120000D02*
G01X7476190Y-4121905D01*
G01X7476190Y-4121905D02*
G01X7478095Y-4125714D01*
G01X7478095Y-4125714D02*
G01X7478095Y-4131429D01*
G01X7478095Y-4131429D02*
G01X7476190Y-4135238D01*
G01X7476190Y-4135238D02*
G01X7474286Y-4137143D01*
G01X7474286Y-4137143D02*
G01X7470476Y-4139048D01*
G01X7470476Y-4139048D02*
G01X7455238Y-4139048D01*
G01X7523810Y-4156190D02*
G01X7529524Y-4158095D01*
G01X7529524Y-4158095D02*
G01X7539048Y-4158095D01*
G01X7539048Y-4158095D02*
G01X7542857Y-4156190D01*
G01X7542857Y-4156190D02*
G01X7544762Y-4154286D01*
G01X7544762Y-4154286D02*
G01X7546667Y-4150476D01*
G01X7546667Y-4150476D02*
G01X7546667Y-4146667D01*
G01X7546667Y-4146667D02*
G01X7544762Y-4142857D01*
G01X7544762Y-4142857D02*
G01X7542857Y-4140952D01*
G01X7542857Y-4140952D02*
G01X7539048Y-4139048D01*
G01X7539048Y-4139048D02*
G01X7531429Y-4137143D01*
G01X7531429Y-4137143D02*
G01X7527619Y-4135238D01*
G01X7527619Y-4135238D02*
G01X7525714Y-4133333D01*
G01X7525714Y-4133333D02*
G01X7523810Y-4129524D01*
G01X7523810Y-4129524D02*
G01X7523810Y-4125714D01*
G01X7523810Y-4125714D02*
G01X7525714Y-4121905D01*
G01X7525714Y-4121905D02*
G01X7527619Y-4120000D01*
G01X7527619Y-4120000D02*
G01X7531429Y-4118095D01*
G01X7531429Y-4118095D02*
G01X7540952Y-4118095D01*
G01X7540952Y-4118095D02*
G01X7546667Y-4120000D01*
G01X7563810Y-4158095D02*
G01X7563810Y-4118095D01*
G01X7563810Y-4137143D02*
G01X7586667Y-4137143D01*
G01X7586667Y-4158095D02*
G01X7586667Y-4118095D01*
G01X7605714Y-4158095D02*
G01X7605714Y-4118095D01*
G01X7624762Y-4137143D02*
G01X7638095Y-4137143D01*
G01X7643810Y-4158095D02*
G01X7624762Y-4158095D01*
G01X7624762Y-4158095D02*
G01X7624762Y-4118095D01*
G01X7624762Y-4118095D02*
G01X7643810Y-4118095D01*
G01X7680000Y-4158095D02*
G01X7660952Y-4158095D01*
G01X7660952Y-4158095D02*
G01X7660952Y-4118095D01*
G01X7693333Y-4158095D02*
G01X7693333Y-4118095D01*
G01X7693333Y-4118095D02*
G01X7702857Y-4118095D01*
G01X7702857Y-4118095D02*
G01X7708571Y-4120000D01*
G01X7708571Y-4120000D02*
G01X7712381Y-4123810D01*
G01X7712381Y-4123810D02*
G01X7714286Y-4127619D01*
G01X7714286Y-4127619D02*
G01X7716190Y-4135238D01*
G01X7716190Y-4135238D02*
G01X7716190Y-4140952D01*
G01X7716190Y-4140952D02*
G01X7714286Y-4148571D01*
G01X7714286Y-4148571D02*
G01X7712381Y-4152381D01*
G01X7712381Y-4152381D02*
G01X7708571Y-4156190D01*
G01X7708571Y-4156190D02*
G01X7702857Y-4158095D01*
G01X7702857Y-4158095D02*
G01X7693333Y-4158095D01*
G54D15*
G01X5483571Y-4789143D02*
G01X5453571Y-4789143D01*
G01X5453571Y-4789143D02*
G01X5483571Y-4772000D01*
G01X5483571Y-4772000D02*
G01X5453571Y-4772000D01*
G01X5480714Y-4740571D02*
G01X5482143Y-4742000D01*
G01X5482143Y-4742000D02*
G01X5483571Y-4746286D01*
G01X5483571Y-4746286D02*
G01X5483571Y-4749143D01*
G01X5483571Y-4749143D02*
G01X5482143Y-4753429D01*
G01X5482143Y-4753429D02*
G01X5479286Y-4756286D01*
G01X5479286Y-4756286D02*
G01X5476429Y-4757714D01*
G01X5476429Y-4757714D02*
G01X5470714Y-4759143D01*
G01X5470714Y-4759143D02*
G01X5466429Y-4759143D01*
G01X5466429Y-4759143D02*
G01X5460714Y-4757714D01*
G01X5460714Y-4757714D02*
G01X5457857Y-4756286D01*
G01X5457857Y-4756286D02*
G01X5455000Y-4753429D01*
G01X5455000Y-4753429D02*
G01X5453571Y-4749143D01*
G01X5453571Y-4749143D02*
G01X5453571Y-4746286D01*
G01X5453571Y-4746286D02*
G01X5455000Y-4742000D01*
G01X5455000Y-4742000D02*
G01X5456429Y-4740571D01*
G01X5581571Y-4789143D02*
G01X5551571Y-4789143D01*
G01X5551571Y-4769143D02*
G01X5551571Y-4763429D01*
G01X5551571Y-4763429D02*
G01X5553000Y-4760571D01*
G01X5553000Y-4760571D02*
G01X5555857Y-4757714D01*
G01X5555857Y-4757714D02*
G01X5561571Y-4756286D01*
G01X5561571Y-4756286D02*
G01X5571571Y-4756286D01*
G01X5571571Y-4756286D02*
G01X5577286Y-4757714D01*
G01X5577286Y-4757714D02*
G01X5580143Y-4760571D01*
G01X5580143Y-4760571D02*
G01X5581571Y-4763429D01*
G01X5581571Y-4763429D02*
G01X5581571Y-4769143D01*
G01X5581571Y-4769143D02*
G01X5580143Y-4772000D01*
G01X5580143Y-4772000D02*
G01X5577286Y-4774857D01*
G01X5577286Y-4774857D02*
G01X5571571Y-4776286D01*
G01X5571571Y-4776286D02*
G01X5561571Y-4776286D01*
G01X5561571Y-4776286D02*
G01X5555857Y-4774857D01*
G01X5555857Y-4774857D02*
G01X5553000Y-4772000D01*
G01X5553000Y-4772000D02*
G01X5551571Y-4769143D01*
G01X5581571Y-4726286D02*
G01X5567286Y-4736286D01*
G01X5581571Y-4743429D02*
G01X5551571Y-4743429D01*
G01X5551571Y-4743429D02*
G01X5551571Y-4732000D01*
G01X5551571Y-4732000D02*
G01X5553000Y-4729143D01*
G01X5553000Y-4729143D02*
G01X5554429Y-4727714D01*
G01X5554429Y-4727714D02*
G01X5557286Y-4726286D01*
G01X5557286Y-4726286D02*
G01X5561571Y-4726286D01*
G01X5561571Y-4726286D02*
G01X5564429Y-4727714D01*
G01X5564429Y-4727714D02*
G01X5565857Y-4729143D01*
G01X5565857Y-4729143D02*
G01X5567286Y-4732000D01*
G01X5567286Y-4732000D02*
G01X5567286Y-4743429D01*
G01X5565857Y-4713429D02*
G01X5565857Y-4703429D01*
G01X5581571Y-4699143D02*
G01X5581571Y-4713429D01*
G01X5581571Y-4713429D02*
G01X5551571Y-4713429D01*
G01X5551571Y-4713429D02*
G01X5551571Y-4699143D01*
G01X5565857Y-4676286D02*
G01X5565857Y-4686286D01*
G01X5581571Y-4686286D02*
G01X5551571Y-4686286D01*
G01X5551571Y-4686286D02*
G01X5551571Y-4672000D01*
G01X5681571Y-4772000D02*
G01X5667286Y-4782000D01*
G01X5681571Y-4789143D02*
G01X5651571Y-4789143D01*
G01X5651571Y-4789143D02*
G01X5651571Y-4777714D01*
G01X5651571Y-4777714D02*
G01X5653000Y-4774857D01*
G01X5653000Y-4774857D02*
G01X5654429Y-4773429D01*
G01X5654429Y-4773429D02*
G01X5657286Y-4772000D01*
G01X5657286Y-4772000D02*
G01X5661571Y-4772000D01*
G01X5661571Y-4772000D02*
G01X5664429Y-4773429D01*
G01X5664429Y-4773429D02*
G01X5665857Y-4774857D01*
G01X5665857Y-4774857D02*
G01X5667286Y-4777714D01*
G01X5667286Y-4777714D02*
G01X5667286Y-4789143D01*
G01X5680143Y-4760571D02*
G01X5681571Y-4756286D01*
G01X5681571Y-4756286D02*
G01X5681571Y-4749143D01*
G01X5681571Y-4749143D02*
G01X5680143Y-4746286D01*
G01X5680143Y-4746286D02*
G01X5678714Y-4744857D01*
G01X5678714Y-4744857D02*
G01X5675857Y-4743429D01*
G01X5675857Y-4743429D02*
G01X5673000Y-4743429D01*
G01X5673000Y-4743429D02*
G01X5670143Y-4744857D01*
G01X5670143Y-4744857D02*
G01X5668714Y-4746286D01*
G01X5668714Y-4746286D02*
G01X5667286Y-4749143D01*
G01X5667286Y-4749143D02*
G01X5665857Y-4754857D01*
G01X5665857Y-4754857D02*
G01X5664429Y-4757714D01*
G01X5664429Y-4757714D02*
G01X5663000Y-4759143D01*
G01X5663000Y-4759143D02*
G01X5660143Y-4760571D01*
G01X5660143Y-4760571D02*
G01X5657286Y-4760571D01*
G01X5657286Y-4760571D02*
G01X5654429Y-4759143D01*
G01X5654429Y-4759143D02*
G01X5653000Y-4757714D01*
G01X5653000Y-4757714D02*
G01X5651571Y-4754857D01*
G01X5651571Y-4754857D02*
G01X5651571Y-4747714D01*
G01X5651571Y-4747714D02*
G01X5653000Y-4743429D01*
G01X5651571Y-4734857D02*
G01X5651571Y-4717714D01*
G01X5681571Y-4726286D02*
G01X5651571Y-4726286D01*
G01X5751571Y-4792000D02*
G01X5751571Y-4773429D01*
G01X5751571Y-4773429D02*
G01X5763000Y-4783429D01*
G01X5763000Y-4783429D02*
G01X5763000Y-4779143D01*
G01X5763000Y-4779143D02*
G01X5764429Y-4776286D01*
G01X5764429Y-4776286D02*
G01X5765857Y-4774857D01*
G01X5765857Y-4774857D02*
G01X5768714Y-4773429D01*
G01X5768714Y-4773429D02*
G01X5775857Y-4773429D01*
G01X5775857Y-4773429D02*
G01X5778714Y-4774857D01*
G01X5778714Y-4774857D02*
G01X5780143Y-4776286D01*
G01X5780143Y-4776286D02*
G01X5781571Y-4779143D01*
G01X5781571Y-4779143D02*
G01X5781571Y-4787714D01*
G01X5781571Y-4787714D02*
G01X5780143Y-4790571D01*
G01X5780143Y-4790571D02*
G01X5778714Y-4792000D01*
G01X5778714Y-4760571D02*
G01X5780143Y-4759143D01*
G01X5780143Y-4759143D02*
G01X5781571Y-4760571D01*
G01X5781571Y-4760571D02*
G01X5780143Y-4762000D01*
G01X5780143Y-4762000D02*
G01X5778714Y-4760571D01*
G01X5778714Y-4760571D02*
G01X5781571Y-4760571D01*
G01X5751571Y-4749143D02*
G01X5751571Y-4730571D01*
G01X5751571Y-4730571D02*
G01X5763000Y-4740571D01*
G01X5763000Y-4740571D02*
G01X5763000Y-4736286D01*
G01X5763000Y-4736286D02*
G01X5764429Y-4733429D01*
G01X5764429Y-4733429D02*
G01X5765857Y-4732000D01*
G01X5765857Y-4732000D02*
G01X5768714Y-4730571D01*
G01X5768714Y-4730571D02*
G01X5775857Y-4730571D01*
G01X5775857Y-4730571D02*
G01X5778714Y-4732000D01*
G01X5778714Y-4732000D02*
G01X5780143Y-4733429D01*
G01X5780143Y-4733429D02*
G01X5781571Y-4736286D01*
G01X5781571Y-4736286D02*
G01X5781571Y-4744857D01*
G01X5781571Y-4744857D02*
G01X5780143Y-4747714D01*
G01X5780143Y-4747714D02*
G01X5778714Y-4749143D01*
G01X5751571Y-4722000D02*
G01X5781571Y-4712000D01*
G01X5781571Y-4712000D02*
G01X5751571Y-4702000D01*
G01X5851571Y-4774857D02*
G01X5851571Y-4789143D01*
G01X5851571Y-4789143D02*
G01X5865857Y-4790571D01*
G01X5865857Y-4790571D02*
G01X5864429Y-4789143D01*
G01X5864429Y-4789143D02*
G01X5863000Y-4786286D01*
G01X5863000Y-4786286D02*
G01X5863000Y-4779143D01*
G01X5863000Y-4779143D02*
G01X5864429Y-4776286D01*
G01X5864429Y-4776286D02*
G01X5865857Y-4774857D01*
G01X5865857Y-4774857D02*
G01X5868714Y-4773429D01*
G01X5868714Y-4773429D02*
G01X5875857Y-4773429D01*
G01X5875857Y-4773429D02*
G01X5878714Y-4774857D01*
G01X5878714Y-4774857D02*
G01X5880143Y-4776286D01*
G01X5880143Y-4776286D02*
G01X5881571Y-4779143D01*
G01X5881571Y-4779143D02*
G01X5881571Y-4786286D01*
G01X5881571Y-4786286D02*
G01X5880143Y-4789143D01*
G01X5880143Y-4789143D02*
G01X5878714Y-4790571D01*
G01X5851571Y-4764857D02*
G01X5881571Y-4754857D01*
G01X5881571Y-4754857D02*
G01X5851571Y-4744857D01*
G01X5953000Y-4773429D02*
G01X5951571Y-4776286D01*
G01X5951571Y-4776286D02*
G01X5951571Y-4780571D01*
G01X5951571Y-4780571D02*
G01X5953000Y-4784857D01*
G01X5953000Y-4784857D02*
G01X5955857Y-4787714D01*
G01X5955857Y-4787714D02*
G01X5958714Y-4789143D01*
G01X5958714Y-4789143D02*
G01X5964429Y-4790571D01*
G01X5964429Y-4790571D02*
G01X5968714Y-4790571D01*
G01X5968714Y-4790571D02*
G01X5974429Y-4789143D01*
G01X5974429Y-4789143D02*
G01X5977286Y-4787714D01*
G01X5977286Y-4787714D02*
G01X5980143Y-4784857D01*
G01X5980143Y-4784857D02*
G01X5981571Y-4780571D01*
G01X5981571Y-4780571D02*
G01X5981571Y-4777714D01*
G01X5981571Y-4777714D02*
G01X5980143Y-4773429D01*
G01X5980143Y-4773429D02*
G01X5978714Y-4772000D01*
G01X5978714Y-4772000D02*
G01X5968714Y-4772000D01*
G01X5968714Y-4772000D02*
G01X5968714Y-4777714D01*
G01X5981571Y-4759143D02*
G01X5951571Y-4759143D01*
G01X5951571Y-4759143D02*
G01X5981571Y-4742000D01*
G01X5981571Y-4742000D02*
G01X5951571Y-4742000D01*
G01X5981571Y-4727714D02*
G01X5951571Y-4727714D01*
G01X5951571Y-4727714D02*
G01X5951571Y-4720571D01*
G01X5951571Y-4720571D02*
G01X5953000Y-4716286D01*
G01X5953000Y-4716286D02*
G01X5955857Y-4713429D01*
G01X5955857Y-4713429D02*
G01X5958714Y-4712000D01*
G01X5958714Y-4712000D02*
G01X5964429Y-4710571D01*
G01X5964429Y-4710571D02*
G01X5968714Y-4710571D01*
G01X5968714Y-4710571D02*
G01X5974429Y-4712000D01*
G01X5974429Y-4712000D02*
G01X5977286Y-4713429D01*
G01X5977286Y-4713429D02*
G01X5980143Y-4716286D01*
G01X5980143Y-4716286D02*
G01X5981571Y-4720571D01*
G01X5981571Y-4720571D02*
G01X5981571Y-4727714D01*
G01X6053000Y-4773429D02*
G01X6051571Y-4776286D01*
G01X6051571Y-4776286D02*
G01X6051571Y-4780571D01*
G01X6051571Y-4780571D02*
G01X6053000Y-4784857D01*
G01X6053000Y-4784857D02*
G01X6055857Y-4787714D01*
G01X6055857Y-4787714D02*
G01X6058714Y-4789143D01*
G01X6058714Y-4789143D02*
G01X6064429Y-4790571D01*
G01X6064429Y-4790571D02*
G01X6068714Y-4790571D01*
G01X6068714Y-4790571D02*
G01X6074429Y-4789143D01*
G01X6074429Y-4789143D02*
G01X6077286Y-4787714D01*
G01X6077286Y-4787714D02*
G01X6080143Y-4784857D01*
G01X6080143Y-4784857D02*
G01X6081571Y-4780571D01*
G01X6081571Y-4780571D02*
G01X6081571Y-4777714D01*
G01X6081571Y-4777714D02*
G01X6080143Y-4773429D01*
G01X6080143Y-4773429D02*
G01X6078714Y-4772000D01*
G01X6078714Y-4772000D02*
G01X6068714Y-4772000D01*
G01X6068714Y-4772000D02*
G01X6068714Y-4777714D01*
G01X6081571Y-4759143D02*
G01X6051571Y-4759143D01*
G01X6051571Y-4759143D02*
G01X6081571Y-4742000D01*
G01X6081571Y-4742000D02*
G01X6051571Y-4742000D01*
G01X6081571Y-4727714D02*
G01X6051571Y-4727714D01*
G01X6051571Y-4727714D02*
G01X6051571Y-4720571D01*
G01X6051571Y-4720571D02*
G01X6053000Y-4716286D01*
G01X6053000Y-4716286D02*
G01X6055857Y-4713429D01*
G01X6055857Y-4713429D02*
G01X6058714Y-4712000D01*
G01X6058714Y-4712000D02*
G01X6064429Y-4710571D01*
G01X6064429Y-4710571D02*
G01X6068714Y-4710571D01*
G01X6068714Y-4710571D02*
G01X6074429Y-4712000D01*
G01X6074429Y-4712000D02*
G01X6077286Y-4713429D01*
G01X6077286Y-4713429D02*
G01X6080143Y-4716286D01*
G01X6080143Y-4716286D02*
G01X6081571Y-4720571D01*
G01X6081571Y-4720571D02*
G01X6081571Y-4727714D01*
G01X6151571Y-4793429D02*
G01X6181571Y-4783429D01*
G01X6181571Y-4783429D02*
G01X6151571Y-4773429D01*
G01X6181571Y-4763429D02*
G01X6151571Y-4763429D01*
G01X6181571Y-4749143D02*
G01X6151571Y-4749143D01*
G01X6151571Y-4749143D02*
G01X6181571Y-4732000D01*
G01X6181571Y-4732000D02*
G01X6151571Y-4732000D01*
G01X6674000Y-4790571D02*
G01X6674000Y-4776286D01*
G01X6682571Y-4793429D02*
G01X6652571Y-4783429D01*
G01X6652571Y-4783429D02*
G01X6682571Y-4773429D01*
G01X6652571Y-4766286D02*
G01X6652571Y-4747714D01*
G01X6652571Y-4747714D02*
G01X6664000Y-4757714D01*
G01X6664000Y-4757714D02*
G01X6664000Y-4753429D01*
G01X6664000Y-4753429D02*
G01X6665429Y-4750571D01*
G01X6665429Y-4750571D02*
G01X6666857Y-4749143D01*
G01X6666857Y-4749143D02*
G01X6669714Y-4747714D01*
G01X6669714Y-4747714D02*
G01X6676857Y-4747714D01*
G01X6676857Y-4747714D02*
G01X6679714Y-4749143D01*
G01X6679714Y-4749143D02*
G01X6681143Y-4750571D01*
G01X6681143Y-4750571D02*
G01X6682571Y-4753429D01*
G01X6682571Y-4753429D02*
G01X6682571Y-4762000D01*
G01X6682571Y-4762000D02*
G01X6681143Y-4764857D01*
G01X6681143Y-4764857D02*
G01X6679714Y-4766286D01*
G01X6374000Y-4790571D02*
G01X6374000Y-4776286D01*
G01X6382571Y-4793429D02*
G01X6352571Y-4783429D01*
G01X6352571Y-4783429D02*
G01X6382571Y-4773429D01*
G01X6352571Y-4757714D02*
G01X6352571Y-4754857D01*
G01X6352571Y-4754857D02*
G01X6354000Y-4752000D01*
G01X6354000Y-4752000D02*
G01X6355429Y-4750571D01*
G01X6355429Y-4750571D02*
G01X6358286Y-4749143D01*
G01X6358286Y-4749143D02*
G01X6364000Y-4747714D01*
G01X6364000Y-4747714D02*
G01X6371143Y-4747714D01*
G01X6371143Y-4747714D02*
G01X6376857Y-4749143D01*
G01X6376857Y-4749143D02*
G01X6379714Y-4750571D01*
G01X6379714Y-4750571D02*
G01X6381143Y-4752000D01*
G01X6381143Y-4752000D02*
G01X6382571Y-4754857D01*
G01X6382571Y-4754857D02*
G01X6382571Y-4757714D01*
G01X6382571Y-4757714D02*
G01X6381143Y-4760571D01*
G01X6381143Y-4760571D02*
G01X6379714Y-4762000D01*
G01X6379714Y-4762000D02*
G01X6376857Y-4763429D01*
G01X6376857Y-4763429D02*
G01X6371143Y-4764857D01*
G01X6371143Y-4764857D02*
G01X6364000Y-4764857D01*
G01X6364000Y-4764857D02*
G01X6358286Y-4763429D01*
G01X6358286Y-4763429D02*
G01X6355429Y-4762000D01*
G01X6355429Y-4762000D02*
G01X6354000Y-4760571D01*
G01X6354000Y-4760571D02*
G01X6352571Y-4757714D01*
G01X6474000Y-4790571D02*
G01X6474000Y-4776286D01*
G01X6482571Y-4793429D02*
G01X6452571Y-4783429D01*
G01X6452571Y-4783429D02*
G01X6482571Y-4773429D01*
G01X6482571Y-4747714D02*
G01X6482571Y-4764857D01*
G01X6482571Y-4756286D02*
G01X6452571Y-4756286D01*
G01X6452571Y-4756286D02*
G01X6456857Y-4759143D01*
G01X6456857Y-4759143D02*
G01X6459714Y-4762000D01*
G01X6459714Y-4762000D02*
G01X6461143Y-4764857D01*
G01X6574000Y-4790571D02*
G01X6574000Y-4776286D01*
G01X6582571Y-4793429D02*
G01X6552571Y-4783429D01*
G01X6552571Y-4783429D02*
G01X6582571Y-4773429D01*
G01X6555429Y-4764857D02*
G01X6554000Y-4763429D01*
G01X6554000Y-4763429D02*
G01X6552571Y-4760571D01*
G01X6552571Y-4760571D02*
G01X6552571Y-4753429D01*
G01X6552571Y-4753429D02*
G01X6554000Y-4750571D01*
G01X6554000Y-4750571D02*
G01X6555429Y-4749143D01*
G01X6555429Y-4749143D02*
G01X6558286Y-4747714D01*
G01X6558286Y-4747714D02*
G01X6561143Y-4747714D01*
G01X6561143Y-4747714D02*
G01X6565429Y-4749143D01*
G01X6565429Y-4749143D02*
G01X6582571Y-4766286D01*
G01X6582571Y-4766286D02*
G01X6582571Y-4747714D01*
G01X6682571Y-3111714D02*
G01X6652571Y-3111714D01*
G01X6652571Y-3111714D02*
G01X6652571Y-3104571D01*
G01X6652571Y-3104571D02*
G01X6654000Y-3100286D01*
G01X6654000Y-3100286D02*
G01X6656857Y-3097429D01*
G01X6656857Y-3097429D02*
G01X6659714Y-3096000D01*
G01X6659714Y-3096000D02*
G01X6665429Y-3094571D01*
G01X6665429Y-3094571D02*
G01X6669714Y-3094571D01*
G01X6669714Y-3094571D02*
G01X6675429Y-3096000D01*
G01X6675429Y-3096000D02*
G01X6678286Y-3097429D01*
G01X6678286Y-3097429D02*
G01X6681143Y-3100286D01*
G01X6681143Y-3100286D02*
G01X6682571Y-3104571D01*
G01X6682571Y-3104571D02*
G01X6682571Y-3111714D01*
G01X6655429Y-3083143D02*
G01X6654000Y-3081714D01*
G01X6654000Y-3081714D02*
G01X6652571Y-3078857D01*
G01X6652571Y-3078857D02*
G01X6652571Y-3071714D01*
G01X6652571Y-3071714D02*
G01X6654000Y-3068857D01*
G01X6654000Y-3068857D02*
G01X6655429Y-3067429D01*
G01X6655429Y-3067429D02*
G01X6658286Y-3066000D01*
G01X6658286Y-3066000D02*
G01X6661143Y-3066000D01*
G01X6661143Y-3066000D02*
G01X6665429Y-3067429D01*
G01X6665429Y-3067429D02*
G01X6682571Y-3084571D01*
G01X6682571Y-3084571D02*
G01X6682571Y-3066000D01*
G01X6482571Y-3111714D02*
G01X6452571Y-3111714D01*
G01X6452571Y-3111714D02*
G01X6452571Y-3104571D01*
G01X6452571Y-3104571D02*
G01X6454000Y-3100286D01*
G01X6454000Y-3100286D02*
G01X6456857Y-3097429D01*
G01X6456857Y-3097429D02*
G01X6459714Y-3096000D01*
G01X6459714Y-3096000D02*
G01X6465429Y-3094571D01*
G01X6465429Y-3094571D02*
G01X6469714Y-3094571D01*
G01X6469714Y-3094571D02*
G01X6475429Y-3096000D01*
G01X6475429Y-3096000D02*
G01X6478286Y-3097429D01*
G01X6478286Y-3097429D02*
G01X6481143Y-3100286D01*
G01X6481143Y-3100286D02*
G01X6482571Y-3104571D01*
G01X6482571Y-3104571D02*
G01X6482571Y-3111714D01*
G01X6462571Y-3068857D02*
G01X6482571Y-3068857D01*
G01X6451143Y-3076000D02*
G01X6472571Y-3083143D01*
G01X6472571Y-3083143D02*
G01X6472571Y-3064571D01*
G01X6382571Y-3111714D02*
G01X6352571Y-3111714D01*
G01X6352571Y-3111714D02*
G01X6352571Y-3104571D01*
G01X6352571Y-3104571D02*
G01X6354000Y-3100286D01*
G01X6354000Y-3100286D02*
G01X6356857Y-3097429D01*
G01X6356857Y-3097429D02*
G01X6359714Y-3096000D01*
G01X6359714Y-3096000D02*
G01X6365429Y-3094571D01*
G01X6365429Y-3094571D02*
G01X6369714Y-3094571D01*
G01X6369714Y-3094571D02*
G01X6375429Y-3096000D01*
G01X6375429Y-3096000D02*
G01X6378286Y-3097429D01*
G01X6378286Y-3097429D02*
G01X6381143Y-3100286D01*
G01X6381143Y-3100286D02*
G01X6382571Y-3104571D01*
G01X6382571Y-3104571D02*
G01X6382571Y-3111714D01*
G01X6352571Y-3067429D02*
G01X6352571Y-3081714D01*
G01X6352571Y-3081714D02*
G01X6366857Y-3083143D01*
G01X6366857Y-3083143D02*
G01X6365429Y-3081714D01*
G01X6365429Y-3081714D02*
G01X6364000Y-3078857D01*
G01X6364000Y-3078857D02*
G01X6364000Y-3071714D01*
G01X6364000Y-3071714D02*
G01X6365429Y-3068857D01*
G01X6365429Y-3068857D02*
G01X6366857Y-3067429D01*
G01X6366857Y-3067429D02*
G01X6369714Y-3066000D01*
G01X6369714Y-3066000D02*
G01X6376857Y-3066000D01*
G01X6376857Y-3066000D02*
G01X6379714Y-3067429D01*
G01X6379714Y-3067429D02*
G01X6381143Y-3068857D01*
G01X6381143Y-3068857D02*
G01X6382571Y-3071714D01*
G01X6382571Y-3071714D02*
G01X6382571Y-3078857D01*
G01X6382571Y-3078857D02*
G01X6381143Y-3081714D01*
G01X6381143Y-3081714D02*
G01X6379714Y-3083143D01*
G01X6282571Y-3111714D02*
G01X6252571Y-3111714D01*
G01X6252571Y-3111714D02*
G01X6252571Y-3104571D01*
G01X6252571Y-3104571D02*
G01X6254000Y-3100286D01*
G01X6254000Y-3100286D02*
G01X6256857Y-3097429D01*
G01X6256857Y-3097429D02*
G01X6259714Y-3096000D01*
G01X6259714Y-3096000D02*
G01X6265429Y-3094571D01*
G01X6265429Y-3094571D02*
G01X6269714Y-3094571D01*
G01X6269714Y-3094571D02*
G01X6275429Y-3096000D01*
G01X6275429Y-3096000D02*
G01X6278286Y-3097429D01*
G01X6278286Y-3097429D02*
G01X6281143Y-3100286D01*
G01X6281143Y-3100286D02*
G01X6282571Y-3104571D01*
G01X6282571Y-3104571D02*
G01X6282571Y-3111714D01*
G01X6252571Y-3068857D02*
G01X6252571Y-3074571D01*
G01X6252571Y-3074571D02*
G01X6254000Y-3077429D01*
G01X6254000Y-3077429D02*
G01X6255429Y-3078857D01*
G01X6255429Y-3078857D02*
G01X6259714Y-3081714D01*
G01X6259714Y-3081714D02*
G01X6265429Y-3083143D01*
G01X6265429Y-3083143D02*
G01X6276857Y-3083143D01*
G01X6276857Y-3083143D02*
G01X6279714Y-3081714D01*
G01X6279714Y-3081714D02*
G01X6281143Y-3080286D01*
G01X6281143Y-3080286D02*
G01X6282571Y-3077429D01*
G01X6282571Y-3077429D02*
G01X6282571Y-3071714D01*
G01X6282571Y-3071714D02*
G01X6281143Y-3068857D01*
G01X6281143Y-3068857D02*
G01X6279714Y-3067429D01*
G01X6279714Y-3067429D02*
G01X6276857Y-3066000D01*
G01X6276857Y-3066000D02*
G01X6269714Y-3066000D01*
G01X6269714Y-3066000D02*
G01X6266857Y-3067429D01*
G01X6266857Y-3067429D02*
G01X6265429Y-3068857D01*
G01X6265429Y-3068857D02*
G01X6264000Y-3071714D01*
G01X6264000Y-3071714D02*
G01X6264000Y-3077429D01*
G01X6264000Y-3077429D02*
G01X6265429Y-3080286D01*
G01X6265429Y-3080286D02*
G01X6266857Y-3081714D01*
G01X6266857Y-3081714D02*
G01X6269714Y-3083143D01*
G01X6184571Y-3111714D02*
G01X6154571Y-3111714D01*
G01X6154571Y-3111714D02*
G01X6154571Y-3104571D01*
G01X6154571Y-3104571D02*
G01X6156000Y-3100286D01*
G01X6156000Y-3100286D02*
G01X6158857Y-3097429D01*
G01X6158857Y-3097429D02*
G01X6161714Y-3096000D01*
G01X6161714Y-3096000D02*
G01X6167429Y-3094571D01*
G01X6167429Y-3094571D02*
G01X6171714Y-3094571D01*
G01X6171714Y-3094571D02*
G01X6177429Y-3096000D01*
G01X6177429Y-3096000D02*
G01X6180286Y-3097429D01*
G01X6180286Y-3097429D02*
G01X6183143Y-3100286D01*
G01X6183143Y-3100286D02*
G01X6184571Y-3104571D01*
G01X6184571Y-3104571D02*
G01X6184571Y-3111714D01*
G01X6154571Y-3084571D02*
G01X6154571Y-3064571D01*
G01X6154571Y-3064571D02*
G01X6184571Y-3077429D01*
G01X6582571Y-3111714D02*
G01X6552571Y-3111714D01*
G01X6552571Y-3111714D02*
G01X6552571Y-3104571D01*
G01X6552571Y-3104571D02*
G01X6554000Y-3100286D01*
G01X6554000Y-3100286D02*
G01X6556857Y-3097429D01*
G01X6556857Y-3097429D02*
G01X6559714Y-3096000D01*
G01X6559714Y-3096000D02*
G01X6565429Y-3094571D01*
G01X6565429Y-3094571D02*
G01X6569714Y-3094571D01*
G01X6569714Y-3094571D02*
G01X6575429Y-3096000D01*
G01X6575429Y-3096000D02*
G01X6578286Y-3097429D01*
G01X6578286Y-3097429D02*
G01X6581143Y-3100286D01*
G01X6581143Y-3100286D02*
G01X6582571Y-3104571D01*
G01X6582571Y-3104571D02*
G01X6582571Y-3111714D01*
G01X6552571Y-3084571D02*
G01X6552571Y-3066000D01*
G01X6552571Y-3066000D02*
G01X6564000Y-3076000D01*
G01X6564000Y-3076000D02*
G01X6564000Y-3071714D01*
G01X6564000Y-3071714D02*
G01X6565429Y-3068857D01*
G01X6565429Y-3068857D02*
G01X6566857Y-3067429D01*
G01X6566857Y-3067429D02*
G01X6569714Y-3066000D01*
G01X6569714Y-3066000D02*
G01X6576857Y-3066000D01*
G01X6576857Y-3066000D02*
G01X6579714Y-3067429D01*
G01X6579714Y-3067429D02*
G01X6581143Y-3068857D01*
G01X6581143Y-3068857D02*
G01X6582571Y-3071714D01*
G01X6582571Y-3071714D02*
G01X6582571Y-3080286D01*
G01X6582571Y-3080286D02*
G01X6581143Y-3083143D01*
G01X6581143Y-3083143D02*
G01X6579714Y-3084571D01*
G01X5822571Y-3140286D02*
G01X5792571Y-3140286D01*
G01X5792571Y-3140286D02*
G01X5792571Y-3133143D01*
G01X5792571Y-3133143D02*
G01X5794000Y-3128857D01*
G01X5794000Y-3128857D02*
G01X5796857Y-3126000D01*
G01X5796857Y-3126000D02*
G01X5799714Y-3124571D01*
G01X5799714Y-3124571D02*
G01X5805429Y-3123143D01*
G01X5805429Y-3123143D02*
G01X5809714Y-3123143D01*
G01X5809714Y-3123143D02*
G01X5815429Y-3124571D01*
G01X5815429Y-3124571D02*
G01X5818286Y-3126000D01*
G01X5818286Y-3126000D02*
G01X5821143Y-3128857D01*
G01X5821143Y-3128857D02*
G01X5822571Y-3133143D01*
G01X5822571Y-3133143D02*
G01X5822571Y-3140286D01*
G01X5822571Y-3094571D02*
G01X5822571Y-3111714D01*
G01X5822571Y-3103143D02*
G01X5792571Y-3103143D01*
G01X5792571Y-3103143D02*
G01X5796857Y-3106000D01*
G01X5796857Y-3106000D02*
G01X5799714Y-3108857D01*
G01X5799714Y-3108857D02*
G01X5801143Y-3111714D01*
G01X5792571Y-3076000D02*
G01X5792571Y-3073143D01*
G01X5792571Y-3073143D02*
G01X5794000Y-3070286D01*
G01X5794000Y-3070286D02*
G01X5795429Y-3068857D01*
G01X5795429Y-3068857D02*
G01X5798286Y-3067429D01*
G01X5798286Y-3067429D02*
G01X5804000Y-3066000D01*
G01X5804000Y-3066000D02*
G01X5811143Y-3066000D01*
G01X5811143Y-3066000D02*
G01X5816857Y-3067429D01*
G01X5816857Y-3067429D02*
G01X5819714Y-3068857D01*
G01X5819714Y-3068857D02*
G01X5821143Y-3070286D01*
G01X5821143Y-3070286D02*
G01X5822571Y-3073143D01*
G01X5822571Y-3073143D02*
G01X5822571Y-3076000D01*
G01X5822571Y-3076000D02*
G01X5821143Y-3078857D01*
G01X5821143Y-3078857D02*
G01X5819714Y-3080286D01*
G01X5819714Y-3080286D02*
G01X5816857Y-3081714D01*
G01X5816857Y-3081714D02*
G01X5811143Y-3083143D01*
G01X5811143Y-3083143D02*
G01X5804000Y-3083143D01*
G01X5804000Y-3083143D02*
G01X5798286Y-3081714D01*
G01X5798286Y-3081714D02*
G01X5795429Y-3080286D01*
G01X5795429Y-3080286D02*
G01X5794000Y-3078857D01*
G01X5794000Y-3078857D02*
G01X5792571Y-3076000D01*
G01X5622571Y-3140286D02*
G01X5592571Y-3140286D01*
G01X5592571Y-3140286D02*
G01X5592571Y-3133143D01*
G01X5592571Y-3133143D02*
G01X5594000Y-3128857D01*
G01X5594000Y-3128857D02*
G01X5596857Y-3126000D01*
G01X5596857Y-3126000D02*
G01X5599714Y-3124571D01*
G01X5599714Y-3124571D02*
G01X5605429Y-3123143D01*
G01X5605429Y-3123143D02*
G01X5609714Y-3123143D01*
G01X5609714Y-3123143D02*
G01X5615429Y-3124571D01*
G01X5615429Y-3124571D02*
G01X5618286Y-3126000D01*
G01X5618286Y-3126000D02*
G01X5621143Y-3128857D01*
G01X5621143Y-3128857D02*
G01X5622571Y-3133143D01*
G01X5622571Y-3133143D02*
G01X5622571Y-3140286D01*
G01X5622571Y-3094571D02*
G01X5622571Y-3111714D01*
G01X5622571Y-3103143D02*
G01X5592571Y-3103143D01*
G01X5592571Y-3103143D02*
G01X5596857Y-3106000D01*
G01X5596857Y-3106000D02*
G01X5599714Y-3108857D01*
G01X5599714Y-3108857D02*
G01X5601143Y-3111714D01*
G01X5595429Y-3083143D02*
G01X5594000Y-3081714D01*
G01X5594000Y-3081714D02*
G01X5592571Y-3078857D01*
G01X5592571Y-3078857D02*
G01X5592571Y-3071714D01*
G01X5592571Y-3071714D02*
G01X5594000Y-3068857D01*
G01X5594000Y-3068857D02*
G01X5595429Y-3067429D01*
G01X5595429Y-3067429D02*
G01X5598286Y-3066000D01*
G01X5598286Y-3066000D02*
G01X5601143Y-3066000D01*
G01X5601143Y-3066000D02*
G01X5605429Y-3067429D01*
G01X5605429Y-3067429D02*
G01X5622571Y-3084571D01*
G01X5622571Y-3084571D02*
G01X5622571Y-3066000D01*
G01X5922571Y-3111714D02*
G01X5892571Y-3111714D01*
G01X5892571Y-3111714D02*
G01X5892571Y-3104571D01*
G01X5892571Y-3104571D02*
G01X5894000Y-3100286D01*
G01X5894000Y-3100286D02*
G01X5896857Y-3097429D01*
G01X5896857Y-3097429D02*
G01X5899714Y-3096000D01*
G01X5899714Y-3096000D02*
G01X5905429Y-3094571D01*
G01X5905429Y-3094571D02*
G01X5909714Y-3094571D01*
G01X5909714Y-3094571D02*
G01X5915429Y-3096000D01*
G01X5915429Y-3096000D02*
G01X5918286Y-3097429D01*
G01X5918286Y-3097429D02*
G01X5921143Y-3100286D01*
G01X5921143Y-3100286D02*
G01X5922571Y-3104571D01*
G01X5922571Y-3104571D02*
G01X5922571Y-3111714D01*
G01X5922571Y-3080286D02*
G01X5922571Y-3074571D01*
G01X5922571Y-3074571D02*
G01X5921143Y-3071714D01*
G01X5921143Y-3071714D02*
G01X5919714Y-3070286D01*
G01X5919714Y-3070286D02*
G01X5915429Y-3067429D01*
G01X5915429Y-3067429D02*
G01X5909714Y-3066000D01*
G01X5909714Y-3066000D02*
G01X5898286Y-3066000D01*
G01X5898286Y-3066000D02*
G01X5895429Y-3067429D01*
G01X5895429Y-3067429D02*
G01X5894000Y-3068857D01*
G01X5894000Y-3068857D02*
G01X5892571Y-3071714D01*
G01X5892571Y-3071714D02*
G01X5892571Y-3077429D01*
G01X5892571Y-3077429D02*
G01X5894000Y-3080286D01*
G01X5894000Y-3080286D02*
G01X5895429Y-3081714D01*
G01X5895429Y-3081714D02*
G01X5898286Y-3083143D01*
G01X5898286Y-3083143D02*
G01X5905429Y-3083143D01*
G01X5905429Y-3083143D02*
G01X5908286Y-3081714D01*
G01X5908286Y-3081714D02*
G01X5909714Y-3080286D01*
G01X5909714Y-3080286D02*
G01X5911143Y-3077429D01*
G01X5911143Y-3077429D02*
G01X5911143Y-3071714D01*
G01X5911143Y-3071714D02*
G01X5909714Y-3068857D01*
G01X5909714Y-3068857D02*
G01X5908286Y-3067429D01*
G01X5908286Y-3067429D02*
G01X5905429Y-3066000D01*
G01X6022571Y-3111714D02*
G01X5992571Y-3111714D01*
G01X5992571Y-3111714D02*
G01X5992571Y-3104571D01*
G01X5992571Y-3104571D02*
G01X5994000Y-3100286D01*
G01X5994000Y-3100286D02*
G01X5996857Y-3097429D01*
G01X5996857Y-3097429D02*
G01X5999714Y-3096000D01*
G01X5999714Y-3096000D02*
G01X6005429Y-3094571D01*
G01X6005429Y-3094571D02*
G01X6009714Y-3094571D01*
G01X6009714Y-3094571D02*
G01X6015429Y-3096000D01*
G01X6015429Y-3096000D02*
G01X6018286Y-3097429D01*
G01X6018286Y-3097429D02*
G01X6021143Y-3100286D01*
G01X6021143Y-3100286D02*
G01X6022571Y-3104571D01*
G01X6022571Y-3104571D02*
G01X6022571Y-3111714D01*
G01X6005429Y-3077429D02*
G01X6004000Y-3080286D01*
G01X6004000Y-3080286D02*
G01X6002571Y-3081714D01*
G01X6002571Y-3081714D02*
G01X5999714Y-3083143D01*
G01X5999714Y-3083143D02*
G01X5998286Y-3083143D01*
G01X5998286Y-3083143D02*
G01X5995429Y-3081714D01*
G01X5995429Y-3081714D02*
G01X5994000Y-3080286D01*
G01X5994000Y-3080286D02*
G01X5992571Y-3077429D01*
G01X5992571Y-3077429D02*
G01X5992571Y-3071714D01*
G01X5992571Y-3071714D02*
G01X5994000Y-3068857D01*
G01X5994000Y-3068857D02*
G01X5995429Y-3067429D01*
G01X5995429Y-3067429D02*
G01X5998286Y-3066000D01*
G01X5998286Y-3066000D02*
G01X5999714Y-3066000D01*
G01X5999714Y-3066000D02*
G01X6002571Y-3067429D01*
G01X6002571Y-3067429D02*
G01X6004000Y-3068857D01*
G01X6004000Y-3068857D02*
G01X6005429Y-3071714D01*
G01X6005429Y-3071714D02*
G01X6005429Y-3077429D01*
G01X6005429Y-3077429D02*
G01X6006857Y-3080286D01*
G01X6006857Y-3080286D02*
G01X6008286Y-3081714D01*
G01X6008286Y-3081714D02*
G01X6011143Y-3083143D01*
G01X6011143Y-3083143D02*
G01X6016857Y-3083143D01*
G01X6016857Y-3083143D02*
G01X6019714Y-3081714D01*
G01X6019714Y-3081714D02*
G01X6021143Y-3080286D01*
G01X6021143Y-3080286D02*
G01X6022571Y-3077429D01*
G01X6022571Y-3077429D02*
G01X6022571Y-3071714D01*
G01X6022571Y-3071714D02*
G01X6021143Y-3068857D01*
G01X6021143Y-3068857D02*
G01X6019714Y-3067429D01*
G01X6019714Y-3067429D02*
G01X6016857Y-3066000D01*
G01X6016857Y-3066000D02*
G01X6011143Y-3066000D01*
G01X6011143Y-3066000D02*
G01X6008286Y-3067429D01*
G01X6008286Y-3067429D02*
G01X6006857Y-3068857D01*
G01X6006857Y-3068857D02*
G01X6005429Y-3071714D01*
G01X5722571Y-3140286D02*
G01X5692571Y-3140286D01*
G01X5692571Y-3140286D02*
G01X5692571Y-3133143D01*
G01X5692571Y-3133143D02*
G01X5694000Y-3128857D01*
G01X5694000Y-3128857D02*
G01X5696857Y-3126000D01*
G01X5696857Y-3126000D02*
G01X5699714Y-3124571D01*
G01X5699714Y-3124571D02*
G01X5705429Y-3123143D01*
G01X5705429Y-3123143D02*
G01X5709714Y-3123143D01*
G01X5709714Y-3123143D02*
G01X5715429Y-3124571D01*
G01X5715429Y-3124571D02*
G01X5718286Y-3126000D01*
G01X5718286Y-3126000D02*
G01X5721143Y-3128857D01*
G01X5721143Y-3128857D02*
G01X5722571Y-3133143D01*
G01X5722571Y-3133143D02*
G01X5722571Y-3140286D01*
G01X5722571Y-3094571D02*
G01X5722571Y-3111714D01*
G01X5722571Y-3103143D02*
G01X5692571Y-3103143D01*
G01X5692571Y-3103143D02*
G01X5696857Y-3106000D01*
G01X5696857Y-3106000D02*
G01X5699714Y-3108857D01*
G01X5699714Y-3108857D02*
G01X5701143Y-3111714D01*
G01X5722571Y-3066000D02*
G01X5722571Y-3083143D01*
G01X5722571Y-3074571D02*
G01X5692571Y-3074571D01*
G01X5692571Y-3074571D02*
G01X5696857Y-3077429D01*
G01X5696857Y-3077429D02*
G01X5699714Y-3080286D01*
G01X5699714Y-3080286D02*
G01X5701143Y-3083143D01*
G01X5524571Y-3140286D02*
G01X5494571Y-3140286D01*
G01X5494571Y-3140286D02*
G01X5494571Y-3133143D01*
G01X5494571Y-3133143D02*
G01X5496000Y-3128857D01*
G01X5496000Y-3128857D02*
G01X5498857Y-3126000D01*
G01X5498857Y-3126000D02*
G01X5501714Y-3124571D01*
G01X5501714Y-3124571D02*
G01X5507429Y-3123143D01*
G01X5507429Y-3123143D02*
G01X5511714Y-3123143D01*
G01X5511714Y-3123143D02*
G01X5517429Y-3124571D01*
G01X5517429Y-3124571D02*
G01X5520286Y-3126000D01*
G01X5520286Y-3126000D02*
G01X5523143Y-3128857D01*
G01X5523143Y-3128857D02*
G01X5524571Y-3133143D01*
G01X5524571Y-3133143D02*
G01X5524571Y-3140286D01*
G01X5524571Y-3094571D02*
G01X5524571Y-3111714D01*
G01X5524571Y-3103143D02*
G01X5494571Y-3103143D01*
G01X5494571Y-3103143D02*
G01X5498857Y-3106000D01*
G01X5498857Y-3106000D02*
G01X5501714Y-3108857D01*
G01X5501714Y-3108857D02*
G01X5503143Y-3111714D01*
G01X5494571Y-3084571D02*
G01X5494571Y-3066000D01*
G01X5494571Y-3066000D02*
G01X5506000Y-3076000D01*
G01X5506000Y-3076000D02*
G01X5506000Y-3071714D01*
G01X5506000Y-3071714D02*
G01X5507429Y-3068857D01*
G01X5507429Y-3068857D02*
G01X5508857Y-3067429D01*
G01X5508857Y-3067429D02*
G01X5511714Y-3066000D01*
G01X5511714Y-3066000D02*
G01X5518857Y-3066000D01*
G01X5518857Y-3066000D02*
G01X5521714Y-3067429D01*
G01X5521714Y-3067429D02*
G01X5523143Y-3068857D01*
G01X5523143Y-3068857D02*
G01X5524571Y-3071714D01*
G01X5524571Y-3071714D02*
G01X5524571Y-3080286D01*
G01X5524571Y-3080286D02*
G01X5523143Y-3083143D01*
G01X5523143Y-3083143D02*
G01X5521714Y-3084571D01*
G01X5394000Y-3128857D02*
G01X5392571Y-3131714D01*
G01X5392571Y-3131714D02*
G01X5392571Y-3136000D01*
G01X5392571Y-3136000D02*
G01X5394000Y-3140286D01*
G01X5394000Y-3140286D02*
G01X5396857Y-3143143D01*
G01X5396857Y-3143143D02*
G01X5399714Y-3144571D01*
G01X5399714Y-3144571D02*
G01X5405429Y-3146000D01*
G01X5405429Y-3146000D02*
G01X5409714Y-3146000D01*
G01X5409714Y-3146000D02*
G01X5415429Y-3144571D01*
G01X5415429Y-3144571D02*
G01X5418286Y-3143143D01*
G01X5418286Y-3143143D02*
G01X5421143Y-3140286D01*
G01X5421143Y-3140286D02*
G01X5422571Y-3136000D01*
G01X5422571Y-3136000D02*
G01X5422571Y-3133143D01*
G01X5422571Y-3133143D02*
G01X5421143Y-3128857D01*
G01X5421143Y-3128857D02*
G01X5419714Y-3127429D01*
G01X5419714Y-3127429D02*
G01X5409714Y-3127429D01*
G01X5409714Y-3127429D02*
G01X5409714Y-3133143D01*
G01X5422571Y-3114571D02*
G01X5392571Y-3114571D01*
G01X5392571Y-3114571D02*
G01X5422571Y-3097429D01*
G01X5422571Y-3097429D02*
G01X5392571Y-3097429D01*
G01X5422571Y-3083143D02*
G01X5392571Y-3083143D01*
G01X5392571Y-3083143D02*
G01X5392571Y-3076000D01*
G01X5392571Y-3076000D02*
G01X5394000Y-3071714D01*
G01X5394000Y-3071714D02*
G01X5396857Y-3068857D01*
G01X5396857Y-3068857D02*
G01X5399714Y-3067429D01*
G01X5399714Y-3067429D02*
G01X5405429Y-3066000D01*
G01X5405429Y-3066000D02*
G01X5409714Y-3066000D01*
G01X5409714Y-3066000D02*
G01X5415429Y-3067429D01*
G01X5415429Y-3067429D02*
G01X5418286Y-3068857D01*
G01X5418286Y-3068857D02*
G01X5421143Y-3071714D01*
G01X5421143Y-3071714D02*
G01X5422571Y-3076000D01*
G01X5422571Y-3076000D02*
G01X5422571Y-3083143D01*
G01X5314000Y-3163143D02*
G01X5314000Y-3148857D01*
G01X5322571Y-3166000D02*
G01X5292571Y-3156000D01*
G01X5292571Y-3156000D02*
G01X5322571Y-3146000D01*
G01X5322571Y-3118857D02*
G01X5308286Y-3128857D01*
G01X5322571Y-3136000D02*
G01X5292571Y-3136000D01*
G01X5292571Y-3136000D02*
G01X5292571Y-3124571D01*
G01X5292571Y-3124571D02*
G01X5294000Y-3121714D01*
G01X5294000Y-3121714D02*
G01X5295429Y-3120286D01*
G01X5295429Y-3120286D02*
G01X5298286Y-3118857D01*
G01X5298286Y-3118857D02*
G01X5302571Y-3118857D01*
G01X5302571Y-3118857D02*
G01X5305429Y-3120286D01*
G01X5305429Y-3120286D02*
G01X5306857Y-3121714D01*
G01X5306857Y-3121714D02*
G01X5308286Y-3124571D01*
G01X5308286Y-3124571D02*
G01X5308286Y-3136000D01*
G01X5306857Y-3106000D02*
G01X5306857Y-3096000D01*
G01X5322571Y-3091714D02*
G01X5322571Y-3106000D01*
G01X5322571Y-3106000D02*
G01X5292571Y-3106000D01*
G01X5292571Y-3106000D02*
G01X5292571Y-3091714D01*
G01X5306857Y-3068857D02*
G01X5306857Y-3078857D01*
G01X5322571Y-3078857D02*
G01X5292571Y-3078857D01*
G01X5292571Y-3078857D02*
G01X5292571Y-3064571D01*
G54D12*
G01X5953438Y-3757810D02*
G01X5940315Y-3739063D01*
G01X5930941Y-3757810D02*
G01X5930941Y-3718440D01*
G01X5930941Y-3718440D02*
G01X5945939Y-3718440D01*
G01X5945939Y-3718440D02*
G01X5949689Y-3720315D01*
G01X5949689Y-3720315D02*
G01X5951564Y-3722190D01*
G01X5951564Y-3722190D02*
G01X5953438Y-3725939D01*
G01X5953438Y-3725939D02*
G01X5953438Y-3731564D01*
G01X5953438Y-3731564D02*
G01X5951564Y-3735313D01*
G01X5951564Y-3735313D02*
G01X5949689Y-3737188D01*
G01X5949689Y-3737188D02*
G01X5945939Y-3739063D01*
G01X5945939Y-3739063D02*
G01X5930941Y-3739063D01*
G01X5975936Y-3735313D02*
G01X5972186Y-3733438D01*
G01X5972186Y-3733438D02*
G01X5970311Y-3731564D01*
G01X5970311Y-3731564D02*
G01X5968436Y-3727814D01*
G01X5968436Y-3727814D02*
G01X5968436Y-3725939D01*
G01X5968436Y-3725939D02*
G01X5970311Y-3722190D01*
G01X5970311Y-3722190D02*
G01X5972186Y-3720315D01*
G01X5972186Y-3720315D02*
G01X5975936Y-3718440D01*
G01X5975936Y-3718440D02*
G01X5983435Y-3718440D01*
G01X5983435Y-3718440D02*
G01X5987184Y-3720315D01*
G01X5987184Y-3720315D02*
G01X5989059Y-3722190D01*
G01X5989059Y-3722190D02*
G01X5990934Y-3725939D01*
G01X5990934Y-3725939D02*
G01X5990934Y-3727814D01*
G01X5990934Y-3727814D02*
G01X5989059Y-3731564D01*
G01X5989059Y-3731564D02*
G01X5987184Y-3733438D01*
G01X5987184Y-3733438D02*
G01X5983435Y-3735313D01*
G01X5983435Y-3735313D02*
G01X5975936Y-3735313D01*
G01X5975936Y-3735313D02*
G01X5972186Y-3737188D01*
G01X5972186Y-3737188D02*
G01X5970311Y-3739063D01*
G01X5970311Y-3739063D02*
G01X5968436Y-3742812D01*
G01X5968436Y-3742812D02*
G01X5968436Y-3750311D01*
G01X5968436Y-3750311D02*
G01X5970311Y-3754061D01*
G01X5970311Y-3754061D02*
G01X5972186Y-3755936D01*
G01X5972186Y-3755936D02*
G01X5975936Y-3757810D01*
G01X5975936Y-3757810D02*
G01X5983435Y-3757810D01*
G01X5983435Y-3757810D02*
G01X5987184Y-3755936D01*
G01X5987184Y-3755936D02*
G01X5989059Y-3754061D01*
G01X5989059Y-3754061D02*
G01X5990934Y-3750311D01*
G01X5990934Y-3750311D02*
G01X5990934Y-3742812D01*
G01X5990934Y-3742812D02*
G01X5989059Y-3739063D01*
G01X5989059Y-3739063D02*
G01X5987184Y-3737188D01*
G01X5987184Y-3737188D02*
G01X5983435Y-3735313D01*
G01X7016235Y-3442708D02*
G01X7016235Y-3420211D01*
G01X7055605Y-3431460D02*
G01X7016235Y-3431460D01*
G01X7055605Y-3384590D02*
G01X7036857Y-3397714D01*
G01X7055605Y-3407088D02*
G01X7016235Y-3407088D01*
G01X7016235Y-3407088D02*
G01X7016235Y-3392089D01*
G01X7016235Y-3392089D02*
G01X7018109Y-3388340D01*
G01X7018109Y-3388340D02*
G01X7019984Y-3386465D01*
G01X7019984Y-3386465D02*
G01X7023734Y-3384590D01*
G01X7023734Y-3384590D02*
G01X7029358Y-3384590D01*
G01X7029358Y-3384590D02*
G01X7033108Y-3386465D01*
G01X7033108Y-3386465D02*
G01X7034982Y-3388340D01*
G01X7034982Y-3388340D02*
G01X7036857Y-3392089D01*
G01X7036857Y-3392089D02*
G01X7036857Y-3407088D01*
G01X5953438Y-4057810D02*
G01X5940315Y-4039063D01*
G01X5930941Y-4057810D02*
G01X5930941Y-4018440D01*
G01X5930941Y-4018440D02*
G01X5945939Y-4018440D01*
G01X5945939Y-4018440D02*
G01X5949689Y-4020315D01*
G01X5949689Y-4020315D02*
G01X5951564Y-4022190D01*
G01X5951564Y-4022190D02*
G01X5953438Y-4025939D01*
G01X5953438Y-4025939D02*
G01X5953438Y-4031564D01*
G01X5953438Y-4031564D02*
G01X5951564Y-4035313D01*
G01X5951564Y-4035313D02*
G01X5949689Y-4037188D01*
G01X5949689Y-4037188D02*
G01X5945939Y-4039063D01*
G01X5945939Y-4039063D02*
G01X5930941Y-4039063D01*
G01X5987184Y-4018440D02*
G01X5979685Y-4018440D01*
G01X5979685Y-4018440D02*
G01X5975936Y-4020315D01*
G01X5975936Y-4020315D02*
G01X5974061Y-4022190D01*
G01X5974061Y-4022190D02*
G01X5970311Y-4027814D01*
G01X5970311Y-4027814D02*
G01X5968436Y-4035313D01*
G01X5968436Y-4035313D02*
G01X5968436Y-4050311D01*
G01X5968436Y-4050311D02*
G01X5970311Y-4054061D01*
G01X5970311Y-4054061D02*
G01X5972186Y-4055936D01*
G01X5972186Y-4055936D02*
G01X5975936Y-4057810D01*
G01X5975936Y-4057810D02*
G01X5983435Y-4057810D01*
G01X5983435Y-4057810D02*
G01X5987184Y-4055936D01*
G01X5987184Y-4055936D02*
G01X5989059Y-4054061D01*
G01X5989059Y-4054061D02*
G01X5990934Y-4050311D01*
G01X5990934Y-4050311D02*
G01X5990934Y-4040937D01*
G01X5990934Y-4040937D02*
G01X5989059Y-4037188D01*
G01X5989059Y-4037188D02*
G01X5987184Y-4035313D01*
G01X5987184Y-4035313D02*
G01X5983435Y-4033438D01*
G01X5983435Y-4033438D02*
G01X5975936Y-4033438D01*
G01X5975936Y-4033438D02*
G01X5972186Y-4035313D01*
G01X5972186Y-4035313D02*
G01X5970311Y-4037188D01*
G01X5970311Y-4037188D02*
G01X5968436Y-4040937D01*
G01X7834982Y-3428647D02*
G01X7836857Y-3423023D01*
G01X7836857Y-3423023D02*
G01X7838732Y-3421148D01*
G01X7838732Y-3421148D02*
G01X7842481Y-3419274D01*
G01X7842481Y-3419274D02*
G01X7848106Y-3419274D01*
G01X7848106Y-3419274D02*
G01X7851855Y-3421148D01*
G01X7851855Y-3421148D02*
G01X7853730Y-3423023D01*
G01X7853730Y-3423023D02*
G01X7855605Y-3426773D01*
G01X7855605Y-3426773D02*
G01X7855605Y-3441771D01*
G01X7855605Y-3441771D02*
G01X7816235Y-3441771D01*
G01X7816235Y-3441771D02*
G01X7816235Y-3428647D01*
G01X7816235Y-3428647D02*
G01X7818109Y-3424898D01*
G01X7818109Y-3424898D02*
G01X7819984Y-3423023D01*
G01X7819984Y-3423023D02*
G01X7823734Y-3421148D01*
G01X7823734Y-3421148D02*
G01X7827483Y-3421148D01*
G01X7827483Y-3421148D02*
G01X7831233Y-3423023D01*
G01X7831233Y-3423023D02*
G01X7833108Y-3424898D01*
G01X7833108Y-3424898D02*
G01X7834982Y-3428647D01*
G01X7834982Y-3428647D02*
G01X7834982Y-3441771D01*
G01X7855605Y-3379904D02*
G01X7836857Y-3393027D01*
G01X7855605Y-3402401D02*
G01X7816235Y-3402401D01*
G01X7816235Y-3402401D02*
G01X7816235Y-3387403D01*
G01X7816235Y-3387403D02*
G01X7818109Y-3383653D01*
G01X7818109Y-3383653D02*
G01X7819984Y-3381778D01*
G01X7819984Y-3381778D02*
G01X7823734Y-3379904D01*
G01X7823734Y-3379904D02*
G01X7829358Y-3379904D01*
G01X7829358Y-3379904D02*
G01X7833108Y-3381778D01*
G01X7833108Y-3381778D02*
G01X7834982Y-3383653D01*
G01X7834982Y-3383653D02*
G01X7836857Y-3387403D01*
G01X7836857Y-3387403D02*
G01X7836857Y-3402401D01*
G01X5953438Y-3457810D02*
G01X5940315Y-3439063D01*
G01X5930941Y-3457810D02*
G01X5930941Y-3418440D01*
G01X5930941Y-3418440D02*
G01X5945939Y-3418440D01*
G01X5945939Y-3418440D02*
G01X5949689Y-3420315D01*
G01X5949689Y-3420315D02*
G01X5951564Y-3422190D01*
G01X5951564Y-3422190D02*
G01X5953438Y-3425939D01*
G01X5953438Y-3425939D02*
G01X5953438Y-3431564D01*
G01X5953438Y-3431564D02*
G01X5951564Y-3435313D01*
G01X5951564Y-3435313D02*
G01X5949689Y-3437188D01*
G01X5949689Y-3437188D02*
G01X5945939Y-3439063D01*
G01X5945939Y-3439063D02*
G01X5930941Y-3439063D01*
G01X5987184Y-3431564D02*
G01X5987184Y-3457810D01*
G01X5977810Y-3416565D02*
G01X5968436Y-3444687D01*
G01X5968436Y-3444687D02*
G01X5992808Y-3444687D01*
G01X7016235Y-3938959D02*
G01X7016235Y-3916461D01*
G01X7055605Y-3927710D02*
G01X7016235Y-3927710D01*
G01X7055605Y-3884590D02*
G01X7055605Y-3903338D01*
G01X7055605Y-3903338D02*
G01X7016235Y-3903338D01*
G01X5953438Y-4357810D02*
G01X5940315Y-4339063D01*
G01X5930941Y-4357810D02*
G01X5930941Y-4318440D01*
G01X5930941Y-4318440D02*
G01X5945939Y-4318440D01*
G01X5945939Y-4318440D02*
G01X5949689Y-4320315D01*
G01X5949689Y-4320315D02*
G01X5951564Y-4322190D01*
G01X5951564Y-4322190D02*
G01X5953438Y-4325939D01*
G01X5953438Y-4325939D02*
G01X5953438Y-4331564D01*
G01X5953438Y-4331564D02*
G01X5951564Y-4335313D01*
G01X5951564Y-4335313D02*
G01X5949689Y-4337188D01*
G01X5949689Y-4337188D02*
G01X5945939Y-4339063D01*
G01X5945939Y-4339063D02*
G01X5930941Y-4339063D01*
G01X5968436Y-4322190D02*
G01X5970311Y-4320315D01*
G01X5970311Y-4320315D02*
G01X5974061Y-4318440D01*
G01X5974061Y-4318440D02*
G01X5983435Y-4318440D01*
G01X5983435Y-4318440D02*
G01X5987184Y-4320315D01*
G01X5987184Y-4320315D02*
G01X5989059Y-4322190D01*
G01X5989059Y-4322190D02*
G01X5990934Y-4325939D01*
G01X5990934Y-4325939D02*
G01X5990934Y-4329689D01*
G01X5990934Y-4329689D02*
G01X5989059Y-4335313D01*
G01X5989059Y-4335313D02*
G01X5966562Y-4357810D01*
G01X5966562Y-4357810D02*
G01X5990934Y-4357810D01*
G01X7834982Y-3924898D02*
G01X7836857Y-3919274D01*
G01X7836857Y-3919274D02*
G01X7838732Y-3917399D01*
G01X7838732Y-3917399D02*
G01X7842481Y-3915524D01*
G01X7842481Y-3915524D02*
G01X7848106Y-3915524D01*
G01X7848106Y-3915524D02*
G01X7851855Y-3917399D01*
G01X7851855Y-3917399D02*
G01X7853730Y-3919274D01*
G01X7853730Y-3919274D02*
G01X7855605Y-3923023D01*
G01X7855605Y-3923023D02*
G01X7855605Y-3938021D01*
G01X7855605Y-3938021D02*
G01X7816235Y-3938021D01*
G01X7816235Y-3938021D02*
G01X7816235Y-3924898D01*
G01X7816235Y-3924898D02*
G01X7818109Y-3921148D01*
G01X7818109Y-3921148D02*
G01X7819984Y-3919274D01*
G01X7819984Y-3919274D02*
G01X7823734Y-3917399D01*
G01X7823734Y-3917399D02*
G01X7827483Y-3917399D01*
G01X7827483Y-3917399D02*
G01X7831233Y-3919274D01*
G01X7831233Y-3919274D02*
G01X7833108Y-3921148D01*
G01X7833108Y-3921148D02*
G01X7834982Y-3924898D01*
G01X7834982Y-3924898D02*
G01X7834982Y-3938021D01*
G01X7855605Y-3879904D02*
G01X7855605Y-3898651D01*
G01X7855605Y-3898651D02*
G01X7816235Y-3898651D01*
G01X5438138Y-4003440D02*
G01X5451262Y-4042810D01*
G01X5451262Y-4042810D02*
G01X5464385Y-4003440D01*
G01X5475634Y-4040936D02*
G01X5481258Y-4042810D01*
G01X5481258Y-4042810D02*
G01X5490632Y-4042810D01*
G01X5490632Y-4042810D02*
G01X5494381Y-4040936D01*
G01X5494381Y-4040936D02*
G01X5496256Y-4039061D01*
G01X5496256Y-4039061D02*
G01X5498131Y-4035311D01*
G01X5498131Y-4035311D02*
G01X5498131Y-4031562D01*
G01X5498131Y-4031562D02*
G01X5496256Y-4027812D01*
G01X5496256Y-4027812D02*
G01X5494381Y-4025937D01*
G01X5494381Y-4025937D02*
G01X5490632Y-4024063D01*
G01X5490632Y-4024063D02*
G01X5483133Y-4022188D01*
G01X5483133Y-4022188D02*
G01X5479383Y-4020313D01*
G01X5479383Y-4020313D02*
G01X5477508Y-4018438D01*
G01X5477508Y-4018438D02*
G01X5475634Y-4014689D01*
G01X5475634Y-4014689D02*
G01X5475634Y-4010939D01*
G01X5475634Y-4010939D02*
G01X5477508Y-4007190D01*
G01X5477508Y-4007190D02*
G01X5479383Y-4005315D01*
G01X5479383Y-4005315D02*
G01X5483133Y-4003440D01*
G01X5483133Y-4003440D02*
G01X5492507Y-4003440D01*
G01X5492507Y-4003440D02*
G01X5498131Y-4005315D01*
G01X5515004Y-4022188D02*
G01X5528127Y-4022188D01*
G01X5533751Y-4042810D02*
G01X5515004Y-4042810D01*
G01X5515004Y-4042810D02*
G01X5515004Y-4003440D01*
G01X5515004Y-4003440D02*
G01X5533751Y-4003440D01*
G01X5573121Y-4042810D02*
G01X5559998Y-4024063D01*
G01X5550624Y-4042810D02*
G01X5550624Y-4003440D01*
G01X5550624Y-4003440D02*
G01X5565622Y-4003440D01*
G01X5565622Y-4003440D02*
G01X5569372Y-4005315D01*
G01X5569372Y-4005315D02*
G01X5571247Y-4007190D01*
G01X5571247Y-4007190D02*
G01X5573121Y-4010939D01*
G01X5573121Y-4010939D02*
G01X5573121Y-4016564D01*
G01X5573121Y-4016564D02*
G01X5571247Y-4020313D01*
G01X5571247Y-4020313D02*
G01X5569372Y-4022188D01*
G01X5569372Y-4022188D02*
G01X5565622Y-4024063D01*
G01X5565622Y-4024063D02*
G01X5550624Y-4024063D01*
G01X5584370Y-4003440D02*
G01X5597493Y-4042810D01*
G01X5597493Y-4042810D02*
G01X5610617Y-4003440D01*
G01X5631239Y-4003440D02*
G01X5638738Y-4003440D01*
G01X5638738Y-4003440D02*
G01X5642488Y-4005315D01*
G01X5642488Y-4005315D02*
G01X5646237Y-4009064D01*
G01X5646237Y-4009064D02*
G01X5648112Y-4016564D01*
G01X5648112Y-4016564D02*
G01X5648112Y-4029687D01*
G01X5648112Y-4029687D02*
G01X5646237Y-4037186D01*
G01X5646237Y-4037186D02*
G01X5642488Y-4040936D01*
G01X5642488Y-4040936D02*
G01X5638738Y-4042810D01*
G01X5638738Y-4042810D02*
G01X5631239Y-4042810D01*
G01X5631239Y-4042810D02*
G01X5627490Y-4040936D01*
G01X5627490Y-4040936D02*
G01X5623740Y-4037186D01*
G01X5623740Y-4037186D02*
G01X5621865Y-4029687D01*
G01X5621865Y-4029687D02*
G01X5621865Y-4016564D01*
G01X5621865Y-4016564D02*
G01X5623740Y-4009064D01*
G01X5623740Y-4009064D02*
G01X5627490Y-4005315D01*
G01X5627490Y-4005315D02*
G01X5631239Y-4003440D01*
G01X5440013Y-3442810D02*
G01X5440013Y-3403440D01*
G01X5440013Y-3422188D02*
G01X5462510Y-3422188D01*
G01X5462510Y-3442810D02*
G01X5462510Y-3403440D01*
G01X5479383Y-3440936D02*
G01X5485007Y-3442810D01*
G01X5485007Y-3442810D02*
G01X5494381Y-3442810D01*
G01X5494381Y-3442810D02*
G01X5498131Y-3440936D01*
G01X5498131Y-3440936D02*
G01X5500006Y-3439061D01*
G01X5500006Y-3439061D02*
G01X5501880Y-3435311D01*
G01X5501880Y-3435311D02*
G01X5501880Y-3431562D01*
G01X5501880Y-3431562D02*
G01X5500006Y-3427812D01*
G01X5500006Y-3427812D02*
G01X5498131Y-3425937D01*
G01X5498131Y-3425937D02*
G01X5494381Y-3424063D01*
G01X5494381Y-3424063D02*
G01X5486882Y-3422188D01*
G01X5486882Y-3422188D02*
G01X5483133Y-3420313D01*
G01X5483133Y-3420313D02*
G01X5481258Y-3418438D01*
G01X5481258Y-3418438D02*
G01X5479383Y-3414689D01*
G01X5479383Y-3414689D02*
G01X5479383Y-3410939D01*
G01X5479383Y-3410939D02*
G01X5481258Y-3407190D01*
G01X5481258Y-3407190D02*
G01X5483133Y-3405315D01*
G01X5483133Y-3405315D02*
G01X5486882Y-3403440D01*
G01X5486882Y-3403440D02*
G01X5496256Y-3403440D01*
G01X5496256Y-3403440D02*
G01X5501880Y-3405315D01*
G01X5518753Y-3422188D02*
G01X5531877Y-3422188D01*
G01X5537501Y-3442810D02*
G01X5518753Y-3442810D01*
G01X5518753Y-3442810D02*
G01X5518753Y-3403440D01*
G01X5518753Y-3403440D02*
G01X5537501Y-3403440D01*
G01X5576871Y-3442810D02*
G01X5563748Y-3424063D01*
G01X5554374Y-3442810D02*
G01X5554374Y-3403440D01*
G01X5554374Y-3403440D02*
G01X5569372Y-3403440D01*
G01X5569372Y-3403440D02*
G01X5573121Y-3405315D01*
G01X5573121Y-3405315D02*
G01X5574996Y-3407190D01*
G01X5574996Y-3407190D02*
G01X5576871Y-3410939D01*
G01X5576871Y-3410939D02*
G01X5576871Y-3416564D01*
G01X5576871Y-3416564D02*
G01X5574996Y-3420313D01*
G01X5574996Y-3420313D02*
G01X5573121Y-3422188D01*
G01X5573121Y-3422188D02*
G01X5569372Y-3424063D01*
G01X5569372Y-3424063D02*
G01X5554374Y-3424063D01*
G01X5588120Y-3403440D02*
G01X5601243Y-3442810D01*
G01X5601243Y-3442810D02*
G01X5614366Y-3403440D01*
G01X5634989Y-3403440D02*
G01X5642488Y-3403440D01*
G01X5642488Y-3403440D02*
G01X5646237Y-3405315D01*
G01X5646237Y-3405315D02*
G01X5649987Y-3409064D01*
G01X5649987Y-3409064D02*
G01X5651862Y-3416564D01*
G01X5651862Y-3416564D02*
G01X5651862Y-3429687D01*
G01X5651862Y-3429687D02*
G01X5649987Y-3437186D01*
G01X5649987Y-3437186D02*
G01X5646237Y-3440936D01*
G01X5646237Y-3440936D02*
G01X5642488Y-3442810D01*
G01X5642488Y-3442810D02*
G01X5634989Y-3442810D01*
G01X5634989Y-3442810D02*
G01X5631239Y-3440936D01*
G01X5631239Y-3440936D02*
G01X5627490Y-3437186D01*
G01X5627490Y-3437186D02*
G01X5625615Y-3429687D01*
G01X5625615Y-3429687D02*
G01X5625615Y-3416564D01*
G01X5625615Y-3416564D02*
G01X5627490Y-3409064D01*
G01X5627490Y-3409064D02*
G01X5631239Y-3405315D01*
G01X5631239Y-3405315D02*
G01X5634989Y-3403440D01*
G54D14*
G01X6272857Y-3593095D02*
G01X6295714Y-3593095D01*
G01X6284286Y-3633095D02*
G01X6284286Y-3593095D01*
G01X6316667Y-3593095D02*
G01X6324286Y-3593095D01*
G01X6324286Y-3593095D02*
G01X6328095Y-3595000D01*
G01X6328095Y-3595000D02*
G01X6331905Y-3598810D01*
G01X6331905Y-3598810D02*
G01X6333810Y-3606429D01*
G01X6333810Y-3606429D02*
G01X6333810Y-3619762D01*
G01X6333810Y-3619762D02*
G01X6331905Y-3627381D01*
G01X6331905Y-3627381D02*
G01X6328095Y-3631190D01*
G01X6328095Y-3631190D02*
G01X6324286Y-3633095D01*
G01X6324286Y-3633095D02*
G01X6316667Y-3633095D01*
G01X6316667Y-3633095D02*
G01X6312857Y-3631190D01*
G01X6312857Y-3631190D02*
G01X6309048Y-3627381D01*
G01X6309048Y-3627381D02*
G01X6307143Y-3619762D01*
G01X6307143Y-3619762D02*
G01X6307143Y-3606429D01*
G01X6307143Y-3606429D02*
G01X6309048Y-3598810D01*
G01X6309048Y-3598810D02*
G01X6312857Y-3595000D01*
G01X6312857Y-3595000D02*
G01X6316667Y-3593095D01*
G01X6400476Y-3633095D02*
G01X6381429Y-3633095D01*
G01X6381429Y-3633095D02*
G01X6381429Y-3593095D01*
G01X6413810Y-3633095D02*
G01X6413810Y-3593095D01*
G01X6413810Y-3593095D02*
G01X6423333Y-3593095D01*
G01X6423333Y-3593095D02*
G01X6429048Y-3595000D01*
G01X6429048Y-3595000D02*
G01X6432857Y-3598810D01*
G01X6432857Y-3598810D02*
G01X6434762Y-3602619D01*
G01X6434762Y-3602619D02*
G01X6436667Y-3610238D01*
G01X6436667Y-3610238D02*
G01X6436667Y-3615952D01*
G01X6436667Y-3615952D02*
G01X6434762Y-3623571D01*
G01X6434762Y-3623571D02*
G01X6432857Y-3627381D01*
G01X6432857Y-3627381D02*
G01X6429048Y-3631190D01*
G01X6429048Y-3631190D02*
G01X6423333Y-3633095D01*
G01X6423333Y-3633095D02*
G01X6413810Y-3633095D01*
G01X6476667Y-3633095D02*
G01X6463333Y-3614048D01*
G01X6453810Y-3633095D02*
G01X6453810Y-3593095D01*
G01X6453810Y-3593095D02*
G01X6469048Y-3593095D01*
G01X6469048Y-3593095D02*
G01X6472857Y-3595000D01*
G01X6472857Y-3595000D02*
G01X6474762Y-3596905D01*
G01X6474762Y-3596905D02*
G01X6476667Y-3600714D01*
G01X6476667Y-3600714D02*
G01X6476667Y-3606429D01*
G01X6476667Y-3606429D02*
G01X6474762Y-3610238D01*
G01X6474762Y-3610238D02*
G01X6472857Y-3612143D01*
G01X6472857Y-3612143D02*
G01X6469048Y-3614048D01*
G01X6469048Y-3614048D02*
G01X6453810Y-3614048D01*
G01X6537619Y-3612143D02*
G01X6543333Y-3614048D01*
G01X6543333Y-3614048D02*
G01X6545238Y-3615952D01*
G01X6545238Y-3615952D02*
G01X6547143Y-3619762D01*
G01X6547143Y-3619762D02*
G01X6547143Y-3625476D01*
G01X6547143Y-3625476D02*
G01X6545238Y-3629286D01*
G01X6545238Y-3629286D02*
G01X6543333Y-3631190D01*
G01X6543333Y-3631190D02*
G01X6539524Y-3633095D01*
G01X6539524Y-3633095D02*
G01X6524286Y-3633095D01*
G01X6524286Y-3633095D02*
G01X6524286Y-3593095D01*
G01X6524286Y-3593095D02*
G01X6537619Y-3593095D01*
G01X6537619Y-3593095D02*
G01X6541429Y-3595000D01*
G01X6541429Y-3595000D02*
G01X6543333Y-3596905D01*
G01X6543333Y-3596905D02*
G01X6545238Y-3600714D01*
G01X6545238Y-3600714D02*
G01X6545238Y-3604524D01*
G01X6545238Y-3604524D02*
G01X6543333Y-3608333D01*
G01X6543333Y-3608333D02*
G01X6541429Y-3610238D01*
G01X6541429Y-3610238D02*
G01X6537619Y-3612143D01*
G01X6537619Y-3612143D02*
G01X6524286Y-3612143D01*
G01X6571905Y-3593095D02*
G01X6579524Y-3593095D01*
G01X6579524Y-3593095D02*
G01X6583333Y-3595000D01*
G01X6583333Y-3595000D02*
G01X6587143Y-3598810D01*
G01X6587143Y-3598810D02*
G01X6589048Y-3606429D01*
G01X6589048Y-3606429D02*
G01X6589048Y-3619762D01*
G01X6589048Y-3619762D02*
G01X6587143Y-3627381D01*
G01X6587143Y-3627381D02*
G01X6583333Y-3631190D01*
G01X6583333Y-3631190D02*
G01X6579524Y-3633095D01*
G01X6579524Y-3633095D02*
G01X6571905Y-3633095D01*
G01X6571905Y-3633095D02*
G01X6568095Y-3631190D01*
G01X6568095Y-3631190D02*
G01X6564286Y-3627381D01*
G01X6564286Y-3627381D02*
G01X6562381Y-3619762D01*
G01X6562381Y-3619762D02*
G01X6562381Y-3606429D01*
G01X6562381Y-3606429D02*
G01X6564286Y-3598810D01*
G01X6564286Y-3598810D02*
G01X6568095Y-3595000D01*
G01X6568095Y-3595000D02*
G01X6571905Y-3593095D01*
G01X6604286Y-3621667D02*
G01X6623333Y-3621667D01*
G01X6600476Y-3633095D02*
G01X6613810Y-3593095D01*
G01X6613810Y-3593095D02*
G01X6627143Y-3633095D01*
G01X6663333Y-3633095D02*
G01X6650000Y-3614048D01*
G01X6640476Y-3633095D02*
G01X6640476Y-3593095D01*
G01X6640476Y-3593095D02*
G01X6655714Y-3593095D01*
G01X6655714Y-3593095D02*
G01X6659524Y-3595000D01*
G01X6659524Y-3595000D02*
G01X6661429Y-3596905D01*
G01X6661429Y-3596905D02*
G01X6663333Y-3600714D01*
G01X6663333Y-3600714D02*
G01X6663333Y-3606429D01*
G01X6663333Y-3606429D02*
G01X6661429Y-3610238D01*
G01X6661429Y-3610238D02*
G01X6659524Y-3612143D01*
G01X6659524Y-3612143D02*
G01X6655714Y-3614048D01*
G01X6655714Y-3614048D02*
G01X6640476Y-3614048D01*
G01X6680476Y-3633095D02*
G01X6680476Y-3593095D01*
G01X6680476Y-3593095D02*
G01X6690000Y-3593095D01*
G01X6690000Y-3593095D02*
G01X6695714Y-3595000D01*
G01X6695714Y-3595000D02*
G01X6699524Y-3598810D01*
G01X6699524Y-3598810D02*
G01X6701429Y-3602619D01*
G01X6701429Y-3602619D02*
G01X6703333Y-3610238D01*
G01X6703333Y-3610238D02*
G01X6703333Y-3615952D01*
G01X6703333Y-3615952D02*
G01X6701429Y-3623571D01*
G01X6701429Y-3623571D02*
G01X6699524Y-3627381D01*
G01X6699524Y-3627381D02*
G01X6695714Y-3631190D01*
G01X6695714Y-3631190D02*
G01X6690000Y-3633095D01*
G01X6690000Y-3633095D02*
G01X6680476Y-3633095D01*
M02*
