G04 This is an RS-274x file exported by *
G04 gerbv version 2.6.0 *
G04 More information is available about gerbv at *
G04 http://gerbv.gpleda.org/ *
G04 --End of header info--*
%MOIN*%
%FSLAX36Y36*%
%IPPOS*%
G04 --Define apertures--*
%ADD10C,0.0039*%
%ADD11R,0.0957X0.0957*%
%ADD12O,0.0957X0.0957*%
%ADD13O,0.0837X0.0957*%
%ADD14C,0.0944*%
%ADD15C,0.0957*%
%ADD16R,0.0957X0.0837*%
%ADD17O,0.0957X0.0837*%
G04 --Start main section--*
G54D11*
G01X7660000Y-4340000D03*
G54D12*
G01X7560000Y-4340000D03*
G01X7460000Y-4340000D03*
G01X7360000Y-4340000D03*
G01X7260000Y-4340000D03*
G54D13*
G01X5468000Y-4875000D03*
G01X5568000Y-4875000D03*
G01X5668000Y-4875000D03*
G01X5768000Y-4875000D03*
G01X5868000Y-4875000D03*
G01X5968000Y-4875000D03*
G01X6068000Y-4875000D03*
G01X6168000Y-4875000D03*
G01X6369000Y-4875000D03*
G01X6469000Y-4875000D03*
G01X6569000Y-4875000D03*
G01X6669000Y-4875000D03*
G01X6369000Y-2975000D03*
G01X6469000Y-2975000D03*
G01X6269000Y-2975000D03*
G01X6169000Y-2975000D03*
G01X6569000Y-2975000D03*
G01X6669000Y-2975000D03*
G01X5509000Y-2975000D03*
G01X5609000Y-2975000D03*
G01X5709000Y-2975000D03*
G01X6009000Y-2975000D03*
G01X5909000Y-2975000D03*
G01X5809000Y-2975000D03*
G01X5309000Y-2975000D03*
G01X5409000Y-2975000D03*
G54D14*
G01X6110000Y-3740000D03*
G01X5810000Y-3740000D03*
G54D15*
G01X7137795Y-3411775D03*
G54D12*
G01X7237795Y-3411775D03*
G54D14*
G01X6110000Y-4040000D03*
G01X5810000Y-4040000D03*
G54D15*
G01X7737795Y-3411775D03*
G54D12*
G01X7637795Y-3411775D03*
G54D14*
G01X6110000Y-3440000D03*
G01X5810000Y-3440000D03*
G54D15*
G01X7237795Y-3911775D03*
G54D12*
G01X7137795Y-3911775D03*
G54D14*
G01X6110000Y-4340000D03*
G01X5810000Y-4340000D03*
G54D15*
G01X7737795Y-3911775D03*
G54D12*
G01X7637795Y-3911775D03*
G54D16*
G01X5535000Y-4140000D03*
G54D17*
G01X5535000Y-4240000D03*
G01X5535000Y-4340000D03*
G54D16*
G01X5535000Y-3540000D03*
G54D17*
G01X5535000Y-3640000D03*
G01X5535000Y-3740000D03*
G54D11*
G01X6410000Y-4140000D03*
G54D12*
G01X6410000Y-4040000D03*
G01X6410000Y-3940000D03*
G01X6410000Y-3840000D03*
G01X6410000Y-3740000D03*
M02*
