M48
INCH,TZ
T10C0.039
T11C0.040
%
T10
X058100Y-34400
X058100Y-37400
X058100Y-40400
X058100Y-43400
X061100Y-34400
X061100Y-37400
X061100Y-40400
X061100Y-43400
T11
X053090Y-29750
X054090Y-29750
X054680Y-48750
X055090Y-29750
X055350Y-35400
X055350Y-36400
X055350Y-37400
X055350Y-41400
X055350Y-42400
X055350Y-43400
X055680Y-48750
X056090Y-29750
X056680Y-48750
X057090Y-29750
X057680Y-48750
X058090Y-29750
X058680Y-48750
X059090Y-29750
X059680Y-48750
X060090Y-29750
X060680Y-48750
X061680Y-48750
X061690Y-29750
X062690Y-29750
X063690Y-29750
X063690Y-48750
X064100Y-37400
X064100Y-38400
X064100Y-39400
X064100Y-40400
X064100Y-41400
X064690Y-29750
X064690Y-48750
X065690Y-29750
X065690Y-48750
X066690Y-29750
X066690Y-48750
X071378Y-34118
X071378Y-39118
X072378Y-34118
X072378Y-39118
X072600Y-43400
X073600Y-43400
X074600Y-43400
X075600Y-43400
X076378Y-34118
X076378Y-39118
X076600Y-43400
X077378Y-34118
X077378Y-39118
M30

