G04 #@! TF.FileFunction,Other,Fab,Top*
%FSLAX46Y46*%
G04 Gerber Fmt 4.6, Leading zero omitted, Abs format (unit mm)*
G04 Created by KiCad (PCBNEW 4.0.3+e1-6302~38~ubuntu14.04.1-stable) date Sun Sep 11 21:15:42 2016*
%MOMM*%
%LPD*%
G01*
G04 APERTURE LIST*
%ADD10C,0.100000*%
%ADD11C,0.300000*%
%ADD12C,0.150000*%
%ADD13C,0.152400*%
%ADD14C,0.200000*%
%ADD15C,0.050000*%
G04 APERTURE END LIST*
D10*
D11*
X151936858Y-70838143D02*
X152151144Y-70909571D01*
X152508287Y-70909571D01*
X152651144Y-70838143D01*
X152722573Y-70766714D01*
X152794001Y-70623857D01*
X152794001Y-70481000D01*
X152722573Y-70338143D01*
X152651144Y-70266714D01*
X152508287Y-70195286D01*
X152222573Y-70123857D01*
X152079715Y-70052429D01*
X152008287Y-69981000D01*
X151936858Y-69838143D01*
X151936858Y-69695286D01*
X152008287Y-69552429D01*
X152079715Y-69481000D01*
X152222573Y-69409571D01*
X152579715Y-69409571D01*
X152794001Y-69481000D01*
X153651144Y-70909571D02*
X153508286Y-70838143D01*
X153436858Y-70766714D01*
X153365429Y-70623857D01*
X153365429Y-70195286D01*
X153436858Y-70052429D01*
X153508286Y-69981000D01*
X153651144Y-69909571D01*
X153865429Y-69909571D01*
X154008286Y-69981000D01*
X154079715Y-70052429D01*
X154151144Y-70195286D01*
X154151144Y-70623857D01*
X154079715Y-70766714D01*
X154008286Y-70838143D01*
X153865429Y-70909571D01*
X153651144Y-70909571D01*
X155008287Y-70909571D02*
X154865429Y-70838143D01*
X154794001Y-70695286D01*
X154794001Y-69409571D01*
X156222572Y-70909571D02*
X156222572Y-70123857D01*
X156151143Y-69981000D01*
X156008286Y-69909571D01*
X155722572Y-69909571D01*
X155579715Y-69981000D01*
X156222572Y-70838143D02*
X156079715Y-70909571D01*
X155722572Y-70909571D01*
X155579715Y-70838143D01*
X155508286Y-70695286D01*
X155508286Y-70552429D01*
X155579715Y-70409571D01*
X155722572Y-70338143D01*
X156079715Y-70338143D01*
X156222572Y-70266714D01*
X156936858Y-70909571D02*
X156936858Y-69909571D01*
X156936858Y-70195286D02*
X157008286Y-70052429D01*
X157079715Y-69981000D01*
X157222572Y-69909571D01*
X157365429Y-69909571D01*
X158936857Y-70838143D02*
X159151143Y-70909571D01*
X159508286Y-70909571D01*
X159651143Y-70838143D01*
X159722572Y-70766714D01*
X159794000Y-70623857D01*
X159794000Y-70481000D01*
X159722572Y-70338143D01*
X159651143Y-70266714D01*
X159508286Y-70195286D01*
X159222572Y-70123857D01*
X159079714Y-70052429D01*
X159008286Y-69981000D01*
X158936857Y-69838143D01*
X158936857Y-69695286D01*
X159008286Y-69552429D01*
X159079714Y-69481000D01*
X159222572Y-69409571D01*
X159579714Y-69409571D01*
X159794000Y-69481000D01*
X160436857Y-70909571D02*
X160436857Y-69409571D01*
X161079714Y-70909571D02*
X161079714Y-70123857D01*
X161008285Y-69981000D01*
X160865428Y-69909571D01*
X160651143Y-69909571D01*
X160508285Y-69981000D01*
X160436857Y-70052429D01*
X161794000Y-70909571D02*
X161794000Y-69909571D01*
X161794000Y-69409571D02*
X161722571Y-69481000D01*
X161794000Y-69552429D01*
X161865428Y-69481000D01*
X161794000Y-69409571D01*
X161794000Y-69552429D01*
X163079714Y-70838143D02*
X162936857Y-70909571D01*
X162651143Y-70909571D01*
X162508286Y-70838143D01*
X162436857Y-70695286D01*
X162436857Y-70123857D01*
X162508286Y-69981000D01*
X162651143Y-69909571D01*
X162936857Y-69909571D01*
X163079714Y-69981000D01*
X163151143Y-70123857D01*
X163151143Y-70266714D01*
X162436857Y-70409571D01*
X164008286Y-70909571D02*
X163865428Y-70838143D01*
X163794000Y-70695286D01*
X163794000Y-69409571D01*
X165222571Y-70909571D02*
X165222571Y-69409571D01*
X165222571Y-70838143D02*
X165079714Y-70909571D01*
X164794000Y-70909571D01*
X164651142Y-70838143D01*
X164579714Y-70766714D01*
X164508285Y-70623857D01*
X164508285Y-70195286D01*
X164579714Y-70052429D01*
X164651142Y-69981000D01*
X164794000Y-69909571D01*
X165079714Y-69909571D01*
X165222571Y-69981000D01*
X166936857Y-69909571D02*
X167294000Y-70909571D01*
X167651142Y-69909571D01*
X169008285Y-70909571D02*
X168151142Y-70909571D01*
X168579714Y-70909571D02*
X168579714Y-69409571D01*
X168436857Y-69623857D01*
X168293999Y-69766714D01*
X168151142Y-69838143D01*
X169651142Y-70766714D02*
X169722570Y-70838143D01*
X169651142Y-70909571D01*
X169579713Y-70838143D01*
X169651142Y-70766714D01*
X169651142Y-70909571D01*
X170651142Y-69409571D02*
X170793999Y-69409571D01*
X170936856Y-69481000D01*
X171008285Y-69552429D01*
X171079714Y-69695286D01*
X171151142Y-69981000D01*
X171151142Y-70338143D01*
X171079714Y-70623857D01*
X171008285Y-70766714D01*
X170936856Y-70838143D01*
X170793999Y-70909571D01*
X170651142Y-70909571D01*
X170508285Y-70838143D01*
X170436856Y-70766714D01*
X170365428Y-70623857D01*
X170293999Y-70338143D01*
X170293999Y-69981000D01*
X170365428Y-69695286D01*
X170436856Y-69552429D01*
X170508285Y-69481000D01*
X170651142Y-69409571D01*
X181063287Y-76624571D02*
X180349001Y-76624571D01*
X180349001Y-75124571D01*
X181563287Y-76624571D02*
X181563287Y-75124571D01*
X181920430Y-75124571D01*
X182134715Y-75196000D01*
X182277573Y-75338857D01*
X182349001Y-75481714D01*
X182420430Y-75767429D01*
X182420430Y-75981714D01*
X182349001Y-76267429D01*
X182277573Y-76410286D01*
X182134715Y-76553143D01*
X181920430Y-76624571D01*
X181563287Y-76624571D01*
X183920430Y-76624571D02*
X183420430Y-75910286D01*
X183063287Y-76624571D02*
X183063287Y-75124571D01*
X183634715Y-75124571D01*
X183777573Y-75196000D01*
X183849001Y-75267429D01*
X183920430Y-75410286D01*
X183920430Y-75624571D01*
X183849001Y-75767429D01*
X183777573Y-75838857D01*
X183634715Y-75910286D01*
X183063287Y-75910286D01*
X186206144Y-75838857D02*
X186420430Y-75910286D01*
X186491858Y-75981714D01*
X186563287Y-76124571D01*
X186563287Y-76338857D01*
X186491858Y-76481714D01*
X186420430Y-76553143D01*
X186277572Y-76624571D01*
X185706144Y-76624571D01*
X185706144Y-75124571D01*
X186206144Y-75124571D01*
X186349001Y-75196000D01*
X186420430Y-75267429D01*
X186491858Y-75410286D01*
X186491858Y-75553143D01*
X186420430Y-75696000D01*
X186349001Y-75767429D01*
X186206144Y-75838857D01*
X185706144Y-75838857D01*
X187420430Y-76624571D02*
X187277572Y-76553143D01*
X187206144Y-76481714D01*
X187134715Y-76338857D01*
X187134715Y-75910286D01*
X187206144Y-75767429D01*
X187277572Y-75696000D01*
X187420430Y-75624571D01*
X187634715Y-75624571D01*
X187777572Y-75696000D01*
X187849001Y-75767429D01*
X187920430Y-75910286D01*
X187920430Y-76338857D01*
X187849001Y-76481714D01*
X187777572Y-76553143D01*
X187634715Y-76624571D01*
X187420430Y-76624571D01*
X189206144Y-76624571D02*
X189206144Y-75838857D01*
X189134715Y-75696000D01*
X188991858Y-75624571D01*
X188706144Y-75624571D01*
X188563287Y-75696000D01*
X189206144Y-76553143D02*
X189063287Y-76624571D01*
X188706144Y-76624571D01*
X188563287Y-76553143D01*
X188491858Y-76410286D01*
X188491858Y-76267429D01*
X188563287Y-76124571D01*
X188706144Y-76053143D01*
X189063287Y-76053143D01*
X189206144Y-75981714D01*
X189920430Y-76624571D02*
X189920430Y-75624571D01*
X189920430Y-75910286D02*
X189991858Y-75767429D01*
X190063287Y-75696000D01*
X190206144Y-75624571D01*
X190349001Y-75624571D01*
X191491858Y-76624571D02*
X191491858Y-75124571D01*
X191491858Y-76553143D02*
X191349001Y-76624571D01*
X191063287Y-76624571D01*
X190920429Y-76553143D01*
X190849001Y-76481714D01*
X190777572Y-76338857D01*
X190777572Y-75910286D01*
X190849001Y-75767429D01*
X190920429Y-75696000D01*
X191063287Y-75624571D01*
X191349001Y-75624571D01*
X191491858Y-75696000D01*
X193206144Y-75624571D02*
X193563287Y-76624571D01*
X193920429Y-75624571D01*
X195277572Y-76624571D02*
X194420429Y-76624571D01*
X194849001Y-76624571D02*
X194849001Y-75124571D01*
X194706144Y-75338857D01*
X194563286Y-75481714D01*
X194420429Y-75553143D01*
X195920429Y-76481714D02*
X195991857Y-76553143D01*
X195920429Y-76624571D01*
X195849000Y-76553143D01*
X195920429Y-76481714D01*
X195920429Y-76624571D01*
X196920429Y-75124571D02*
X197063286Y-75124571D01*
X197206143Y-75196000D01*
X197277572Y-75267429D01*
X197349001Y-75410286D01*
X197420429Y-75696000D01*
X197420429Y-76053143D01*
X197349001Y-76338857D01*
X197277572Y-76481714D01*
X197206143Y-76553143D01*
X197063286Y-76624571D01*
X196920429Y-76624571D01*
X196777572Y-76553143D01*
X196706143Y-76481714D01*
X196634715Y-76338857D01*
X196563286Y-76053143D01*
X196563286Y-75696000D01*
X196634715Y-75410286D01*
X196706143Y-75267429D01*
X196777572Y-75196000D01*
X196920429Y-75124571D01*
D12*
X197739000Y-118409073D02*
X197739000Y-104439073D01*
X179959000Y-118409073D02*
X197739000Y-118409073D01*
X180029981Y-104439073D02*
X180029981Y-118409073D01*
X197748978Y-104431306D02*
G75*
G03X179959000Y-104439073I-8899978J11422233D01*
G01*
D13*
X171704000Y-126746000D02*
X171704000Y-72771000D01*
X132969000Y-126746000D02*
X171704000Y-126746000D01*
X132969000Y-72771000D02*
X132969000Y-126746000D01*
X171704000Y-72771000D02*
X132969000Y-72771000D01*
D14*
X194818000Y-110236000D02*
G75*
G03X194818000Y-110236000I-254000J0D01*
G01*
D15*
X196314000Y-113566000D02*
X182804000Y-113566000D01*
X196314000Y-106936000D02*
X196314000Y-113536000D01*
X196314000Y-106906000D02*
X182804000Y-106906000D01*
X182804000Y-106936000D02*
X182804000Y-113536000D01*
X176352200Y-121920000D02*
X159842200Y-121920000D01*
X176352200Y-125730000D02*
X176352200Y-121920000D01*
X159842200Y-125730000D02*
X176352200Y-125730000D01*
X159842200Y-121920000D02*
X159842200Y-125730000D01*
X136982200Y-125730000D02*
X136982200Y-121920000D01*
X158572200Y-125730000D02*
X136982200Y-125730000D01*
X158572200Y-121920000D02*
X158572200Y-125730000D01*
X136982200Y-121920000D02*
X158572200Y-121920000D01*
X154127200Y-77470000D02*
X154127200Y-73660000D01*
X128092200Y-77470000D02*
X154127200Y-77470000D01*
X128092200Y-73660000D02*
X128092200Y-77470000D01*
X154127200Y-73660000D02*
X128092200Y-73660000D01*
X176352200Y-73660000D02*
X176352200Y-77470000D01*
X154762200Y-73660000D02*
X176352200Y-73660000D01*
X154762200Y-77470000D02*
X154762200Y-73660000D01*
X176352200Y-77470000D02*
X154762200Y-77470000D01*
X156464000Y-96520000D02*
X146304000Y-96520000D01*
X156464000Y-93472000D02*
X156464000Y-96520000D01*
X146304000Y-93472000D02*
X156464000Y-93472000D01*
X146304000Y-96520000D02*
X146304000Y-93472000D01*
X185109981Y-86659073D02*
G75*
G03X185109981Y-86659073I-2540000J0D01*
G01*
X156464000Y-104140000D02*
X146304000Y-104140000D01*
X156464000Y-101092000D02*
X156464000Y-104140000D01*
X146304000Y-101092000D02*
X156464000Y-101092000D01*
X146304000Y-104140000D02*
X146304000Y-101092000D01*
X197809981Y-86659073D02*
G75*
G03X197809981Y-86659073I-2540000J0D01*
G01*
X156464000Y-88900000D02*
X146304000Y-88900000D01*
X156464000Y-85852000D02*
X156464000Y-88900000D01*
X146304000Y-85852000D02*
X156464000Y-85852000D01*
X146304000Y-88900000D02*
X146304000Y-85852000D01*
X185109981Y-99359073D02*
G75*
G03X185109981Y-99359073I-2540000J0D01*
G01*
X156464000Y-111760000D02*
X146304000Y-111760000D01*
X156464000Y-108712000D02*
X156464000Y-111760000D01*
X146304000Y-108712000D02*
X156464000Y-108712000D01*
X146304000Y-111760000D02*
X146304000Y-108712000D01*
X197809981Y-99359073D02*
G75*
G03X197809981Y-99359073I-2540000J0D01*
G01*
X138811000Y-112014000D02*
X138811000Y-103378000D01*
X142367000Y-112014000D02*
X138811000Y-112014000D01*
X142367000Y-103378000D02*
X142367000Y-112014000D01*
X138811000Y-103378000D02*
X142367000Y-103378000D01*
X138811000Y-96774000D02*
X138811000Y-88138000D01*
X142367000Y-96774000D02*
X138811000Y-96774000D01*
X142367000Y-88138000D02*
X142367000Y-96774000D01*
X138811000Y-88138000D02*
X142367000Y-88138000D01*
D14*
X163068000Y-105156000D02*
G75*
G03X163068000Y-105156000I-254000J0D01*
G01*
D15*
X159484000Y-106906000D02*
X159484000Y-93396000D01*
X166114000Y-106906000D02*
X159514000Y-106906000D01*
X166144000Y-106906000D02*
X166144000Y-93396000D01*
X166114000Y-93396000D02*
X159514000Y-93396000D01*
D12*
X191476381Y-110569333D02*
X192190667Y-110569333D01*
X192333524Y-110616953D01*
X192428762Y-110712191D01*
X192476381Y-110855048D01*
X192476381Y-110950286D01*
X191809714Y-109664571D02*
X192476381Y-109664571D01*
X191428762Y-109902667D02*
X192143048Y-110140762D01*
X192143048Y-109521714D01*
X150968414Y-95138501D02*
X150635080Y-94662310D01*
X150396985Y-95138501D02*
X150396985Y-94138501D01*
X150777938Y-94138501D01*
X150873176Y-94186120D01*
X150920795Y-94233739D01*
X150968414Y-94328977D01*
X150968414Y-94471834D01*
X150920795Y-94567072D01*
X150873176Y-94614691D01*
X150777938Y-94662310D01*
X150396985Y-94662310D01*
X151539842Y-94567072D02*
X151444604Y-94519453D01*
X151396985Y-94471834D01*
X151349366Y-94376596D01*
X151349366Y-94328977D01*
X151396985Y-94233739D01*
X151444604Y-94186120D01*
X151539842Y-94138501D01*
X151730319Y-94138501D01*
X151825557Y-94186120D01*
X151873176Y-94233739D01*
X151920795Y-94328977D01*
X151920795Y-94376596D01*
X151873176Y-94471834D01*
X151825557Y-94519453D01*
X151730319Y-94567072D01*
X151539842Y-94567072D01*
X151444604Y-94614691D01*
X151396985Y-94662310D01*
X151349366Y-94757549D01*
X151349366Y-94948025D01*
X151396985Y-95043263D01*
X151444604Y-95090882D01*
X151539842Y-95138501D01*
X151730319Y-95138501D01*
X151825557Y-95090882D01*
X151873176Y-95043263D01*
X151920795Y-94948025D01*
X151920795Y-94757549D01*
X151873176Y-94662310D01*
X151825557Y-94614691D01*
X151730319Y-94567072D01*
X182403315Y-87111454D02*
X182069981Y-86635263D01*
X181831886Y-87111454D02*
X181831886Y-86111454D01*
X182212839Y-86111454D01*
X182308077Y-86159073D01*
X182355696Y-86206692D01*
X182403315Y-86301930D01*
X182403315Y-86444787D01*
X182355696Y-86540025D01*
X182308077Y-86587644D01*
X182212839Y-86635263D01*
X181831886Y-86635263D01*
X182736648Y-86111454D02*
X183403315Y-86111454D01*
X182974743Y-87111454D01*
X150968414Y-102758501D02*
X150635080Y-102282310D01*
X150396985Y-102758501D02*
X150396985Y-101758501D01*
X150777938Y-101758501D01*
X150873176Y-101806120D01*
X150920795Y-101853739D01*
X150968414Y-101948977D01*
X150968414Y-102091834D01*
X150920795Y-102187072D01*
X150873176Y-102234691D01*
X150777938Y-102282310D01*
X150396985Y-102282310D01*
X151825557Y-101758501D02*
X151635080Y-101758501D01*
X151539842Y-101806120D01*
X151492223Y-101853739D01*
X151396985Y-101996596D01*
X151349366Y-102187072D01*
X151349366Y-102568025D01*
X151396985Y-102663263D01*
X151444604Y-102710882D01*
X151539842Y-102758501D01*
X151730319Y-102758501D01*
X151825557Y-102710882D01*
X151873176Y-102663263D01*
X151920795Y-102568025D01*
X151920795Y-102329930D01*
X151873176Y-102234691D01*
X151825557Y-102187072D01*
X151730319Y-102139453D01*
X151539842Y-102139453D01*
X151444604Y-102187072D01*
X151396985Y-102234691D01*
X151349366Y-102329930D01*
X195103315Y-87111454D02*
X194769981Y-86635263D01*
X194531886Y-87111454D02*
X194531886Y-86111454D01*
X194912839Y-86111454D01*
X195008077Y-86159073D01*
X195055696Y-86206692D01*
X195103315Y-86301930D01*
X195103315Y-86444787D01*
X195055696Y-86540025D01*
X195008077Y-86587644D01*
X194912839Y-86635263D01*
X194531886Y-86635263D01*
X196008077Y-86111454D02*
X195531886Y-86111454D01*
X195484267Y-86587644D01*
X195531886Y-86540025D01*
X195627124Y-86492406D01*
X195865220Y-86492406D01*
X195960458Y-86540025D01*
X196008077Y-86587644D01*
X196055696Y-86682883D01*
X196055696Y-86920978D01*
X196008077Y-87016216D01*
X195960458Y-87063835D01*
X195865220Y-87111454D01*
X195627124Y-87111454D01*
X195531886Y-87063835D01*
X195484267Y-87016216D01*
X150968414Y-87518501D02*
X150635080Y-87042310D01*
X150396985Y-87518501D02*
X150396985Y-86518501D01*
X150777938Y-86518501D01*
X150873176Y-86566120D01*
X150920795Y-86613739D01*
X150968414Y-86708977D01*
X150968414Y-86851834D01*
X150920795Y-86947072D01*
X150873176Y-86994691D01*
X150777938Y-87042310D01*
X150396985Y-87042310D01*
X151825557Y-86851834D02*
X151825557Y-87518501D01*
X151587461Y-86470882D02*
X151349366Y-87185168D01*
X151968414Y-87185168D01*
X182403315Y-99811454D02*
X182069981Y-99335263D01*
X181831886Y-99811454D02*
X181831886Y-98811454D01*
X182212839Y-98811454D01*
X182308077Y-98859073D01*
X182355696Y-98906692D01*
X182403315Y-99001930D01*
X182403315Y-99144787D01*
X182355696Y-99240025D01*
X182308077Y-99287644D01*
X182212839Y-99335263D01*
X181831886Y-99335263D01*
X182736648Y-98811454D02*
X183355696Y-98811454D01*
X183022362Y-99192406D01*
X183165220Y-99192406D01*
X183260458Y-99240025D01*
X183308077Y-99287644D01*
X183355696Y-99382883D01*
X183355696Y-99620978D01*
X183308077Y-99716216D01*
X183260458Y-99763835D01*
X183165220Y-99811454D01*
X182879505Y-99811454D01*
X182784267Y-99763835D01*
X182736648Y-99716216D01*
X150968414Y-110378501D02*
X150635080Y-109902310D01*
X150396985Y-110378501D02*
X150396985Y-109378501D01*
X150777938Y-109378501D01*
X150873176Y-109426120D01*
X150920795Y-109473739D01*
X150968414Y-109568977D01*
X150968414Y-109711834D01*
X150920795Y-109807072D01*
X150873176Y-109854691D01*
X150777938Y-109902310D01*
X150396985Y-109902310D01*
X151349366Y-109473739D02*
X151396985Y-109426120D01*
X151492223Y-109378501D01*
X151730319Y-109378501D01*
X151825557Y-109426120D01*
X151873176Y-109473739D01*
X151920795Y-109568977D01*
X151920795Y-109664215D01*
X151873176Y-109807072D01*
X151301747Y-110378501D01*
X151920795Y-110378501D01*
X195103315Y-99811454D02*
X194769981Y-99335263D01*
X194531886Y-99811454D02*
X194531886Y-98811454D01*
X194912839Y-98811454D01*
X195008077Y-98859073D01*
X195055696Y-98906692D01*
X195103315Y-99001930D01*
X195103315Y-99144787D01*
X195055696Y-99240025D01*
X195008077Y-99287644D01*
X194912839Y-99335263D01*
X194531886Y-99335263D01*
X196055696Y-99811454D02*
X195484267Y-99811454D01*
X195769981Y-99811454D02*
X195769981Y-98811454D01*
X195674743Y-98954311D01*
X195579505Y-99049549D01*
X195484267Y-99097168D01*
X140255667Y-107402381D02*
X140255667Y-108116667D01*
X140208047Y-108259524D01*
X140112809Y-108354762D01*
X139969952Y-108402381D01*
X139874714Y-108402381D01*
X140636619Y-107402381D02*
X141255667Y-107402381D01*
X140922333Y-107783333D01*
X141065191Y-107783333D01*
X141160429Y-107830952D01*
X141208048Y-107878571D01*
X141255667Y-107973810D01*
X141255667Y-108211905D01*
X141208048Y-108307143D01*
X141160429Y-108354762D01*
X141065191Y-108402381D01*
X140779476Y-108402381D01*
X140684238Y-108354762D01*
X140636619Y-108307143D01*
X140255667Y-92162381D02*
X140255667Y-92876667D01*
X140208047Y-93019524D01*
X140112809Y-93114762D01*
X139969952Y-93162381D01*
X139874714Y-93162381D01*
X140684238Y-92257619D02*
X140731857Y-92210000D01*
X140827095Y-92162381D01*
X141065191Y-92162381D01*
X141160429Y-92210000D01*
X141208048Y-92257619D01*
X141255667Y-92352857D01*
X141255667Y-92448095D01*
X141208048Y-92590952D01*
X140636619Y-93162381D01*
X141255667Y-93162381D01*
X162480667Y-102068381D02*
X162480667Y-102782667D01*
X162433047Y-102925524D01*
X162337809Y-103020762D01*
X162194952Y-103068381D01*
X162099714Y-103068381D01*
X163480667Y-103068381D02*
X162909238Y-103068381D01*
X163194952Y-103068381D02*
X163194952Y-102068381D01*
X163099714Y-102211238D01*
X163004476Y-102306476D01*
X162909238Y-102354095D01*
M02*
