M48
;DRILL file {KiCad 4.0.5-e0-6337~49~ubuntu16.04.1} date Mon May  8 14:00:32 2017
;FORMAT={-:-/ absolute / metric / decimal}
FMAT,2
METRIC,TZ
T1C1.001
T2C1.016
%
G90
G05
M71
T1
X37.211Y-62.103
X37.211Y-69.723
X37.211Y-77.343
X37.211Y-84.963
X44.831Y-62.103
X44.831Y-69.723
X44.831Y-77.343
X44.831Y-84.963
T2
X24.384Y-50.292
X26.924Y-50.292
X28.448Y-98.552
X29.464Y-50.292
X30.226Y-64.643
X30.226Y-67.183
X30.226Y-69.723
X30.226Y-79.883
X30.226Y-82.423
X30.226Y-84.963
X30.988Y-98.552
X32.004Y-50.292
X33.528Y-98.552
X34.544Y-50.292
X36.068Y-98.552
X37.084Y-50.292
X38.608Y-98.552
X39.624Y-50.292
X41.148Y-98.552
X42.164Y-50.292
X43.688Y-98.552
X46.228Y-50.292
X46.228Y-98.552
X48.768Y-50.292
X51.308Y-50.292
X51.308Y-98.552
X52.451Y-69.723
X52.451Y-72.263
X52.451Y-74.803
X52.451Y-77.343
X52.451Y-79.883
X53.848Y-50.292
X53.848Y-98.552
X56.388Y-50.292
X56.388Y-98.552
X58.928Y-50.292
X58.928Y-98.552
T0
M30
