%TF.GenerationSoftware,KiCad,Pcbnew,4.0.7-e2-6376~58~ubuntu16.04.1*%
%TF.CreationDate,2018-02-09T13:49:53-08:00*%
%TF.ProjectId,LDR-Board,4C44522D426F6172642E6B696361645F,v1.3*%
%TF.FileFunction,Legend,Bot*%
%FSLAX46Y46*%
G04 Gerber Fmt 4.6, Leading zero omitted, Abs format (unit mm)*
G04 Created by KiCad (PCBNEW 4.0.7-e2-6376~58~ubuntu16.04.1) date Fri Feb  9 13:49:53 2018*
%MOMM*%
%LPD*%
G01*
G04 APERTURE LIST*
%ADD10C,0.350000*%
%ADD11C,0.300000*%
%ADD12C,2.184400*%
%ADD13O,2.184400X2.184400*%
%ADD14R,2.184400X2.184400*%
G04 APERTURE END LIST*
D10*
D11*
X31007857Y-53920714D02*
X31079286Y-54135000D01*
X31150714Y-54206428D01*
X31293571Y-54277857D01*
X31507857Y-54277857D01*
X31650714Y-54206428D01*
X31722143Y-54135000D01*
X31793571Y-53992142D01*
X31793571Y-53420714D01*
X30293571Y-53420714D01*
X30293571Y-53920714D01*
X30365000Y-54063571D01*
X30436429Y-54135000D01*
X30579286Y-54206428D01*
X30722143Y-54206428D01*
X30865000Y-54135000D01*
X30936429Y-54063571D01*
X31007857Y-53920714D01*
X31007857Y-53420714D01*
X31793571Y-54920714D02*
X30793571Y-54920714D01*
X31079286Y-54920714D02*
X30936429Y-54992142D01*
X30865000Y-55063571D01*
X30793571Y-55206428D01*
X30793571Y-55349285D01*
X31793571Y-56063571D02*
X31722143Y-55920713D01*
X31650714Y-55849285D01*
X31507857Y-55777856D01*
X31079286Y-55777856D01*
X30936429Y-55849285D01*
X30865000Y-55920713D01*
X30793571Y-56063571D01*
X30793571Y-56277856D01*
X30865000Y-56420713D01*
X30936429Y-56492142D01*
X31079286Y-56563571D01*
X31507857Y-56563571D01*
X31650714Y-56492142D01*
X31722143Y-56420713D01*
X31793571Y-56277856D01*
X31793571Y-56063571D01*
X30793571Y-57063571D02*
X31793571Y-57349285D01*
X31079286Y-57634999D01*
X31793571Y-57920714D01*
X30793571Y-58206428D01*
X30793571Y-58777857D02*
X31793571Y-58777857D01*
X30936429Y-58777857D02*
X30865000Y-58849285D01*
X30793571Y-58992143D01*
X30793571Y-59206428D01*
X30865000Y-59349285D01*
X31007857Y-59420714D01*
X31793571Y-59420714D01*
X31793571Y-61277857D02*
X30293571Y-61277857D01*
X30293571Y-61635000D01*
X30365000Y-61849285D01*
X30507857Y-61992143D01*
X30650714Y-62063571D01*
X30936429Y-62135000D01*
X31150714Y-62135000D01*
X31436429Y-62063571D01*
X31579286Y-61992143D01*
X31722143Y-61849285D01*
X31793571Y-61635000D01*
X31793571Y-61277857D01*
X31793571Y-62992143D02*
X31722143Y-62849285D01*
X31650714Y-62777857D01*
X31507857Y-62706428D01*
X31079286Y-62706428D01*
X30936429Y-62777857D01*
X30865000Y-62849285D01*
X30793571Y-62992143D01*
X30793571Y-63206428D01*
X30865000Y-63349285D01*
X30936429Y-63420714D01*
X31079286Y-63492143D01*
X31507857Y-63492143D01*
X31650714Y-63420714D01*
X31722143Y-63349285D01*
X31793571Y-63206428D01*
X31793571Y-62992143D01*
X30793571Y-64777857D02*
X32007857Y-64777857D01*
X32150714Y-64706428D01*
X32222143Y-64635000D01*
X32293571Y-64492143D01*
X32293571Y-64277857D01*
X32222143Y-64135000D01*
X31722143Y-64777857D02*
X31793571Y-64635000D01*
X31793571Y-64349286D01*
X31722143Y-64206428D01*
X31650714Y-64135000D01*
X31507857Y-64063571D01*
X31079286Y-64063571D01*
X30936429Y-64135000D01*
X30865000Y-64206428D01*
X30793571Y-64349286D01*
X30793571Y-64635000D01*
X30865000Y-64777857D01*
X30365000Y-67420714D02*
X30293571Y-67277857D01*
X30293571Y-67063571D01*
X30365000Y-66849286D01*
X30507857Y-66706428D01*
X30650714Y-66635000D01*
X30936429Y-66563571D01*
X31150714Y-66563571D01*
X31436429Y-66635000D01*
X31579286Y-66706428D01*
X31722143Y-66849286D01*
X31793571Y-67063571D01*
X31793571Y-67206428D01*
X31722143Y-67420714D01*
X31650714Y-67492143D01*
X31150714Y-67492143D01*
X31150714Y-67206428D01*
X31793571Y-68777857D02*
X31007857Y-68777857D01*
X30865000Y-68706428D01*
X30793571Y-68563571D01*
X30793571Y-68277857D01*
X30865000Y-68135000D01*
X31722143Y-68777857D02*
X31793571Y-68635000D01*
X31793571Y-68277857D01*
X31722143Y-68135000D01*
X31579286Y-68063571D01*
X31436429Y-68063571D01*
X31293571Y-68135000D01*
X31222143Y-68277857D01*
X31222143Y-68635000D01*
X31150714Y-68777857D01*
X31793571Y-70135000D02*
X30293571Y-70135000D01*
X31722143Y-70135000D02*
X31793571Y-69992143D01*
X31793571Y-69706429D01*
X31722143Y-69563571D01*
X31650714Y-69492143D01*
X31507857Y-69420714D01*
X31079286Y-69420714D01*
X30936429Y-69492143D01*
X30865000Y-69563571D01*
X30793571Y-69706429D01*
X30793571Y-69992143D01*
X30865000Y-70135000D01*
X30793571Y-71492143D02*
X32007857Y-71492143D01*
X32150714Y-71420714D01*
X32222143Y-71349286D01*
X32293571Y-71206429D01*
X32293571Y-70992143D01*
X32222143Y-70849286D01*
X31722143Y-71492143D02*
X31793571Y-71349286D01*
X31793571Y-71063572D01*
X31722143Y-70920714D01*
X31650714Y-70849286D01*
X31507857Y-70777857D01*
X31079286Y-70777857D01*
X30936429Y-70849286D01*
X30865000Y-70920714D01*
X30793571Y-71063572D01*
X30793571Y-71349286D01*
X30865000Y-71492143D01*
X31722143Y-72777857D02*
X31793571Y-72635000D01*
X31793571Y-72349286D01*
X31722143Y-72206429D01*
X31579286Y-72135000D01*
X31007857Y-72135000D01*
X30865000Y-72206429D01*
X30793571Y-72349286D01*
X30793571Y-72635000D01*
X30865000Y-72777857D01*
X31007857Y-72849286D01*
X31150714Y-72849286D01*
X31293571Y-72135000D01*
X30793571Y-73277857D02*
X30793571Y-73849286D01*
X30293571Y-73492143D02*
X31579286Y-73492143D01*
X31722143Y-73563571D01*
X31793571Y-73706429D01*
X31793571Y-73849286D01*
X31722143Y-74277857D02*
X31793571Y-74420714D01*
X31793571Y-74706429D01*
X31722143Y-74849286D01*
X31579286Y-74920714D01*
X31507857Y-74920714D01*
X31365000Y-74849286D01*
X31293571Y-74706429D01*
X31293571Y-74492143D01*
X31222143Y-74349286D01*
X31079286Y-74277857D01*
X31007857Y-74277857D01*
X30865000Y-74349286D01*
X30793571Y-74492143D01*
X30793571Y-74706429D01*
X30865000Y-74849286D01*
X7663571Y-56984287D02*
X7663571Y-56270001D01*
X6163571Y-56270001D01*
X7663571Y-57484287D02*
X6163571Y-57484287D01*
X6163571Y-57841430D01*
X6235000Y-58055715D01*
X6377857Y-58198573D01*
X6520714Y-58270001D01*
X6806429Y-58341430D01*
X7020714Y-58341430D01*
X7306429Y-58270001D01*
X7449286Y-58198573D01*
X7592143Y-58055715D01*
X7663571Y-57841430D01*
X7663571Y-57484287D01*
X7663571Y-59841430D02*
X6949286Y-59341430D01*
X7663571Y-58984287D02*
X6163571Y-58984287D01*
X6163571Y-59555715D01*
X6235000Y-59698573D01*
X6306429Y-59770001D01*
X6449286Y-59841430D01*
X6663571Y-59841430D01*
X6806429Y-59770001D01*
X6877857Y-59698573D01*
X6949286Y-59555715D01*
X6949286Y-58984287D01*
X6877857Y-62127144D02*
X6949286Y-62341430D01*
X7020714Y-62412858D01*
X7163571Y-62484287D01*
X7377857Y-62484287D01*
X7520714Y-62412858D01*
X7592143Y-62341430D01*
X7663571Y-62198572D01*
X7663571Y-61627144D01*
X6163571Y-61627144D01*
X6163571Y-62127144D01*
X6235000Y-62270001D01*
X6306429Y-62341430D01*
X6449286Y-62412858D01*
X6592143Y-62412858D01*
X6735000Y-62341430D01*
X6806429Y-62270001D01*
X6877857Y-62127144D01*
X6877857Y-61627144D01*
X7663571Y-63341430D02*
X7592143Y-63198572D01*
X7520714Y-63127144D01*
X7377857Y-63055715D01*
X6949286Y-63055715D01*
X6806429Y-63127144D01*
X6735000Y-63198572D01*
X6663571Y-63341430D01*
X6663571Y-63555715D01*
X6735000Y-63698572D01*
X6806429Y-63770001D01*
X6949286Y-63841430D01*
X7377857Y-63841430D01*
X7520714Y-63770001D01*
X7592143Y-63698572D01*
X7663571Y-63555715D01*
X7663571Y-63341430D01*
X7663571Y-65127144D02*
X6877857Y-65127144D01*
X6735000Y-65055715D01*
X6663571Y-64912858D01*
X6663571Y-64627144D01*
X6735000Y-64484287D01*
X7592143Y-65127144D02*
X7663571Y-64984287D01*
X7663571Y-64627144D01*
X7592143Y-64484287D01*
X7449286Y-64412858D01*
X7306429Y-64412858D01*
X7163571Y-64484287D01*
X7092143Y-64627144D01*
X7092143Y-64984287D01*
X7020714Y-65127144D01*
X7663571Y-65841430D02*
X6663571Y-65841430D01*
X6949286Y-65841430D02*
X6806429Y-65912858D01*
X6735000Y-65984287D01*
X6663571Y-66127144D01*
X6663571Y-66270001D01*
X7663571Y-67412858D02*
X6163571Y-67412858D01*
X7592143Y-67412858D02*
X7663571Y-67270001D01*
X7663571Y-66984287D01*
X7592143Y-66841429D01*
X7520714Y-66770001D01*
X7377857Y-66698572D01*
X6949286Y-66698572D01*
X6806429Y-66770001D01*
X6735000Y-66841429D01*
X6663571Y-66984287D01*
X6663571Y-67270001D01*
X6735000Y-67412858D01*
X6663571Y-69127144D02*
X7663571Y-69484287D01*
X6663571Y-69841429D01*
X7663571Y-71198572D02*
X7663571Y-70341429D01*
X7663571Y-70770001D02*
X6163571Y-70770001D01*
X6377857Y-70627144D01*
X6520714Y-70484286D01*
X6592143Y-70341429D01*
X7520714Y-71841429D02*
X7592143Y-71912857D01*
X7663571Y-71841429D01*
X7592143Y-71770000D01*
X7520714Y-71841429D01*
X7663571Y-71841429D01*
X6163571Y-72412858D02*
X6163571Y-73341429D01*
X6735000Y-72841429D01*
X6735000Y-73055715D01*
X6806429Y-73198572D01*
X6877857Y-73270001D01*
X7020714Y-73341429D01*
X7377857Y-73341429D01*
X7520714Y-73270001D01*
X7592143Y-73198572D01*
X7663571Y-73055715D01*
X7663571Y-72627143D01*
X7592143Y-72484286D01*
X7520714Y-72412858D01*
%LPC*%
D12*
X27224981Y-58465073D03*
D13*
X24224981Y-58465073D03*
D12*
X14524981Y-71165073D03*
D13*
X11524981Y-71165073D03*
D12*
X27224981Y-71165073D03*
D13*
X24224981Y-71165073D03*
D12*
X11524981Y-58465073D03*
D13*
X14524981Y-58465073D03*
D14*
X24130000Y-80772000D03*
D13*
X21590000Y-80772000D03*
X19050000Y-80772000D03*
X16510000Y-80772000D03*
X13970000Y-80772000D03*
M02*
