%TF.GenerationSoftware,KiCad,Pcbnew,4.0.5-e0-6337~49~ubuntu16.04.1*%
%TF.CreationDate,2017-05-08T19:40:56-07:00*%
%TF.ProjectId,LDR-Board,4C44522D426F6172642E6B696361645F,v1.2*%
%TF.FileFunction,Soldermask,Top*%
%FSLAX46Y46*%
G04 Gerber Fmt 4.6, Leading zero omitted, Abs format (unit mm)*
G04 Created by KiCad (PCBNEW 4.0.5-e0-6337~49~ubuntu16.04.1) date Mon May  8 19:40:56 2017*
%MOMM*%
%LPD*%
G01*
G04 APERTURE LIST*
%ADD10C,0.350000*%
G04 APERTURE END LIST*
D10*
G36*
X16729570Y-79696817D02*
X16729575Y-79696819D01*
X16729617Y-79696823D01*
X16933245Y-79759856D01*
X17120750Y-79861240D01*
X17284993Y-79997114D01*
X17419717Y-80162301D01*
X17519789Y-80350510D01*
X17581399Y-80554572D01*
X17602200Y-80766715D01*
X17602200Y-80777285D01*
X17602094Y-80792534D01*
X17578333Y-81004366D01*
X17513880Y-81207548D01*
X17411189Y-81394342D01*
X17274172Y-81557632D01*
X17108049Y-81691199D01*
X16919145Y-81789955D01*
X16714658Y-81850139D01*
X16714617Y-81850143D01*
X16714613Y-81850144D01*
X16502377Y-81869459D01*
X16290430Y-81847183D01*
X16290425Y-81847181D01*
X16290383Y-81847177D01*
X16086755Y-81784144D01*
X15899250Y-81682760D01*
X15735007Y-81546886D01*
X15600283Y-81381699D01*
X15500211Y-81193490D01*
X15438601Y-80989428D01*
X15417800Y-80777285D01*
X15417800Y-80766715D01*
X15417906Y-80751466D01*
X15441667Y-80539634D01*
X15506120Y-80336452D01*
X15608811Y-80149658D01*
X15745828Y-79986368D01*
X15911951Y-79852801D01*
X16100855Y-79754045D01*
X16305342Y-79693861D01*
X16305383Y-79693857D01*
X16305387Y-79693856D01*
X16517623Y-79674541D01*
X16729570Y-79696817D01*
X16729570Y-79696817D01*
G37*
G36*
X19269570Y-79696817D02*
X19269575Y-79696819D01*
X19269617Y-79696823D01*
X19473245Y-79759856D01*
X19660750Y-79861240D01*
X19824993Y-79997114D01*
X19959717Y-80162301D01*
X20059789Y-80350510D01*
X20121399Y-80554572D01*
X20142200Y-80766715D01*
X20142200Y-80777285D01*
X20142094Y-80792534D01*
X20118333Y-81004366D01*
X20053880Y-81207548D01*
X19951189Y-81394342D01*
X19814172Y-81557632D01*
X19648049Y-81691199D01*
X19459145Y-81789955D01*
X19254658Y-81850139D01*
X19254617Y-81850143D01*
X19254613Y-81850144D01*
X19042377Y-81869459D01*
X18830430Y-81847183D01*
X18830425Y-81847181D01*
X18830383Y-81847177D01*
X18626755Y-81784144D01*
X18439250Y-81682760D01*
X18275007Y-81546886D01*
X18140283Y-81381699D01*
X18040211Y-81193490D01*
X17978601Y-80989428D01*
X17957800Y-80777285D01*
X17957800Y-80766715D01*
X17957906Y-80751466D01*
X17981667Y-80539634D01*
X18046120Y-80336452D01*
X18148811Y-80149658D01*
X18285828Y-79986368D01*
X18451951Y-79852801D01*
X18640855Y-79754045D01*
X18845342Y-79693861D01*
X18845383Y-79693857D01*
X18845387Y-79693856D01*
X19057623Y-79674541D01*
X19269570Y-79696817D01*
X19269570Y-79696817D01*
G37*
G36*
X21809570Y-79696817D02*
X21809575Y-79696819D01*
X21809617Y-79696823D01*
X22013245Y-79759856D01*
X22200750Y-79861240D01*
X22364993Y-79997114D01*
X22499717Y-80162301D01*
X22599789Y-80350510D01*
X22661399Y-80554572D01*
X22682200Y-80766715D01*
X22682200Y-80777285D01*
X22682094Y-80792534D01*
X22658333Y-81004366D01*
X22593880Y-81207548D01*
X22491189Y-81394342D01*
X22354172Y-81557632D01*
X22188049Y-81691199D01*
X21999145Y-81789955D01*
X21794658Y-81850139D01*
X21794617Y-81850143D01*
X21794613Y-81850144D01*
X21582377Y-81869459D01*
X21370430Y-81847183D01*
X21370425Y-81847181D01*
X21370383Y-81847177D01*
X21166755Y-81784144D01*
X20979250Y-81682760D01*
X20815007Y-81546886D01*
X20680283Y-81381699D01*
X20580211Y-81193490D01*
X20518601Y-80989428D01*
X20497800Y-80777285D01*
X20497800Y-80766715D01*
X20497906Y-80751466D01*
X20521667Y-80539634D01*
X20586120Y-80336452D01*
X20688811Y-80149658D01*
X20825828Y-79986368D01*
X20991951Y-79852801D01*
X21180855Y-79754045D01*
X21385342Y-79693861D01*
X21385383Y-79693857D01*
X21385387Y-79693856D01*
X21597623Y-79674541D01*
X21809570Y-79696817D01*
X21809570Y-79696817D01*
G37*
G36*
X14189570Y-79696817D02*
X14189575Y-79696819D01*
X14189617Y-79696823D01*
X14393245Y-79759856D01*
X14580750Y-79861240D01*
X14744993Y-79997114D01*
X14879717Y-80162301D01*
X14979789Y-80350510D01*
X15041399Y-80554572D01*
X15062200Y-80766715D01*
X15062200Y-80777285D01*
X15062094Y-80792534D01*
X15038333Y-81004366D01*
X14973880Y-81207548D01*
X14871189Y-81394342D01*
X14734172Y-81557632D01*
X14568049Y-81691199D01*
X14379145Y-81789955D01*
X14174658Y-81850139D01*
X14174617Y-81850143D01*
X14174613Y-81850144D01*
X13962377Y-81869459D01*
X13750430Y-81847183D01*
X13750425Y-81847181D01*
X13750383Y-81847177D01*
X13546755Y-81784144D01*
X13359250Y-81682760D01*
X13195007Y-81546886D01*
X13060283Y-81381699D01*
X12960211Y-81193490D01*
X12898601Y-80989428D01*
X12877800Y-80777285D01*
X12877800Y-80766715D01*
X12877906Y-80751466D01*
X12901667Y-80539634D01*
X12966120Y-80336452D01*
X13068811Y-80149658D01*
X13205828Y-79986368D01*
X13371951Y-79852801D01*
X13560855Y-79754045D01*
X13765342Y-79693861D01*
X13765383Y-79693857D01*
X13765387Y-79693856D01*
X13977623Y-79674541D01*
X14189570Y-79696817D01*
X14189570Y-79696817D01*
G37*
G36*
X25222200Y-81864200D02*
X23037800Y-81864200D01*
X23037800Y-79679800D01*
X25222200Y-79679800D01*
X25222200Y-81864200D01*
X25222200Y-81864200D01*
G37*
G36*
X24674551Y-70089890D02*
X24674556Y-70089892D01*
X24674598Y-70089896D01*
X24878226Y-70152929D01*
X25065731Y-70254313D01*
X25229974Y-70390187D01*
X25364698Y-70555374D01*
X25464770Y-70743583D01*
X25526380Y-70947645D01*
X25547181Y-71159788D01*
X25547181Y-71170358D01*
X25547075Y-71185607D01*
X25523314Y-71397439D01*
X25458861Y-71600621D01*
X25356170Y-71787415D01*
X25219153Y-71950705D01*
X25053030Y-72084272D01*
X24864126Y-72183028D01*
X24659639Y-72243212D01*
X24659598Y-72243216D01*
X24659594Y-72243217D01*
X24447358Y-72262532D01*
X24235411Y-72240256D01*
X24235406Y-72240254D01*
X24235364Y-72240250D01*
X24031736Y-72177217D01*
X23844231Y-72075833D01*
X23679988Y-71939959D01*
X23545264Y-71774772D01*
X23445192Y-71586563D01*
X23383582Y-71382501D01*
X23362781Y-71170358D01*
X23362781Y-71159788D01*
X23362887Y-71144539D01*
X23386648Y-70932707D01*
X23451101Y-70729525D01*
X23553792Y-70542731D01*
X23690809Y-70379441D01*
X23856932Y-70245874D01*
X24045836Y-70147118D01*
X24250323Y-70086934D01*
X24250364Y-70086930D01*
X24250368Y-70086929D01*
X24462604Y-70067614D01*
X24674551Y-70089890D01*
X24674551Y-70089890D01*
G37*
G36*
X11974551Y-70089890D02*
X11974556Y-70089892D01*
X11974598Y-70089896D01*
X12178226Y-70152929D01*
X12365731Y-70254313D01*
X12529974Y-70390187D01*
X12664698Y-70555374D01*
X12764770Y-70743583D01*
X12826380Y-70947645D01*
X12847181Y-71159788D01*
X12847181Y-71170358D01*
X12847075Y-71185607D01*
X12823314Y-71397439D01*
X12758861Y-71600621D01*
X12656170Y-71787415D01*
X12519153Y-71950705D01*
X12353030Y-72084272D01*
X12164126Y-72183028D01*
X11959639Y-72243212D01*
X11959598Y-72243216D01*
X11959594Y-72243217D01*
X11747358Y-72262532D01*
X11535411Y-72240256D01*
X11535406Y-72240254D01*
X11535364Y-72240250D01*
X11331736Y-72177217D01*
X11144231Y-72075833D01*
X10979988Y-71939959D01*
X10845264Y-71774772D01*
X10745192Y-71586563D01*
X10683582Y-71382501D01*
X10662781Y-71170358D01*
X10662781Y-71159788D01*
X10662887Y-71144539D01*
X10686648Y-70932707D01*
X10751101Y-70729525D01*
X10853792Y-70542731D01*
X10990809Y-70379441D01*
X11156932Y-70245874D01*
X11345836Y-70147118D01*
X11550323Y-70086934D01*
X11550364Y-70086930D01*
X11550368Y-70086929D01*
X11762604Y-70067614D01*
X11974551Y-70089890D01*
X11974551Y-70089890D01*
G37*
G36*
X27109703Y-70073599D02*
X27319513Y-70116667D01*
X27516975Y-70199672D01*
X27694547Y-70319446D01*
X27845473Y-70471429D01*
X27964003Y-70649833D01*
X28045627Y-70847866D01*
X28087160Y-71057623D01*
X28087160Y-71057633D01*
X28087228Y-71057977D01*
X28083812Y-71302624D01*
X28083734Y-71302967D01*
X28083734Y-71302972D01*
X28036359Y-71511495D01*
X27949241Y-71707166D01*
X27825773Y-71882193D01*
X27670661Y-72029904D01*
X27489811Y-72144675D01*
X27290116Y-72222131D01*
X27079181Y-72259325D01*
X26865034Y-72254839D01*
X26655838Y-72208844D01*
X26459560Y-72123092D01*
X26283683Y-72000855D01*
X26134888Y-71846773D01*
X26018860Y-71666732D01*
X25940008Y-71467577D01*
X25901344Y-71256911D01*
X25904334Y-71042739D01*
X25948868Y-70833225D01*
X26033245Y-70636355D01*
X26154258Y-70459622D01*
X26307291Y-70309761D01*
X26486521Y-70192477D01*
X26685116Y-70112238D01*
X26895511Y-70072104D01*
X27109703Y-70073599D01*
X27109703Y-70073599D01*
G37*
G36*
X14409703Y-70073599D02*
X14619513Y-70116667D01*
X14816975Y-70199672D01*
X14994547Y-70319446D01*
X15145473Y-70471429D01*
X15264003Y-70649833D01*
X15345627Y-70847866D01*
X15387160Y-71057623D01*
X15387160Y-71057633D01*
X15387228Y-71057977D01*
X15383812Y-71302624D01*
X15383734Y-71302967D01*
X15383734Y-71302972D01*
X15336359Y-71511495D01*
X15249241Y-71707166D01*
X15125773Y-71882193D01*
X14970661Y-72029904D01*
X14789811Y-72144675D01*
X14590116Y-72222131D01*
X14379181Y-72259325D01*
X14165034Y-72254839D01*
X13955838Y-72208844D01*
X13759560Y-72123092D01*
X13583683Y-72000855D01*
X13434888Y-71846773D01*
X13318860Y-71666732D01*
X13240008Y-71467577D01*
X13201344Y-71256911D01*
X13204334Y-71042739D01*
X13248868Y-70833225D01*
X13333245Y-70636355D01*
X13454258Y-70459622D01*
X13607291Y-70309761D01*
X13786521Y-70192477D01*
X13985116Y-70112238D01*
X14195511Y-70072104D01*
X14409703Y-70073599D01*
X14409703Y-70073599D01*
G37*
G36*
X24674551Y-57389890D02*
X24674556Y-57389892D01*
X24674598Y-57389896D01*
X24878226Y-57452929D01*
X25065731Y-57554313D01*
X25229974Y-57690187D01*
X25364698Y-57855374D01*
X25464770Y-58043583D01*
X25526380Y-58247645D01*
X25547181Y-58459788D01*
X25547181Y-58470358D01*
X25547075Y-58485607D01*
X25523314Y-58697439D01*
X25458861Y-58900621D01*
X25356170Y-59087415D01*
X25219153Y-59250705D01*
X25053030Y-59384272D01*
X24864126Y-59483028D01*
X24659639Y-59543212D01*
X24659598Y-59543216D01*
X24659594Y-59543217D01*
X24447358Y-59562532D01*
X24235411Y-59540256D01*
X24235406Y-59540254D01*
X24235364Y-59540250D01*
X24031736Y-59477217D01*
X23844231Y-59375833D01*
X23679988Y-59239959D01*
X23545264Y-59074772D01*
X23445192Y-58886563D01*
X23383582Y-58682501D01*
X23362781Y-58470358D01*
X23362781Y-58459788D01*
X23362887Y-58444539D01*
X23386648Y-58232707D01*
X23451101Y-58029525D01*
X23553792Y-57842731D01*
X23690809Y-57679441D01*
X23856932Y-57545874D01*
X24045836Y-57447118D01*
X24250323Y-57386934D01*
X24250364Y-57386930D01*
X24250368Y-57386929D01*
X24462604Y-57367614D01*
X24674551Y-57389890D01*
X24674551Y-57389890D01*
G37*
G36*
X14514551Y-57389890D02*
X14514556Y-57389892D01*
X14514598Y-57389896D01*
X14718226Y-57452929D01*
X14905731Y-57554313D01*
X15069974Y-57690187D01*
X15204698Y-57855374D01*
X15304770Y-58043583D01*
X15366380Y-58247645D01*
X15387181Y-58459788D01*
X15387181Y-58470358D01*
X15387075Y-58485607D01*
X15363314Y-58697439D01*
X15298861Y-58900621D01*
X15196170Y-59087415D01*
X15059153Y-59250705D01*
X14893030Y-59384272D01*
X14704126Y-59483028D01*
X14499639Y-59543212D01*
X14499598Y-59543216D01*
X14499594Y-59543217D01*
X14287358Y-59562532D01*
X14075411Y-59540256D01*
X14075406Y-59540254D01*
X14075364Y-59540250D01*
X13871736Y-59477217D01*
X13684231Y-59375833D01*
X13519988Y-59239959D01*
X13385264Y-59074772D01*
X13285192Y-58886563D01*
X13223582Y-58682501D01*
X13202781Y-58470358D01*
X13202781Y-58459788D01*
X13202887Y-58444539D01*
X13226648Y-58232707D01*
X13291101Y-58029525D01*
X13393792Y-57842731D01*
X13530809Y-57679441D01*
X13696932Y-57545874D01*
X13885836Y-57447118D01*
X14090323Y-57386934D01*
X14090364Y-57386930D01*
X14090368Y-57386929D01*
X14302604Y-57367614D01*
X14514551Y-57389890D01*
X14514551Y-57389890D01*
G37*
G36*
X27109703Y-57373599D02*
X27319513Y-57416667D01*
X27516975Y-57499672D01*
X27694547Y-57619446D01*
X27845473Y-57771429D01*
X27964003Y-57949833D01*
X28045627Y-58147866D01*
X28087160Y-58357623D01*
X28087160Y-58357633D01*
X28087228Y-58357977D01*
X28083812Y-58602624D01*
X28083734Y-58602967D01*
X28083734Y-58602972D01*
X28036359Y-58811495D01*
X27949241Y-59007166D01*
X27825773Y-59182193D01*
X27670661Y-59329904D01*
X27489811Y-59444675D01*
X27290116Y-59522131D01*
X27079181Y-59559325D01*
X26865034Y-59554839D01*
X26655838Y-59508844D01*
X26459560Y-59423092D01*
X26283683Y-59300855D01*
X26134888Y-59146773D01*
X26018860Y-58966732D01*
X25940008Y-58767577D01*
X25901344Y-58556911D01*
X25904334Y-58342739D01*
X25948868Y-58133225D01*
X26033245Y-57936355D01*
X26154258Y-57759622D01*
X26307291Y-57609761D01*
X26486521Y-57492477D01*
X26685116Y-57412238D01*
X26895511Y-57372104D01*
X27109703Y-57373599D01*
X27109703Y-57373599D01*
G37*
G36*
X11869703Y-57373599D02*
X12079513Y-57416667D01*
X12276975Y-57499672D01*
X12454547Y-57619446D01*
X12605473Y-57771429D01*
X12724003Y-57949833D01*
X12805627Y-58147866D01*
X12847160Y-58357623D01*
X12847160Y-58357633D01*
X12847228Y-58357977D01*
X12843812Y-58602624D01*
X12843734Y-58602967D01*
X12843734Y-58602972D01*
X12796359Y-58811495D01*
X12709241Y-59007166D01*
X12585773Y-59182193D01*
X12430661Y-59329904D01*
X12249811Y-59444675D01*
X12050116Y-59522131D01*
X11839181Y-59559325D01*
X11625034Y-59554839D01*
X11415838Y-59508844D01*
X11219560Y-59423092D01*
X11043683Y-59300855D01*
X10894888Y-59146773D01*
X10778860Y-58966732D01*
X10700008Y-58767577D01*
X10661344Y-58556911D01*
X10664334Y-58342739D01*
X10708868Y-58133225D01*
X10793245Y-57936355D01*
X10914258Y-57759622D01*
X11067291Y-57609761D01*
X11246521Y-57492477D01*
X11445116Y-57412238D01*
X11655511Y-57372104D01*
X11869703Y-57373599D01*
X11869703Y-57373599D01*
G37*
M02*
