%TF.GenerationSoftware,KiCad,Pcbnew,4.0.7-e2-6376~58~ubuntu16.04.1*%
%TF.CreationDate,2018-02-09T13:49:53-08:00*%
%TF.ProjectId,LDR-Board,4C44522D426F6172642E6B696361645F,v1.3*%
%TF.FileFunction,Copper,L1,Top,Signal*%
%FSLAX46Y46*%
G04 Gerber Fmt 4.6, Leading zero omitted, Abs format (unit mm)*
G04 Created by KiCad (PCBNEW 4.0.7-e2-6376~58~ubuntu16.04.1) date Fri Feb  9 13:49:53 2018*
%MOMM*%
%LPD*%
G01*
G04 APERTURE LIST*
%ADD10C,0.350000*%
%ADD11C,2.032000*%
%ADD12O,2.032000X2.032000*%
%ADD13R,2.032000X2.032000*%
%ADD14C,0.508000*%
%ADD15C,0.330200*%
%ADD16C,0.350000*%
G04 APERTURE END LIST*
D10*
D11*
X27224981Y-58465073D03*
D12*
X24224981Y-58465073D03*
D11*
X14524981Y-71165073D03*
D12*
X11524981Y-71165073D03*
D11*
X27224981Y-71165073D03*
D12*
X24224981Y-71165073D03*
D11*
X11524981Y-58465073D03*
D12*
X14524981Y-58465073D03*
D13*
X24130000Y-80772000D03*
D12*
X21590000Y-80772000D03*
X19050000Y-80772000D03*
X16510000Y-80772000D03*
X13970000Y-80772000D03*
D14*
X26720800Y-73355200D02*
X26994981Y-73081019D01*
X24130000Y-75946000D02*
X26720800Y-73355200D01*
X26720800Y-73355200D02*
X27424981Y-72651019D01*
X27424981Y-72651019D02*
X27424981Y-71165073D01*
X27424981Y-71165073D02*
X27424981Y-69728233D01*
X27424981Y-69728233D02*
X27424981Y-58465073D01*
X11324981Y-58465073D02*
X11324981Y-55858019D01*
X11324981Y-55858019D02*
X13081000Y-54102000D01*
X13081000Y-54102000D02*
X25273000Y-54102000D01*
X25273000Y-54102000D02*
X27424981Y-56253981D01*
X27424981Y-56253981D02*
X27424981Y-58465073D01*
X11963400Y-63906400D02*
X14294981Y-66237981D01*
X11754981Y-63697981D02*
X11963400Y-63906400D01*
X11963400Y-63906400D02*
X11324981Y-63267981D01*
X11324981Y-63267981D02*
X11324981Y-58465073D01*
X24130000Y-80772000D02*
X24130000Y-75946000D01*
X14294981Y-66237981D02*
X14294981Y-71165073D01*
D15*
X24454981Y-71165073D02*
X21590000Y-74030054D01*
X21590000Y-74030054D02*
X21590000Y-80772000D01*
X24454981Y-58465073D02*
X23438982Y-59481072D01*
X23438982Y-59481072D02*
X23438982Y-68382018D01*
X23438982Y-68382018D02*
X19050000Y-72771000D01*
X19050000Y-72771000D02*
X19050000Y-80772000D01*
X11754981Y-72339200D02*
X11754981Y-71165073D01*
X11754981Y-82112981D02*
X11754981Y-72339200D01*
D14*
X11754981Y-72339200D02*
X11754981Y-71595073D01*
X11754981Y-71595073D02*
X11324981Y-71165073D01*
D15*
X12954000Y-83312000D02*
X13970000Y-83312000D01*
X13970000Y-83312000D02*
X16510000Y-80772000D01*
X12954000Y-83312000D02*
X11754981Y-82112981D01*
X14294981Y-58465073D02*
X14294981Y-64332981D01*
X15494000Y-65532000D02*
X15494000Y-69596000D01*
X16510000Y-78232000D02*
X13970000Y-80772000D01*
X14294981Y-64332981D02*
X15494000Y-65532000D01*
X15494000Y-69596000D02*
X16510000Y-70612000D01*
X16510000Y-70612000D02*
X16510000Y-78232000D01*
D16*
X27224981Y-58465073D03*
X24224981Y-58465073D03*
X14524981Y-71165073D03*
X11524981Y-71165073D03*
X27224981Y-71165073D03*
X24224981Y-71165073D03*
X11524981Y-58465073D03*
X14524981Y-58465073D03*
X19050000Y-87884000D03*
X24130000Y-80772000D03*
X21590000Y-80772000D03*
X19050000Y-80772000D03*
X16510000Y-80772000D03*
X13970000Y-80772000D03*
X19050000Y-65151000D03*
M02*
