%TF.GenerationSoftware,KiCad,Pcbnew,4.0.7-e2-6376~58~ubuntu16.04.1*%
%TF.CreationDate,2018-02-09T13:49:53-08:00*%
%TF.ProjectId,LDR-Board,4C44522D426F6172642E6B696361645F,v1.3*%
%TF.FileFunction,Legend,Top*%
%FSLAX46Y46*%
G04 Gerber Fmt 4.6, Leading zero omitted, Abs format (unit mm)*
G04 Created by KiCad (PCBNEW 4.0.7-e2-6376~58~ubuntu16.04.1) date Fri Feb  9 13:49:53 2018*
%MOMM*%
%LPD*%
G01*
G04 APERTURE LIST*
%ADD10C,0.350000*%
%ADD11C,0.254000*%
%ADD12C,0.050000*%
%ADD13C,0.150000*%
%ADD14C,0.152400*%
%ADD15C,2.184400*%
%ADD16O,2.184400X2.184400*%
%ADD17R,2.184400X2.184400*%
G04 APERTURE END LIST*
D10*
D11*
X24323524Y-75933904D02*
X24323524Y-76538666D01*
X24928286Y-76599142D01*
X24867810Y-76538666D01*
X24807333Y-76417714D01*
X24807333Y-76115333D01*
X24867810Y-75994380D01*
X24928286Y-75933904D01*
X25049238Y-75873428D01*
X25351619Y-75873428D01*
X25472571Y-75933904D01*
X25533048Y-75994380D01*
X25593524Y-76115333D01*
X25593524Y-76417714D01*
X25533048Y-76538666D01*
X25472571Y-76599142D01*
X24323524Y-75510571D02*
X25593524Y-75087237D01*
X24323524Y-74663904D01*
X14163524Y-76689857D02*
X14163524Y-75964142D01*
X15433524Y-76326999D02*
X14163524Y-76326999D01*
X15433524Y-74815095D02*
X14828762Y-75238428D01*
X15433524Y-75540809D02*
X14163524Y-75540809D01*
X14163524Y-75057000D01*
X14224000Y-74936047D01*
X14284476Y-74875571D01*
X14405429Y-74815095D01*
X14586857Y-74815095D01*
X14707810Y-74875571D01*
X14768286Y-74936047D01*
X14828762Y-75057000D01*
X14828762Y-75540809D01*
X16703524Y-76568905D02*
X16703524Y-75843190D01*
X17973524Y-76206047D02*
X16703524Y-76206047D01*
X17973524Y-74815095D02*
X17973524Y-75419857D01*
X16703524Y-75419857D01*
X19848286Y-76236286D02*
X19908762Y-76054857D01*
X19969238Y-75994381D01*
X20090190Y-75933905D01*
X20271619Y-75933905D01*
X20392571Y-75994381D01*
X20453048Y-76054857D01*
X20513524Y-76175810D01*
X20513524Y-76659619D01*
X19243524Y-76659619D01*
X19243524Y-76236286D01*
X19304000Y-76115333D01*
X19364476Y-76054857D01*
X19485429Y-75994381D01*
X19606381Y-75994381D01*
X19727333Y-76054857D01*
X19787810Y-76115333D01*
X19848286Y-76236286D01*
X19848286Y-76659619D01*
X20513524Y-74663905D02*
X19908762Y-75087238D01*
X20513524Y-75389619D02*
X19243524Y-75389619D01*
X19243524Y-74905810D01*
X19304000Y-74784857D01*
X19364476Y-74724381D01*
X19485429Y-74663905D01*
X19666857Y-74663905D01*
X19787810Y-74724381D01*
X19848286Y-74784857D01*
X19908762Y-74905810D01*
X19908762Y-75389619D01*
X22388286Y-76115333D02*
X22448762Y-75933904D01*
X22509238Y-75873428D01*
X22630190Y-75812952D01*
X22811619Y-75812952D01*
X22932571Y-75873428D01*
X22993048Y-75933904D01*
X23053524Y-76054857D01*
X23053524Y-76538666D01*
X21783524Y-76538666D01*
X21783524Y-76115333D01*
X21844000Y-75994380D01*
X21904476Y-75933904D01*
X22025429Y-75873428D01*
X22146381Y-75873428D01*
X22267333Y-75933904D01*
X22327810Y-75994380D01*
X22388286Y-76115333D01*
X22388286Y-76538666D01*
X23053524Y-74663904D02*
X23053524Y-75268666D01*
X21783524Y-75268666D01*
D12*
X28264981Y-58465073D02*
G75*
G03X28264981Y-58465073I-2540000J0D01*
G01*
X15564981Y-71165073D02*
G75*
G03X15564981Y-71165073I-2540000J0D01*
G01*
X28264981Y-71165073D02*
G75*
G03X28264981Y-71165073I-2540000J0D01*
G01*
X15564981Y-58465073D02*
G75*
G03X15564981Y-58465073I-2540000J0D01*
G01*
D13*
X25680000Y-79222000D02*
X25680000Y-82322000D01*
X29463552Y-58893644D02*
X29511171Y-58750787D01*
X29558791Y-58703168D01*
X29654029Y-58655549D01*
X29796886Y-58655549D01*
X29892124Y-58703168D01*
X29939743Y-58750787D01*
X29987362Y-58846025D01*
X29987362Y-59226978D01*
X28987362Y-59226978D01*
X28987362Y-58893644D01*
X29034981Y-58798406D01*
X29082600Y-58750787D01*
X29177838Y-58703168D01*
X29273076Y-58703168D01*
X29368314Y-58750787D01*
X29415933Y-58798406D01*
X29463552Y-58893644D01*
X29463552Y-59226978D01*
X29987362Y-57655549D02*
X29511171Y-57988883D01*
X29987362Y-58226978D02*
X28987362Y-58226978D01*
X28987362Y-57846025D01*
X29034981Y-57750787D01*
X29082600Y-57703168D01*
X29177838Y-57655549D01*
X29320695Y-57655549D01*
X29415933Y-57703168D01*
X29463552Y-57750787D01*
X29511171Y-57846025D01*
X29511171Y-58226978D01*
X8667362Y-71810476D02*
X8667362Y-71239047D01*
X9667362Y-71524762D02*
X8667362Y-71524762D01*
X9667362Y-70429523D02*
X9667362Y-70905714D01*
X8667362Y-70905714D01*
X29463552Y-71498406D02*
X29511171Y-71355549D01*
X29558791Y-71307930D01*
X29654029Y-71260311D01*
X29796886Y-71260311D01*
X29892124Y-71307930D01*
X29939743Y-71355549D01*
X29987362Y-71450787D01*
X29987362Y-71831740D01*
X28987362Y-71831740D01*
X28987362Y-71498406D01*
X29034981Y-71403168D01*
X29082600Y-71355549D01*
X29177838Y-71307930D01*
X29273076Y-71307930D01*
X29368314Y-71355549D01*
X29415933Y-71403168D01*
X29463552Y-71498406D01*
X29463552Y-71831740D01*
X29987362Y-70355549D02*
X29987362Y-70831740D01*
X28987362Y-70831740D01*
X8667362Y-59250787D02*
X8667362Y-58679358D01*
X9667362Y-58965073D02*
X8667362Y-58965073D01*
X9667362Y-57774596D02*
X9191171Y-58107930D01*
X9667362Y-58346025D02*
X8667362Y-58346025D01*
X8667362Y-57965072D01*
X8714981Y-57869834D01*
X8762600Y-57822215D01*
X8857838Y-57774596D01*
X9000695Y-57774596D01*
X9095933Y-57822215D01*
X9143552Y-57869834D01*
X9191171Y-57965072D01*
X9191171Y-58346025D01*
D14*
X26367619Y-84618285D02*
X26367619Y-84037714D01*
X27383619Y-84327999D02*
X26367619Y-84327999D01*
X26367619Y-83505523D02*
X26367619Y-83312000D01*
X26416000Y-83215238D01*
X26512762Y-83118476D01*
X26706286Y-83070095D01*
X27044952Y-83070095D01*
X27238476Y-83118476D01*
X27335238Y-83215238D01*
X27383619Y-83312000D01*
X27383619Y-83505523D01*
X27335238Y-83602285D01*
X27238476Y-83699047D01*
X27044952Y-83747428D01*
X26706286Y-83747428D01*
X26512762Y-83699047D01*
X26416000Y-83602285D01*
X26367619Y-83505523D01*
X27335238Y-81908952D02*
X27383619Y-81763809D01*
X27383619Y-81521905D01*
X27335238Y-81425143D01*
X27286857Y-81376762D01*
X27190095Y-81328381D01*
X27093333Y-81328381D01*
X26996571Y-81376762D01*
X26948190Y-81425143D01*
X26899810Y-81521905D01*
X26851429Y-81715428D01*
X26803048Y-81812190D01*
X26754667Y-81860571D01*
X26657905Y-81908952D01*
X26561143Y-81908952D01*
X26464381Y-81860571D01*
X26416000Y-81812190D01*
X26367619Y-81715428D01*
X26367619Y-81473524D01*
X26416000Y-81328381D01*
X27383619Y-80892952D02*
X26367619Y-80892952D01*
X26851429Y-80892952D02*
X26851429Y-80312381D01*
X27383619Y-80312381D02*
X26367619Y-80312381D01*
X27383619Y-79828571D02*
X26367619Y-79828571D01*
X26851429Y-79344761D02*
X26851429Y-79006095D01*
X27383619Y-78860952D02*
X27383619Y-79344761D01*
X26367619Y-79344761D01*
X26367619Y-78860952D01*
X27383619Y-77941714D02*
X27383619Y-78425523D01*
X26367619Y-78425523D01*
X27383619Y-77603047D02*
X26367619Y-77603047D01*
X26367619Y-77361142D01*
X26416000Y-77216000D01*
X26512762Y-77119238D01*
X26609524Y-77070857D01*
X26803048Y-77022476D01*
X26948190Y-77022476D01*
X27141714Y-77070857D01*
X27238476Y-77119238D01*
X27335238Y-77216000D01*
X27383619Y-77361142D01*
X27383619Y-77603047D01*
%LPC*%
D15*
X27224981Y-58465073D03*
D16*
X24224981Y-58465073D03*
D15*
X14524981Y-71165073D03*
D16*
X11524981Y-71165073D03*
D15*
X27224981Y-71165073D03*
D16*
X24224981Y-71165073D03*
D15*
X11524981Y-58465073D03*
D16*
X14524981Y-58465073D03*
D17*
X24130000Y-80772000D03*
D16*
X21590000Y-80772000D03*
X19050000Y-80772000D03*
X16510000Y-80772000D03*
X13970000Y-80772000D03*
M02*
