G04 This is an RS-274x file exported by *
G04 gerbv version 2.6.0 *
G04 More information is available about gerbv at *
G04 http://gerbv.gpleda.org/ *
G04 --End of header info--*
%MOIN*%
%FSLAX34Y34*%
%IPPOS*%
G04 --Define apertures--*
%ADD10C,0.0138*%
%ADD11C,0.0020*%
%ADD12C,0.0079*%
%ADD13C,0.0059*%
G04 --Start main section--*
G54D11*
G01X0011128Y-023018D02*
G75*
G03X0011128Y-023018I-001000J0000000D01*
G01X0006128Y-028018D02*
G75*
G03X0006128Y-028018I-001000J0000000D01*
G01X0011128Y-028018D02*
G75*
G03X0011128Y-028018I-001000J0000000D01*
G01X0006128Y-023018D02*
G75*
G03X0006128Y-023018I-001000J0000000D01*
G54D12*
G01X0009600Y-031800D02*
G75*
G03X0009600Y-031800I-000100J0000000D01*
G54D11*
G01X0010189Y-033111D02*
G01X0004870Y-033111D01*
G01X0010189Y-030501D02*
G01X0010189Y-033099D01*
G01X0010189Y-030489D02*
G01X0004870Y-030489D01*
G01X0004870Y-030501D02*
G01X0004870Y-033099D01*
G54D13*
G01X0010062Y-023196D02*
G01X0009931Y-023008D01*
G01X0009837Y-023196D02*
G01X0009837Y-022802D01*
G01X0009837Y-022802D02*
G01X0009987Y-022802D01*
G01X0009987Y-022802D02*
G01X0010025Y-022821D01*
G01X0010025Y-022821D02*
G01X0010044Y-022840D01*
G01X0010044Y-022840D02*
G01X0010062Y-022877D01*
G01X0010062Y-022877D02*
G01X0010062Y-022933D01*
G01X0010062Y-022933D02*
G01X0010044Y-022971D01*
G01X0010044Y-022971D02*
G01X0010025Y-022990D01*
G01X0010025Y-022990D02*
G01X0009987Y-023008D01*
G01X0009987Y-023008D02*
G01X0009837Y-023008D01*
G01X0010212Y-022840D02*
G01X0010231Y-022821D01*
G01X0010231Y-022821D02*
G01X0010269Y-022802D01*
G01X0010269Y-022802D02*
G01X0010362Y-022802D01*
G01X0010362Y-022802D02*
G01X0010400Y-022821D01*
G01X0010400Y-022821D02*
G01X0010419Y-022840D01*
G01X0010419Y-022840D02*
G01X0010437Y-022877D01*
G01X0010437Y-022877D02*
G01X0010437Y-022915D01*
G01X0010437Y-022915D02*
G01X0010419Y-022971D01*
G01X0010419Y-022971D02*
G01X0010194Y-023196D01*
G01X0010194Y-023196D02*
G01X0010437Y-023196D01*
G01X0005062Y-028196D02*
G01X0004931Y-028008D01*
G01X0004837Y-028196D02*
G01X0004837Y-027802D01*
G01X0004837Y-027802D02*
G01X0004987Y-027802D01*
G01X0004987Y-027802D02*
G01X0005025Y-027821D01*
G01X0005025Y-027821D02*
G01X0005044Y-027840D01*
G01X0005044Y-027840D02*
G01X0005062Y-027877D01*
G01X0005062Y-027877D02*
G01X0005062Y-027933D01*
G01X0005062Y-027933D02*
G01X0005044Y-027971D01*
G01X0005044Y-027971D02*
G01X0005025Y-027990D01*
G01X0005025Y-027990D02*
G01X0004987Y-028008D01*
G01X0004987Y-028008D02*
G01X0004837Y-028008D01*
G01X0005194Y-027802D02*
G01X0005437Y-027802D01*
G01X0005437Y-027802D02*
G01X0005306Y-027952D01*
G01X0005306Y-027952D02*
G01X0005362Y-027952D01*
G01X0005362Y-027952D02*
G01X0005400Y-027971D01*
G01X0005400Y-027971D02*
G01X0005419Y-027990D01*
G01X0005419Y-027990D02*
G01X0005437Y-028027D01*
G01X0005437Y-028027D02*
G01X0005437Y-028121D01*
G01X0005437Y-028121D02*
G01X0005419Y-028158D01*
G01X0005419Y-028158D02*
G01X0005400Y-028177D01*
G01X0005400Y-028177D02*
G01X0005362Y-028196D01*
G01X0005362Y-028196D02*
G01X0005250Y-028196D01*
G01X0005250Y-028196D02*
G01X0005212Y-028177D01*
G01X0005212Y-028177D02*
G01X0005194Y-028158D01*
G01X0010062Y-028196D02*
G01X0009931Y-028008D01*
G01X0009837Y-028196D02*
G01X0009837Y-027802D01*
G01X0009837Y-027802D02*
G01X0009987Y-027802D01*
G01X0009987Y-027802D02*
G01X0010025Y-027821D01*
G01X0010025Y-027821D02*
G01X0010044Y-027840D01*
G01X0010044Y-027840D02*
G01X0010062Y-027877D01*
G01X0010062Y-027877D02*
G01X0010062Y-027933D01*
G01X0010062Y-027933D02*
G01X0010044Y-027971D01*
G01X0010044Y-027971D02*
G01X0010025Y-027990D01*
G01X0010025Y-027990D02*
G01X0009987Y-028008D01*
G01X0009987Y-028008D02*
G01X0009837Y-028008D01*
G01X0010437Y-028196D02*
G01X0010212Y-028196D01*
G01X0010325Y-028196D02*
G01X0010325Y-027802D01*
G01X0010325Y-027802D02*
G01X0010287Y-027858D01*
G01X0010287Y-027858D02*
G01X0010250Y-027896D01*
G01X0010250Y-027896D02*
G01X0010212Y-027915D01*
G01X0005062Y-023196D02*
G01X0004931Y-023008D01*
G01X0004837Y-023196D02*
G01X0004837Y-022802D01*
G01X0004837Y-022802D02*
G01X0004987Y-022802D01*
G01X0004987Y-022802D02*
G01X0005025Y-022821D01*
G01X0005025Y-022821D02*
G01X0005044Y-022840D01*
G01X0005044Y-022840D02*
G01X0005062Y-022877D01*
G01X0005062Y-022877D02*
G01X0005062Y-022933D01*
G01X0005062Y-022933D02*
G01X0005044Y-022971D01*
G01X0005044Y-022971D02*
G01X0005025Y-022990D01*
G01X0005025Y-022990D02*
G01X0004987Y-023008D01*
G01X0004987Y-023008D02*
G01X0004837Y-023008D01*
G01X0005400Y-022933D02*
G01X0005400Y-023196D01*
G01X0005306Y-022783D02*
G01X0005212Y-023065D01*
G01X0005212Y-023065D02*
G01X0005456Y-023065D01*
G01X0008284Y-031931D02*
G01X0008566Y-031931D01*
G01X0008566Y-031931D02*
G01X0008622Y-031950D01*
G01X0008622Y-031950D02*
G01X0008659Y-031987D01*
G01X0008659Y-031987D02*
G01X0008678Y-032044D01*
G01X0008678Y-032044D02*
G01X0008678Y-032081D01*
G01X0008678Y-031538D02*
G01X0008678Y-031763D01*
G01X0008678Y-031650D02*
G01X0008284Y-031650D01*
G01X0008284Y-031650D02*
G01X0008341Y-031688D01*
G01X0008341Y-031688D02*
G01X0008378Y-031725D01*
G01X0008378Y-031725D02*
G01X0008397Y-031763D01*
G01X0000000Y0000000D02*
G01X0002350Y-020400D02*
G75*
G03X0001850Y-020900I0000000J-000500D01*
G01X0001850Y-029900D02*
G75*
G03X0002350Y-030400I0000500J0000000D01*
G01X0002350Y-030400D02*
G01X0003350Y-030400D01*
G01X0003850Y-035900D02*
G75*
G03X0004350Y-036400I0000500J0000000D01*
G01X0011850Y-030400D02*
G75*
G03X0011350Y-030900I0000000J-000500D01*
G01X0003850Y-030900D02*
G75*
G03X0003350Y-030400I-000500J0000000D01*
G01X0010850Y-036400D02*
G75*
G03X0011350Y-035900I0000000J0000500D01*
G01X0012850Y-030400D02*
G75*
G03X0013350Y-029900I0000000J0000500D01*
G01X0013350Y-020900D02*
G75*
G03X0012850Y-020400I-000500J0000000D01*
G01X0012850Y-030400D02*
G01X0011850Y-030400D01*
G01X0013350Y-020900D02*
G01X0013350Y-029900D01*
G01X0001850Y-020900D02*
G01X0001850Y-029900D01*
G01X0012850Y-020400D02*
G01X0002350Y-020400D01*
G01X0011350Y-035900D02*
G01X0011350Y-030900D01*
G01X0004350Y-036400D02*
G01X0010850Y-036400D01*
G01X0003850Y-030900D02*
G01X0003850Y-035900D01*
M02*
