%TF.GenerationSoftware,KiCad,Pcbnew,4.0.5-e0-6337~49~ubuntu16.04.1*%
%TF.CreationDate,2017-05-08T13:41:37-07:00*%
%TF.ProjectId,LDR-Board,4C44522D426F6172642E6B696361645F,1.0*%
%TF.FileFunction,Legend,Top*%
%FSLAX46Y46*%
G04 Gerber Fmt 4.6, Leading zero omitted, Abs format (unit mm)*
G04 Created by KiCad (PCBNEW 4.0.5-e0-6337~49~ubuntu16.04.1) date Mon May  8 13:41:37 2017*
%MOMM*%
%LPD*%
G01*
G04 APERTURE LIST*
%ADD10C,0.350000*%
%ADD11C,0.254000*%
%ADD12C,0.150000*%
%ADD13C,0.050000*%
%ADD14C,0.203200*%
%ADD15R,2.184400X2.184400*%
%ADD16O,2.184400X2.184400*%
%ADD17C,2.184400*%
G04 APERTURE END LIST*
D10*
D11*
X24323524Y-78727904D02*
X24323524Y-79332666D01*
X24928286Y-79393142D01*
X24867810Y-79332666D01*
X24807333Y-79211714D01*
X24807333Y-78909333D01*
X24867810Y-78788380D01*
X24928286Y-78727904D01*
X25049238Y-78667428D01*
X25351619Y-78667428D01*
X25472571Y-78727904D01*
X25533048Y-78788380D01*
X25593524Y-78909333D01*
X25593524Y-79211714D01*
X25533048Y-79332666D01*
X25472571Y-79393142D01*
X24323524Y-78304571D02*
X25593524Y-77881237D01*
X24323524Y-77457904D01*
X14163524Y-79483857D02*
X14163524Y-78758142D01*
X15433524Y-79120999D02*
X14163524Y-79120999D01*
X15433524Y-77609095D02*
X14828762Y-78032428D01*
X15433524Y-78334809D02*
X14163524Y-78334809D01*
X14163524Y-77851000D01*
X14224000Y-77730047D01*
X14284476Y-77669571D01*
X14405429Y-77609095D01*
X14586857Y-77609095D01*
X14707810Y-77669571D01*
X14768286Y-77730047D01*
X14828762Y-77851000D01*
X14828762Y-78334809D01*
X16703524Y-79362905D02*
X16703524Y-78637190D01*
X17973524Y-79000047D02*
X16703524Y-79000047D01*
X17973524Y-77609095D02*
X17973524Y-78213857D01*
X16703524Y-78213857D01*
X19848286Y-79030286D02*
X19908762Y-78848857D01*
X19969238Y-78788381D01*
X20090190Y-78727905D01*
X20271619Y-78727905D01*
X20392571Y-78788381D01*
X20453048Y-78848857D01*
X20513524Y-78969810D01*
X20513524Y-79453619D01*
X19243524Y-79453619D01*
X19243524Y-79030286D01*
X19304000Y-78909333D01*
X19364476Y-78848857D01*
X19485429Y-78788381D01*
X19606381Y-78788381D01*
X19727333Y-78848857D01*
X19787810Y-78909333D01*
X19848286Y-79030286D01*
X19848286Y-79453619D01*
X20513524Y-77457905D02*
X19908762Y-77881238D01*
X20513524Y-78183619D02*
X19243524Y-78183619D01*
X19243524Y-77699810D01*
X19304000Y-77578857D01*
X19364476Y-77518381D01*
X19485429Y-77457905D01*
X19666857Y-77457905D01*
X19787810Y-77518381D01*
X19848286Y-77578857D01*
X19908762Y-77699810D01*
X19908762Y-78183619D01*
X22388286Y-78909333D02*
X22448762Y-78727904D01*
X22509238Y-78667428D01*
X22630190Y-78606952D01*
X22811619Y-78606952D01*
X22932571Y-78667428D01*
X22993048Y-78727904D01*
X23053524Y-78848857D01*
X23053524Y-79332666D01*
X21783524Y-79332666D01*
X21783524Y-78909333D01*
X21844000Y-78788380D01*
X21904476Y-78727904D01*
X22025429Y-78667428D01*
X22146381Y-78667428D01*
X22267333Y-78727904D01*
X22327810Y-78788380D01*
X22388286Y-78909333D01*
X22388286Y-79332666D01*
X23053524Y-77457904D02*
X23053524Y-78062666D01*
X21783524Y-78062666D01*
D12*
X26569000Y-82016000D02*
X26569000Y-85116000D01*
D13*
X15564981Y-59989073D02*
G75*
G03X15564981Y-59989073I-2540000J0D01*
G01*
X28264981Y-72689073D02*
G75*
G03X28264981Y-72689073I-2540000J0D01*
G01*
X15564981Y-72689073D02*
G75*
G03X15564981Y-72689073I-2540000J0D01*
G01*
X28264981Y-59989073D02*
G75*
G03X28264981Y-59989073I-2540000J0D01*
G01*
D14*
X13335001Y-87454619D02*
X13915572Y-87454619D01*
X13625287Y-88470619D02*
X13625287Y-87454619D01*
X14447763Y-87454619D02*
X14641286Y-87454619D01*
X14738048Y-87503000D01*
X14834810Y-87599762D01*
X14883191Y-87793286D01*
X14883191Y-88131952D01*
X14834810Y-88325476D01*
X14738048Y-88422238D01*
X14641286Y-88470619D01*
X14447763Y-88470619D01*
X14351001Y-88422238D01*
X14254239Y-88325476D01*
X14205858Y-88131952D01*
X14205858Y-87793286D01*
X14254239Y-87599762D01*
X14351001Y-87503000D01*
X14447763Y-87454619D01*
X16044334Y-88422238D02*
X16189477Y-88470619D01*
X16431381Y-88470619D01*
X16528143Y-88422238D01*
X16576524Y-88373857D01*
X16624905Y-88277095D01*
X16624905Y-88180333D01*
X16576524Y-88083571D01*
X16528143Y-88035190D01*
X16431381Y-87986810D01*
X16237858Y-87938429D01*
X16141096Y-87890048D01*
X16092715Y-87841667D01*
X16044334Y-87744905D01*
X16044334Y-87648143D01*
X16092715Y-87551381D01*
X16141096Y-87503000D01*
X16237858Y-87454619D01*
X16479762Y-87454619D01*
X16624905Y-87503000D01*
X17253858Y-87454619D02*
X17447381Y-87454619D01*
X17544143Y-87503000D01*
X17640905Y-87599762D01*
X17689286Y-87793286D01*
X17689286Y-88131952D01*
X17640905Y-88325476D01*
X17544143Y-88422238D01*
X17447381Y-88470619D01*
X17253858Y-88470619D01*
X17157096Y-88422238D01*
X17060334Y-88325476D01*
X17011953Y-88131952D01*
X17011953Y-87793286D01*
X17060334Y-87599762D01*
X17157096Y-87503000D01*
X17253858Y-87454619D01*
X18608524Y-88470619D02*
X18124715Y-88470619D01*
X18124715Y-87454619D01*
X18898810Y-88180333D02*
X19382619Y-88180333D01*
X18802048Y-88470619D02*
X19140715Y-87454619D01*
X19479381Y-88470619D01*
X20398619Y-88470619D02*
X20059953Y-87986810D01*
X19818048Y-88470619D02*
X19818048Y-87454619D01*
X20205095Y-87454619D01*
X20301857Y-87503000D01*
X20350238Y-87551381D01*
X20398619Y-87648143D01*
X20398619Y-87793286D01*
X20350238Y-87890048D01*
X20301857Y-87938429D01*
X20205095Y-87986810D01*
X19818048Y-87986810D01*
X21559762Y-88422238D02*
X21704905Y-88470619D01*
X21946809Y-88470619D01*
X22043571Y-88422238D01*
X22091952Y-88373857D01*
X22140333Y-88277095D01*
X22140333Y-88180333D01*
X22091952Y-88083571D01*
X22043571Y-88035190D01*
X21946809Y-87986810D01*
X21753286Y-87938429D01*
X21656524Y-87890048D01*
X21608143Y-87841667D01*
X21559762Y-87744905D01*
X21559762Y-87648143D01*
X21608143Y-87551381D01*
X21656524Y-87503000D01*
X21753286Y-87454619D01*
X21995190Y-87454619D01*
X22140333Y-87503000D01*
X22575762Y-88470619D02*
X22575762Y-87454619D01*
X22575762Y-87938429D02*
X23156333Y-87938429D01*
X23156333Y-88470619D02*
X23156333Y-87454619D01*
X23640143Y-88470619D02*
X23640143Y-87454619D01*
X24123953Y-87938429D02*
X24462619Y-87938429D01*
X24607762Y-88470619D02*
X24123953Y-88470619D01*
X24123953Y-87454619D01*
X24607762Y-87454619D01*
X25527000Y-88470619D02*
X25043191Y-88470619D01*
X25043191Y-87454619D01*
X25865667Y-88470619D02*
X25865667Y-87454619D01*
X26107572Y-87454619D01*
X26252714Y-87503000D01*
X26349476Y-87599762D01*
X26397857Y-87696524D01*
X26446238Y-87890048D01*
X26446238Y-88035190D01*
X26397857Y-88228714D01*
X26349476Y-88325476D01*
X26252714Y-88422238D01*
X26107572Y-88470619D01*
X25865667Y-88470619D01*
D12*
X8977381Y-60774787D02*
X8977381Y-60203358D01*
X9977381Y-60489073D02*
X8977381Y-60489073D01*
X9977381Y-59298596D02*
X9501190Y-59631930D01*
X9977381Y-59870025D02*
X8977381Y-59870025D01*
X8977381Y-59489072D01*
X9025000Y-59393834D01*
X9072619Y-59346215D01*
X9167857Y-59298596D01*
X9310714Y-59298596D01*
X9405952Y-59346215D01*
X9453571Y-59393834D01*
X9501190Y-59489072D01*
X9501190Y-59870025D01*
X29463552Y-73022406D02*
X29511171Y-72879549D01*
X29558791Y-72831930D01*
X29654029Y-72784311D01*
X29796886Y-72784311D01*
X29892124Y-72831930D01*
X29939743Y-72879549D01*
X29987362Y-72974787D01*
X29987362Y-73355740D01*
X28987362Y-73355740D01*
X28987362Y-73022406D01*
X29034981Y-72927168D01*
X29082600Y-72879549D01*
X29177838Y-72831930D01*
X29273076Y-72831930D01*
X29368314Y-72879549D01*
X29415933Y-72927168D01*
X29463552Y-73022406D01*
X29463552Y-73355740D01*
X29987362Y-71879549D02*
X29987362Y-72355740D01*
X28987362Y-72355740D01*
X8977381Y-73379549D02*
X8977381Y-72808120D01*
X9977381Y-73093835D02*
X8977381Y-73093835D01*
X9977381Y-71998596D02*
X9977381Y-72474787D01*
X8977381Y-72474787D01*
X29463552Y-60417644D02*
X29511171Y-60274787D01*
X29558791Y-60227168D01*
X29654029Y-60179549D01*
X29796886Y-60179549D01*
X29892124Y-60227168D01*
X29939743Y-60274787D01*
X29987362Y-60370025D01*
X29987362Y-60750978D01*
X28987362Y-60750978D01*
X28987362Y-60417644D01*
X29034981Y-60322406D01*
X29082600Y-60274787D01*
X29177838Y-60227168D01*
X29273076Y-60227168D01*
X29368314Y-60274787D01*
X29415933Y-60322406D01*
X29463552Y-60417644D01*
X29463552Y-60750978D01*
X29987362Y-59179549D02*
X29511171Y-59512883D01*
X29987362Y-59750978D02*
X28987362Y-59750978D01*
X28987362Y-59370025D01*
X29034981Y-59274787D01*
X29082600Y-59227168D01*
X29177838Y-59179549D01*
X29320695Y-59179549D01*
X29415933Y-59227168D01*
X29463552Y-59274787D01*
X29511171Y-59370025D01*
X29511171Y-59750978D01*
%LPC*%
D15*
X25019000Y-83566000D03*
D16*
X22479000Y-83566000D03*
X19939000Y-83566000D03*
X17399000Y-83566000D03*
X14859000Y-83566000D03*
D17*
X11754981Y-59989073D03*
D16*
X14294981Y-59989073D03*
D17*
X26994981Y-72689073D03*
D16*
X24454981Y-72689073D03*
D17*
X14294981Y-72689073D03*
D16*
X11754981Y-72689073D03*
D17*
X26994981Y-59989073D03*
D16*
X24454981Y-59989073D03*
M02*
