G04 This is an RS-274x file exported by *
G04 gerbv version 2.6.0 *
G04 More information is available about gerbv at *
G04 http://gerbv.gpleda.org/ *
G04 --End of header info--*
%MOIN*%
%FSLAX34Y34*%
%IPPOS*%
G04 --Define apertures--*
%ADD10C,0.0138*%
%ADD11C,0.0118*%
%ADD12C,0.0079*%
%ADD13C,0.0020*%
%ADD14C,0.0059*%
G04 --Start main section--*
G54D11*
G01X0004535Y-019667D02*
G01X0004254Y-019667D01*
G01X0004254Y-019667D02*
G01X0004254Y-019077D01*
G01X0004732Y-019667D02*
G01X0004732Y-019077D01*
G01X0004732Y-019077D02*
G01X0004872Y-019077D01*
G01X0004872Y-019077D02*
G01X0004957Y-019105D01*
G01X0004957Y-019105D02*
G01X0005013Y-019161D01*
G01X0005013Y-019161D02*
G01X0005041Y-019217D01*
G01X0005041Y-019217D02*
G01X0005069Y-019330D01*
G01X0005069Y-019330D02*
G01X0005069Y-019414D01*
G01X0005069Y-019414D02*
G01X0005041Y-019527D01*
G01X0005041Y-019527D02*
G01X0005013Y-019583D01*
G01X0005013Y-019583D02*
G01X0004957Y-019639D01*
G01X0004957Y-019639D02*
G01X0004872Y-019667D01*
G01X0004872Y-019667D02*
G01X0004732Y-019667D01*
G01X0005660Y-019667D02*
G01X0005463Y-019386D01*
G01X0005322Y-019667D02*
G01X0005322Y-019077D01*
G01X0005322Y-019077D02*
G01X0005547Y-019077D01*
G01X0005547Y-019077D02*
G01X0005603Y-019105D01*
G01X0005603Y-019105D02*
G01X0005631Y-019133D01*
G01X0005631Y-019133D02*
G01X0005660Y-019189D01*
G01X0005660Y-019189D02*
G01X0005660Y-019273D01*
G01X0005660Y-019273D02*
G01X0005631Y-019330D01*
G01X0005631Y-019330D02*
G01X0005603Y-019358D01*
G01X0005603Y-019358D02*
G01X0005547Y-019386D01*
G01X0005547Y-019386D02*
G01X0005322Y-019386D01*
G01X0006560Y-019358D02*
G01X0006644Y-019386D01*
G01X0006644Y-019386D02*
G01X0006672Y-019414D01*
G01X0006672Y-019414D02*
G01X0006700Y-019470D01*
G01X0006700Y-019470D02*
G01X0006700Y-019555D01*
G01X0006700Y-019555D02*
G01X0006672Y-019611D01*
G01X0006672Y-019611D02*
G01X0006644Y-019639D01*
G01X0006644Y-019639D02*
G01X0006588Y-019667D01*
G01X0006588Y-019667D02*
G01X0006363Y-019667D01*
G01X0006363Y-019667D02*
G01X0006363Y-019077D01*
G01X0006363Y-019077D02*
G01X0006560Y-019077D01*
G01X0006560Y-019077D02*
G01X0006616Y-019105D01*
G01X0006616Y-019105D02*
G01X0006644Y-019133D01*
G01X0006644Y-019133D02*
G01X0006672Y-019189D01*
G01X0006672Y-019189D02*
G01X0006672Y-019245D01*
G01X0006672Y-019245D02*
G01X0006644Y-019302D01*
G01X0006644Y-019302D02*
G01X0006616Y-019330D01*
G01X0006616Y-019330D02*
G01X0006560Y-019358D01*
G01X0006560Y-019358D02*
G01X0006363Y-019358D01*
G01X0007038Y-019667D02*
G01X0006981Y-019639D01*
G01X0006981Y-019639D02*
G01X0006953Y-019611D01*
G01X0006953Y-019611D02*
G01X0006925Y-019555D01*
G01X0006925Y-019555D02*
G01X0006925Y-019386D01*
G01X0006925Y-019386D02*
G01X0006953Y-019330D01*
G01X0006953Y-019330D02*
G01X0006981Y-019302D01*
G01X0006981Y-019302D02*
G01X0007038Y-019273D01*
G01X0007038Y-019273D02*
G01X0007122Y-019273D01*
G01X0007122Y-019273D02*
G01X0007178Y-019302D01*
G01X0007178Y-019302D02*
G01X0007206Y-019330D01*
G01X0007206Y-019330D02*
G01X0007234Y-019386D01*
G01X0007234Y-019386D02*
G01X0007234Y-019555D01*
G01X0007234Y-019555D02*
G01X0007206Y-019611D01*
G01X0007206Y-019611D02*
G01X0007178Y-019639D01*
G01X0007178Y-019639D02*
G01X0007122Y-019667D01*
G01X0007122Y-019667D02*
G01X0007038Y-019667D01*
G01X0007741Y-019667D02*
G01X0007741Y-019358D01*
G01X0007741Y-019358D02*
G01X0007712Y-019302D01*
G01X0007712Y-019302D02*
G01X0007656Y-019273D01*
G01X0007656Y-019273D02*
G01X0007544Y-019273D01*
G01X0007544Y-019273D02*
G01X0007488Y-019302D01*
G01X0007741Y-019639D02*
G01X0007684Y-019667D01*
G01X0007684Y-019667D02*
G01X0007544Y-019667D01*
G01X0007544Y-019667D02*
G01X0007488Y-019639D01*
G01X0007488Y-019639D02*
G01X0007459Y-019583D01*
G01X0007459Y-019583D02*
G01X0007459Y-019527D01*
G01X0007459Y-019527D02*
G01X0007488Y-019470D01*
G01X0007488Y-019470D02*
G01X0007544Y-019442D01*
G01X0007544Y-019442D02*
G01X0007684Y-019442D01*
G01X0007684Y-019442D02*
G01X0007741Y-019414D01*
G01X0008022Y-019667D02*
G01X0008022Y-019273D01*
G01X0008022Y-019386D02*
G01X0008050Y-019330D01*
G01X0008050Y-019330D02*
G01X0008078Y-019302D01*
G01X0008078Y-019302D02*
G01X0008134Y-019273D01*
G01X0008134Y-019273D02*
G01X0008191Y-019273D01*
G01X0008640Y-019667D02*
G01X0008640Y-019077D01*
G01X0008640Y-019639D02*
G01X0008584Y-019667D01*
G01X0008584Y-019667D02*
G01X0008472Y-019667D01*
G01X0008472Y-019667D02*
G01X0008416Y-019639D01*
G01X0008416Y-019639D02*
G01X0008387Y-019611D01*
G01X0008387Y-019611D02*
G01X0008359Y-019555D01*
G01X0008359Y-019555D02*
G01X0008359Y-019386D01*
G01X0008359Y-019386D02*
G01X0008387Y-019330D01*
G01X0008387Y-019330D02*
G01X0008416Y-019302D01*
G01X0008416Y-019302D02*
G01X0008472Y-019273D01*
G01X0008472Y-019273D02*
G01X0008584Y-019273D01*
G01X0008584Y-019273D02*
G01X0008640Y-019302D01*
G01X0009315Y-019273D02*
G01X0009456Y-019667D01*
G01X0009456Y-019667D02*
G01X0009597Y-019273D01*
G01X0010131Y-019667D02*
G01X0009793Y-019667D01*
G01X0009962Y-019667D02*
G01X0009962Y-019077D01*
G01X0009962Y-019077D02*
G01X0009906Y-019161D01*
G01X0009906Y-019161D02*
G01X0009850Y-019217D01*
G01X0009850Y-019217D02*
G01X0009793Y-019245D01*
G01X0010384Y-019611D02*
G01X0010412Y-019639D01*
G01X0010412Y-019639D02*
G01X0010384Y-019667D01*
G01X0010384Y-019667D02*
G01X0010356Y-019639D01*
G01X0010356Y-019639D02*
G01X0010384Y-019611D01*
G01X0010384Y-019611D02*
G01X0010384Y-019667D01*
G01X0010975Y-019667D02*
G01X0010637Y-019667D01*
G01X0010806Y-019667D02*
G01X0010806Y-019077D01*
G01X0010806Y-019077D02*
G01X0010750Y-019161D01*
G01X0010750Y-019161D02*
G01X0010693Y-019217D01*
G01X0010693Y-019217D02*
G01X0010637Y-019245D01*
G54D12*
G01X0009950Y-032900D02*
G75*
G03X0009950Y-032900I-000100J0000000D01*
G54D13*
G01X0010539Y-034211D02*
G01X0005220Y-034211D01*
G01X0010539Y-031601D02*
G01X0010539Y-034199D01*
G01X0010539Y-031589D02*
G01X0005220Y-031589D01*
G01X0005220Y-031601D02*
G01X0005220Y-034199D01*
G01X0006128Y-023618D02*
G75*
G03X0006128Y-023618I-001000J0000000D01*
G01X0011128Y-028618D02*
G75*
G03X0011128Y-028618I-001000J0000000D01*
G01X0006128Y-028618D02*
G75*
G03X0006128Y-028618I-001000J0000000D01*
G01X0011128Y-023618D02*
G75*
G03X0011128Y-023618I-001000J0000000D01*
G54D14*
G01X0008634Y-033031D02*
G01X0008916Y-033031D01*
G01X0008916Y-033031D02*
G01X0008972Y-033050D01*
G01X0008972Y-033050D02*
G01X0009009Y-033087D01*
G01X0009009Y-033087D02*
G01X0009028Y-033144D01*
G01X0009028Y-033144D02*
G01X0009028Y-033181D01*
G01X0009028Y-032638D02*
G01X0009028Y-032863D01*
G01X0009028Y-032750D02*
G01X0008634Y-032750D01*
G01X0008634Y-032750D02*
G01X0008691Y-032788D01*
G01X0008691Y-032788D02*
G01X0008728Y-032825D01*
G01X0008728Y-032825D02*
G01X0008747Y-032863D01*
G01X0005062Y-023796D02*
G01X0004931Y-023608D01*
G01X0004837Y-023796D02*
G01X0004837Y-023402D01*
G01X0004837Y-023402D02*
G01X0004987Y-023402D01*
G01X0004987Y-023402D02*
G01X0005025Y-023421D01*
G01X0005025Y-023421D02*
G01X0005044Y-023440D01*
G01X0005044Y-023440D02*
G01X0005062Y-023477D01*
G01X0005062Y-023477D02*
G01X0005062Y-023533D01*
G01X0005062Y-023533D02*
G01X0005044Y-023571D01*
G01X0005044Y-023571D02*
G01X0005025Y-023590D01*
G01X0005025Y-023590D02*
G01X0004987Y-023608D01*
G01X0004987Y-023608D02*
G01X0004837Y-023608D01*
G01X0005400Y-023533D02*
G01X0005400Y-023796D01*
G01X0005306Y-023383D02*
G01X0005212Y-023665D01*
G01X0005212Y-023665D02*
G01X0005456Y-023665D01*
G01X0010062Y-028796D02*
G01X0009931Y-028608D01*
G01X0009837Y-028796D02*
G01X0009837Y-028402D01*
G01X0009837Y-028402D02*
G01X0009987Y-028402D01*
G01X0009987Y-028402D02*
G01X0010025Y-028421D01*
G01X0010025Y-028421D02*
G01X0010044Y-028440D01*
G01X0010044Y-028440D02*
G01X0010062Y-028477D01*
G01X0010062Y-028477D02*
G01X0010062Y-028533D01*
G01X0010062Y-028533D02*
G01X0010044Y-028571D01*
G01X0010044Y-028571D02*
G01X0010025Y-028590D01*
G01X0010025Y-028590D02*
G01X0009987Y-028608D01*
G01X0009987Y-028608D02*
G01X0009837Y-028608D01*
G01X0010437Y-028796D02*
G01X0010212Y-028796D01*
G01X0010325Y-028796D02*
G01X0010325Y-028402D01*
G01X0010325Y-028402D02*
G01X0010287Y-028458D01*
G01X0010287Y-028458D02*
G01X0010250Y-028496D01*
G01X0010250Y-028496D02*
G01X0010212Y-028515D01*
G01X0005062Y-028796D02*
G01X0004931Y-028608D01*
G01X0004837Y-028796D02*
G01X0004837Y-028402D01*
G01X0004837Y-028402D02*
G01X0004987Y-028402D01*
G01X0004987Y-028402D02*
G01X0005025Y-028421D01*
G01X0005025Y-028421D02*
G01X0005044Y-028440D01*
G01X0005044Y-028440D02*
G01X0005062Y-028477D01*
G01X0005062Y-028477D02*
G01X0005062Y-028533D01*
G01X0005062Y-028533D02*
G01X0005044Y-028571D01*
G01X0005044Y-028571D02*
G01X0005025Y-028590D01*
G01X0005025Y-028590D02*
G01X0004987Y-028608D01*
G01X0004987Y-028608D02*
G01X0004837Y-028608D01*
G01X0005194Y-028402D02*
G01X0005437Y-028402D01*
G01X0005437Y-028402D02*
G01X0005306Y-028552D01*
G01X0005306Y-028552D02*
G01X0005362Y-028552D01*
G01X0005362Y-028552D02*
G01X0005400Y-028571D01*
G01X0005400Y-028571D02*
G01X0005419Y-028590D01*
G01X0005419Y-028590D02*
G01X0005437Y-028627D01*
G01X0005437Y-028627D02*
G01X0005437Y-028721D01*
G01X0005437Y-028721D02*
G01X0005419Y-028758D01*
G01X0005419Y-028758D02*
G01X0005400Y-028777D01*
G01X0005400Y-028777D02*
G01X0005362Y-028796D01*
G01X0005362Y-028796D02*
G01X0005250Y-028796D01*
G01X0005250Y-028796D02*
G01X0005212Y-028777D01*
G01X0005212Y-028777D02*
G01X0005194Y-028758D01*
G01X0010062Y-023796D02*
G01X0009931Y-023608D01*
G01X0009837Y-023796D02*
G01X0009837Y-023402D01*
G01X0009837Y-023402D02*
G01X0009987Y-023402D01*
G01X0009987Y-023402D02*
G01X0010025Y-023421D01*
G01X0010025Y-023421D02*
G01X0010044Y-023440D01*
G01X0010044Y-023440D02*
G01X0010062Y-023477D01*
G01X0010062Y-023477D02*
G01X0010062Y-023533D01*
G01X0010062Y-023533D02*
G01X0010044Y-023571D01*
G01X0010044Y-023571D02*
G01X0010025Y-023590D01*
G01X0010025Y-023590D02*
G01X0009987Y-023608D01*
G01X0009987Y-023608D02*
G01X0009837Y-023608D01*
G01X0010212Y-023440D02*
G01X0010231Y-023421D01*
G01X0010231Y-023421D02*
G01X0010269Y-023402D01*
G01X0010269Y-023402D02*
G01X0010362Y-023402D01*
G01X0010362Y-023402D02*
G01X0010400Y-023421D01*
G01X0010400Y-023421D02*
G01X0010419Y-023440D01*
G01X0010419Y-023440D02*
G01X0010437Y-023477D01*
G01X0010437Y-023477D02*
G01X0010437Y-023515D01*
G01X0010437Y-023515D02*
G01X0010419Y-023571D01*
G01X0010419Y-023571D02*
G01X0010194Y-023796D01*
G01X0010194Y-023796D02*
G01X0010437Y-023796D01*
G01X0000000Y0000000D02*
G01X0002350Y-020400D02*
G75*
G03X0001850Y-020900I0000000J-000500D01*
G01X0001850Y-029900D02*
G75*
G03X0002350Y-030400I0000500J0000000D01*
G01X0002350Y-030400D02*
G01X0003350Y-030400D01*
G01X0003850Y-035900D02*
G75*
G03X0004350Y-036400I0000500J0000000D01*
G01X0011850Y-030400D02*
G75*
G03X0011350Y-030900I0000000J-000500D01*
G01X0003850Y-030900D02*
G75*
G03X0003350Y-030400I-000500J0000000D01*
G01X0010850Y-036400D02*
G75*
G03X0011350Y-035900I0000000J0000500D01*
G01X0012850Y-030400D02*
G75*
G03X0013350Y-029900I0000000J0000500D01*
G01X0013350Y-020900D02*
G75*
G03X0012850Y-020400I-000500J0000000D01*
G01X0012850Y-030400D02*
G01X0011850Y-030400D01*
G01X0013350Y-020900D02*
G01X0013350Y-029900D01*
G01X0001850Y-020900D02*
G01X0001850Y-029900D01*
G01X0012850Y-020400D02*
G01X0002350Y-020400D01*
G01X0011350Y-035900D02*
G01X0011350Y-030900D01*
G01X0004350Y-036400D02*
G01X0010850Y-036400D01*
G01X0003850Y-030900D02*
G01X0003850Y-035900D01*
M02*
