%TF.GenerationSoftware,KiCad,Pcbnew,4.0.5-e0-6337~49~ubuntu16.04.1*%
%TF.CreationDate,2017-05-08T14:00:32-07:00*%
%TF.ProjectId,Arduino-Shield,41726475696E6F2D536869656C642E6B,1.0*%
%TF.FileFunction,Legend,Top*%
%FSLAX46Y46*%
G04 Gerber Fmt 4.6, Leading zero omitted, Abs format (unit mm)*
G04 Created by KiCad (PCBNEW 4.0.5-e0-6337~49~ubuntu16.04.1) date Mon May  8 14:00:32 2017*
%MOMM*%
%LPD*%
G01*
G04 APERTURE LIST*
%ADD10C,0.350000*%
%ADD11C,0.254000*%
%ADD12C,0.150000*%
%ADD13C,0.203200*%
%ADD14C,2.151380*%
%ADD15R,2.184400X1.879600*%
%ADD16O,2.184400X1.879600*%
%ADD17R,2.184400X2.184400*%
%ADD18O,2.184400X2.184400*%
%ADD19O,1.676400X2.692400*%
G04 APERTURE END LIST*
D10*
D11*
X57742667Y-77252286D02*
X57924096Y-77312762D01*
X57984572Y-77373238D01*
X58045048Y-77494190D01*
X58045048Y-77675619D01*
X57984572Y-77796571D01*
X57924096Y-77857048D01*
X57803143Y-77917524D01*
X57319334Y-77917524D01*
X57319334Y-76647524D01*
X57742667Y-76647524D01*
X57863620Y-76708000D01*
X57924096Y-76768476D01*
X57984572Y-76889429D01*
X57984572Y-77010381D01*
X57924096Y-77131333D01*
X57863620Y-77191810D01*
X57742667Y-77252286D01*
X57319334Y-77252286D01*
X59194096Y-77917524D02*
X58589334Y-77917524D01*
X58589334Y-76647524D01*
X57168143Y-69027524D02*
X57893858Y-69027524D01*
X57531001Y-70297524D02*
X57531001Y-69027524D01*
X59042905Y-70297524D02*
X58619572Y-69692762D01*
X58317191Y-70297524D02*
X58317191Y-69027524D01*
X58801000Y-69027524D01*
X58921953Y-69088000D01*
X58982429Y-69148476D01*
X59042905Y-69269429D01*
X59042905Y-69450857D01*
X58982429Y-69571810D01*
X58921953Y-69632286D01*
X58801000Y-69692762D01*
X58317191Y-69692762D01*
X57289095Y-71567524D02*
X58014810Y-71567524D01*
X57651953Y-72837524D02*
X57651953Y-71567524D01*
X59042905Y-72837524D02*
X58438143Y-72837524D01*
X58438143Y-71567524D01*
X57621714Y-74712286D02*
X57803143Y-74772762D01*
X57863619Y-74833238D01*
X57924095Y-74954190D01*
X57924095Y-75135619D01*
X57863619Y-75256571D01*
X57803143Y-75317048D01*
X57682190Y-75377524D01*
X57198381Y-75377524D01*
X57198381Y-74107524D01*
X57621714Y-74107524D01*
X57742667Y-74168000D01*
X57803143Y-74228476D01*
X57863619Y-74349429D01*
X57863619Y-74470381D01*
X57803143Y-74591333D01*
X57742667Y-74651810D01*
X57621714Y-74712286D01*
X57198381Y-74712286D01*
X59194095Y-75377524D02*
X58770762Y-74772762D01*
X58468381Y-75377524D02*
X58468381Y-74107524D01*
X58952190Y-74107524D01*
X59073143Y-74168000D01*
X59133619Y-74228476D01*
X59194095Y-74349429D01*
X59194095Y-74530857D01*
X59133619Y-74651810D01*
X59073143Y-74712286D01*
X58952190Y-74772762D01*
X58468381Y-74772762D01*
X57924096Y-79187524D02*
X57319334Y-79187524D01*
X57258858Y-79792286D01*
X57319334Y-79731810D01*
X57440286Y-79671333D01*
X57742667Y-79671333D01*
X57863620Y-79731810D01*
X57924096Y-79792286D01*
X57984572Y-79913238D01*
X57984572Y-80215619D01*
X57924096Y-80336571D01*
X57863620Y-80397048D01*
X57742667Y-80457524D01*
X57440286Y-80457524D01*
X57319334Y-80397048D01*
X57258858Y-80336571D01*
X58347429Y-79187524D02*
X58770763Y-80457524D01*
X59194096Y-79187524D01*
X24178381Y-84328000D02*
X24057429Y-84267524D01*
X23876000Y-84267524D01*
X23694572Y-84328000D01*
X23573619Y-84448952D01*
X23513143Y-84569905D01*
X23452667Y-84811810D01*
X23452667Y-84993238D01*
X23513143Y-85235143D01*
X23573619Y-85356095D01*
X23694572Y-85477048D01*
X23876000Y-85537524D01*
X23996952Y-85537524D01*
X24178381Y-85477048D01*
X24238857Y-85416571D01*
X24238857Y-84993238D01*
X23996952Y-84993238D01*
X24783143Y-85537524D02*
X24783143Y-84267524D01*
X25508857Y-85537524D01*
X25508857Y-84267524D01*
X26113619Y-85537524D02*
X26113619Y-84267524D01*
X26416000Y-84267524D01*
X26597428Y-84328000D01*
X26718381Y-84448952D01*
X26778857Y-84569905D01*
X26839333Y-84811810D01*
X26839333Y-84993238D01*
X26778857Y-85235143D01*
X26718381Y-85356095D01*
X26597428Y-85477048D01*
X26416000Y-85537524D01*
X26113619Y-85537524D01*
X24904096Y-81727524D02*
X24299334Y-81727524D01*
X24238858Y-82332286D01*
X24299334Y-82271810D01*
X24420286Y-82211333D01*
X24722667Y-82211333D01*
X24843620Y-82271810D01*
X24904096Y-82332286D01*
X24964572Y-82453238D01*
X24964572Y-82755619D01*
X24904096Y-82876571D01*
X24843620Y-82937048D01*
X24722667Y-82997524D01*
X24420286Y-82997524D01*
X24299334Y-82937048D01*
X24238858Y-82876571D01*
X25327429Y-81727524D02*
X25750763Y-82997524D01*
X26174096Y-81727524D01*
X24178381Y-69088000D02*
X24057429Y-69027524D01*
X23876000Y-69027524D01*
X23694572Y-69088000D01*
X23573619Y-69208952D01*
X23513143Y-69329905D01*
X23452667Y-69571810D01*
X23452667Y-69753238D01*
X23513143Y-69995143D01*
X23573619Y-70116095D01*
X23694572Y-70237048D01*
X23876000Y-70297524D01*
X23996952Y-70297524D01*
X24178381Y-70237048D01*
X24238857Y-70176571D01*
X24238857Y-69753238D01*
X23996952Y-69753238D01*
X24783143Y-70297524D02*
X24783143Y-69027524D01*
X25508857Y-70297524D01*
X25508857Y-69027524D01*
X26113619Y-70297524D02*
X26113619Y-69027524D01*
X26416000Y-69027524D01*
X26597428Y-69088000D01*
X26718381Y-69208952D01*
X26778857Y-69329905D01*
X26839333Y-69571810D01*
X26839333Y-69753238D01*
X26778857Y-69995143D01*
X26718381Y-70116095D01*
X26597428Y-70237048D01*
X26416000Y-70297524D01*
X26113619Y-70297524D01*
X24904096Y-66487524D02*
X24299334Y-66487524D01*
X24238858Y-67092286D01*
X24299334Y-67031810D01*
X24420286Y-66971333D01*
X24722667Y-66971333D01*
X24843620Y-67031810D01*
X24904096Y-67092286D01*
X24964572Y-67213238D01*
X24964572Y-67515619D01*
X24904096Y-67636571D01*
X24843620Y-67697048D01*
X24722667Y-67757524D01*
X24420286Y-67757524D01*
X24299334Y-67697048D01*
X24238858Y-67636571D01*
X25327429Y-66487524D02*
X25750763Y-67757524D01*
X26174096Y-66487524D01*
X23845762Y-65157048D02*
X24027190Y-65217524D01*
X24329571Y-65217524D01*
X24450524Y-65157048D01*
X24511000Y-65096571D01*
X24571476Y-64975619D01*
X24571476Y-64854667D01*
X24511000Y-64733714D01*
X24450524Y-64673238D01*
X24329571Y-64612762D01*
X24087667Y-64552286D01*
X23966714Y-64491810D01*
X23906238Y-64431333D01*
X23845762Y-64310381D01*
X23845762Y-64189429D01*
X23906238Y-64068476D01*
X23966714Y-64008000D01*
X24087667Y-63947524D01*
X24390047Y-63947524D01*
X24571476Y-64008000D01*
X25115762Y-65217524D02*
X25115762Y-63947524D01*
X26385762Y-64008000D02*
X26264810Y-63947524D01*
X26083381Y-63947524D01*
X25901953Y-64008000D01*
X25781000Y-64128952D01*
X25720524Y-64249905D01*
X25660048Y-64491810D01*
X25660048Y-64673238D01*
X25720524Y-64915143D01*
X25781000Y-65036095D01*
X25901953Y-65157048D01*
X26083381Y-65217524D01*
X26204333Y-65217524D01*
X26385762Y-65157048D01*
X26446238Y-65096571D01*
X26446238Y-64673238D01*
X26204333Y-64673238D01*
X23845762Y-80397048D02*
X24027190Y-80457524D01*
X24329571Y-80457524D01*
X24450524Y-80397048D01*
X24511000Y-80336571D01*
X24571476Y-80215619D01*
X24571476Y-80094667D01*
X24511000Y-79973714D01*
X24450524Y-79913238D01*
X24329571Y-79852762D01*
X24087667Y-79792286D01*
X23966714Y-79731810D01*
X23906238Y-79671333D01*
X23845762Y-79550381D01*
X23845762Y-79429429D01*
X23906238Y-79308476D01*
X23966714Y-79248000D01*
X24087667Y-79187524D01*
X24390047Y-79187524D01*
X24571476Y-79248000D01*
X25115762Y-80457524D02*
X25115762Y-79187524D01*
X26385762Y-79248000D02*
X26264810Y-79187524D01*
X26083381Y-79187524D01*
X25901953Y-79248000D01*
X25781000Y-79368952D01*
X25720524Y-79489905D01*
X25660048Y-79731810D01*
X25660048Y-79913238D01*
X25720524Y-80155143D01*
X25781000Y-80276095D01*
X25901953Y-80397048D01*
X26083381Y-80457524D01*
X26204333Y-80457524D01*
X26385762Y-80397048D01*
X26446238Y-80336571D01*
X26446238Y-79913238D01*
X26204333Y-79913238D01*
D12*
X43561000Y-70993000D02*
X38481000Y-70993000D01*
X38481000Y-70993000D02*
X38481000Y-68453000D01*
X38481000Y-68453000D02*
X43561000Y-68453000D01*
X43561000Y-68453000D02*
X43561000Y-70993000D01*
X43561000Y-78613000D02*
X38481000Y-78613000D01*
X38481000Y-78613000D02*
X38481000Y-76073000D01*
X38481000Y-76073000D02*
X43561000Y-76073000D01*
X43561000Y-76073000D02*
X43561000Y-78613000D01*
X43561000Y-63373000D02*
X38481000Y-63373000D01*
X38481000Y-63373000D02*
X38481000Y-60833000D01*
X38481000Y-60833000D02*
X43561000Y-60833000D01*
X43561000Y-60833000D02*
X43561000Y-63373000D01*
X43561000Y-86233000D02*
X38481000Y-86233000D01*
X38481000Y-86233000D02*
X38481000Y-83693000D01*
X38481000Y-83693000D02*
X43561000Y-83693000D01*
X43561000Y-83693000D02*
X43561000Y-86233000D01*
X28956000Y-81153000D02*
X28956000Y-86233000D01*
X28956000Y-86233000D02*
X31496000Y-86233000D01*
X31496000Y-86233000D02*
X31496000Y-81153000D01*
X31776000Y-78333000D02*
X31776000Y-79883000D01*
X31496000Y-81153000D02*
X28956000Y-81153000D01*
X28676000Y-79883000D02*
X28676000Y-78333000D01*
X28676000Y-78333000D02*
X31776000Y-78333000D01*
X28956000Y-65913000D02*
X28956000Y-70993000D01*
X28956000Y-70993000D02*
X31496000Y-70993000D01*
X31496000Y-70993000D02*
X31496000Y-65913000D01*
X31776000Y-63093000D02*
X31776000Y-64643000D01*
X31496000Y-65913000D02*
X28956000Y-65913000D01*
X28676000Y-64643000D02*
X28676000Y-63093000D01*
X28676000Y-63093000D02*
X31776000Y-63093000D01*
X54001000Y-81433000D02*
X50901000Y-81433000D01*
X40854334Y-70175381D02*
X40521000Y-69699190D01*
X40282905Y-70175381D02*
X40282905Y-69175381D01*
X40663858Y-69175381D01*
X40759096Y-69223000D01*
X40806715Y-69270619D01*
X40854334Y-69365857D01*
X40854334Y-69508714D01*
X40806715Y-69603952D01*
X40759096Y-69651571D01*
X40663858Y-69699190D01*
X40282905Y-69699190D01*
X41187667Y-69175381D02*
X41806715Y-69175381D01*
X41473381Y-69556333D01*
X41616239Y-69556333D01*
X41711477Y-69603952D01*
X41759096Y-69651571D01*
X41806715Y-69746810D01*
X41806715Y-69984905D01*
X41759096Y-70080143D01*
X41711477Y-70127762D01*
X41616239Y-70175381D01*
X41330524Y-70175381D01*
X41235286Y-70127762D01*
X41187667Y-70080143D01*
X40854334Y-77795381D02*
X40521000Y-77319190D01*
X40282905Y-77795381D02*
X40282905Y-76795381D01*
X40663858Y-76795381D01*
X40759096Y-76843000D01*
X40806715Y-76890619D01*
X40854334Y-76985857D01*
X40854334Y-77128714D01*
X40806715Y-77223952D01*
X40759096Y-77271571D01*
X40663858Y-77319190D01*
X40282905Y-77319190D01*
X41235286Y-76890619D02*
X41282905Y-76843000D01*
X41378143Y-76795381D01*
X41616239Y-76795381D01*
X41711477Y-76843000D01*
X41759096Y-76890619D01*
X41806715Y-76985857D01*
X41806715Y-77081095D01*
X41759096Y-77223952D01*
X41187667Y-77795381D01*
X41806715Y-77795381D01*
X40854334Y-62555381D02*
X40521000Y-62079190D01*
X40282905Y-62555381D02*
X40282905Y-61555381D01*
X40663858Y-61555381D01*
X40759096Y-61603000D01*
X40806715Y-61650619D01*
X40854334Y-61745857D01*
X40854334Y-61888714D01*
X40806715Y-61983952D01*
X40759096Y-62031571D01*
X40663858Y-62079190D01*
X40282905Y-62079190D01*
X41711477Y-61888714D02*
X41711477Y-62555381D01*
X41473381Y-61507762D02*
X41235286Y-62222048D01*
X41854334Y-62222048D01*
X40854334Y-85415381D02*
X40521000Y-84939190D01*
X40282905Y-85415381D02*
X40282905Y-84415381D01*
X40663858Y-84415381D01*
X40759096Y-84463000D01*
X40806715Y-84510619D01*
X40854334Y-84605857D01*
X40854334Y-84748714D01*
X40806715Y-84843952D01*
X40759096Y-84891571D01*
X40663858Y-84939190D01*
X40282905Y-84939190D01*
X41806715Y-85415381D02*
X41235286Y-85415381D01*
X41521000Y-85415381D02*
X41521000Y-84415381D01*
X41425762Y-84558238D01*
X41330524Y-84653476D01*
X41235286Y-84701095D01*
X27765714Y-76414381D02*
X28099047Y-77414381D01*
X28432381Y-76414381D01*
X28718095Y-77366762D02*
X28860952Y-77414381D01*
X29099048Y-77414381D01*
X29194286Y-77366762D01*
X29241905Y-77319143D01*
X29289524Y-77223905D01*
X29289524Y-77128667D01*
X29241905Y-77033429D01*
X29194286Y-76985810D01*
X29099048Y-76938190D01*
X28908571Y-76890571D01*
X28813333Y-76842952D01*
X28765714Y-76795333D01*
X28718095Y-76700095D01*
X28718095Y-76604857D01*
X28765714Y-76509619D01*
X28813333Y-76462000D01*
X28908571Y-76414381D01*
X29146667Y-76414381D01*
X29289524Y-76462000D01*
X29718095Y-76890571D02*
X30051429Y-76890571D01*
X30194286Y-77414381D02*
X29718095Y-77414381D01*
X29718095Y-76414381D01*
X30194286Y-76414381D01*
X31194286Y-77414381D02*
X30860952Y-76938190D01*
X30622857Y-77414381D02*
X30622857Y-76414381D01*
X31003810Y-76414381D01*
X31099048Y-76462000D01*
X31146667Y-76509619D01*
X31194286Y-76604857D01*
X31194286Y-76747714D01*
X31146667Y-76842952D01*
X31099048Y-76890571D01*
X31003810Y-76938190D01*
X30622857Y-76938190D01*
X31480000Y-76414381D02*
X31813333Y-77414381D01*
X32146667Y-76414381D01*
X32670476Y-76414381D02*
X32860953Y-76414381D01*
X32956191Y-76462000D01*
X33051429Y-76557238D01*
X33099048Y-76747714D01*
X33099048Y-77081048D01*
X33051429Y-77271524D01*
X32956191Y-77366762D01*
X32860953Y-77414381D01*
X32670476Y-77414381D01*
X32575238Y-77366762D01*
X32480000Y-77271524D01*
X32432381Y-77081048D01*
X32432381Y-76747714D01*
X32480000Y-76557238D01*
X32575238Y-76462000D01*
X32670476Y-76414381D01*
X27813333Y-62174381D02*
X27813333Y-61174381D01*
X27813333Y-61650571D02*
X28384762Y-61650571D01*
X28384762Y-62174381D02*
X28384762Y-61174381D01*
X28813333Y-62126762D02*
X28956190Y-62174381D01*
X29194286Y-62174381D01*
X29289524Y-62126762D01*
X29337143Y-62079143D01*
X29384762Y-61983905D01*
X29384762Y-61888667D01*
X29337143Y-61793429D01*
X29289524Y-61745810D01*
X29194286Y-61698190D01*
X29003809Y-61650571D01*
X28908571Y-61602952D01*
X28860952Y-61555333D01*
X28813333Y-61460095D01*
X28813333Y-61364857D01*
X28860952Y-61269619D01*
X28908571Y-61222000D01*
X29003809Y-61174381D01*
X29241905Y-61174381D01*
X29384762Y-61222000D01*
X29813333Y-61650571D02*
X30146667Y-61650571D01*
X30289524Y-62174381D02*
X29813333Y-62174381D01*
X29813333Y-61174381D01*
X30289524Y-61174381D01*
X31289524Y-62174381D02*
X30956190Y-61698190D01*
X30718095Y-62174381D02*
X30718095Y-61174381D01*
X31099048Y-61174381D01*
X31194286Y-61222000D01*
X31241905Y-61269619D01*
X31289524Y-61364857D01*
X31289524Y-61507714D01*
X31241905Y-61602952D01*
X31194286Y-61650571D01*
X31099048Y-61698190D01*
X30718095Y-61698190D01*
X31575238Y-61174381D02*
X31908571Y-62174381D01*
X32241905Y-61174381D01*
X32765714Y-61174381D02*
X32956191Y-61174381D01*
X33051429Y-61222000D01*
X33146667Y-61317238D01*
X33194286Y-61507714D01*
X33194286Y-61841048D01*
X33146667Y-62031524D01*
X33051429Y-62126762D01*
X32956191Y-62174381D01*
X32765714Y-62174381D01*
X32670476Y-62126762D01*
X32575238Y-62031524D01*
X32527619Y-61841048D01*
X32527619Y-61507714D01*
X32575238Y-61317238D01*
X32670476Y-61222000D01*
X32765714Y-61174381D01*
D13*
X48586572Y-66245619D02*
X49167143Y-66245619D01*
X48876858Y-67261619D02*
X48876858Y-66245619D01*
X49699334Y-66245619D02*
X49892857Y-66245619D01*
X49989619Y-66294000D01*
X50086381Y-66390762D01*
X50134762Y-66584286D01*
X50134762Y-66922952D01*
X50086381Y-67116476D01*
X49989619Y-67213238D01*
X49892857Y-67261619D01*
X49699334Y-67261619D01*
X49602572Y-67213238D01*
X49505810Y-67116476D01*
X49457429Y-66922952D01*
X49457429Y-66584286D01*
X49505810Y-66390762D01*
X49602572Y-66294000D01*
X49699334Y-66245619D01*
X51828095Y-67261619D02*
X51344286Y-67261619D01*
X51344286Y-66245619D01*
X52166762Y-67261619D02*
X52166762Y-66245619D01*
X52408667Y-66245619D01*
X52553809Y-66294000D01*
X52650571Y-66390762D01*
X52698952Y-66487524D01*
X52747333Y-66681048D01*
X52747333Y-66826190D01*
X52698952Y-67019714D01*
X52650571Y-67116476D01*
X52553809Y-67213238D01*
X52408667Y-67261619D01*
X52166762Y-67261619D01*
X53763333Y-67261619D02*
X53424667Y-66777810D01*
X53182762Y-67261619D02*
X53182762Y-66245619D01*
X53569809Y-66245619D01*
X53666571Y-66294000D01*
X53714952Y-66342381D01*
X53763333Y-66439143D01*
X53763333Y-66584286D01*
X53714952Y-66681048D01*
X53666571Y-66729429D01*
X53569809Y-66777810D01*
X53182762Y-66777810D01*
X55311523Y-66729429D02*
X55456666Y-66777810D01*
X55505047Y-66826190D01*
X55553428Y-66922952D01*
X55553428Y-67068095D01*
X55505047Y-67164857D01*
X55456666Y-67213238D01*
X55359904Y-67261619D01*
X54972857Y-67261619D01*
X54972857Y-66245619D01*
X55311523Y-66245619D01*
X55408285Y-66294000D01*
X55456666Y-66342381D01*
X55505047Y-66439143D01*
X55505047Y-66535905D01*
X55456666Y-66632667D01*
X55408285Y-66681048D01*
X55311523Y-66729429D01*
X54972857Y-66729429D01*
X56182381Y-66245619D02*
X56375904Y-66245619D01*
X56472666Y-66294000D01*
X56569428Y-66390762D01*
X56617809Y-66584286D01*
X56617809Y-66922952D01*
X56569428Y-67116476D01*
X56472666Y-67213238D01*
X56375904Y-67261619D01*
X56182381Y-67261619D01*
X56085619Y-67213238D01*
X55988857Y-67116476D01*
X55940476Y-66922952D01*
X55940476Y-66584286D01*
X55988857Y-66390762D01*
X56085619Y-66294000D01*
X56182381Y-66245619D01*
X57004857Y-66971333D02*
X57488666Y-66971333D01*
X56908095Y-67261619D02*
X57246762Y-66245619D01*
X57585428Y-67261619D01*
X58504666Y-67261619D02*
X58166000Y-66777810D01*
X57924095Y-67261619D02*
X57924095Y-66245619D01*
X58311142Y-66245619D01*
X58407904Y-66294000D01*
X58456285Y-66342381D01*
X58504666Y-66439143D01*
X58504666Y-66584286D01*
X58456285Y-66681048D01*
X58407904Y-66729429D01*
X58311142Y-66777810D01*
X57924095Y-66777810D01*
X58940095Y-67261619D02*
X58940095Y-66245619D01*
X59182000Y-66245619D01*
X59327142Y-66294000D01*
X59423904Y-66390762D01*
X59472285Y-66487524D01*
X59520666Y-66681048D01*
X59520666Y-66826190D01*
X59472285Y-67019714D01*
X59423904Y-67116476D01*
X59327142Y-67213238D01*
X59182000Y-67261619D01*
X58940095Y-67261619D01*
D12*
X31313381Y-96392762D02*
X30313381Y-96392762D01*
X30313381Y-95726096D02*
X30313381Y-95535619D01*
X30361000Y-95440381D01*
X30456238Y-95345143D01*
X30646714Y-95297524D01*
X30980048Y-95297524D01*
X31170524Y-95345143D01*
X31265762Y-95440381D01*
X31313381Y-95535619D01*
X31313381Y-95726096D01*
X31265762Y-95821334D01*
X31170524Y-95916572D01*
X30980048Y-95964191D01*
X30646714Y-95964191D01*
X30456238Y-95916572D01*
X30361000Y-95821334D01*
X30313381Y-95726096D01*
X31313381Y-94297524D02*
X30837190Y-94630858D01*
X31313381Y-94868953D02*
X30313381Y-94868953D01*
X30313381Y-94488000D01*
X30361000Y-94392762D01*
X30408619Y-94345143D01*
X30503857Y-94297524D01*
X30646714Y-94297524D01*
X30741952Y-94345143D01*
X30789571Y-94392762D01*
X30837190Y-94488000D01*
X30837190Y-94868953D01*
X30789571Y-93868953D02*
X30789571Y-93535619D01*
X31313381Y-93392762D02*
X31313381Y-93868953D01*
X30313381Y-93868953D01*
X30313381Y-93392762D01*
X30789571Y-92630857D02*
X30789571Y-92964191D01*
X31313381Y-92964191D02*
X30313381Y-92964191D01*
X30313381Y-92488000D01*
X28753381Y-96416714D02*
X27753381Y-96416714D01*
X28753381Y-95845285D01*
X27753381Y-95845285D01*
X28658143Y-94797666D02*
X28705762Y-94845285D01*
X28753381Y-94988142D01*
X28753381Y-95083380D01*
X28705762Y-95226238D01*
X28610524Y-95321476D01*
X28515286Y-95369095D01*
X28324810Y-95416714D01*
X28181952Y-95416714D01*
X27991476Y-95369095D01*
X27896238Y-95321476D01*
X27801000Y-95226238D01*
X27753381Y-95083380D01*
X27753381Y-94988142D01*
X27801000Y-94845285D01*
X27848619Y-94797666D01*
X33853381Y-95924619D02*
X33377190Y-96257953D01*
X33853381Y-96496048D02*
X32853381Y-96496048D01*
X32853381Y-96115095D01*
X32901000Y-96019857D01*
X32948619Y-95972238D01*
X33043857Y-95924619D01*
X33186714Y-95924619D01*
X33281952Y-95972238D01*
X33329571Y-96019857D01*
X33377190Y-96115095D01*
X33377190Y-96496048D01*
X33805762Y-95543667D02*
X33853381Y-95400810D01*
X33853381Y-95162714D01*
X33805762Y-95067476D01*
X33758143Y-95019857D01*
X33662905Y-94972238D01*
X33567667Y-94972238D01*
X33472429Y-95019857D01*
X33424810Y-95067476D01*
X33377190Y-95162714D01*
X33329571Y-95353191D01*
X33281952Y-95448429D01*
X33234333Y-95496048D01*
X33139095Y-95543667D01*
X33043857Y-95543667D01*
X32948619Y-95496048D01*
X32901000Y-95448429D01*
X32853381Y-95353191D01*
X32853381Y-95115095D01*
X32901000Y-94972238D01*
X32853381Y-94686524D02*
X32853381Y-94115095D01*
X33853381Y-94400810D02*
X32853381Y-94400810D01*
X35520381Y-96472190D02*
X35520381Y-95853142D01*
X35901333Y-96186476D01*
X35901333Y-96043618D01*
X35948952Y-95948380D01*
X35996571Y-95900761D01*
X36091810Y-95853142D01*
X36329905Y-95853142D01*
X36425143Y-95900761D01*
X36472762Y-95948380D01*
X36520381Y-96043618D01*
X36520381Y-96329333D01*
X36472762Y-96424571D01*
X36425143Y-96472190D01*
X36425143Y-95424571D02*
X36472762Y-95376952D01*
X36520381Y-95424571D01*
X36472762Y-95472190D01*
X36425143Y-95424571D01*
X36520381Y-95424571D01*
X35520381Y-95043619D02*
X35520381Y-94424571D01*
X35901333Y-94757905D01*
X35901333Y-94615047D01*
X35948952Y-94519809D01*
X35996571Y-94472190D01*
X36091810Y-94424571D01*
X36329905Y-94424571D01*
X36425143Y-94472190D01*
X36472762Y-94519809D01*
X36520381Y-94615047D01*
X36520381Y-94900762D01*
X36472762Y-94996000D01*
X36425143Y-95043619D01*
X35520381Y-94138857D02*
X36520381Y-93805524D01*
X35520381Y-93472190D01*
X37913381Y-95821476D02*
X37913381Y-96297667D01*
X38389571Y-96345286D01*
X38341952Y-96297667D01*
X38294333Y-96202429D01*
X38294333Y-95964333D01*
X38341952Y-95869095D01*
X38389571Y-95821476D01*
X38484810Y-95773857D01*
X38722905Y-95773857D01*
X38818143Y-95821476D01*
X38865762Y-95869095D01*
X38913381Y-95964333D01*
X38913381Y-96202429D01*
X38865762Y-96297667D01*
X38818143Y-96345286D01*
X37913381Y-95488143D02*
X38913381Y-95154810D01*
X37913381Y-94821476D01*
X40501000Y-95884904D02*
X40453381Y-95980142D01*
X40453381Y-96122999D01*
X40501000Y-96265857D01*
X40596238Y-96361095D01*
X40691476Y-96408714D01*
X40881952Y-96456333D01*
X41024810Y-96456333D01*
X41215286Y-96408714D01*
X41310524Y-96361095D01*
X41405762Y-96265857D01*
X41453381Y-96122999D01*
X41453381Y-96027761D01*
X41405762Y-95884904D01*
X41358143Y-95837285D01*
X41024810Y-95837285D01*
X41024810Y-96027761D01*
X41453381Y-95408714D02*
X40453381Y-95408714D01*
X41453381Y-94837285D01*
X40453381Y-94837285D01*
X41453381Y-94361095D02*
X40453381Y-94361095D01*
X40453381Y-94123000D01*
X40501000Y-93980142D01*
X40596238Y-93884904D01*
X40691476Y-93837285D01*
X40881952Y-93789666D01*
X41024810Y-93789666D01*
X41215286Y-93837285D01*
X41310524Y-93884904D01*
X41405762Y-93980142D01*
X41453381Y-94123000D01*
X41453381Y-94361095D01*
X43076000Y-95884904D02*
X43028381Y-95980142D01*
X43028381Y-96122999D01*
X43076000Y-96265857D01*
X43171238Y-96361095D01*
X43266476Y-96408714D01*
X43456952Y-96456333D01*
X43599810Y-96456333D01*
X43790286Y-96408714D01*
X43885524Y-96361095D01*
X43980762Y-96265857D01*
X44028381Y-96122999D01*
X44028381Y-96027761D01*
X43980762Y-95884904D01*
X43933143Y-95837285D01*
X43599810Y-95837285D01*
X43599810Y-96027761D01*
X44028381Y-95408714D02*
X43028381Y-95408714D01*
X44028381Y-94837285D01*
X43028381Y-94837285D01*
X44028381Y-94361095D02*
X43028381Y-94361095D01*
X43028381Y-94123000D01*
X43076000Y-93980142D01*
X43171238Y-93884904D01*
X43266476Y-93837285D01*
X43456952Y-93789666D01*
X43599810Y-93789666D01*
X43790286Y-93837285D01*
X43885524Y-93884904D01*
X43980762Y-93980142D01*
X44028381Y-94123000D01*
X44028381Y-94361095D01*
X45703381Y-96293238D02*
X46703381Y-95959905D01*
X45703381Y-95626571D01*
X46703381Y-95293238D02*
X45703381Y-95293238D01*
X46703381Y-94817048D02*
X45703381Y-94817048D01*
X46703381Y-94245619D01*
X45703381Y-94245619D01*
X58947667Y-96345286D02*
X58947667Y-95869095D01*
X59233381Y-96440524D02*
X58233381Y-96107191D01*
X59233381Y-95773857D01*
X58233381Y-95535762D02*
X58233381Y-94916714D01*
X58614333Y-95250048D01*
X58614333Y-95107190D01*
X58661952Y-95011952D01*
X58709571Y-94964333D01*
X58804810Y-94916714D01*
X59042905Y-94916714D01*
X59138143Y-94964333D01*
X59185762Y-95011952D01*
X59233381Y-95107190D01*
X59233381Y-95392905D01*
X59185762Y-95488143D01*
X59138143Y-95535762D01*
X56407667Y-96345286D02*
X56407667Y-95869095D01*
X56693381Y-96440524D02*
X55693381Y-96107191D01*
X56693381Y-95773857D01*
X55788619Y-95488143D02*
X55741000Y-95440524D01*
X55693381Y-95345286D01*
X55693381Y-95107190D01*
X55741000Y-95011952D01*
X55788619Y-94964333D01*
X55883857Y-94916714D01*
X55979095Y-94916714D01*
X56121952Y-94964333D01*
X56693381Y-95535762D01*
X56693381Y-94916714D01*
X53994667Y-96345286D02*
X53994667Y-95869095D01*
X54280381Y-96440524D02*
X53280381Y-96107191D01*
X54280381Y-95773857D01*
X54280381Y-94916714D02*
X54280381Y-95488143D01*
X54280381Y-95202429D02*
X53280381Y-95202429D01*
X53423238Y-95297667D01*
X53518476Y-95392905D01*
X53566095Y-95488143D01*
X51474667Y-96345286D02*
X51474667Y-95869095D01*
X51760381Y-96440524D02*
X50760381Y-96107191D01*
X51760381Y-95773857D01*
X50760381Y-95250048D02*
X50760381Y-95154809D01*
X50808000Y-95059571D01*
X50855619Y-95011952D01*
X50950857Y-94964333D01*
X51141333Y-94916714D01*
X51379429Y-94916714D01*
X51569905Y-94964333D01*
X51665143Y-95011952D01*
X51712762Y-95059571D01*
X51760381Y-95154809D01*
X51760381Y-95250048D01*
X51712762Y-95345286D01*
X51665143Y-95392905D01*
X51569905Y-95440524D01*
X51379429Y-95488143D01*
X51141333Y-95488143D01*
X50950857Y-95440524D01*
X50855619Y-95392905D01*
X50808000Y-95345286D01*
X50760381Y-95250048D01*
X24530667Y-54911476D02*
X24530667Y-54435285D01*
X24816381Y-55006714D02*
X23816381Y-54673381D01*
X24816381Y-54340047D01*
X24816381Y-53435285D02*
X24340190Y-53768619D01*
X24816381Y-54006714D02*
X23816381Y-54006714D01*
X23816381Y-53625761D01*
X23864000Y-53530523D01*
X23911619Y-53482904D01*
X24006857Y-53435285D01*
X24149714Y-53435285D01*
X24244952Y-53482904D01*
X24292571Y-53530523D01*
X24340190Y-53625761D01*
X24340190Y-54006714D01*
X24292571Y-53006714D02*
X24292571Y-52673380D01*
X24816381Y-52530523D02*
X24816381Y-53006714D01*
X23816381Y-53006714D01*
X23816381Y-52530523D01*
X26404000Y-54482904D02*
X26356381Y-54578142D01*
X26356381Y-54720999D01*
X26404000Y-54863857D01*
X26499238Y-54959095D01*
X26594476Y-55006714D01*
X26784952Y-55054333D01*
X26927810Y-55054333D01*
X27118286Y-55006714D01*
X27213524Y-54959095D01*
X27308762Y-54863857D01*
X27356381Y-54720999D01*
X27356381Y-54625761D01*
X27308762Y-54482904D01*
X27261143Y-54435285D01*
X26927810Y-54435285D01*
X26927810Y-54625761D01*
X27356381Y-54006714D02*
X26356381Y-54006714D01*
X27356381Y-53435285D01*
X26356381Y-53435285D01*
X27356381Y-52959095D02*
X26356381Y-52959095D01*
X26356381Y-52721000D01*
X26404000Y-52578142D01*
X26499238Y-52482904D01*
X26594476Y-52435285D01*
X26784952Y-52387666D01*
X26927810Y-52387666D01*
X27118286Y-52435285D01*
X27213524Y-52482904D01*
X27308762Y-52578142D01*
X27356381Y-52721000D01*
X27356381Y-52959095D01*
X30023381Y-54935286D02*
X29023381Y-54935286D01*
X29023381Y-54697191D01*
X29071000Y-54554333D01*
X29166238Y-54459095D01*
X29261476Y-54411476D01*
X29451952Y-54363857D01*
X29594810Y-54363857D01*
X29785286Y-54411476D01*
X29880524Y-54459095D01*
X29975762Y-54554333D01*
X30023381Y-54697191D01*
X30023381Y-54935286D01*
X30023381Y-53411476D02*
X30023381Y-53982905D01*
X30023381Y-53697191D02*
X29023381Y-53697191D01*
X29166238Y-53792429D01*
X29261476Y-53887667D01*
X29309095Y-53982905D01*
X29023381Y-53078143D02*
X29023381Y-52459095D01*
X29404333Y-52792429D01*
X29404333Y-52649571D01*
X29451952Y-52554333D01*
X29499571Y-52506714D01*
X29594810Y-52459095D01*
X29832905Y-52459095D01*
X29928143Y-52506714D01*
X29975762Y-52554333D01*
X30023381Y-52649571D01*
X30023381Y-52935286D01*
X29975762Y-53030524D01*
X29928143Y-53078143D01*
X32563381Y-54935286D02*
X31563381Y-54935286D01*
X31563381Y-54697191D01*
X31611000Y-54554333D01*
X31706238Y-54459095D01*
X31801476Y-54411476D01*
X31991952Y-54363857D01*
X32134810Y-54363857D01*
X32325286Y-54411476D01*
X32420524Y-54459095D01*
X32515762Y-54554333D01*
X32563381Y-54697191D01*
X32563381Y-54935286D01*
X32563381Y-53411476D02*
X32563381Y-53982905D01*
X32563381Y-53697191D02*
X31563381Y-53697191D01*
X31706238Y-53792429D01*
X31801476Y-53887667D01*
X31849095Y-53982905D01*
X31658619Y-53030524D02*
X31611000Y-52982905D01*
X31563381Y-52887667D01*
X31563381Y-52649571D01*
X31611000Y-52554333D01*
X31658619Y-52506714D01*
X31753857Y-52459095D01*
X31849095Y-52459095D01*
X31991952Y-52506714D01*
X32563381Y-53078143D01*
X32563381Y-52459095D01*
X35103381Y-54935286D02*
X34103381Y-54935286D01*
X34103381Y-54697191D01*
X34151000Y-54554333D01*
X34246238Y-54459095D01*
X34341476Y-54411476D01*
X34531952Y-54363857D01*
X34674810Y-54363857D01*
X34865286Y-54411476D01*
X34960524Y-54459095D01*
X35055762Y-54554333D01*
X35103381Y-54697191D01*
X35103381Y-54935286D01*
X35103381Y-53411476D02*
X35103381Y-53982905D01*
X35103381Y-53697191D02*
X34103381Y-53697191D01*
X34246238Y-53792429D01*
X34341476Y-53887667D01*
X34389095Y-53982905D01*
X35103381Y-52459095D02*
X35103381Y-53030524D01*
X35103381Y-52744810D02*
X34103381Y-52744810D01*
X34246238Y-52840048D01*
X34341476Y-52935286D01*
X34389095Y-53030524D01*
X37516381Y-54935286D02*
X36516381Y-54935286D01*
X36516381Y-54697191D01*
X36564000Y-54554333D01*
X36659238Y-54459095D01*
X36754476Y-54411476D01*
X36944952Y-54363857D01*
X37087810Y-54363857D01*
X37278286Y-54411476D01*
X37373524Y-54459095D01*
X37468762Y-54554333D01*
X37516381Y-54697191D01*
X37516381Y-54935286D01*
X37516381Y-53411476D02*
X37516381Y-53982905D01*
X37516381Y-53697191D02*
X36516381Y-53697191D01*
X36659238Y-53792429D01*
X36754476Y-53887667D01*
X36802095Y-53982905D01*
X36516381Y-52792429D02*
X36516381Y-52697190D01*
X36564000Y-52601952D01*
X36611619Y-52554333D01*
X36706857Y-52506714D01*
X36897333Y-52459095D01*
X37135429Y-52459095D01*
X37325905Y-52506714D01*
X37421143Y-52554333D01*
X37468762Y-52601952D01*
X37516381Y-52697190D01*
X37516381Y-52792429D01*
X37468762Y-52887667D01*
X37421143Y-52935286D01*
X37325905Y-52982905D01*
X37135429Y-53030524D01*
X36897333Y-53030524D01*
X36706857Y-52982905D01*
X36611619Y-52935286D01*
X36564000Y-52887667D01*
X36516381Y-52792429D01*
X40183381Y-54078095D02*
X39183381Y-54078095D01*
X39183381Y-53840000D01*
X39231000Y-53697142D01*
X39326238Y-53601904D01*
X39421476Y-53554285D01*
X39611952Y-53506666D01*
X39754810Y-53506666D01*
X39945286Y-53554285D01*
X40040524Y-53601904D01*
X40135762Y-53697142D01*
X40183381Y-53840000D01*
X40183381Y-54078095D01*
X40183381Y-53030476D02*
X40183381Y-52840000D01*
X40135762Y-52744761D01*
X40088143Y-52697142D01*
X39945286Y-52601904D01*
X39754810Y-52554285D01*
X39373857Y-52554285D01*
X39278619Y-52601904D01*
X39231000Y-52649523D01*
X39183381Y-52744761D01*
X39183381Y-52935238D01*
X39231000Y-53030476D01*
X39278619Y-53078095D01*
X39373857Y-53125714D01*
X39611952Y-53125714D01*
X39707190Y-53078095D01*
X39754810Y-53030476D01*
X39802429Y-52935238D01*
X39802429Y-52744761D01*
X39754810Y-52649523D01*
X39707190Y-52601904D01*
X39611952Y-52554285D01*
X42723381Y-54078095D02*
X41723381Y-54078095D01*
X41723381Y-53840000D01*
X41771000Y-53697142D01*
X41866238Y-53601904D01*
X41961476Y-53554285D01*
X42151952Y-53506666D01*
X42294810Y-53506666D01*
X42485286Y-53554285D01*
X42580524Y-53601904D01*
X42675762Y-53697142D01*
X42723381Y-53840000D01*
X42723381Y-54078095D01*
X42151952Y-52935238D02*
X42104333Y-53030476D01*
X42056714Y-53078095D01*
X41961476Y-53125714D01*
X41913857Y-53125714D01*
X41818619Y-53078095D01*
X41771000Y-53030476D01*
X41723381Y-52935238D01*
X41723381Y-52744761D01*
X41771000Y-52649523D01*
X41818619Y-52601904D01*
X41913857Y-52554285D01*
X41961476Y-52554285D01*
X42056714Y-52601904D01*
X42104333Y-52649523D01*
X42151952Y-52744761D01*
X42151952Y-52935238D01*
X42199571Y-53030476D01*
X42247190Y-53078095D01*
X42342429Y-53125714D01*
X42532905Y-53125714D01*
X42628143Y-53078095D01*
X42675762Y-53030476D01*
X42723381Y-52935238D01*
X42723381Y-52744761D01*
X42675762Y-52649523D01*
X42628143Y-52601904D01*
X42532905Y-52554285D01*
X42342429Y-52554285D01*
X42247190Y-52601904D01*
X42199571Y-52649523D01*
X42151952Y-52744761D01*
X46787381Y-54205095D02*
X45787381Y-54205095D01*
X45787381Y-53967000D01*
X45835000Y-53824142D01*
X45930238Y-53728904D01*
X46025476Y-53681285D01*
X46215952Y-53633666D01*
X46358810Y-53633666D01*
X46549286Y-53681285D01*
X46644524Y-53728904D01*
X46739762Y-53824142D01*
X46787381Y-53967000D01*
X46787381Y-54205095D01*
X45787381Y-53300333D02*
X45787381Y-52633666D01*
X46787381Y-53062238D01*
X49200381Y-54205095D02*
X48200381Y-54205095D01*
X48200381Y-53967000D01*
X48248000Y-53824142D01*
X48343238Y-53728904D01*
X48438476Y-53681285D01*
X48628952Y-53633666D01*
X48771810Y-53633666D01*
X48962286Y-53681285D01*
X49057524Y-53728904D01*
X49152762Y-53824142D01*
X49200381Y-53967000D01*
X49200381Y-54205095D01*
X48200381Y-52776523D02*
X48200381Y-52967000D01*
X48248000Y-53062238D01*
X48295619Y-53109857D01*
X48438476Y-53205095D01*
X48628952Y-53252714D01*
X49009905Y-53252714D01*
X49105143Y-53205095D01*
X49152762Y-53157476D01*
X49200381Y-53062238D01*
X49200381Y-52871761D01*
X49152762Y-52776523D01*
X49105143Y-52728904D01*
X49009905Y-52681285D01*
X48771810Y-52681285D01*
X48676571Y-52728904D01*
X48628952Y-52776523D01*
X48581333Y-52871761D01*
X48581333Y-53062238D01*
X48628952Y-53157476D01*
X48676571Y-53205095D01*
X48771810Y-53252714D01*
X51740381Y-54205095D02*
X50740381Y-54205095D01*
X50740381Y-53967000D01*
X50788000Y-53824142D01*
X50883238Y-53728904D01*
X50978476Y-53681285D01*
X51168952Y-53633666D01*
X51311810Y-53633666D01*
X51502286Y-53681285D01*
X51597524Y-53728904D01*
X51692762Y-53824142D01*
X51740381Y-53967000D01*
X51740381Y-54205095D01*
X50740381Y-52728904D02*
X50740381Y-53205095D01*
X51216571Y-53252714D01*
X51168952Y-53205095D01*
X51121333Y-53109857D01*
X51121333Y-52871761D01*
X51168952Y-52776523D01*
X51216571Y-52728904D01*
X51311810Y-52681285D01*
X51549905Y-52681285D01*
X51645143Y-52728904D01*
X51692762Y-52776523D01*
X51740381Y-52871761D01*
X51740381Y-53109857D01*
X51692762Y-53205095D01*
X51645143Y-53252714D01*
X54407381Y-54205095D02*
X53407381Y-54205095D01*
X53407381Y-53967000D01*
X53455000Y-53824142D01*
X53550238Y-53728904D01*
X53645476Y-53681285D01*
X53835952Y-53633666D01*
X53978810Y-53633666D01*
X54169286Y-53681285D01*
X54264524Y-53728904D01*
X54359762Y-53824142D01*
X54407381Y-53967000D01*
X54407381Y-54205095D01*
X53740714Y-52776523D02*
X54407381Y-52776523D01*
X53359762Y-53014619D02*
X54074048Y-53252714D01*
X54074048Y-52633666D01*
X56820381Y-54205095D02*
X55820381Y-54205095D01*
X55820381Y-53967000D01*
X55868000Y-53824142D01*
X55963238Y-53728904D01*
X56058476Y-53681285D01*
X56248952Y-53633666D01*
X56391810Y-53633666D01*
X56582286Y-53681285D01*
X56677524Y-53728904D01*
X56772762Y-53824142D01*
X56820381Y-53967000D01*
X56820381Y-54205095D01*
X55820381Y-53300333D02*
X55820381Y-52681285D01*
X56201333Y-53014619D01*
X56201333Y-52871761D01*
X56248952Y-52776523D01*
X56296571Y-52728904D01*
X56391810Y-52681285D01*
X56629905Y-52681285D01*
X56725143Y-52728904D01*
X56772762Y-52776523D01*
X56820381Y-52871761D01*
X56820381Y-53157476D01*
X56772762Y-53252714D01*
X56725143Y-53300333D01*
X59360381Y-54205095D02*
X58360381Y-54205095D01*
X58360381Y-53967000D01*
X58408000Y-53824142D01*
X58503238Y-53728904D01*
X58598476Y-53681285D01*
X58788952Y-53633666D01*
X58931810Y-53633666D01*
X59122286Y-53681285D01*
X59217524Y-53728904D01*
X59312762Y-53824142D01*
X59360381Y-53967000D01*
X59360381Y-54205095D01*
X58455619Y-53252714D02*
X58408000Y-53205095D01*
X58360381Y-53109857D01*
X58360381Y-52871761D01*
X58408000Y-52776523D01*
X58455619Y-52728904D01*
X58550857Y-52681285D01*
X58646095Y-52681285D01*
X58788952Y-52728904D01*
X59360381Y-53300333D01*
X59360381Y-52681285D01*
%LPC*%
D14*
X44831000Y-69723000D03*
X37211000Y-69723000D03*
X44831000Y-77343000D03*
X37211000Y-77343000D03*
X44831000Y-62103000D03*
X37211000Y-62103000D03*
X44831000Y-84963000D03*
X37211000Y-84963000D03*
D15*
X30226000Y-79883000D03*
D16*
X30226000Y-82423000D03*
X30226000Y-84963000D03*
D15*
X30226000Y-64643000D03*
D16*
X30226000Y-67183000D03*
X30226000Y-69723000D03*
D17*
X52451000Y-79883000D03*
D18*
X52451000Y-77343000D03*
X52451000Y-74803000D03*
X52451000Y-72263000D03*
X52451000Y-69723000D03*
D19*
X58928000Y-98552000D03*
X51308000Y-98552000D03*
X53848000Y-98552000D03*
X56388000Y-98552000D03*
X46228000Y-98552000D03*
X43688000Y-98552000D03*
X41148000Y-98552000D03*
X36068000Y-98552000D03*
X33528000Y-98552000D03*
X58928000Y-50292000D03*
X56388000Y-50292000D03*
X53848000Y-50292000D03*
X51308000Y-50292000D03*
X48768000Y-50292000D03*
X46228000Y-50292000D03*
X42164000Y-50292000D03*
X39624000Y-50292000D03*
X37084000Y-50292000D03*
X34544000Y-50292000D03*
X32004000Y-50292000D03*
X29464000Y-50292000D03*
X26924000Y-50292000D03*
X24384000Y-50292000D03*
X38608000Y-98552000D03*
X30988000Y-98552000D03*
X28448000Y-98552000D03*
M02*
