%TF.GenerationSoftware,KiCad,Pcbnew,4.0.7-e2-6376~58~ubuntu16.04.1*%
%TF.CreationDate,2018-03-20T08:58:16-07:00*%
%TF.ProjectId,Arduino-Nano-Board,41726475696E6F2D4E616E6F2D426F61,1.0*%
%TF.FileFunction,Soldermask,Bot*%
%FSLAX46Y46*%
G04 Gerber Fmt 4.6, Leading zero omitted, Abs format (unit mm)*
G04 Created by KiCad (PCBNEW 4.0.7-e2-6376~58~ubuntu16.04.1) date Tue Mar 20 08:58:16 2018*
%MOMM*%
%LPD*%
G01*
G04 APERTURE LIST*
%ADD10C,0.350000*%
G04 APERTURE END LIST*
D10*
G36*
X58990188Y-89357424D02*
X59196826Y-89399841D01*
X59391304Y-89481592D01*
X59566191Y-89599555D01*
X59714836Y-89749241D01*
X59831575Y-89924948D01*
X59911963Y-90119984D01*
X59952869Y-90326574D01*
X59952869Y-90326584D01*
X59952936Y-90326923D01*
X59949572Y-90567872D01*
X59949495Y-90568210D01*
X59949495Y-90568219D01*
X59902837Y-90773587D01*
X59817036Y-90966299D01*
X59695434Y-91138680D01*
X59542666Y-91284159D01*
X59364553Y-91397193D01*
X59167872Y-91473480D01*
X58960127Y-91510112D01*
X58749217Y-91505693D01*
X58543184Y-91460395D01*
X58349872Y-91375938D01*
X58176651Y-91255546D01*
X58030109Y-91103799D01*
X57915833Y-90926476D01*
X57838173Y-90730331D01*
X57800093Y-90522849D01*
X57803038Y-90311915D01*
X57846899Y-90105568D01*
X57930002Y-89911674D01*
X58049185Y-89737612D01*
X58199904Y-89590016D01*
X58376425Y-89474505D01*
X58572019Y-89395479D01*
X58779233Y-89355952D01*
X58990188Y-89357424D01*
X58990188Y-89357424D01*
G37*
G36*
X51344788Y-89332024D02*
X51551426Y-89374441D01*
X51745904Y-89456192D01*
X51920791Y-89574155D01*
X52069436Y-89723841D01*
X52186175Y-89899548D01*
X52266563Y-90094584D01*
X52307469Y-90301174D01*
X52307469Y-90301184D01*
X52307536Y-90301523D01*
X52304172Y-90542472D01*
X52304095Y-90542810D01*
X52304095Y-90542819D01*
X52257437Y-90748187D01*
X52171636Y-90940899D01*
X52050034Y-91113280D01*
X51897266Y-91258759D01*
X51719153Y-91371793D01*
X51522472Y-91448080D01*
X51314727Y-91484712D01*
X51103817Y-91480293D01*
X50897784Y-91434995D01*
X50704472Y-91350538D01*
X50531251Y-91230146D01*
X50384709Y-91078399D01*
X50270433Y-90901076D01*
X50192773Y-90704931D01*
X50154693Y-90497449D01*
X50157638Y-90286515D01*
X50201499Y-90080168D01*
X50284602Y-89886274D01*
X50403785Y-89712212D01*
X50554504Y-89564616D01*
X50731025Y-89449105D01*
X50926619Y-89370079D01*
X51133833Y-89330552D01*
X51344788Y-89332024D01*
X51344788Y-89332024D01*
G37*
G36*
X46021915Y-84938224D02*
X46202448Y-84975283D01*
X46372358Y-85046706D01*
X46525149Y-85149766D01*
X46655021Y-85280546D01*
X46757010Y-85434053D01*
X46827243Y-85604451D01*
X46862972Y-85784899D01*
X46862972Y-85784904D01*
X46863040Y-85785248D01*
X46860101Y-85995758D01*
X46860024Y-85996096D01*
X46860024Y-85996106D01*
X46819270Y-86175486D01*
X46744308Y-86343852D01*
X46638068Y-86494456D01*
X46504599Y-86621557D01*
X46348984Y-86720314D01*
X46177154Y-86786962D01*
X45995652Y-86818966D01*
X45811386Y-86815106D01*
X45631379Y-86775529D01*
X45462488Y-86701743D01*
X45311150Y-86596560D01*
X45183121Y-86463982D01*
X45083281Y-86309061D01*
X45015432Y-86137693D01*
X44982163Y-85956423D01*
X44984735Y-85772136D01*
X45023056Y-85591856D01*
X45095659Y-85422457D01*
X45199787Y-85270384D01*
X45331466Y-85141433D01*
X45485687Y-85040514D01*
X45656572Y-84971472D01*
X45837609Y-84936938D01*
X46021915Y-84938224D01*
X46021915Y-84938224D01*
G37*
G36*
X30781915Y-84938224D02*
X30962448Y-84975283D01*
X31132358Y-85046706D01*
X31285149Y-85149766D01*
X31415021Y-85280546D01*
X31517010Y-85434053D01*
X31587243Y-85604451D01*
X31622972Y-85784899D01*
X31622972Y-85784904D01*
X31623040Y-85785248D01*
X31620101Y-85995758D01*
X31620024Y-85996096D01*
X31620024Y-85996106D01*
X31579270Y-86175486D01*
X31504308Y-86343852D01*
X31398068Y-86494456D01*
X31264599Y-86621557D01*
X31108984Y-86720314D01*
X30937154Y-86786962D01*
X30755652Y-86818966D01*
X30571386Y-86815106D01*
X30391379Y-86775529D01*
X30222488Y-86701743D01*
X30071150Y-86596560D01*
X29943121Y-86463982D01*
X29843281Y-86309061D01*
X29775432Y-86137693D01*
X29742163Y-85956423D01*
X29744735Y-85772136D01*
X29783056Y-85591856D01*
X29855659Y-85422457D01*
X29959787Y-85270384D01*
X30091466Y-85141433D01*
X30245687Y-85040514D01*
X30416572Y-84971472D01*
X30597609Y-84936938D01*
X30781915Y-84938224D01*
X30781915Y-84938224D01*
G37*
G36*
X46021915Y-82398224D02*
X46202448Y-82435283D01*
X46372358Y-82506706D01*
X46525149Y-82609766D01*
X46655021Y-82740546D01*
X46757010Y-82894053D01*
X46827243Y-83064451D01*
X46862972Y-83244899D01*
X46862972Y-83244904D01*
X46863040Y-83245248D01*
X46860101Y-83455758D01*
X46860024Y-83456096D01*
X46860024Y-83456106D01*
X46819270Y-83635486D01*
X46744308Y-83803852D01*
X46638068Y-83954456D01*
X46504599Y-84081557D01*
X46348984Y-84180314D01*
X46177154Y-84246962D01*
X45995652Y-84278966D01*
X45811386Y-84275106D01*
X45631379Y-84235529D01*
X45462488Y-84161743D01*
X45311150Y-84056560D01*
X45183121Y-83923982D01*
X45083281Y-83769061D01*
X45015432Y-83597693D01*
X44982163Y-83416423D01*
X44984735Y-83232136D01*
X45023056Y-83051856D01*
X45095659Y-82882457D01*
X45199787Y-82730384D01*
X45331466Y-82601433D01*
X45485687Y-82500514D01*
X45656572Y-82431472D01*
X45837609Y-82396938D01*
X46021915Y-82398224D01*
X46021915Y-82398224D01*
G37*
G36*
X30781915Y-82398224D02*
X30962448Y-82435283D01*
X31132358Y-82506706D01*
X31285149Y-82609766D01*
X31415021Y-82740546D01*
X31517010Y-82894053D01*
X31587243Y-83064451D01*
X31622972Y-83244899D01*
X31622972Y-83244904D01*
X31623040Y-83245248D01*
X31620101Y-83455758D01*
X31620024Y-83456096D01*
X31620024Y-83456106D01*
X31579270Y-83635486D01*
X31504308Y-83803852D01*
X31398068Y-83954456D01*
X31264599Y-84081557D01*
X31108984Y-84180314D01*
X30937154Y-84246962D01*
X30755652Y-84278966D01*
X30571386Y-84275106D01*
X30391379Y-84235529D01*
X30222488Y-84161743D01*
X30071150Y-84056560D01*
X29943121Y-83923982D01*
X29843281Y-83769061D01*
X29775432Y-83597693D01*
X29742163Y-83416423D01*
X29744735Y-83232136D01*
X29783056Y-83051856D01*
X29855659Y-82882457D01*
X29959787Y-82730384D01*
X30091466Y-82601433D01*
X30245687Y-82500514D01*
X30416572Y-82431472D01*
X30597609Y-82396938D01*
X30781915Y-82398224D01*
X30781915Y-82398224D01*
G37*
G36*
X58990188Y-80357424D02*
X59196826Y-80399841D01*
X59391304Y-80481592D01*
X59566191Y-80599555D01*
X59714836Y-80749241D01*
X59831575Y-80924948D01*
X59911963Y-81119984D01*
X59952869Y-81326574D01*
X59952869Y-81326584D01*
X59952936Y-81326923D01*
X59949572Y-81567872D01*
X59949495Y-81568210D01*
X59949495Y-81568219D01*
X59902837Y-81773587D01*
X59817036Y-81966299D01*
X59695434Y-82138680D01*
X59542666Y-82284159D01*
X59364553Y-82397193D01*
X59167872Y-82473480D01*
X58960127Y-82510112D01*
X58749217Y-82505693D01*
X58543184Y-82460395D01*
X58349872Y-82375938D01*
X58176651Y-82255546D01*
X58030109Y-82103799D01*
X57915833Y-81926476D01*
X57838173Y-81730331D01*
X57800093Y-81522849D01*
X57803038Y-81311915D01*
X57846899Y-81105568D01*
X57930002Y-80911674D01*
X58049185Y-80737612D01*
X58199904Y-80590016D01*
X58376425Y-80474505D01*
X58572019Y-80395479D01*
X58779233Y-80355952D01*
X58990188Y-80357424D01*
X58990188Y-80357424D01*
G37*
G36*
X51344788Y-80332024D02*
X51551426Y-80374441D01*
X51745904Y-80456192D01*
X51920791Y-80574155D01*
X52069436Y-80723841D01*
X52186175Y-80899548D01*
X52266563Y-81094584D01*
X52307469Y-81301174D01*
X52307469Y-81301184D01*
X52307536Y-81301523D01*
X52304172Y-81542472D01*
X52304095Y-81542810D01*
X52304095Y-81542819D01*
X52257437Y-81748187D01*
X52171636Y-81940899D01*
X52050034Y-82113280D01*
X51897266Y-82258759D01*
X51719153Y-82371793D01*
X51522472Y-82448080D01*
X51314727Y-82484712D01*
X51103817Y-82480293D01*
X50897784Y-82434995D01*
X50704472Y-82350538D01*
X50531251Y-82230146D01*
X50384709Y-82078399D01*
X50270433Y-81901076D01*
X50192773Y-81704931D01*
X50154693Y-81497449D01*
X50157638Y-81286515D01*
X50201499Y-81080168D01*
X50284602Y-80886274D01*
X50403785Y-80712212D01*
X50554504Y-80564616D01*
X50731025Y-80449105D01*
X50926619Y-80370079D01*
X51133833Y-80330552D01*
X51344788Y-80332024D01*
X51344788Y-80332024D01*
G37*
G36*
X46021915Y-79858224D02*
X46202448Y-79895283D01*
X46372358Y-79966706D01*
X46525149Y-80069766D01*
X46655021Y-80200546D01*
X46757010Y-80354053D01*
X46827243Y-80524451D01*
X46862972Y-80704899D01*
X46862972Y-80704904D01*
X46863040Y-80705248D01*
X46860101Y-80915758D01*
X46860024Y-80916096D01*
X46860024Y-80916106D01*
X46819270Y-81095486D01*
X46744308Y-81263852D01*
X46638068Y-81414456D01*
X46504599Y-81541557D01*
X46348984Y-81640314D01*
X46177154Y-81706962D01*
X45995652Y-81738966D01*
X45811386Y-81735106D01*
X45631379Y-81695529D01*
X45462488Y-81621743D01*
X45311150Y-81516560D01*
X45183121Y-81383982D01*
X45083281Y-81229061D01*
X45015432Y-81057693D01*
X44982163Y-80876423D01*
X44984735Y-80692136D01*
X45023056Y-80511856D01*
X45095659Y-80342457D01*
X45199787Y-80190384D01*
X45331466Y-80061433D01*
X45485687Y-79960514D01*
X45656572Y-79891472D01*
X45837609Y-79856938D01*
X46021915Y-79858224D01*
X46021915Y-79858224D01*
G37*
G36*
X30781915Y-79858224D02*
X30962448Y-79895283D01*
X31132358Y-79966706D01*
X31285149Y-80069766D01*
X31415021Y-80200546D01*
X31517010Y-80354053D01*
X31587243Y-80524451D01*
X31622972Y-80704899D01*
X31622972Y-80704904D01*
X31623040Y-80705248D01*
X31620101Y-80915758D01*
X31620024Y-80916096D01*
X31620024Y-80916106D01*
X31579270Y-81095486D01*
X31504308Y-81263852D01*
X31398068Y-81414456D01*
X31264599Y-81541557D01*
X31108984Y-81640314D01*
X30937154Y-81706962D01*
X30755652Y-81738966D01*
X30571386Y-81735106D01*
X30391379Y-81695529D01*
X30222488Y-81621743D01*
X30071150Y-81516560D01*
X29943121Y-81383982D01*
X29843281Y-81229061D01*
X29775432Y-81057693D01*
X29742163Y-80876423D01*
X29744735Y-80692136D01*
X29783056Y-80511856D01*
X29855659Y-80342457D01*
X29959787Y-80190384D01*
X30091466Y-80061433D01*
X30245687Y-79960514D01*
X30416572Y-79891472D01*
X30597609Y-79856938D01*
X30781915Y-79858224D01*
X30781915Y-79858224D01*
G37*
G36*
X23460549Y-79070277D02*
X23460554Y-79070278D01*
X23462607Y-79070292D01*
X23644880Y-79090737D01*
X23819712Y-79146197D01*
X23980441Y-79234558D01*
X24120946Y-79352456D01*
X24235876Y-79495400D01*
X24320852Y-79657945D01*
X24372639Y-79833899D01*
X24372643Y-79833940D01*
X24372644Y-79833944D01*
X24389263Y-80016558D01*
X24383670Y-80069768D01*
X24370090Y-80198973D01*
X24315852Y-80374187D01*
X24228615Y-80535529D01*
X24111700Y-80676855D01*
X23969562Y-80792779D01*
X23807615Y-80878888D01*
X23632026Y-80931902D01*
X23449485Y-80949800D01*
X23134083Y-80949800D01*
X23123051Y-80949723D01*
X23123046Y-80949722D01*
X23120993Y-80949708D01*
X22938720Y-80929263D01*
X22763888Y-80873803D01*
X22603159Y-80785442D01*
X22462654Y-80667544D01*
X22347724Y-80524600D01*
X22262748Y-80362055D01*
X22210961Y-80186101D01*
X22210957Y-80186060D01*
X22210956Y-80186056D01*
X22194337Y-80003442D01*
X22213505Y-79821074D01*
X22213510Y-79821027D01*
X22267748Y-79645813D01*
X22354985Y-79484471D01*
X22471900Y-79343145D01*
X22614038Y-79227221D01*
X22775985Y-79141112D01*
X22951574Y-79088098D01*
X23134115Y-79070200D01*
X23449517Y-79070200D01*
X23460549Y-79070277D01*
X23460549Y-79070277D01*
G37*
G36*
X30781915Y-77318224D02*
X30962448Y-77355283D01*
X31132358Y-77426706D01*
X31285149Y-77529766D01*
X31415021Y-77660546D01*
X31517010Y-77814053D01*
X31587243Y-77984451D01*
X31622972Y-78164899D01*
X31622972Y-78164904D01*
X31623040Y-78165248D01*
X31620101Y-78375758D01*
X31620024Y-78376096D01*
X31620024Y-78376106D01*
X31579270Y-78555486D01*
X31504308Y-78723852D01*
X31398068Y-78874456D01*
X31264599Y-79001557D01*
X31108984Y-79100314D01*
X30937154Y-79166962D01*
X30755652Y-79198966D01*
X30571386Y-79195106D01*
X30391379Y-79155529D01*
X30222488Y-79081743D01*
X30071150Y-78976560D01*
X29943121Y-78843982D01*
X29843281Y-78689061D01*
X29775432Y-78517693D01*
X29742163Y-78336423D01*
X29744735Y-78152136D01*
X29783056Y-77971856D01*
X29855659Y-77802457D01*
X29959787Y-77650384D01*
X30091466Y-77521433D01*
X30245687Y-77420514D01*
X30416572Y-77351472D01*
X30597609Y-77316938D01*
X30781915Y-77318224D01*
X30781915Y-77318224D01*
G37*
G36*
X46021915Y-77318224D02*
X46202448Y-77355283D01*
X46372358Y-77426706D01*
X46525149Y-77529766D01*
X46655021Y-77660546D01*
X46757010Y-77814053D01*
X46827243Y-77984451D01*
X46862972Y-78164899D01*
X46862972Y-78164904D01*
X46863040Y-78165248D01*
X46860101Y-78375758D01*
X46860024Y-78376096D01*
X46860024Y-78376106D01*
X46819270Y-78555486D01*
X46744308Y-78723852D01*
X46638068Y-78874456D01*
X46504599Y-79001557D01*
X46348984Y-79100314D01*
X46177154Y-79166962D01*
X45995652Y-79198966D01*
X45811386Y-79195106D01*
X45631379Y-79155529D01*
X45462488Y-79081743D01*
X45311150Y-78976560D01*
X45183121Y-78843982D01*
X45083281Y-78689061D01*
X45015432Y-78517693D01*
X44982163Y-78336423D01*
X44984735Y-78152136D01*
X45023056Y-77971856D01*
X45095659Y-77802457D01*
X45199787Y-77650384D01*
X45331466Y-77521433D01*
X45485687Y-77420514D01*
X45656572Y-77351472D01*
X45837609Y-77316938D01*
X46021915Y-77318224D01*
X46021915Y-77318224D01*
G37*
G36*
X23460549Y-76530277D02*
X23460554Y-76530278D01*
X23462607Y-76530292D01*
X23644880Y-76550737D01*
X23819712Y-76606197D01*
X23980441Y-76694558D01*
X24120946Y-76812456D01*
X24235876Y-76955400D01*
X24320852Y-77117945D01*
X24372639Y-77293899D01*
X24372643Y-77293940D01*
X24372644Y-77293944D01*
X24389263Y-77476558D01*
X24383670Y-77529768D01*
X24370090Y-77658973D01*
X24315852Y-77834187D01*
X24228615Y-77995529D01*
X24111700Y-78136855D01*
X23969562Y-78252779D01*
X23807615Y-78338888D01*
X23632026Y-78391902D01*
X23449485Y-78409800D01*
X23134083Y-78409800D01*
X23123051Y-78409723D01*
X23123046Y-78409722D01*
X23120993Y-78409708D01*
X22938720Y-78389263D01*
X22763888Y-78333803D01*
X22603159Y-78245442D01*
X22462654Y-78127544D01*
X22347724Y-77984600D01*
X22262748Y-77822055D01*
X22210961Y-77646101D01*
X22210957Y-77646060D01*
X22210956Y-77646056D01*
X22194337Y-77463442D01*
X22213505Y-77281074D01*
X22213510Y-77281027D01*
X22267748Y-77105813D01*
X22354985Y-76944471D01*
X22471900Y-76803145D01*
X22614038Y-76687221D01*
X22775985Y-76601112D01*
X22951574Y-76548098D01*
X23134115Y-76530200D01*
X23449517Y-76530200D01*
X23460549Y-76530277D01*
X23460549Y-76530277D01*
G37*
G36*
X30781915Y-74778224D02*
X30962448Y-74815283D01*
X31132358Y-74886706D01*
X31285149Y-74989766D01*
X31415021Y-75120546D01*
X31517010Y-75274053D01*
X31587243Y-75444451D01*
X31622972Y-75624899D01*
X31622972Y-75624904D01*
X31623040Y-75625248D01*
X31620101Y-75835758D01*
X31620024Y-75836096D01*
X31620024Y-75836106D01*
X31579270Y-76015486D01*
X31504308Y-76183852D01*
X31398068Y-76334456D01*
X31264599Y-76461557D01*
X31108984Y-76560314D01*
X30937154Y-76626962D01*
X30755652Y-76658966D01*
X30571386Y-76655106D01*
X30391379Y-76615529D01*
X30222488Y-76541743D01*
X30071150Y-76436560D01*
X29943121Y-76303982D01*
X29843281Y-76149061D01*
X29775432Y-75977693D01*
X29742163Y-75796423D01*
X29744735Y-75612136D01*
X29783056Y-75431856D01*
X29855659Y-75262457D01*
X29959787Y-75110384D01*
X30091466Y-74981433D01*
X30245687Y-74880514D01*
X30416572Y-74811472D01*
X30597609Y-74776938D01*
X30781915Y-74778224D01*
X30781915Y-74778224D01*
G37*
G36*
X46021915Y-74778224D02*
X46202448Y-74815283D01*
X46372358Y-74886706D01*
X46525149Y-74989766D01*
X46655021Y-75120546D01*
X46757010Y-75274053D01*
X46827243Y-75444451D01*
X46862972Y-75624899D01*
X46862972Y-75624904D01*
X46863040Y-75625248D01*
X46860101Y-75835758D01*
X46860024Y-75836096D01*
X46860024Y-75836106D01*
X46819270Y-76015486D01*
X46744308Y-76183852D01*
X46638068Y-76334456D01*
X46504599Y-76461557D01*
X46348984Y-76560314D01*
X46177154Y-76626962D01*
X45995652Y-76658966D01*
X45811386Y-76655106D01*
X45631379Y-76615529D01*
X45462488Y-76541743D01*
X45311150Y-76436560D01*
X45183121Y-76303982D01*
X45083281Y-76149061D01*
X45015432Y-75977693D01*
X44982163Y-75796423D01*
X44984735Y-75612136D01*
X45023056Y-75431856D01*
X45095659Y-75262457D01*
X45199787Y-75110384D01*
X45331466Y-74981433D01*
X45485687Y-74880514D01*
X45656572Y-74811472D01*
X45837609Y-74776938D01*
X46021915Y-74778224D01*
X46021915Y-74778224D01*
G37*
G36*
X24384000Y-75869800D02*
X22199600Y-75869800D01*
X22199600Y-73990200D01*
X24384000Y-73990200D01*
X24384000Y-75869800D01*
X24384000Y-75869800D01*
G37*
G36*
X59385200Y-74371200D02*
X57200800Y-74371200D01*
X57200800Y-72186800D01*
X59385200Y-72186800D01*
X59385200Y-74371200D01*
X59385200Y-74371200D01*
G37*
G36*
X46021915Y-72238224D02*
X46202448Y-72275283D01*
X46372358Y-72346706D01*
X46525149Y-72449766D01*
X46655021Y-72580546D01*
X46757010Y-72734053D01*
X46827243Y-72904451D01*
X46862972Y-73084899D01*
X46862972Y-73084904D01*
X46863040Y-73085248D01*
X46860101Y-73295758D01*
X46860024Y-73296096D01*
X46860024Y-73296106D01*
X46819270Y-73475486D01*
X46744308Y-73643852D01*
X46638068Y-73794456D01*
X46504599Y-73921557D01*
X46348984Y-74020314D01*
X46177154Y-74086962D01*
X45995652Y-74118966D01*
X45811386Y-74115106D01*
X45631379Y-74075529D01*
X45462488Y-74001743D01*
X45311150Y-73896560D01*
X45183121Y-73763982D01*
X45083281Y-73609061D01*
X45015432Y-73437693D01*
X44982163Y-73256423D01*
X44984735Y-73072136D01*
X45023056Y-72891856D01*
X45095659Y-72722457D01*
X45199787Y-72570384D01*
X45331466Y-72441433D01*
X45485687Y-72340514D01*
X45656572Y-72271472D01*
X45837609Y-72236938D01*
X46021915Y-72238224D01*
X46021915Y-72238224D01*
G37*
G36*
X30781915Y-72238224D02*
X30962448Y-72275283D01*
X31132358Y-72346706D01*
X31285149Y-72449766D01*
X31415021Y-72580546D01*
X31517010Y-72734053D01*
X31587243Y-72904451D01*
X31622972Y-73084899D01*
X31622972Y-73084904D01*
X31623040Y-73085248D01*
X31620101Y-73295758D01*
X31620024Y-73296096D01*
X31620024Y-73296106D01*
X31579270Y-73475486D01*
X31504308Y-73643852D01*
X31398068Y-73794456D01*
X31264599Y-73921557D01*
X31108984Y-74020314D01*
X30937154Y-74086962D01*
X30755652Y-74118966D01*
X30571386Y-74115106D01*
X30391379Y-74075529D01*
X30222488Y-74001743D01*
X30071150Y-73896560D01*
X29943121Y-73763982D01*
X29843281Y-73609061D01*
X29775432Y-73437693D01*
X29742163Y-73256423D01*
X29744735Y-73072136D01*
X29783056Y-72891856D01*
X29855659Y-72722457D01*
X29959787Y-72570384D01*
X30091466Y-72441433D01*
X30245687Y-72340514D01*
X30416572Y-72271472D01*
X30597609Y-72236938D01*
X30781915Y-72238224D01*
X30781915Y-72238224D01*
G37*
G36*
X58304395Y-69646842D02*
X58313534Y-69646906D01*
X58525366Y-69670667D01*
X58728548Y-69735120D01*
X58915342Y-69837811D01*
X59078632Y-69974828D01*
X59212199Y-70140951D01*
X59310955Y-70329855D01*
X59371139Y-70534342D01*
X59371143Y-70534383D01*
X59371144Y-70534387D01*
X59390459Y-70746623D01*
X59368183Y-70958570D01*
X59368181Y-70958575D01*
X59368177Y-70958617D01*
X59305144Y-71162245D01*
X59203760Y-71349750D01*
X59067886Y-71513993D01*
X58902699Y-71648717D01*
X58714490Y-71748789D01*
X58510428Y-71810399D01*
X58298285Y-71831200D01*
X58287679Y-71831200D01*
X58281605Y-71831158D01*
X58272466Y-71831094D01*
X58060634Y-71807333D01*
X57857452Y-71742880D01*
X57670658Y-71640189D01*
X57507368Y-71503172D01*
X57373801Y-71337049D01*
X57275045Y-71148145D01*
X57214861Y-70943658D01*
X57214857Y-70943617D01*
X57214856Y-70943613D01*
X57195541Y-70731377D01*
X57217817Y-70519430D01*
X57217819Y-70519425D01*
X57217823Y-70519383D01*
X57280856Y-70315755D01*
X57382240Y-70128250D01*
X57518114Y-69964007D01*
X57683301Y-69829283D01*
X57871510Y-69729211D01*
X58075572Y-69667601D01*
X58287715Y-69646800D01*
X58298321Y-69646800D01*
X58304395Y-69646842D01*
X58304395Y-69646842D01*
G37*
G36*
X46021915Y-69698224D02*
X46202448Y-69735283D01*
X46372358Y-69806706D01*
X46525149Y-69909766D01*
X46655021Y-70040546D01*
X46757010Y-70194053D01*
X46827243Y-70364451D01*
X46862972Y-70544899D01*
X46862972Y-70544904D01*
X46863040Y-70545248D01*
X46860101Y-70755758D01*
X46860024Y-70756096D01*
X46860024Y-70756106D01*
X46819270Y-70935486D01*
X46744308Y-71103852D01*
X46638068Y-71254456D01*
X46504599Y-71381557D01*
X46348984Y-71480314D01*
X46177154Y-71546962D01*
X45995652Y-71578966D01*
X45811386Y-71575106D01*
X45631379Y-71535529D01*
X45462488Y-71461743D01*
X45311150Y-71356560D01*
X45183121Y-71223982D01*
X45083281Y-71069061D01*
X45015432Y-70897693D01*
X44982163Y-70716423D01*
X44984735Y-70532136D01*
X45023056Y-70351856D01*
X45095659Y-70182457D01*
X45199787Y-70030384D01*
X45331466Y-69901433D01*
X45485687Y-69800514D01*
X45656572Y-69731472D01*
X45837609Y-69696938D01*
X46021915Y-69698224D01*
X46021915Y-69698224D01*
G37*
G36*
X30781915Y-69698224D02*
X30962448Y-69735283D01*
X31132358Y-69806706D01*
X31285149Y-69909766D01*
X31415021Y-70040546D01*
X31517010Y-70194053D01*
X31587243Y-70364451D01*
X31622972Y-70544899D01*
X31622972Y-70544904D01*
X31623040Y-70545248D01*
X31620101Y-70755758D01*
X31620024Y-70756096D01*
X31620024Y-70756106D01*
X31579270Y-70935486D01*
X31504308Y-71103852D01*
X31398068Y-71254456D01*
X31264599Y-71381557D01*
X31108984Y-71480314D01*
X30937154Y-71546962D01*
X30755652Y-71578966D01*
X30571386Y-71575106D01*
X30391379Y-71535529D01*
X30222488Y-71461743D01*
X30071150Y-71356560D01*
X29943121Y-71223982D01*
X29843281Y-71069061D01*
X29775432Y-70897693D01*
X29742163Y-70716423D01*
X29744735Y-70532136D01*
X29783056Y-70351856D01*
X29855659Y-70182457D01*
X29959787Y-70030384D01*
X30091466Y-69901433D01*
X30245687Y-69800514D01*
X30416572Y-69731472D01*
X30597609Y-69696938D01*
X30781915Y-69698224D01*
X30781915Y-69698224D01*
G37*
G36*
X58304395Y-67106842D02*
X58313534Y-67106906D01*
X58525366Y-67130667D01*
X58728548Y-67195120D01*
X58915342Y-67297811D01*
X59078632Y-67434828D01*
X59212199Y-67600951D01*
X59310955Y-67789855D01*
X59371139Y-67994342D01*
X59371143Y-67994383D01*
X59371144Y-67994387D01*
X59390459Y-68206623D01*
X59368183Y-68418570D01*
X59368181Y-68418575D01*
X59368177Y-68418617D01*
X59305144Y-68622245D01*
X59203760Y-68809750D01*
X59067886Y-68973993D01*
X58902699Y-69108717D01*
X58714490Y-69208789D01*
X58510428Y-69270399D01*
X58298285Y-69291200D01*
X58287679Y-69291200D01*
X58281605Y-69291158D01*
X58272466Y-69291094D01*
X58060634Y-69267333D01*
X57857452Y-69202880D01*
X57670658Y-69100189D01*
X57507368Y-68963172D01*
X57373801Y-68797049D01*
X57275045Y-68608145D01*
X57214861Y-68403658D01*
X57214857Y-68403617D01*
X57214856Y-68403613D01*
X57195541Y-68191377D01*
X57217817Y-67979430D01*
X57217819Y-67979425D01*
X57217823Y-67979383D01*
X57280856Y-67775755D01*
X57382240Y-67588250D01*
X57518114Y-67424007D01*
X57683301Y-67289283D01*
X57871510Y-67189211D01*
X58075572Y-67127601D01*
X58287715Y-67106800D01*
X58298321Y-67106800D01*
X58304395Y-67106842D01*
X58304395Y-67106842D01*
G37*
G36*
X30781915Y-67158224D02*
X30962448Y-67195283D01*
X31132358Y-67266706D01*
X31285149Y-67369766D01*
X31415021Y-67500546D01*
X31517010Y-67654053D01*
X31587243Y-67824451D01*
X31622972Y-68004899D01*
X31622972Y-68004904D01*
X31623040Y-68005248D01*
X31620101Y-68215758D01*
X31620024Y-68216096D01*
X31620024Y-68216106D01*
X31579270Y-68395486D01*
X31504308Y-68563852D01*
X31398068Y-68714456D01*
X31264599Y-68841557D01*
X31108984Y-68940314D01*
X30937154Y-69006962D01*
X30755652Y-69038966D01*
X30571386Y-69035106D01*
X30391379Y-68995529D01*
X30222488Y-68921743D01*
X30071150Y-68816560D01*
X29943121Y-68683982D01*
X29843281Y-68529061D01*
X29775432Y-68357693D01*
X29742163Y-68176423D01*
X29744735Y-67992136D01*
X29783056Y-67811856D01*
X29855659Y-67642457D01*
X29959787Y-67490384D01*
X30091466Y-67361433D01*
X30245687Y-67260514D01*
X30416572Y-67191472D01*
X30597609Y-67156938D01*
X30781915Y-67158224D01*
X30781915Y-67158224D01*
G37*
G36*
X46021915Y-67158224D02*
X46202448Y-67195283D01*
X46372358Y-67266706D01*
X46525149Y-67369766D01*
X46655021Y-67500546D01*
X46757010Y-67654053D01*
X46827243Y-67824451D01*
X46862972Y-68004899D01*
X46862972Y-68004904D01*
X46863040Y-68005248D01*
X46860101Y-68215758D01*
X46860024Y-68216096D01*
X46860024Y-68216106D01*
X46819270Y-68395486D01*
X46744308Y-68563852D01*
X46638068Y-68714456D01*
X46504599Y-68841557D01*
X46348984Y-68940314D01*
X46177154Y-69006962D01*
X45995652Y-69038966D01*
X45811386Y-69035106D01*
X45631379Y-68995529D01*
X45462488Y-68921743D01*
X45311150Y-68816560D01*
X45183121Y-68683982D01*
X45083281Y-68529061D01*
X45015432Y-68357693D01*
X44982163Y-68176423D01*
X44984735Y-67992136D01*
X45023056Y-67811856D01*
X45095659Y-67642457D01*
X45199787Y-67490384D01*
X45331466Y-67361433D01*
X45485687Y-67260514D01*
X45656572Y-67191472D01*
X45837609Y-67156938D01*
X46021915Y-67158224D01*
X46021915Y-67158224D01*
G37*
G36*
X58304395Y-64566842D02*
X58313534Y-64566906D01*
X58525366Y-64590667D01*
X58728548Y-64655120D01*
X58915342Y-64757811D01*
X59078632Y-64894828D01*
X59212199Y-65060951D01*
X59310955Y-65249855D01*
X59371139Y-65454342D01*
X59371143Y-65454383D01*
X59371144Y-65454387D01*
X59390459Y-65666623D01*
X59368183Y-65878570D01*
X59368181Y-65878575D01*
X59368177Y-65878617D01*
X59305144Y-66082245D01*
X59203760Y-66269750D01*
X59067886Y-66433993D01*
X58902699Y-66568717D01*
X58714490Y-66668789D01*
X58510428Y-66730399D01*
X58298285Y-66751200D01*
X58287679Y-66751200D01*
X58281605Y-66751158D01*
X58272466Y-66751094D01*
X58060634Y-66727333D01*
X57857452Y-66662880D01*
X57670658Y-66560189D01*
X57507368Y-66423172D01*
X57373801Y-66257049D01*
X57275045Y-66068145D01*
X57214861Y-65863658D01*
X57214857Y-65863617D01*
X57214856Y-65863613D01*
X57195541Y-65651377D01*
X57217817Y-65439430D01*
X57217819Y-65439425D01*
X57217823Y-65439383D01*
X57280856Y-65235755D01*
X57382240Y-65048250D01*
X57518114Y-64884007D01*
X57683301Y-64749283D01*
X57871510Y-64649211D01*
X58075572Y-64587601D01*
X58287715Y-64566800D01*
X58298321Y-64566800D01*
X58304395Y-64566842D01*
X58304395Y-64566842D01*
G37*
G36*
X46021915Y-64618224D02*
X46202448Y-64655283D01*
X46372358Y-64726706D01*
X46525149Y-64829766D01*
X46655021Y-64960546D01*
X46757010Y-65114053D01*
X46827243Y-65284451D01*
X46862972Y-65464899D01*
X46862972Y-65464904D01*
X46863040Y-65465248D01*
X46860101Y-65675758D01*
X46860024Y-65676096D01*
X46860024Y-65676106D01*
X46819270Y-65855486D01*
X46744308Y-66023852D01*
X46638068Y-66174456D01*
X46504599Y-66301557D01*
X46348984Y-66400314D01*
X46177154Y-66466962D01*
X45995652Y-66498966D01*
X45811386Y-66495106D01*
X45631379Y-66455529D01*
X45462488Y-66381743D01*
X45311150Y-66276560D01*
X45183121Y-66143982D01*
X45083281Y-65989061D01*
X45015432Y-65817693D01*
X44982163Y-65636423D01*
X44984735Y-65452136D01*
X45023056Y-65271856D01*
X45095659Y-65102457D01*
X45199787Y-64950384D01*
X45331466Y-64821433D01*
X45485687Y-64720514D01*
X45656572Y-64651472D01*
X45837609Y-64616938D01*
X46021915Y-64618224D01*
X46021915Y-64618224D01*
G37*
G36*
X30781915Y-64618224D02*
X30962448Y-64655283D01*
X31132358Y-64726706D01*
X31285149Y-64829766D01*
X31415021Y-64960546D01*
X31517010Y-65114053D01*
X31587243Y-65284451D01*
X31622972Y-65464899D01*
X31622972Y-65464904D01*
X31623040Y-65465248D01*
X31620101Y-65675758D01*
X31620024Y-65676096D01*
X31620024Y-65676106D01*
X31579270Y-65855486D01*
X31504308Y-66023852D01*
X31398068Y-66174456D01*
X31264599Y-66301557D01*
X31108984Y-66400314D01*
X30937154Y-66466962D01*
X30755652Y-66498966D01*
X30571386Y-66495106D01*
X30391379Y-66455529D01*
X30222488Y-66381743D01*
X30071150Y-66276560D01*
X29943121Y-66143982D01*
X29843281Y-65989061D01*
X29775432Y-65817693D01*
X29742163Y-65636423D01*
X29744735Y-65452136D01*
X29783056Y-65271856D01*
X29855659Y-65102457D01*
X29959787Y-64950384D01*
X30091466Y-64821433D01*
X30245687Y-64720514D01*
X30416572Y-64651472D01*
X30597609Y-64616938D01*
X30781915Y-64618224D01*
X30781915Y-64618224D01*
G37*
G36*
X23460549Y-63830277D02*
X23460554Y-63830278D01*
X23462607Y-63830292D01*
X23644880Y-63850737D01*
X23819712Y-63906197D01*
X23980441Y-63994558D01*
X24120946Y-64112456D01*
X24235876Y-64255400D01*
X24320852Y-64417945D01*
X24372639Y-64593899D01*
X24372643Y-64593940D01*
X24372644Y-64593944D01*
X24389263Y-64776558D01*
X24383670Y-64829768D01*
X24370090Y-64958973D01*
X24315852Y-65134187D01*
X24228615Y-65295529D01*
X24111700Y-65436855D01*
X23969562Y-65552779D01*
X23807615Y-65638888D01*
X23632026Y-65691902D01*
X23449485Y-65709800D01*
X23134083Y-65709800D01*
X23123051Y-65709723D01*
X23123046Y-65709722D01*
X23120993Y-65709708D01*
X22938720Y-65689263D01*
X22763888Y-65633803D01*
X22603159Y-65545442D01*
X22462654Y-65427544D01*
X22347724Y-65284600D01*
X22262748Y-65122055D01*
X22210961Y-64946101D01*
X22210957Y-64946060D01*
X22210956Y-64946056D01*
X22194337Y-64763442D01*
X22213505Y-64581074D01*
X22213510Y-64581027D01*
X22267748Y-64405813D01*
X22354985Y-64244471D01*
X22471900Y-64103145D01*
X22614038Y-63987221D01*
X22775985Y-63901112D01*
X22951574Y-63848098D01*
X23134115Y-63830200D01*
X23449517Y-63830200D01*
X23460549Y-63830277D01*
X23460549Y-63830277D01*
G37*
G36*
X58304395Y-62026842D02*
X58313534Y-62026906D01*
X58525366Y-62050667D01*
X58728548Y-62115120D01*
X58915342Y-62217811D01*
X59078632Y-62354828D01*
X59212199Y-62520951D01*
X59310955Y-62709855D01*
X59371139Y-62914342D01*
X59371143Y-62914383D01*
X59371144Y-62914387D01*
X59390459Y-63126623D01*
X59368183Y-63338570D01*
X59368181Y-63338575D01*
X59368177Y-63338617D01*
X59305144Y-63542245D01*
X59203760Y-63729750D01*
X59067886Y-63893993D01*
X58902699Y-64028717D01*
X58714490Y-64128789D01*
X58510428Y-64190399D01*
X58298285Y-64211200D01*
X58287679Y-64211200D01*
X58281605Y-64211158D01*
X58272466Y-64211094D01*
X58060634Y-64187333D01*
X57857452Y-64122880D01*
X57670658Y-64020189D01*
X57507368Y-63883172D01*
X57373801Y-63717049D01*
X57275045Y-63528145D01*
X57214861Y-63323658D01*
X57214857Y-63323617D01*
X57214856Y-63323613D01*
X57195541Y-63111377D01*
X57217817Y-62899430D01*
X57217819Y-62899425D01*
X57217823Y-62899383D01*
X57280856Y-62695755D01*
X57382240Y-62508250D01*
X57518114Y-62344007D01*
X57683301Y-62209283D01*
X57871510Y-62109211D01*
X58075572Y-62047601D01*
X58287715Y-62026800D01*
X58298321Y-62026800D01*
X58304395Y-62026842D01*
X58304395Y-62026842D01*
G37*
G36*
X46021915Y-62078224D02*
X46202448Y-62115283D01*
X46372358Y-62186706D01*
X46525149Y-62289766D01*
X46655021Y-62420546D01*
X46757010Y-62574053D01*
X46827243Y-62744451D01*
X46862972Y-62924899D01*
X46862972Y-62924904D01*
X46863040Y-62925248D01*
X46860101Y-63135758D01*
X46860024Y-63136096D01*
X46860024Y-63136106D01*
X46819270Y-63315486D01*
X46744308Y-63483852D01*
X46638068Y-63634456D01*
X46504599Y-63761557D01*
X46348984Y-63860314D01*
X46177154Y-63926962D01*
X45995652Y-63958966D01*
X45811386Y-63955106D01*
X45631379Y-63915529D01*
X45462488Y-63841743D01*
X45311150Y-63736560D01*
X45183121Y-63603982D01*
X45083281Y-63449061D01*
X45015432Y-63277693D01*
X44982163Y-63096423D01*
X44984735Y-62912136D01*
X45023056Y-62731856D01*
X45095659Y-62562457D01*
X45199787Y-62410384D01*
X45331466Y-62281433D01*
X45485687Y-62180514D01*
X45656572Y-62111472D01*
X45837609Y-62076938D01*
X46021915Y-62078224D01*
X46021915Y-62078224D01*
G37*
G36*
X30781915Y-62078224D02*
X30962448Y-62115283D01*
X31132358Y-62186706D01*
X31285149Y-62289766D01*
X31415021Y-62420546D01*
X31517010Y-62574053D01*
X31587243Y-62744451D01*
X31622972Y-62924899D01*
X31622972Y-62924904D01*
X31623040Y-62925248D01*
X31620101Y-63135758D01*
X31620024Y-63136096D01*
X31620024Y-63136106D01*
X31579270Y-63315486D01*
X31504308Y-63483852D01*
X31398068Y-63634456D01*
X31264599Y-63761557D01*
X31108984Y-63860314D01*
X30937154Y-63926962D01*
X30755652Y-63958966D01*
X30571386Y-63955106D01*
X30391379Y-63915529D01*
X30222488Y-63841743D01*
X30071150Y-63736560D01*
X29943121Y-63603982D01*
X29843281Y-63449061D01*
X29775432Y-63277693D01*
X29742163Y-63096423D01*
X29744735Y-62912136D01*
X29783056Y-62731856D01*
X29855659Y-62562457D01*
X29959787Y-62410384D01*
X30091466Y-62281433D01*
X30245687Y-62180514D01*
X30416572Y-62111472D01*
X30597609Y-62076938D01*
X30781915Y-62078224D01*
X30781915Y-62078224D01*
G37*
G36*
X23460549Y-61290277D02*
X23460554Y-61290278D01*
X23462607Y-61290292D01*
X23644880Y-61310737D01*
X23819712Y-61366197D01*
X23980441Y-61454558D01*
X24120946Y-61572456D01*
X24235876Y-61715400D01*
X24320852Y-61877945D01*
X24372639Y-62053899D01*
X24372643Y-62053940D01*
X24372644Y-62053944D01*
X24389263Y-62236558D01*
X24383670Y-62289768D01*
X24370090Y-62418973D01*
X24315852Y-62594187D01*
X24228615Y-62755529D01*
X24111700Y-62896855D01*
X23969562Y-63012779D01*
X23807615Y-63098888D01*
X23632026Y-63151902D01*
X23449485Y-63169800D01*
X23134083Y-63169800D01*
X23123051Y-63169723D01*
X23123046Y-63169722D01*
X23120993Y-63169708D01*
X22938720Y-63149263D01*
X22763888Y-63093803D01*
X22603159Y-63005442D01*
X22462654Y-62887544D01*
X22347724Y-62744600D01*
X22262748Y-62582055D01*
X22210961Y-62406101D01*
X22210957Y-62406060D01*
X22210956Y-62406056D01*
X22194337Y-62223442D01*
X22213505Y-62041074D01*
X22213510Y-62041027D01*
X22267748Y-61865813D01*
X22354985Y-61704471D01*
X22471900Y-61563145D01*
X22614038Y-61447221D01*
X22775985Y-61361112D01*
X22951574Y-61308098D01*
X23134115Y-61290200D01*
X23449517Y-61290200D01*
X23460549Y-61290277D01*
X23460549Y-61290277D01*
G37*
G36*
X46021915Y-59538224D02*
X46202448Y-59575283D01*
X46372358Y-59646706D01*
X46525149Y-59749766D01*
X46655021Y-59880546D01*
X46757010Y-60034053D01*
X46827243Y-60204451D01*
X46862972Y-60384899D01*
X46862972Y-60384904D01*
X46863040Y-60385248D01*
X46860101Y-60595758D01*
X46860024Y-60596096D01*
X46860024Y-60596106D01*
X46819270Y-60775486D01*
X46744308Y-60943852D01*
X46638068Y-61094456D01*
X46504599Y-61221557D01*
X46348984Y-61320314D01*
X46177154Y-61386962D01*
X45995652Y-61418966D01*
X45811386Y-61415106D01*
X45631379Y-61375529D01*
X45462488Y-61301743D01*
X45311150Y-61196560D01*
X45183121Y-61063982D01*
X45083281Y-60909061D01*
X45015432Y-60737693D01*
X44982163Y-60556423D01*
X44984735Y-60372136D01*
X45023056Y-60191856D01*
X45095659Y-60022457D01*
X45199787Y-59870384D01*
X45331466Y-59741433D01*
X45485687Y-59640514D01*
X45656572Y-59571472D01*
X45837609Y-59536938D01*
X46021915Y-59538224D01*
X46021915Y-59538224D01*
G37*
G36*
X30781915Y-59538224D02*
X30962448Y-59575283D01*
X31132358Y-59646706D01*
X31285149Y-59749766D01*
X31415021Y-59880546D01*
X31517010Y-60034053D01*
X31587243Y-60204451D01*
X31622972Y-60384899D01*
X31622972Y-60384904D01*
X31623040Y-60385248D01*
X31620101Y-60595758D01*
X31620024Y-60596096D01*
X31620024Y-60596106D01*
X31579270Y-60775486D01*
X31504308Y-60943852D01*
X31398068Y-61094456D01*
X31264599Y-61221557D01*
X31108984Y-61320314D01*
X30937154Y-61386962D01*
X30755652Y-61418966D01*
X30571386Y-61415106D01*
X30391379Y-61375529D01*
X30222488Y-61301743D01*
X30071150Y-61196560D01*
X29943121Y-61063982D01*
X29843281Y-60909061D01*
X29775432Y-60737693D01*
X29742163Y-60556423D01*
X29744735Y-60372136D01*
X29783056Y-60191856D01*
X29855659Y-60022457D01*
X29959787Y-59870384D01*
X30091466Y-59741433D01*
X30245687Y-59640514D01*
X30416572Y-59571472D01*
X30597609Y-59536938D01*
X30781915Y-59538224D01*
X30781915Y-59538224D01*
G37*
G36*
X24384000Y-60629800D02*
X22199600Y-60629800D01*
X22199600Y-58750200D01*
X24384000Y-58750200D01*
X24384000Y-60629800D01*
X24384000Y-60629800D01*
G37*
G36*
X51344788Y-57150224D02*
X51551426Y-57192641D01*
X51745904Y-57274392D01*
X51920791Y-57392355D01*
X52069436Y-57542041D01*
X52186175Y-57717748D01*
X52266563Y-57912784D01*
X52307469Y-58119374D01*
X52307469Y-58119384D01*
X52307536Y-58119723D01*
X52304172Y-58360672D01*
X52304095Y-58361010D01*
X52304095Y-58361019D01*
X52257437Y-58566387D01*
X52171636Y-58759099D01*
X52050034Y-58931480D01*
X51897266Y-59076959D01*
X51719153Y-59189993D01*
X51522472Y-59266280D01*
X51314727Y-59302912D01*
X51103817Y-59298493D01*
X50897784Y-59253195D01*
X50704472Y-59168738D01*
X50531251Y-59048346D01*
X50384709Y-58896599D01*
X50270433Y-58719276D01*
X50192773Y-58523131D01*
X50154693Y-58315649D01*
X50157638Y-58104715D01*
X50201499Y-57898368D01*
X50284602Y-57704474D01*
X50403785Y-57530412D01*
X50554504Y-57382816D01*
X50731025Y-57267305D01*
X50926619Y-57188279D01*
X51133833Y-57148752D01*
X51344788Y-57150224D01*
X51344788Y-57150224D01*
G37*
G36*
X58989988Y-57116424D02*
X59196626Y-57158841D01*
X59391104Y-57240592D01*
X59565991Y-57358555D01*
X59714636Y-57508241D01*
X59831375Y-57683948D01*
X59911763Y-57878984D01*
X59952669Y-58085574D01*
X59952669Y-58085584D01*
X59952736Y-58085923D01*
X59949372Y-58326872D01*
X59949295Y-58327210D01*
X59949295Y-58327219D01*
X59902637Y-58532587D01*
X59816836Y-58725299D01*
X59695234Y-58897680D01*
X59542466Y-59043159D01*
X59364353Y-59156193D01*
X59167672Y-59232480D01*
X58959927Y-59269112D01*
X58749017Y-59264693D01*
X58542984Y-59219395D01*
X58349672Y-59134938D01*
X58176451Y-59014546D01*
X58029909Y-58862799D01*
X57915633Y-58685476D01*
X57837973Y-58489331D01*
X57799893Y-58281849D01*
X57802838Y-58070915D01*
X57846699Y-57864568D01*
X57929802Y-57670674D01*
X58048985Y-57496612D01*
X58199704Y-57349016D01*
X58376225Y-57233505D01*
X58571819Y-57154479D01*
X58779033Y-57114952D01*
X58989988Y-57116424D01*
X58989988Y-57116424D01*
G37*
G36*
X30781915Y-56998224D02*
X30962448Y-57035283D01*
X31132358Y-57106706D01*
X31285149Y-57209766D01*
X31415021Y-57340546D01*
X31517010Y-57494053D01*
X31587243Y-57664451D01*
X31622972Y-57844899D01*
X31622972Y-57844904D01*
X31623040Y-57845248D01*
X31620101Y-58055758D01*
X31620024Y-58056096D01*
X31620024Y-58056106D01*
X31579270Y-58235486D01*
X31504308Y-58403852D01*
X31398068Y-58554456D01*
X31264599Y-58681557D01*
X31108984Y-58780314D01*
X30937154Y-58846962D01*
X30755652Y-58878966D01*
X30571386Y-58875106D01*
X30391379Y-58835529D01*
X30222488Y-58761743D01*
X30071150Y-58656560D01*
X29943121Y-58523982D01*
X29843281Y-58369061D01*
X29775432Y-58197693D01*
X29742163Y-58016423D01*
X29744735Y-57832136D01*
X29783056Y-57651856D01*
X29855659Y-57482457D01*
X29959787Y-57330384D01*
X30091466Y-57201433D01*
X30245687Y-57100514D01*
X30416572Y-57031472D01*
X30597609Y-56996938D01*
X30781915Y-56998224D01*
X30781915Y-56998224D01*
G37*
G36*
X46021915Y-56998224D02*
X46202448Y-57035283D01*
X46372358Y-57106706D01*
X46525149Y-57209766D01*
X46655021Y-57340546D01*
X46757010Y-57494053D01*
X46827243Y-57664451D01*
X46862972Y-57844899D01*
X46862972Y-57844904D01*
X46863040Y-57845248D01*
X46860101Y-58055758D01*
X46860024Y-58056096D01*
X46860024Y-58056106D01*
X46819270Y-58235486D01*
X46744308Y-58403852D01*
X46638068Y-58554456D01*
X46504599Y-58681557D01*
X46348984Y-58780314D01*
X46177154Y-58846962D01*
X45995652Y-58878966D01*
X45811386Y-58875106D01*
X45631379Y-58835529D01*
X45462488Y-58761743D01*
X45311150Y-58656560D01*
X45183121Y-58523982D01*
X45083281Y-58369061D01*
X45015432Y-58197693D01*
X44982163Y-58016423D01*
X44984735Y-57832136D01*
X45023056Y-57651856D01*
X45095659Y-57482457D01*
X45199787Y-57330384D01*
X45331466Y-57201433D01*
X45485687Y-57100514D01*
X45656572Y-57031472D01*
X45837609Y-56996938D01*
X46021915Y-56998224D01*
X46021915Y-56998224D01*
G37*
G36*
X30781915Y-54458224D02*
X30962448Y-54495283D01*
X31132358Y-54566706D01*
X31285149Y-54669766D01*
X31415021Y-54800546D01*
X31517010Y-54954053D01*
X31587243Y-55124451D01*
X31622972Y-55304899D01*
X31622972Y-55304904D01*
X31623040Y-55305248D01*
X31620101Y-55515758D01*
X31620024Y-55516096D01*
X31620024Y-55516106D01*
X31579270Y-55695486D01*
X31504308Y-55863852D01*
X31398068Y-56014456D01*
X31264599Y-56141557D01*
X31108984Y-56240314D01*
X30937154Y-56306962D01*
X30755652Y-56338966D01*
X30571386Y-56335106D01*
X30391379Y-56295529D01*
X30222488Y-56221743D01*
X30071150Y-56116560D01*
X29943121Y-55983982D01*
X29843281Y-55829061D01*
X29775432Y-55657693D01*
X29742163Y-55476423D01*
X29744735Y-55292136D01*
X29783056Y-55111856D01*
X29855659Y-54942457D01*
X29959787Y-54790384D01*
X30091466Y-54661433D01*
X30245687Y-54560514D01*
X30416572Y-54491472D01*
X30597609Y-54456938D01*
X30781915Y-54458224D01*
X30781915Y-54458224D01*
G37*
G36*
X46021915Y-54458224D02*
X46202448Y-54495283D01*
X46372358Y-54566706D01*
X46525149Y-54669766D01*
X46655021Y-54800546D01*
X46757010Y-54954053D01*
X46827243Y-55124451D01*
X46862972Y-55304899D01*
X46862972Y-55304904D01*
X46863040Y-55305248D01*
X46860101Y-55515758D01*
X46860024Y-55516096D01*
X46860024Y-55516106D01*
X46819270Y-55695486D01*
X46744308Y-55863852D01*
X46638068Y-56014456D01*
X46504599Y-56141557D01*
X46348984Y-56240314D01*
X46177154Y-56306962D01*
X45995652Y-56338966D01*
X45811386Y-56335106D01*
X45631379Y-56295529D01*
X45462488Y-56221743D01*
X45311150Y-56116560D01*
X45183121Y-55983982D01*
X45083281Y-55829061D01*
X45015432Y-55657693D01*
X44982163Y-55476423D01*
X44984735Y-55292136D01*
X45023056Y-55111856D01*
X45095659Y-54942457D01*
X45199787Y-54790384D01*
X45331466Y-54661433D01*
X45485687Y-54560514D01*
X45656572Y-54491472D01*
X45837609Y-54456938D01*
X46021915Y-54458224D01*
X46021915Y-54458224D01*
G37*
G36*
X30781915Y-51918224D02*
X30962448Y-51955283D01*
X31132358Y-52026706D01*
X31285149Y-52129766D01*
X31415021Y-52260546D01*
X31517010Y-52414053D01*
X31587243Y-52584451D01*
X31622972Y-52764899D01*
X31622972Y-52764904D01*
X31623040Y-52765248D01*
X31620101Y-52975758D01*
X31620024Y-52976096D01*
X31620024Y-52976106D01*
X31579270Y-53155486D01*
X31504308Y-53323852D01*
X31398068Y-53474456D01*
X31264599Y-53601557D01*
X31108984Y-53700314D01*
X30937154Y-53766962D01*
X30755652Y-53798966D01*
X30571386Y-53795106D01*
X30391379Y-53755529D01*
X30222488Y-53681743D01*
X30071150Y-53576560D01*
X29943121Y-53443982D01*
X29843281Y-53289061D01*
X29775432Y-53117693D01*
X29742163Y-52936423D01*
X29744735Y-52752136D01*
X29783056Y-52571856D01*
X29855659Y-52402457D01*
X29959787Y-52250384D01*
X30091466Y-52121433D01*
X30245687Y-52020514D01*
X30416572Y-51951472D01*
X30597609Y-51916938D01*
X30781915Y-51918224D01*
X30781915Y-51918224D01*
G37*
G36*
X46021915Y-51918224D02*
X46202448Y-51955283D01*
X46372358Y-52026706D01*
X46525149Y-52129766D01*
X46655021Y-52260546D01*
X46757010Y-52414053D01*
X46827243Y-52584451D01*
X46862972Y-52764899D01*
X46862972Y-52764904D01*
X46863040Y-52765248D01*
X46860101Y-52975758D01*
X46860024Y-52976096D01*
X46860024Y-52976106D01*
X46819270Y-53155486D01*
X46744308Y-53323852D01*
X46638068Y-53474456D01*
X46504599Y-53601557D01*
X46348984Y-53700314D01*
X46177154Y-53766962D01*
X45995652Y-53798966D01*
X45811386Y-53795106D01*
X45631379Y-53755529D01*
X45462488Y-53681743D01*
X45311150Y-53576560D01*
X45183121Y-53443982D01*
X45083281Y-53289061D01*
X45015432Y-53117693D01*
X44982163Y-52936423D01*
X44984735Y-52752136D01*
X45023056Y-52571856D01*
X45095659Y-52402457D01*
X45199787Y-52250384D01*
X45331466Y-52121433D01*
X45485687Y-52020514D01*
X45656572Y-51951472D01*
X45837609Y-51916938D01*
X46021915Y-51918224D01*
X46021915Y-51918224D01*
G37*
G36*
X30781915Y-49378224D02*
X30962448Y-49415283D01*
X31132358Y-49486706D01*
X31285149Y-49589766D01*
X31415021Y-49720546D01*
X31517010Y-49874053D01*
X31587243Y-50044451D01*
X31622972Y-50224899D01*
X31622972Y-50224904D01*
X31623040Y-50225248D01*
X31620101Y-50435758D01*
X31620024Y-50436096D01*
X31620024Y-50436106D01*
X31579270Y-50615486D01*
X31504308Y-50783852D01*
X31398068Y-50934456D01*
X31264599Y-51061557D01*
X31108984Y-51160314D01*
X30937154Y-51226962D01*
X30755652Y-51258966D01*
X30571386Y-51255106D01*
X30391379Y-51215529D01*
X30222488Y-51141743D01*
X30071150Y-51036560D01*
X29943121Y-50903982D01*
X29843281Y-50749061D01*
X29775432Y-50577693D01*
X29742163Y-50396423D01*
X29744735Y-50212136D01*
X29783056Y-50031856D01*
X29855659Y-49862457D01*
X29959787Y-49710384D01*
X30091466Y-49581433D01*
X30245687Y-49480514D01*
X30416572Y-49411472D01*
X30597609Y-49376938D01*
X30781915Y-49378224D01*
X30781915Y-49378224D01*
G37*
G36*
X46021915Y-49378224D02*
X46202448Y-49415283D01*
X46372358Y-49486706D01*
X46525149Y-49589766D01*
X46655021Y-49720546D01*
X46757010Y-49874053D01*
X46827243Y-50044451D01*
X46862972Y-50224899D01*
X46862972Y-50224904D01*
X46863040Y-50225248D01*
X46860101Y-50435758D01*
X46860024Y-50436096D01*
X46860024Y-50436106D01*
X46819270Y-50615486D01*
X46744308Y-50783852D01*
X46638068Y-50934456D01*
X46504599Y-51061557D01*
X46348984Y-51160314D01*
X46177154Y-51226962D01*
X45995652Y-51258966D01*
X45811386Y-51255106D01*
X45631379Y-51215529D01*
X45462488Y-51141743D01*
X45311150Y-51036560D01*
X45183121Y-50903982D01*
X45083281Y-50749061D01*
X45015432Y-50577693D01*
X44982163Y-50396423D01*
X44984735Y-50212136D01*
X45023056Y-50031856D01*
X45095659Y-49862457D01*
X45199787Y-49710384D01*
X45331466Y-49581433D01*
X45485687Y-49480514D01*
X45656572Y-49411472D01*
X45837609Y-49376938D01*
X46021915Y-49378224D01*
X46021915Y-49378224D01*
G37*
G36*
X51344788Y-48150224D02*
X51551426Y-48192641D01*
X51745904Y-48274392D01*
X51920791Y-48392355D01*
X52069436Y-48542041D01*
X52186175Y-48717748D01*
X52266563Y-48912784D01*
X52307469Y-49119374D01*
X52307469Y-49119384D01*
X52307536Y-49119723D01*
X52304172Y-49360672D01*
X52304095Y-49361010D01*
X52304095Y-49361019D01*
X52257437Y-49566387D01*
X52171636Y-49759099D01*
X52050034Y-49931480D01*
X51897266Y-50076959D01*
X51719153Y-50189993D01*
X51522472Y-50266280D01*
X51314727Y-50302912D01*
X51103817Y-50298493D01*
X50897784Y-50253195D01*
X50704472Y-50168738D01*
X50531251Y-50048346D01*
X50384709Y-49896599D01*
X50270433Y-49719276D01*
X50192773Y-49523131D01*
X50154693Y-49315649D01*
X50157638Y-49104715D01*
X50201499Y-48898368D01*
X50284602Y-48704474D01*
X50403785Y-48530412D01*
X50554504Y-48382816D01*
X50731025Y-48267305D01*
X50926619Y-48188279D01*
X51133833Y-48148752D01*
X51344788Y-48150224D01*
X51344788Y-48150224D01*
G37*
G36*
X58989988Y-48116424D02*
X59196626Y-48158841D01*
X59391104Y-48240592D01*
X59565991Y-48358555D01*
X59714636Y-48508241D01*
X59831375Y-48683948D01*
X59911763Y-48878984D01*
X59952669Y-49085574D01*
X59952669Y-49085584D01*
X59952736Y-49085923D01*
X59949372Y-49326872D01*
X59949295Y-49327210D01*
X59949295Y-49327219D01*
X59902637Y-49532587D01*
X59816836Y-49725299D01*
X59695234Y-49897680D01*
X59542466Y-50043159D01*
X59364353Y-50156193D01*
X59167672Y-50232480D01*
X58959927Y-50269112D01*
X58749017Y-50264693D01*
X58542984Y-50219395D01*
X58349672Y-50134938D01*
X58176451Y-50014546D01*
X58029909Y-49862799D01*
X57915633Y-49685476D01*
X57837973Y-49489331D01*
X57799893Y-49281849D01*
X57802838Y-49070915D01*
X57846699Y-48864568D01*
X57929802Y-48670674D01*
X58048985Y-48496612D01*
X58199704Y-48349016D01*
X58376225Y-48233505D01*
X58571819Y-48154479D01*
X58779033Y-48114952D01*
X58989988Y-48116424D01*
X58989988Y-48116424D01*
G37*
M02*
