%TF.GenerationSoftware,KiCad,Pcbnew,4.0.7-e2-6376~58~ubuntu16.04.1*%
%TF.CreationDate,2018-03-20T08:58:16-07:00*%
%TF.ProjectId,Arduino-Nano-Board,41726475696E6F2D4E616E6F2D426F61,1.0*%
%TF.FileFunction,Copper,L2,Bot,Signal*%
%FSLAX46Y46*%
G04 Gerber Fmt 4.6, Leading zero omitted, Abs format (unit mm)*
G04 Created by KiCad (PCBNEW 4.0.7-e2-6376~58~ubuntu16.04.1) date Tue Mar 20 08:58:16 2018*
%MOMM*%
%LPD*%
G01*
G04 APERTURE LIST*
%ADD10C,0.350000*%
%ADD11C,1.727200*%
%ADD12C,5.000000*%
%ADD13R,2.032000X1.727200*%
%ADD14O,2.032000X1.727200*%
%ADD15R,2.032000X2.032000*%
%ADD16O,2.032000X2.032000*%
%ADD17C,1.998980*%
%ADD18C,0.762000*%
%ADD19C,0.254000*%
%ADD20C,0.350000*%
G04 APERTURE END LIST*
D10*
D11*
X45923200Y-85877400D03*
X45923200Y-83337400D03*
X45923200Y-80797400D03*
X45923200Y-78257400D03*
X45923200Y-75717400D03*
X45923200Y-73177400D03*
X45923200Y-70637400D03*
X45923200Y-68097400D03*
X45923200Y-65557400D03*
X45923200Y-63017400D03*
X45923200Y-60477400D03*
X45923200Y-57937400D03*
X45923200Y-55397400D03*
X45923200Y-52857400D03*
X30683200Y-52857400D03*
X30683200Y-60477400D03*
X30683200Y-80797400D03*
X30683200Y-65557400D03*
X30683200Y-63017400D03*
X30683200Y-83337400D03*
X30683200Y-75717400D03*
X30683200Y-85877400D03*
X30683200Y-73177400D03*
X30683200Y-70637400D03*
X30683200Y-68097400D03*
X30683200Y-78257400D03*
X30683200Y-55397400D03*
X30683200Y-57937400D03*
X30683200Y-50317400D03*
X45923200Y-50317400D03*
D12*
X64770000Y-50800000D03*
X20320000Y-88900000D03*
X64770000Y-88900000D03*
D13*
X23291800Y-74930000D03*
D14*
X23291800Y-77470000D03*
X23291800Y-80010000D03*
D13*
X23291800Y-59690000D03*
D14*
X23291800Y-62230000D03*
X23291800Y-64770000D03*
D15*
X58293000Y-73279000D03*
D16*
X58293000Y-70739000D03*
X58293000Y-68199000D03*
X58293000Y-65659000D03*
X58293000Y-63119000D03*
D17*
X51231800Y-58225200D03*
X51231800Y-49225200D03*
X58877200Y-81432400D03*
X58877200Y-90432400D03*
X58877000Y-58191400D03*
X58877000Y-49191400D03*
X51231800Y-81407000D03*
X51231800Y-90407000D03*
D12*
X20320000Y-50800000D03*
D18*
X58242200Y-73228200D02*
X58242200Y-75006200D01*
D19*
G36*
X65652543Y-46873300D02*
X67477381Y-48092618D01*
X68696700Y-49917458D01*
X69138800Y-52140049D01*
X69138800Y-87559951D01*
X68696700Y-89782542D01*
X67477381Y-91607382D01*
X65652543Y-92826700D01*
X63429956Y-93268800D01*
X21660049Y-93268800D01*
X19437458Y-92826700D01*
X17612618Y-91607381D01*
X16393300Y-89782543D01*
X16360629Y-89618290D01*
X16692372Y-89618290D01*
X17243386Y-90951846D01*
X18262787Y-91973028D01*
X19595380Y-92526369D01*
X21038290Y-92527628D01*
X22371846Y-91976614D01*
X22790026Y-91559163D01*
X50259243Y-91559163D01*
X50357842Y-91825965D01*
X50967382Y-92052401D01*
X51617177Y-92028341D01*
X52105758Y-91825965D01*
X52194970Y-91584563D01*
X57904643Y-91584563D01*
X58003242Y-91851365D01*
X58612782Y-92077801D01*
X59262577Y-92053741D01*
X59751158Y-91851365D01*
X59849757Y-91584563D01*
X58877200Y-90612005D01*
X57904643Y-91584563D01*
X52194970Y-91584563D01*
X52204357Y-91559163D01*
X51231800Y-90586605D01*
X50259243Y-91559163D01*
X22790026Y-91559163D01*
X23393028Y-90957213D01*
X23731292Y-90142582D01*
X49586399Y-90142582D01*
X49610459Y-90792377D01*
X49812835Y-91280958D01*
X50079637Y-91379557D01*
X51052195Y-90407000D01*
X51411405Y-90407000D01*
X52383963Y-91379557D01*
X52650765Y-91280958D01*
X52877201Y-90671418D01*
X52858561Y-90167982D01*
X57231799Y-90167982D01*
X57255859Y-90817777D01*
X57458235Y-91306358D01*
X57725037Y-91404957D01*
X58697595Y-90432400D01*
X59056805Y-90432400D01*
X60029363Y-91404957D01*
X60296165Y-91306358D01*
X60522601Y-90696818D01*
X60498541Y-90047023D01*
X60320955Y-89618290D01*
X61142372Y-89618290D01*
X61693386Y-90951846D01*
X62712787Y-91973028D01*
X64045380Y-92526369D01*
X65488290Y-92527628D01*
X66821846Y-91976614D01*
X67843028Y-90957213D01*
X68396369Y-89624620D01*
X68397628Y-88181710D01*
X67846614Y-86848154D01*
X66827213Y-85826972D01*
X65494620Y-85273631D01*
X64051710Y-85272372D01*
X62718154Y-85823386D01*
X61696972Y-86842787D01*
X61143631Y-88175380D01*
X61142372Y-89618290D01*
X60320955Y-89618290D01*
X60296165Y-89558442D01*
X60029363Y-89459843D01*
X59056805Y-90432400D01*
X58697595Y-90432400D01*
X57725037Y-89459843D01*
X57458235Y-89558442D01*
X57231799Y-90167982D01*
X52858561Y-90167982D01*
X52853141Y-90021623D01*
X52650765Y-89533042D01*
X52383963Y-89434443D01*
X51411405Y-90407000D01*
X51052195Y-90407000D01*
X50079637Y-89434443D01*
X49812835Y-89533042D01*
X49586399Y-90142582D01*
X23731292Y-90142582D01*
X23946369Y-89624620D01*
X23946691Y-89254837D01*
X50259243Y-89254837D01*
X51231800Y-90227395D01*
X52178957Y-89280237D01*
X57904643Y-89280237D01*
X58877200Y-90252795D01*
X59849757Y-89280237D01*
X59751158Y-89013435D01*
X59141618Y-88786999D01*
X58491823Y-88811059D01*
X58003242Y-89013435D01*
X57904643Y-89280237D01*
X52178957Y-89280237D01*
X52204357Y-89254837D01*
X52105758Y-88988035D01*
X51496218Y-88761599D01*
X50846423Y-88785659D01*
X50357842Y-88988035D01*
X50259243Y-89254837D01*
X23946691Y-89254837D01*
X23947628Y-88181710D01*
X23396614Y-86848154D01*
X22377213Y-85826972D01*
X21044620Y-85273631D01*
X19601710Y-85272372D01*
X18268154Y-85823386D01*
X17246972Y-86842787D01*
X16693631Y-88175380D01*
X16692372Y-89618290D01*
X16360629Y-89618290D01*
X15951200Y-87559956D01*
X15951200Y-80369026D01*
X21684442Y-80369026D01*
X21687091Y-80384791D01*
X21941068Y-80912036D01*
X22377480Y-81301954D01*
X22929887Y-81495184D01*
X23164800Y-81350924D01*
X23164800Y-80137000D01*
X23418800Y-80137000D01*
X23418800Y-81350924D01*
X23653713Y-81495184D01*
X24206120Y-81301954D01*
X24642532Y-80912036D01*
X24896509Y-80384791D01*
X24899158Y-80369026D01*
X24778017Y-80137000D01*
X23418800Y-80137000D01*
X23164800Y-80137000D01*
X21805583Y-80137000D01*
X21684442Y-80369026D01*
X15951200Y-80369026D01*
X15951200Y-77470000D01*
X21608455Y-77470000D01*
X21722529Y-78043489D01*
X22047385Y-78529670D01*
X22356869Y-78736461D01*
X21941068Y-79107964D01*
X21687091Y-79635209D01*
X21684442Y-79650974D01*
X21805583Y-79883000D01*
X23164800Y-79883000D01*
X23164800Y-79863000D01*
X23418800Y-79863000D01*
X23418800Y-79883000D01*
X24778017Y-79883000D01*
X24899158Y-79650974D01*
X24896509Y-79635209D01*
X24642532Y-79107964D01*
X24226731Y-78736461D01*
X24536215Y-78529670D01*
X24861071Y-78043489D01*
X24975145Y-77470000D01*
X24861071Y-76896511D01*
X24536215Y-76410330D01*
X24521887Y-76400757D01*
X24543117Y-76396762D01*
X24759241Y-76257690D01*
X24904231Y-76045490D01*
X24955240Y-75793600D01*
X24955240Y-74066400D01*
X24910962Y-73831083D01*
X24771890Y-73614959D01*
X24559690Y-73469969D01*
X24307800Y-73418960D01*
X22275800Y-73418960D01*
X22040483Y-73463238D01*
X21824359Y-73602310D01*
X21679369Y-73814510D01*
X21628360Y-74066400D01*
X21628360Y-75793600D01*
X21672638Y-76028917D01*
X21811710Y-76245041D01*
X22023910Y-76390031D01*
X22065239Y-76398400D01*
X22047385Y-76410330D01*
X21722529Y-76896511D01*
X21608455Y-77470000D01*
X15951200Y-77470000D01*
X15951200Y-65129026D01*
X21684442Y-65129026D01*
X21687091Y-65144791D01*
X21941068Y-65672036D01*
X22377480Y-66061954D01*
X22929887Y-66255184D01*
X23164800Y-66110924D01*
X23164800Y-64897000D01*
X23418800Y-64897000D01*
X23418800Y-66110924D01*
X23653713Y-66255184D01*
X24206120Y-66061954D01*
X24642532Y-65672036D01*
X24896509Y-65144791D01*
X24899158Y-65129026D01*
X24778017Y-64897000D01*
X23418800Y-64897000D01*
X23164800Y-64897000D01*
X21805583Y-64897000D01*
X21684442Y-65129026D01*
X15951200Y-65129026D01*
X15951200Y-62230000D01*
X21608455Y-62230000D01*
X21722529Y-62803489D01*
X22047385Y-63289670D01*
X22356869Y-63496461D01*
X21941068Y-63867964D01*
X21687091Y-64395209D01*
X21684442Y-64410974D01*
X21805583Y-64643000D01*
X23164800Y-64643000D01*
X23164800Y-64623000D01*
X23418800Y-64623000D01*
X23418800Y-64643000D01*
X24778017Y-64643000D01*
X24899158Y-64410974D01*
X24896509Y-64395209D01*
X24642532Y-63867964D01*
X24226731Y-63496461D01*
X24536215Y-63289670D01*
X24861071Y-62803489D01*
X24975145Y-62230000D01*
X24861071Y-61656511D01*
X24536215Y-61170330D01*
X24521887Y-61160757D01*
X24543117Y-61156762D01*
X24759241Y-61017690D01*
X24904231Y-60805490D01*
X24910571Y-60774182D01*
X29184341Y-60774182D01*
X29412008Y-61325180D01*
X29833203Y-61747110D01*
X29834131Y-61747495D01*
X29413490Y-62167403D01*
X29184861Y-62718002D01*
X29184341Y-63314182D01*
X29412008Y-63865180D01*
X29833203Y-64287110D01*
X29834131Y-64287495D01*
X29413490Y-64707403D01*
X29184861Y-65258002D01*
X29184341Y-65854182D01*
X29412008Y-66405180D01*
X29833203Y-66827110D01*
X29834131Y-66827495D01*
X29413490Y-67247403D01*
X29184861Y-67798002D01*
X29184341Y-68394182D01*
X29412008Y-68945180D01*
X29833203Y-69367110D01*
X29834131Y-69367495D01*
X29413490Y-69787403D01*
X29184861Y-70338002D01*
X29184341Y-70934182D01*
X29412008Y-71485180D01*
X29833203Y-71907110D01*
X29834131Y-71907495D01*
X29413490Y-72327403D01*
X29184861Y-72878002D01*
X29184341Y-73474182D01*
X29412008Y-74025180D01*
X29833203Y-74447110D01*
X29834131Y-74447495D01*
X29413490Y-74867403D01*
X29184861Y-75418002D01*
X29184341Y-76014182D01*
X29412008Y-76565180D01*
X29833203Y-76987110D01*
X29834131Y-76987495D01*
X29413490Y-77407403D01*
X29184861Y-77958002D01*
X29184341Y-78554182D01*
X29412008Y-79105180D01*
X29833203Y-79527110D01*
X29834131Y-79527495D01*
X29413490Y-79947403D01*
X29184861Y-80498002D01*
X29184341Y-81094182D01*
X29412008Y-81645180D01*
X29833203Y-82067110D01*
X29834131Y-82067495D01*
X29413490Y-82487403D01*
X29184861Y-83038002D01*
X29184341Y-83634182D01*
X29412008Y-84185180D01*
X29833203Y-84607110D01*
X29834131Y-84607495D01*
X29413490Y-85027403D01*
X29184861Y-85578002D01*
X29184341Y-86174182D01*
X29412008Y-86725180D01*
X29833203Y-87147110D01*
X30383802Y-87375739D01*
X30979982Y-87376259D01*
X31530980Y-87148592D01*
X31952910Y-86727397D01*
X32181539Y-86176798D01*
X32182059Y-85580618D01*
X31954392Y-85029620D01*
X31533197Y-84607690D01*
X31532269Y-84607305D01*
X31952910Y-84187397D01*
X32181539Y-83636798D01*
X32182059Y-83040618D01*
X31954392Y-82489620D01*
X31533197Y-82067690D01*
X31532269Y-82067305D01*
X31952910Y-81647397D01*
X32181539Y-81096798D01*
X32182059Y-80500618D01*
X31954392Y-79949620D01*
X31533197Y-79527690D01*
X31532269Y-79527305D01*
X31952910Y-79107397D01*
X32181539Y-78556798D01*
X32182059Y-77960618D01*
X31954392Y-77409620D01*
X31533197Y-76987690D01*
X31532269Y-76987305D01*
X31952910Y-76567397D01*
X32181539Y-76016798D01*
X32182059Y-75420618D01*
X31954392Y-74869620D01*
X31533197Y-74447690D01*
X31532269Y-74447305D01*
X31952910Y-74027397D01*
X32181539Y-73476798D01*
X32182059Y-72880618D01*
X31954392Y-72329620D01*
X31533197Y-71907690D01*
X31532269Y-71907305D01*
X31952910Y-71487397D01*
X32181539Y-70936798D01*
X32182059Y-70340618D01*
X31954392Y-69789620D01*
X31533197Y-69367690D01*
X31532269Y-69367305D01*
X31952910Y-68947397D01*
X32181539Y-68396798D01*
X32182059Y-67800618D01*
X31954392Y-67249620D01*
X31533197Y-66827690D01*
X31532269Y-66827305D01*
X31952910Y-66407397D01*
X32181539Y-65856798D01*
X32182059Y-65260618D01*
X31954392Y-64709620D01*
X31533197Y-64287690D01*
X31532269Y-64287305D01*
X31952910Y-63867397D01*
X32181539Y-63316798D01*
X32182059Y-62720618D01*
X31954392Y-62169620D01*
X31533197Y-61747690D01*
X31532269Y-61747305D01*
X31952910Y-61327397D01*
X32181539Y-60776798D01*
X32182059Y-60180618D01*
X31954392Y-59629620D01*
X31533197Y-59207690D01*
X31492663Y-59190859D01*
X31557400Y-58991205D01*
X30683200Y-58117005D01*
X29809000Y-58991205D01*
X29873599Y-59190433D01*
X29835420Y-59206208D01*
X29413490Y-59627403D01*
X29184861Y-60178002D01*
X29184341Y-60774182D01*
X24910571Y-60774182D01*
X24955240Y-60553600D01*
X24955240Y-58826400D01*
X24910962Y-58591083D01*
X24771890Y-58374959D01*
X24559690Y-58229969D01*
X24307800Y-58178960D01*
X22275800Y-58178960D01*
X22040483Y-58223238D01*
X21824359Y-58362310D01*
X21679369Y-58574510D01*
X21628360Y-58826400D01*
X21628360Y-60553600D01*
X21672638Y-60788917D01*
X21811710Y-61005041D01*
X22023910Y-61150031D01*
X22065239Y-61158400D01*
X22047385Y-61170330D01*
X21722529Y-61656511D01*
X21608455Y-62230000D01*
X15951200Y-62230000D01*
X15951200Y-57705430D01*
X29172952Y-57705430D01*
X29199142Y-58301035D01*
X29376684Y-58729659D01*
X29629395Y-58811600D01*
X30503595Y-57937400D01*
X30862805Y-57937400D01*
X31737005Y-58811600D01*
X31989716Y-58729659D01*
X32193448Y-58169370D01*
X32167258Y-57573765D01*
X31989716Y-57145141D01*
X31737005Y-57063200D01*
X30862805Y-57937400D01*
X30503595Y-57937400D01*
X29629395Y-57063200D01*
X29376684Y-57145141D01*
X29172952Y-57705430D01*
X15951200Y-57705430D01*
X15951200Y-52140044D01*
X16074874Y-51518290D01*
X16692372Y-51518290D01*
X17243386Y-52851846D01*
X18262787Y-53873028D01*
X19595380Y-54426369D01*
X21038290Y-54427628D01*
X22371846Y-53876614D01*
X23393028Y-52857213D01*
X23946369Y-51524620D01*
X23947163Y-50614182D01*
X29184341Y-50614182D01*
X29412008Y-51165180D01*
X29833203Y-51587110D01*
X29834131Y-51587495D01*
X29413490Y-52007403D01*
X29184861Y-52558002D01*
X29184341Y-53154182D01*
X29412008Y-53705180D01*
X29833203Y-54127110D01*
X29834131Y-54127495D01*
X29413490Y-54547403D01*
X29184861Y-55098002D01*
X29184341Y-55694182D01*
X29412008Y-56245180D01*
X29833203Y-56667110D01*
X29873737Y-56683941D01*
X29809000Y-56883595D01*
X30683200Y-57757795D01*
X31557400Y-56883595D01*
X31492801Y-56684367D01*
X31530980Y-56668592D01*
X31952910Y-56247397D01*
X32181539Y-55696798D01*
X32181541Y-55694182D01*
X44424341Y-55694182D01*
X44652008Y-56245180D01*
X45073203Y-56667110D01*
X45074131Y-56667495D01*
X44653490Y-57087403D01*
X44424861Y-57638002D01*
X44424341Y-58234182D01*
X44652008Y-58785180D01*
X45073203Y-59207110D01*
X45074131Y-59207495D01*
X44653490Y-59627403D01*
X44424861Y-60178002D01*
X44424341Y-60774182D01*
X44652008Y-61325180D01*
X45073203Y-61747110D01*
X45074131Y-61747495D01*
X44653490Y-62167403D01*
X44424861Y-62718002D01*
X44424341Y-63314182D01*
X44652008Y-63865180D01*
X45073203Y-64287110D01*
X45074131Y-64287495D01*
X44653490Y-64707403D01*
X44424861Y-65258002D01*
X44424341Y-65854182D01*
X44652008Y-66405180D01*
X45073203Y-66827110D01*
X45074131Y-66827495D01*
X44653490Y-67247403D01*
X44424861Y-67798002D01*
X44424341Y-68394182D01*
X44652008Y-68945180D01*
X45073203Y-69367110D01*
X45074131Y-69367495D01*
X44653490Y-69787403D01*
X44424861Y-70338002D01*
X44424341Y-70934182D01*
X44652008Y-71485180D01*
X45073203Y-71907110D01*
X45074131Y-71907495D01*
X44653490Y-72327403D01*
X44424861Y-72878002D01*
X44424341Y-73474182D01*
X44652008Y-74025180D01*
X45073203Y-74447110D01*
X45074131Y-74447495D01*
X44653490Y-74867403D01*
X44424861Y-75418002D01*
X44424341Y-76014182D01*
X44652008Y-76565180D01*
X45073203Y-76987110D01*
X45074131Y-76987495D01*
X44653490Y-77407403D01*
X44424861Y-77958002D01*
X44424341Y-78554182D01*
X44652008Y-79105180D01*
X45073203Y-79527110D01*
X45074131Y-79527495D01*
X44653490Y-79947403D01*
X44424861Y-80498002D01*
X44424341Y-81094182D01*
X44652008Y-81645180D01*
X45073203Y-82067110D01*
X45074131Y-82067495D01*
X44653490Y-82487403D01*
X44424861Y-83038002D01*
X44424341Y-83634182D01*
X44652008Y-84185180D01*
X45073203Y-84607110D01*
X45074131Y-84607495D01*
X44653490Y-85027403D01*
X44424861Y-85578002D01*
X44424341Y-86174182D01*
X44652008Y-86725180D01*
X45073203Y-87147110D01*
X45623802Y-87375739D01*
X46219982Y-87376259D01*
X46770980Y-87148592D01*
X47192910Y-86727397D01*
X47421539Y-86176798D01*
X47422059Y-85580618D01*
X47194392Y-85029620D01*
X46773197Y-84607690D01*
X46772269Y-84607305D01*
X47192910Y-84187397D01*
X47421539Y-83636798D01*
X47422059Y-83040618D01*
X47194392Y-82489620D01*
X46773197Y-82067690D01*
X46772269Y-82067305D01*
X47109467Y-81730694D01*
X49597026Y-81730694D01*
X49845338Y-82331655D01*
X50304727Y-82791846D01*
X50905253Y-83041206D01*
X51555494Y-83041774D01*
X52156455Y-82793462D01*
X52616646Y-82334073D01*
X52856643Y-81756094D01*
X57242426Y-81756094D01*
X57490738Y-82357055D01*
X57950127Y-82817246D01*
X58550653Y-83066606D01*
X59200894Y-83067174D01*
X59801855Y-82818862D01*
X60262046Y-82359473D01*
X60511406Y-81758947D01*
X60511974Y-81108706D01*
X60263662Y-80507745D01*
X59804273Y-80047554D01*
X59203747Y-79798194D01*
X58553506Y-79797626D01*
X57952545Y-80045938D01*
X57492354Y-80505327D01*
X57242994Y-81105853D01*
X57242426Y-81756094D01*
X52856643Y-81756094D01*
X52866006Y-81733547D01*
X52866574Y-81083306D01*
X52618262Y-80482345D01*
X52158873Y-80022154D01*
X51558347Y-79772794D01*
X50908106Y-79772226D01*
X50307145Y-80020538D01*
X49846954Y-80479927D01*
X49597594Y-81080453D01*
X49597026Y-81730694D01*
X47109467Y-81730694D01*
X47192910Y-81647397D01*
X47421539Y-81096798D01*
X47422059Y-80500618D01*
X47194392Y-79949620D01*
X46773197Y-79527690D01*
X46772269Y-79527305D01*
X47192910Y-79107397D01*
X47421539Y-78556798D01*
X47422059Y-77960618D01*
X47194392Y-77409620D01*
X46773197Y-76987690D01*
X46772269Y-76987305D01*
X47192910Y-76567397D01*
X47421539Y-76016798D01*
X47422059Y-75420618D01*
X47194392Y-74869620D01*
X46773197Y-74447690D01*
X46772269Y-74447305D01*
X47192910Y-74027397D01*
X47421539Y-73476798D01*
X47422059Y-72880618D01*
X47194392Y-72329620D01*
X46773197Y-71907690D01*
X46772269Y-71907305D01*
X47192910Y-71487397D01*
X47421539Y-70936798D01*
X47422059Y-70340618D01*
X47194392Y-69789620D01*
X46773197Y-69367690D01*
X46772269Y-69367305D01*
X47192910Y-68947397D01*
X47421539Y-68396798D01*
X47422059Y-67800618D01*
X47194392Y-67249620D01*
X46773197Y-66827690D01*
X46772269Y-66827305D01*
X47192910Y-66407397D01*
X47421539Y-65856798D01*
X47422059Y-65260618D01*
X47194392Y-64709620D01*
X46773197Y-64287690D01*
X46772269Y-64287305D01*
X47192910Y-63867397D01*
X47421539Y-63316798D01*
X47421711Y-63119000D01*
X56609655Y-63119000D01*
X56735330Y-63750810D01*
X57093222Y-64286433D01*
X57246724Y-64389000D01*
X57093222Y-64491567D01*
X56735330Y-65027190D01*
X56609655Y-65659000D01*
X56735330Y-66290810D01*
X57093222Y-66826433D01*
X57246724Y-66929000D01*
X57093222Y-67031567D01*
X56735330Y-67567190D01*
X56609655Y-68199000D01*
X56735330Y-68830810D01*
X57093222Y-69366433D01*
X57246724Y-69469000D01*
X57093222Y-69571567D01*
X56735330Y-70107190D01*
X56609655Y-70739000D01*
X56735330Y-71370810D01*
X56962499Y-71710792D01*
X56825559Y-71798910D01*
X56680569Y-72011110D01*
X56629560Y-72263000D01*
X56629560Y-74295000D01*
X56673838Y-74530317D01*
X56812910Y-74746441D01*
X57025110Y-74891431D01*
X57226200Y-74932153D01*
X57226200Y-75006200D01*
X57303538Y-75395006D01*
X57523780Y-75724620D01*
X57853394Y-75944862D01*
X58242200Y-76022200D01*
X58631006Y-75944862D01*
X58960620Y-75724620D01*
X59180862Y-75395006D01*
X59258200Y-75006200D01*
X59258200Y-74942440D01*
X59309000Y-74942440D01*
X59544317Y-74898162D01*
X59760441Y-74759090D01*
X59905431Y-74546890D01*
X59956440Y-74295000D01*
X59956440Y-72263000D01*
X59912162Y-72027683D01*
X59773090Y-71811559D01*
X59624163Y-71709802D01*
X59850670Y-71370810D01*
X59976345Y-70739000D01*
X59850670Y-70107190D01*
X59492778Y-69571567D01*
X59339276Y-69469000D01*
X59492778Y-69366433D01*
X59850670Y-68830810D01*
X59976345Y-68199000D01*
X59850670Y-67567190D01*
X59492778Y-67031567D01*
X59339276Y-66929000D01*
X59492778Y-66826433D01*
X59850670Y-66290810D01*
X59976345Y-65659000D01*
X59850670Y-65027190D01*
X59492778Y-64491567D01*
X59339276Y-64389000D01*
X59492778Y-64286433D01*
X59850670Y-63750810D01*
X59976345Y-63119000D01*
X59850670Y-62487190D01*
X59492778Y-61951567D01*
X58957155Y-61593675D01*
X58325345Y-61468000D01*
X58260655Y-61468000D01*
X57628845Y-61593675D01*
X57093222Y-61951567D01*
X56735330Y-62487190D01*
X56609655Y-63119000D01*
X47421711Y-63119000D01*
X47422059Y-62720618D01*
X47194392Y-62169620D01*
X46773197Y-61747690D01*
X46772269Y-61747305D01*
X47192910Y-61327397D01*
X47421539Y-60776798D01*
X47422059Y-60180618D01*
X47194392Y-59629620D01*
X46773197Y-59207690D01*
X46772269Y-59207305D01*
X47192910Y-58787397D01*
X47291945Y-58548894D01*
X49597026Y-58548894D01*
X49845338Y-59149855D01*
X50304727Y-59610046D01*
X50905253Y-59859406D01*
X51555494Y-59859974D01*
X52156455Y-59611662D01*
X52616646Y-59152273D01*
X52866006Y-58551747D01*
X52866038Y-58515094D01*
X57242226Y-58515094D01*
X57490538Y-59116055D01*
X57949927Y-59576246D01*
X58550453Y-59825606D01*
X59200694Y-59826174D01*
X59801655Y-59577862D01*
X60261846Y-59118473D01*
X60511206Y-58517947D01*
X60511774Y-57867706D01*
X60263462Y-57266745D01*
X59804073Y-56806554D01*
X59203547Y-56557194D01*
X58553306Y-56556626D01*
X57952345Y-56804938D01*
X57492154Y-57264327D01*
X57242794Y-57864853D01*
X57242226Y-58515094D01*
X52866038Y-58515094D01*
X52866574Y-57901506D01*
X52618262Y-57300545D01*
X52158873Y-56840354D01*
X51558347Y-56590994D01*
X50908106Y-56590426D01*
X50307145Y-56838738D01*
X49846954Y-57298127D01*
X49597594Y-57898653D01*
X49597026Y-58548894D01*
X47291945Y-58548894D01*
X47421539Y-58236798D01*
X47422059Y-57640618D01*
X47194392Y-57089620D01*
X46773197Y-56667690D01*
X46772269Y-56667305D01*
X47192910Y-56247397D01*
X47421539Y-55696798D01*
X47422059Y-55100618D01*
X47194392Y-54549620D01*
X46773197Y-54127690D01*
X46732663Y-54110859D01*
X46797400Y-53911205D01*
X45923200Y-53037005D01*
X45049000Y-53911205D01*
X45113599Y-54110433D01*
X45075420Y-54126208D01*
X44653490Y-54547403D01*
X44424861Y-55098002D01*
X44424341Y-55694182D01*
X32181541Y-55694182D01*
X32182059Y-55100618D01*
X31954392Y-54549620D01*
X31533197Y-54127690D01*
X31532269Y-54127305D01*
X31952910Y-53707397D01*
X32181539Y-53156798D01*
X32182002Y-52625430D01*
X44412952Y-52625430D01*
X44439142Y-53221035D01*
X44616684Y-53649659D01*
X44869395Y-53731600D01*
X45743595Y-52857400D01*
X46102805Y-52857400D01*
X46977005Y-53731600D01*
X47229716Y-53649659D01*
X47433448Y-53089370D01*
X47407258Y-52493765D01*
X47229716Y-52065141D01*
X46977005Y-51983200D01*
X46102805Y-52857400D01*
X45743595Y-52857400D01*
X44869395Y-51983200D01*
X44616684Y-52065141D01*
X44412952Y-52625430D01*
X32182002Y-52625430D01*
X32182059Y-52560618D01*
X31954392Y-52009620D01*
X31533197Y-51587690D01*
X31532269Y-51587305D01*
X31952910Y-51167397D01*
X32181539Y-50616798D01*
X32181541Y-50614182D01*
X44424341Y-50614182D01*
X44652008Y-51165180D01*
X45073203Y-51587110D01*
X45113737Y-51603941D01*
X45049000Y-51803595D01*
X45923200Y-52677795D01*
X46797400Y-51803595D01*
X46732801Y-51604367D01*
X46770980Y-51588592D01*
X46841404Y-51518290D01*
X61142372Y-51518290D01*
X61693386Y-52851846D01*
X62712787Y-53873028D01*
X64045380Y-54426369D01*
X65488290Y-54427628D01*
X66821846Y-53876614D01*
X67843028Y-52857213D01*
X68396369Y-51524620D01*
X68397628Y-50081710D01*
X67846614Y-48748154D01*
X66827213Y-47726972D01*
X65494620Y-47173631D01*
X64051710Y-47172372D01*
X62718154Y-47723386D01*
X61696972Y-48742787D01*
X61143631Y-50075380D01*
X61142372Y-51518290D01*
X46841404Y-51518290D01*
X47192910Y-51167397D01*
X47421539Y-50616798D01*
X47421747Y-50377363D01*
X50259243Y-50377363D01*
X50357842Y-50644165D01*
X50967382Y-50870601D01*
X51617177Y-50846541D01*
X52105758Y-50644165D01*
X52204357Y-50377363D01*
X52170558Y-50343563D01*
X57904443Y-50343563D01*
X58003042Y-50610365D01*
X58612582Y-50836801D01*
X59262377Y-50812741D01*
X59750958Y-50610365D01*
X59849557Y-50343563D01*
X58877000Y-49371005D01*
X57904443Y-50343563D01*
X52170558Y-50343563D01*
X51231800Y-49404805D01*
X50259243Y-50377363D01*
X47421747Y-50377363D01*
X47422059Y-50020618D01*
X47194392Y-49469620D01*
X46773197Y-49047690D01*
X46563900Y-48960782D01*
X49586399Y-48960782D01*
X49610459Y-49610577D01*
X49812835Y-50099158D01*
X50079637Y-50197757D01*
X51052195Y-49225200D01*
X51411405Y-49225200D01*
X52383963Y-50197757D01*
X52650765Y-50099158D01*
X52877201Y-49489618D01*
X52856369Y-48926982D01*
X57231599Y-48926982D01*
X57255659Y-49576777D01*
X57458035Y-50065358D01*
X57724837Y-50163957D01*
X58697395Y-49191400D01*
X59056605Y-49191400D01*
X60029163Y-50163957D01*
X60295965Y-50065358D01*
X60522401Y-49455818D01*
X60498341Y-48806023D01*
X60295965Y-48317442D01*
X60029163Y-48218843D01*
X59056605Y-49191400D01*
X58697395Y-49191400D01*
X57724837Y-48218843D01*
X57458035Y-48317442D01*
X57231599Y-48926982D01*
X52856369Y-48926982D01*
X52853141Y-48839823D01*
X52650765Y-48351242D01*
X52383963Y-48252643D01*
X51411405Y-49225200D01*
X51052195Y-49225200D01*
X50079637Y-48252643D01*
X49812835Y-48351242D01*
X49586399Y-48960782D01*
X46563900Y-48960782D01*
X46222598Y-48819061D01*
X45626418Y-48818541D01*
X45075420Y-49046208D01*
X44653490Y-49467403D01*
X44424861Y-50018002D01*
X44424341Y-50614182D01*
X32181541Y-50614182D01*
X32182059Y-50020618D01*
X31954392Y-49469620D01*
X31533197Y-49047690D01*
X30982598Y-48819061D01*
X30386418Y-48818541D01*
X29835420Y-49046208D01*
X29413490Y-49467403D01*
X29184861Y-50018002D01*
X29184341Y-50614182D01*
X23947163Y-50614182D01*
X23947628Y-50081710D01*
X23396614Y-48748154D01*
X22722675Y-48073037D01*
X50259243Y-48073037D01*
X51231800Y-49045595D01*
X52204357Y-48073037D01*
X52191866Y-48039237D01*
X57904443Y-48039237D01*
X58877000Y-49011795D01*
X59849557Y-48039237D01*
X59750958Y-47772435D01*
X59141418Y-47545999D01*
X58491623Y-47570059D01*
X58003042Y-47772435D01*
X57904443Y-48039237D01*
X52191866Y-48039237D01*
X52105758Y-47806235D01*
X51496218Y-47579799D01*
X50846423Y-47603859D01*
X50357842Y-47806235D01*
X50259243Y-48073037D01*
X22722675Y-48073037D01*
X22377213Y-47726972D01*
X21044620Y-47173631D01*
X19601710Y-47172372D01*
X18268154Y-47723386D01*
X17246972Y-48742787D01*
X16693631Y-50075380D01*
X16692372Y-51518290D01*
X16074874Y-51518290D01*
X16393300Y-49917457D01*
X17612618Y-48092619D01*
X19437458Y-46873300D01*
X21660049Y-46431200D01*
X63429956Y-46431200D01*
X65652543Y-46873300D01*
X65652543Y-46873300D01*
G37*
X65652543Y-46873300D02*
X67477381Y-48092618D01*
X68696700Y-49917458D01*
X69138800Y-52140049D01*
X69138800Y-87559951D01*
X68696700Y-89782542D01*
X67477381Y-91607382D01*
X65652543Y-92826700D01*
X63429956Y-93268800D01*
X21660049Y-93268800D01*
X19437458Y-92826700D01*
X17612618Y-91607381D01*
X16393300Y-89782543D01*
X16360629Y-89618290D01*
X16692372Y-89618290D01*
X17243386Y-90951846D01*
X18262787Y-91973028D01*
X19595380Y-92526369D01*
X21038290Y-92527628D01*
X22371846Y-91976614D01*
X22790026Y-91559163D01*
X50259243Y-91559163D01*
X50357842Y-91825965D01*
X50967382Y-92052401D01*
X51617177Y-92028341D01*
X52105758Y-91825965D01*
X52194970Y-91584563D01*
X57904643Y-91584563D01*
X58003242Y-91851365D01*
X58612782Y-92077801D01*
X59262577Y-92053741D01*
X59751158Y-91851365D01*
X59849757Y-91584563D01*
X58877200Y-90612005D01*
X57904643Y-91584563D01*
X52194970Y-91584563D01*
X52204357Y-91559163D01*
X51231800Y-90586605D01*
X50259243Y-91559163D01*
X22790026Y-91559163D01*
X23393028Y-90957213D01*
X23731292Y-90142582D01*
X49586399Y-90142582D01*
X49610459Y-90792377D01*
X49812835Y-91280958D01*
X50079637Y-91379557D01*
X51052195Y-90407000D01*
X51411405Y-90407000D01*
X52383963Y-91379557D01*
X52650765Y-91280958D01*
X52877201Y-90671418D01*
X52858561Y-90167982D01*
X57231799Y-90167982D01*
X57255859Y-90817777D01*
X57458235Y-91306358D01*
X57725037Y-91404957D01*
X58697595Y-90432400D01*
X59056805Y-90432400D01*
X60029363Y-91404957D01*
X60296165Y-91306358D01*
X60522601Y-90696818D01*
X60498541Y-90047023D01*
X60320955Y-89618290D01*
X61142372Y-89618290D01*
X61693386Y-90951846D01*
X62712787Y-91973028D01*
X64045380Y-92526369D01*
X65488290Y-92527628D01*
X66821846Y-91976614D01*
X67843028Y-90957213D01*
X68396369Y-89624620D01*
X68397628Y-88181710D01*
X67846614Y-86848154D01*
X66827213Y-85826972D01*
X65494620Y-85273631D01*
X64051710Y-85272372D01*
X62718154Y-85823386D01*
X61696972Y-86842787D01*
X61143631Y-88175380D01*
X61142372Y-89618290D01*
X60320955Y-89618290D01*
X60296165Y-89558442D01*
X60029363Y-89459843D01*
X59056805Y-90432400D01*
X58697595Y-90432400D01*
X57725037Y-89459843D01*
X57458235Y-89558442D01*
X57231799Y-90167982D01*
X52858561Y-90167982D01*
X52853141Y-90021623D01*
X52650765Y-89533042D01*
X52383963Y-89434443D01*
X51411405Y-90407000D01*
X51052195Y-90407000D01*
X50079637Y-89434443D01*
X49812835Y-89533042D01*
X49586399Y-90142582D01*
X23731292Y-90142582D01*
X23946369Y-89624620D01*
X23946691Y-89254837D01*
X50259243Y-89254837D01*
X51231800Y-90227395D01*
X52178957Y-89280237D01*
X57904643Y-89280237D01*
X58877200Y-90252795D01*
X59849757Y-89280237D01*
X59751158Y-89013435D01*
X59141618Y-88786999D01*
X58491823Y-88811059D01*
X58003242Y-89013435D01*
X57904643Y-89280237D01*
X52178957Y-89280237D01*
X52204357Y-89254837D01*
X52105758Y-88988035D01*
X51496218Y-88761599D01*
X50846423Y-88785659D01*
X50357842Y-88988035D01*
X50259243Y-89254837D01*
X23946691Y-89254837D01*
X23947628Y-88181710D01*
X23396614Y-86848154D01*
X22377213Y-85826972D01*
X21044620Y-85273631D01*
X19601710Y-85272372D01*
X18268154Y-85823386D01*
X17246972Y-86842787D01*
X16693631Y-88175380D01*
X16692372Y-89618290D01*
X16360629Y-89618290D01*
X15951200Y-87559956D01*
X15951200Y-80369026D01*
X21684442Y-80369026D01*
X21687091Y-80384791D01*
X21941068Y-80912036D01*
X22377480Y-81301954D01*
X22929887Y-81495184D01*
X23164800Y-81350924D01*
X23164800Y-80137000D01*
X23418800Y-80137000D01*
X23418800Y-81350924D01*
X23653713Y-81495184D01*
X24206120Y-81301954D01*
X24642532Y-80912036D01*
X24896509Y-80384791D01*
X24899158Y-80369026D01*
X24778017Y-80137000D01*
X23418800Y-80137000D01*
X23164800Y-80137000D01*
X21805583Y-80137000D01*
X21684442Y-80369026D01*
X15951200Y-80369026D01*
X15951200Y-77470000D01*
X21608455Y-77470000D01*
X21722529Y-78043489D01*
X22047385Y-78529670D01*
X22356869Y-78736461D01*
X21941068Y-79107964D01*
X21687091Y-79635209D01*
X21684442Y-79650974D01*
X21805583Y-79883000D01*
X23164800Y-79883000D01*
X23164800Y-79863000D01*
X23418800Y-79863000D01*
X23418800Y-79883000D01*
X24778017Y-79883000D01*
X24899158Y-79650974D01*
X24896509Y-79635209D01*
X24642532Y-79107964D01*
X24226731Y-78736461D01*
X24536215Y-78529670D01*
X24861071Y-78043489D01*
X24975145Y-77470000D01*
X24861071Y-76896511D01*
X24536215Y-76410330D01*
X24521887Y-76400757D01*
X24543117Y-76396762D01*
X24759241Y-76257690D01*
X24904231Y-76045490D01*
X24955240Y-75793600D01*
X24955240Y-74066400D01*
X24910962Y-73831083D01*
X24771890Y-73614959D01*
X24559690Y-73469969D01*
X24307800Y-73418960D01*
X22275800Y-73418960D01*
X22040483Y-73463238D01*
X21824359Y-73602310D01*
X21679369Y-73814510D01*
X21628360Y-74066400D01*
X21628360Y-75793600D01*
X21672638Y-76028917D01*
X21811710Y-76245041D01*
X22023910Y-76390031D01*
X22065239Y-76398400D01*
X22047385Y-76410330D01*
X21722529Y-76896511D01*
X21608455Y-77470000D01*
X15951200Y-77470000D01*
X15951200Y-65129026D01*
X21684442Y-65129026D01*
X21687091Y-65144791D01*
X21941068Y-65672036D01*
X22377480Y-66061954D01*
X22929887Y-66255184D01*
X23164800Y-66110924D01*
X23164800Y-64897000D01*
X23418800Y-64897000D01*
X23418800Y-66110924D01*
X23653713Y-66255184D01*
X24206120Y-66061954D01*
X24642532Y-65672036D01*
X24896509Y-65144791D01*
X24899158Y-65129026D01*
X24778017Y-64897000D01*
X23418800Y-64897000D01*
X23164800Y-64897000D01*
X21805583Y-64897000D01*
X21684442Y-65129026D01*
X15951200Y-65129026D01*
X15951200Y-62230000D01*
X21608455Y-62230000D01*
X21722529Y-62803489D01*
X22047385Y-63289670D01*
X22356869Y-63496461D01*
X21941068Y-63867964D01*
X21687091Y-64395209D01*
X21684442Y-64410974D01*
X21805583Y-64643000D01*
X23164800Y-64643000D01*
X23164800Y-64623000D01*
X23418800Y-64623000D01*
X23418800Y-64643000D01*
X24778017Y-64643000D01*
X24899158Y-64410974D01*
X24896509Y-64395209D01*
X24642532Y-63867964D01*
X24226731Y-63496461D01*
X24536215Y-63289670D01*
X24861071Y-62803489D01*
X24975145Y-62230000D01*
X24861071Y-61656511D01*
X24536215Y-61170330D01*
X24521887Y-61160757D01*
X24543117Y-61156762D01*
X24759241Y-61017690D01*
X24904231Y-60805490D01*
X24910571Y-60774182D01*
X29184341Y-60774182D01*
X29412008Y-61325180D01*
X29833203Y-61747110D01*
X29834131Y-61747495D01*
X29413490Y-62167403D01*
X29184861Y-62718002D01*
X29184341Y-63314182D01*
X29412008Y-63865180D01*
X29833203Y-64287110D01*
X29834131Y-64287495D01*
X29413490Y-64707403D01*
X29184861Y-65258002D01*
X29184341Y-65854182D01*
X29412008Y-66405180D01*
X29833203Y-66827110D01*
X29834131Y-66827495D01*
X29413490Y-67247403D01*
X29184861Y-67798002D01*
X29184341Y-68394182D01*
X29412008Y-68945180D01*
X29833203Y-69367110D01*
X29834131Y-69367495D01*
X29413490Y-69787403D01*
X29184861Y-70338002D01*
X29184341Y-70934182D01*
X29412008Y-71485180D01*
X29833203Y-71907110D01*
X29834131Y-71907495D01*
X29413490Y-72327403D01*
X29184861Y-72878002D01*
X29184341Y-73474182D01*
X29412008Y-74025180D01*
X29833203Y-74447110D01*
X29834131Y-74447495D01*
X29413490Y-74867403D01*
X29184861Y-75418002D01*
X29184341Y-76014182D01*
X29412008Y-76565180D01*
X29833203Y-76987110D01*
X29834131Y-76987495D01*
X29413490Y-77407403D01*
X29184861Y-77958002D01*
X29184341Y-78554182D01*
X29412008Y-79105180D01*
X29833203Y-79527110D01*
X29834131Y-79527495D01*
X29413490Y-79947403D01*
X29184861Y-80498002D01*
X29184341Y-81094182D01*
X29412008Y-81645180D01*
X29833203Y-82067110D01*
X29834131Y-82067495D01*
X29413490Y-82487403D01*
X29184861Y-83038002D01*
X29184341Y-83634182D01*
X29412008Y-84185180D01*
X29833203Y-84607110D01*
X29834131Y-84607495D01*
X29413490Y-85027403D01*
X29184861Y-85578002D01*
X29184341Y-86174182D01*
X29412008Y-86725180D01*
X29833203Y-87147110D01*
X30383802Y-87375739D01*
X30979982Y-87376259D01*
X31530980Y-87148592D01*
X31952910Y-86727397D01*
X32181539Y-86176798D01*
X32182059Y-85580618D01*
X31954392Y-85029620D01*
X31533197Y-84607690D01*
X31532269Y-84607305D01*
X31952910Y-84187397D01*
X32181539Y-83636798D01*
X32182059Y-83040618D01*
X31954392Y-82489620D01*
X31533197Y-82067690D01*
X31532269Y-82067305D01*
X31952910Y-81647397D01*
X32181539Y-81096798D01*
X32182059Y-80500618D01*
X31954392Y-79949620D01*
X31533197Y-79527690D01*
X31532269Y-79527305D01*
X31952910Y-79107397D01*
X32181539Y-78556798D01*
X32182059Y-77960618D01*
X31954392Y-77409620D01*
X31533197Y-76987690D01*
X31532269Y-76987305D01*
X31952910Y-76567397D01*
X32181539Y-76016798D01*
X32182059Y-75420618D01*
X31954392Y-74869620D01*
X31533197Y-74447690D01*
X31532269Y-74447305D01*
X31952910Y-74027397D01*
X32181539Y-73476798D01*
X32182059Y-72880618D01*
X31954392Y-72329620D01*
X31533197Y-71907690D01*
X31532269Y-71907305D01*
X31952910Y-71487397D01*
X32181539Y-70936798D01*
X32182059Y-70340618D01*
X31954392Y-69789620D01*
X31533197Y-69367690D01*
X31532269Y-69367305D01*
X31952910Y-68947397D01*
X32181539Y-68396798D01*
X32182059Y-67800618D01*
X31954392Y-67249620D01*
X31533197Y-66827690D01*
X31532269Y-66827305D01*
X31952910Y-66407397D01*
X32181539Y-65856798D01*
X32182059Y-65260618D01*
X31954392Y-64709620D01*
X31533197Y-64287690D01*
X31532269Y-64287305D01*
X31952910Y-63867397D01*
X32181539Y-63316798D01*
X32182059Y-62720618D01*
X31954392Y-62169620D01*
X31533197Y-61747690D01*
X31532269Y-61747305D01*
X31952910Y-61327397D01*
X32181539Y-60776798D01*
X32182059Y-60180618D01*
X31954392Y-59629620D01*
X31533197Y-59207690D01*
X31492663Y-59190859D01*
X31557400Y-58991205D01*
X30683200Y-58117005D01*
X29809000Y-58991205D01*
X29873599Y-59190433D01*
X29835420Y-59206208D01*
X29413490Y-59627403D01*
X29184861Y-60178002D01*
X29184341Y-60774182D01*
X24910571Y-60774182D01*
X24955240Y-60553600D01*
X24955240Y-58826400D01*
X24910962Y-58591083D01*
X24771890Y-58374959D01*
X24559690Y-58229969D01*
X24307800Y-58178960D01*
X22275800Y-58178960D01*
X22040483Y-58223238D01*
X21824359Y-58362310D01*
X21679369Y-58574510D01*
X21628360Y-58826400D01*
X21628360Y-60553600D01*
X21672638Y-60788917D01*
X21811710Y-61005041D01*
X22023910Y-61150031D01*
X22065239Y-61158400D01*
X22047385Y-61170330D01*
X21722529Y-61656511D01*
X21608455Y-62230000D01*
X15951200Y-62230000D01*
X15951200Y-57705430D01*
X29172952Y-57705430D01*
X29199142Y-58301035D01*
X29376684Y-58729659D01*
X29629395Y-58811600D01*
X30503595Y-57937400D01*
X30862805Y-57937400D01*
X31737005Y-58811600D01*
X31989716Y-58729659D01*
X32193448Y-58169370D01*
X32167258Y-57573765D01*
X31989716Y-57145141D01*
X31737005Y-57063200D01*
X30862805Y-57937400D01*
X30503595Y-57937400D01*
X29629395Y-57063200D01*
X29376684Y-57145141D01*
X29172952Y-57705430D01*
X15951200Y-57705430D01*
X15951200Y-52140044D01*
X16074874Y-51518290D01*
X16692372Y-51518290D01*
X17243386Y-52851846D01*
X18262787Y-53873028D01*
X19595380Y-54426369D01*
X21038290Y-54427628D01*
X22371846Y-53876614D01*
X23393028Y-52857213D01*
X23946369Y-51524620D01*
X23947163Y-50614182D01*
X29184341Y-50614182D01*
X29412008Y-51165180D01*
X29833203Y-51587110D01*
X29834131Y-51587495D01*
X29413490Y-52007403D01*
X29184861Y-52558002D01*
X29184341Y-53154182D01*
X29412008Y-53705180D01*
X29833203Y-54127110D01*
X29834131Y-54127495D01*
X29413490Y-54547403D01*
X29184861Y-55098002D01*
X29184341Y-55694182D01*
X29412008Y-56245180D01*
X29833203Y-56667110D01*
X29873737Y-56683941D01*
X29809000Y-56883595D01*
X30683200Y-57757795D01*
X31557400Y-56883595D01*
X31492801Y-56684367D01*
X31530980Y-56668592D01*
X31952910Y-56247397D01*
X32181539Y-55696798D01*
X32181541Y-55694182D01*
X44424341Y-55694182D01*
X44652008Y-56245180D01*
X45073203Y-56667110D01*
X45074131Y-56667495D01*
X44653490Y-57087403D01*
X44424861Y-57638002D01*
X44424341Y-58234182D01*
X44652008Y-58785180D01*
X45073203Y-59207110D01*
X45074131Y-59207495D01*
X44653490Y-59627403D01*
X44424861Y-60178002D01*
X44424341Y-60774182D01*
X44652008Y-61325180D01*
X45073203Y-61747110D01*
X45074131Y-61747495D01*
X44653490Y-62167403D01*
X44424861Y-62718002D01*
X44424341Y-63314182D01*
X44652008Y-63865180D01*
X45073203Y-64287110D01*
X45074131Y-64287495D01*
X44653490Y-64707403D01*
X44424861Y-65258002D01*
X44424341Y-65854182D01*
X44652008Y-66405180D01*
X45073203Y-66827110D01*
X45074131Y-66827495D01*
X44653490Y-67247403D01*
X44424861Y-67798002D01*
X44424341Y-68394182D01*
X44652008Y-68945180D01*
X45073203Y-69367110D01*
X45074131Y-69367495D01*
X44653490Y-69787403D01*
X44424861Y-70338002D01*
X44424341Y-70934182D01*
X44652008Y-71485180D01*
X45073203Y-71907110D01*
X45074131Y-71907495D01*
X44653490Y-72327403D01*
X44424861Y-72878002D01*
X44424341Y-73474182D01*
X44652008Y-74025180D01*
X45073203Y-74447110D01*
X45074131Y-74447495D01*
X44653490Y-74867403D01*
X44424861Y-75418002D01*
X44424341Y-76014182D01*
X44652008Y-76565180D01*
X45073203Y-76987110D01*
X45074131Y-76987495D01*
X44653490Y-77407403D01*
X44424861Y-77958002D01*
X44424341Y-78554182D01*
X44652008Y-79105180D01*
X45073203Y-79527110D01*
X45074131Y-79527495D01*
X44653490Y-79947403D01*
X44424861Y-80498002D01*
X44424341Y-81094182D01*
X44652008Y-81645180D01*
X45073203Y-82067110D01*
X45074131Y-82067495D01*
X44653490Y-82487403D01*
X44424861Y-83038002D01*
X44424341Y-83634182D01*
X44652008Y-84185180D01*
X45073203Y-84607110D01*
X45074131Y-84607495D01*
X44653490Y-85027403D01*
X44424861Y-85578002D01*
X44424341Y-86174182D01*
X44652008Y-86725180D01*
X45073203Y-87147110D01*
X45623802Y-87375739D01*
X46219982Y-87376259D01*
X46770980Y-87148592D01*
X47192910Y-86727397D01*
X47421539Y-86176798D01*
X47422059Y-85580618D01*
X47194392Y-85029620D01*
X46773197Y-84607690D01*
X46772269Y-84607305D01*
X47192910Y-84187397D01*
X47421539Y-83636798D01*
X47422059Y-83040618D01*
X47194392Y-82489620D01*
X46773197Y-82067690D01*
X46772269Y-82067305D01*
X47109467Y-81730694D01*
X49597026Y-81730694D01*
X49845338Y-82331655D01*
X50304727Y-82791846D01*
X50905253Y-83041206D01*
X51555494Y-83041774D01*
X52156455Y-82793462D01*
X52616646Y-82334073D01*
X52856643Y-81756094D01*
X57242426Y-81756094D01*
X57490738Y-82357055D01*
X57950127Y-82817246D01*
X58550653Y-83066606D01*
X59200894Y-83067174D01*
X59801855Y-82818862D01*
X60262046Y-82359473D01*
X60511406Y-81758947D01*
X60511974Y-81108706D01*
X60263662Y-80507745D01*
X59804273Y-80047554D01*
X59203747Y-79798194D01*
X58553506Y-79797626D01*
X57952545Y-80045938D01*
X57492354Y-80505327D01*
X57242994Y-81105853D01*
X57242426Y-81756094D01*
X52856643Y-81756094D01*
X52866006Y-81733547D01*
X52866574Y-81083306D01*
X52618262Y-80482345D01*
X52158873Y-80022154D01*
X51558347Y-79772794D01*
X50908106Y-79772226D01*
X50307145Y-80020538D01*
X49846954Y-80479927D01*
X49597594Y-81080453D01*
X49597026Y-81730694D01*
X47109467Y-81730694D01*
X47192910Y-81647397D01*
X47421539Y-81096798D01*
X47422059Y-80500618D01*
X47194392Y-79949620D01*
X46773197Y-79527690D01*
X46772269Y-79527305D01*
X47192910Y-79107397D01*
X47421539Y-78556798D01*
X47422059Y-77960618D01*
X47194392Y-77409620D01*
X46773197Y-76987690D01*
X46772269Y-76987305D01*
X47192910Y-76567397D01*
X47421539Y-76016798D01*
X47422059Y-75420618D01*
X47194392Y-74869620D01*
X46773197Y-74447690D01*
X46772269Y-74447305D01*
X47192910Y-74027397D01*
X47421539Y-73476798D01*
X47422059Y-72880618D01*
X47194392Y-72329620D01*
X46773197Y-71907690D01*
X46772269Y-71907305D01*
X47192910Y-71487397D01*
X47421539Y-70936798D01*
X47422059Y-70340618D01*
X47194392Y-69789620D01*
X46773197Y-69367690D01*
X46772269Y-69367305D01*
X47192910Y-68947397D01*
X47421539Y-68396798D01*
X47422059Y-67800618D01*
X47194392Y-67249620D01*
X46773197Y-66827690D01*
X46772269Y-66827305D01*
X47192910Y-66407397D01*
X47421539Y-65856798D01*
X47422059Y-65260618D01*
X47194392Y-64709620D01*
X46773197Y-64287690D01*
X46772269Y-64287305D01*
X47192910Y-63867397D01*
X47421539Y-63316798D01*
X47421711Y-63119000D01*
X56609655Y-63119000D01*
X56735330Y-63750810D01*
X57093222Y-64286433D01*
X57246724Y-64389000D01*
X57093222Y-64491567D01*
X56735330Y-65027190D01*
X56609655Y-65659000D01*
X56735330Y-66290810D01*
X57093222Y-66826433D01*
X57246724Y-66929000D01*
X57093222Y-67031567D01*
X56735330Y-67567190D01*
X56609655Y-68199000D01*
X56735330Y-68830810D01*
X57093222Y-69366433D01*
X57246724Y-69469000D01*
X57093222Y-69571567D01*
X56735330Y-70107190D01*
X56609655Y-70739000D01*
X56735330Y-71370810D01*
X56962499Y-71710792D01*
X56825559Y-71798910D01*
X56680569Y-72011110D01*
X56629560Y-72263000D01*
X56629560Y-74295000D01*
X56673838Y-74530317D01*
X56812910Y-74746441D01*
X57025110Y-74891431D01*
X57226200Y-74932153D01*
X57226200Y-75006200D01*
X57303538Y-75395006D01*
X57523780Y-75724620D01*
X57853394Y-75944862D01*
X58242200Y-76022200D01*
X58631006Y-75944862D01*
X58960620Y-75724620D01*
X59180862Y-75395006D01*
X59258200Y-75006200D01*
X59258200Y-74942440D01*
X59309000Y-74942440D01*
X59544317Y-74898162D01*
X59760441Y-74759090D01*
X59905431Y-74546890D01*
X59956440Y-74295000D01*
X59956440Y-72263000D01*
X59912162Y-72027683D01*
X59773090Y-71811559D01*
X59624163Y-71709802D01*
X59850670Y-71370810D01*
X59976345Y-70739000D01*
X59850670Y-70107190D01*
X59492778Y-69571567D01*
X59339276Y-69469000D01*
X59492778Y-69366433D01*
X59850670Y-68830810D01*
X59976345Y-68199000D01*
X59850670Y-67567190D01*
X59492778Y-67031567D01*
X59339276Y-66929000D01*
X59492778Y-66826433D01*
X59850670Y-66290810D01*
X59976345Y-65659000D01*
X59850670Y-65027190D01*
X59492778Y-64491567D01*
X59339276Y-64389000D01*
X59492778Y-64286433D01*
X59850670Y-63750810D01*
X59976345Y-63119000D01*
X59850670Y-62487190D01*
X59492778Y-61951567D01*
X58957155Y-61593675D01*
X58325345Y-61468000D01*
X58260655Y-61468000D01*
X57628845Y-61593675D01*
X57093222Y-61951567D01*
X56735330Y-62487190D01*
X56609655Y-63119000D01*
X47421711Y-63119000D01*
X47422059Y-62720618D01*
X47194392Y-62169620D01*
X46773197Y-61747690D01*
X46772269Y-61747305D01*
X47192910Y-61327397D01*
X47421539Y-60776798D01*
X47422059Y-60180618D01*
X47194392Y-59629620D01*
X46773197Y-59207690D01*
X46772269Y-59207305D01*
X47192910Y-58787397D01*
X47291945Y-58548894D01*
X49597026Y-58548894D01*
X49845338Y-59149855D01*
X50304727Y-59610046D01*
X50905253Y-59859406D01*
X51555494Y-59859974D01*
X52156455Y-59611662D01*
X52616646Y-59152273D01*
X52866006Y-58551747D01*
X52866038Y-58515094D01*
X57242226Y-58515094D01*
X57490538Y-59116055D01*
X57949927Y-59576246D01*
X58550453Y-59825606D01*
X59200694Y-59826174D01*
X59801655Y-59577862D01*
X60261846Y-59118473D01*
X60511206Y-58517947D01*
X60511774Y-57867706D01*
X60263462Y-57266745D01*
X59804073Y-56806554D01*
X59203547Y-56557194D01*
X58553306Y-56556626D01*
X57952345Y-56804938D01*
X57492154Y-57264327D01*
X57242794Y-57864853D01*
X57242226Y-58515094D01*
X52866038Y-58515094D01*
X52866574Y-57901506D01*
X52618262Y-57300545D01*
X52158873Y-56840354D01*
X51558347Y-56590994D01*
X50908106Y-56590426D01*
X50307145Y-56838738D01*
X49846954Y-57298127D01*
X49597594Y-57898653D01*
X49597026Y-58548894D01*
X47291945Y-58548894D01*
X47421539Y-58236798D01*
X47422059Y-57640618D01*
X47194392Y-57089620D01*
X46773197Y-56667690D01*
X46772269Y-56667305D01*
X47192910Y-56247397D01*
X47421539Y-55696798D01*
X47422059Y-55100618D01*
X47194392Y-54549620D01*
X46773197Y-54127690D01*
X46732663Y-54110859D01*
X46797400Y-53911205D01*
X45923200Y-53037005D01*
X45049000Y-53911205D01*
X45113599Y-54110433D01*
X45075420Y-54126208D01*
X44653490Y-54547403D01*
X44424861Y-55098002D01*
X44424341Y-55694182D01*
X32181541Y-55694182D01*
X32182059Y-55100618D01*
X31954392Y-54549620D01*
X31533197Y-54127690D01*
X31532269Y-54127305D01*
X31952910Y-53707397D01*
X32181539Y-53156798D01*
X32182002Y-52625430D01*
X44412952Y-52625430D01*
X44439142Y-53221035D01*
X44616684Y-53649659D01*
X44869395Y-53731600D01*
X45743595Y-52857400D01*
X46102805Y-52857400D01*
X46977005Y-53731600D01*
X47229716Y-53649659D01*
X47433448Y-53089370D01*
X47407258Y-52493765D01*
X47229716Y-52065141D01*
X46977005Y-51983200D01*
X46102805Y-52857400D01*
X45743595Y-52857400D01*
X44869395Y-51983200D01*
X44616684Y-52065141D01*
X44412952Y-52625430D01*
X32182002Y-52625430D01*
X32182059Y-52560618D01*
X31954392Y-52009620D01*
X31533197Y-51587690D01*
X31532269Y-51587305D01*
X31952910Y-51167397D01*
X32181539Y-50616798D01*
X32181541Y-50614182D01*
X44424341Y-50614182D01*
X44652008Y-51165180D01*
X45073203Y-51587110D01*
X45113737Y-51603941D01*
X45049000Y-51803595D01*
X45923200Y-52677795D01*
X46797400Y-51803595D01*
X46732801Y-51604367D01*
X46770980Y-51588592D01*
X46841404Y-51518290D01*
X61142372Y-51518290D01*
X61693386Y-52851846D01*
X62712787Y-53873028D01*
X64045380Y-54426369D01*
X65488290Y-54427628D01*
X66821846Y-53876614D01*
X67843028Y-52857213D01*
X68396369Y-51524620D01*
X68397628Y-50081710D01*
X67846614Y-48748154D01*
X66827213Y-47726972D01*
X65494620Y-47173631D01*
X64051710Y-47172372D01*
X62718154Y-47723386D01*
X61696972Y-48742787D01*
X61143631Y-50075380D01*
X61142372Y-51518290D01*
X46841404Y-51518290D01*
X47192910Y-51167397D01*
X47421539Y-50616798D01*
X47421747Y-50377363D01*
X50259243Y-50377363D01*
X50357842Y-50644165D01*
X50967382Y-50870601D01*
X51617177Y-50846541D01*
X52105758Y-50644165D01*
X52204357Y-50377363D01*
X52170558Y-50343563D01*
X57904443Y-50343563D01*
X58003042Y-50610365D01*
X58612582Y-50836801D01*
X59262377Y-50812741D01*
X59750958Y-50610365D01*
X59849557Y-50343563D01*
X58877000Y-49371005D01*
X57904443Y-50343563D01*
X52170558Y-50343563D01*
X51231800Y-49404805D01*
X50259243Y-50377363D01*
X47421747Y-50377363D01*
X47422059Y-50020618D01*
X47194392Y-49469620D01*
X46773197Y-49047690D01*
X46563900Y-48960782D01*
X49586399Y-48960782D01*
X49610459Y-49610577D01*
X49812835Y-50099158D01*
X50079637Y-50197757D01*
X51052195Y-49225200D01*
X51411405Y-49225200D01*
X52383963Y-50197757D01*
X52650765Y-50099158D01*
X52877201Y-49489618D01*
X52856369Y-48926982D01*
X57231599Y-48926982D01*
X57255659Y-49576777D01*
X57458035Y-50065358D01*
X57724837Y-50163957D01*
X58697395Y-49191400D01*
X59056605Y-49191400D01*
X60029163Y-50163957D01*
X60295965Y-50065358D01*
X60522401Y-49455818D01*
X60498341Y-48806023D01*
X60295965Y-48317442D01*
X60029163Y-48218843D01*
X59056605Y-49191400D01*
X58697395Y-49191400D01*
X57724837Y-48218843D01*
X57458035Y-48317442D01*
X57231599Y-48926982D01*
X52856369Y-48926982D01*
X52853141Y-48839823D01*
X52650765Y-48351242D01*
X52383963Y-48252643D01*
X51411405Y-49225200D01*
X51052195Y-49225200D01*
X50079637Y-48252643D01*
X49812835Y-48351242D01*
X49586399Y-48960782D01*
X46563900Y-48960782D01*
X46222598Y-48819061D01*
X45626418Y-48818541D01*
X45075420Y-49046208D01*
X44653490Y-49467403D01*
X44424861Y-50018002D01*
X44424341Y-50614182D01*
X32181541Y-50614182D01*
X32182059Y-50020618D01*
X31954392Y-49469620D01*
X31533197Y-49047690D01*
X30982598Y-48819061D01*
X30386418Y-48818541D01*
X29835420Y-49046208D01*
X29413490Y-49467403D01*
X29184861Y-50018002D01*
X29184341Y-50614182D01*
X23947163Y-50614182D01*
X23947628Y-50081710D01*
X23396614Y-48748154D01*
X22722675Y-48073037D01*
X50259243Y-48073037D01*
X51231800Y-49045595D01*
X52204357Y-48073037D01*
X52191866Y-48039237D01*
X57904443Y-48039237D01*
X58877000Y-49011795D01*
X59849557Y-48039237D01*
X59750958Y-47772435D01*
X59141418Y-47545999D01*
X58491623Y-47570059D01*
X58003042Y-47772435D01*
X57904443Y-48039237D01*
X52191866Y-48039237D01*
X52105758Y-47806235D01*
X51496218Y-47579799D01*
X50846423Y-47603859D01*
X50357842Y-47806235D01*
X50259243Y-48073037D01*
X22722675Y-48073037D01*
X22377213Y-47726972D01*
X21044620Y-47173631D01*
X19601710Y-47172372D01*
X18268154Y-47723386D01*
X17246972Y-48742787D01*
X16693631Y-50075380D01*
X16692372Y-51518290D01*
X16074874Y-51518290D01*
X16393300Y-49917457D01*
X17612618Y-48092619D01*
X19437458Y-46873300D01*
X21660049Y-46431200D01*
X63429956Y-46431200D01*
X65652543Y-46873300D01*
D20*
X45923200Y-85877400D03*
X45923200Y-83337400D03*
X45923200Y-80797400D03*
X45923200Y-78257400D03*
X45923200Y-75717400D03*
X45923200Y-73177400D03*
X45923200Y-70637400D03*
X45923200Y-68097400D03*
X45923200Y-65557400D03*
X45923200Y-63017400D03*
X45923200Y-60477400D03*
X45923200Y-57937400D03*
X45923200Y-55397400D03*
X45923200Y-52857400D03*
X30683200Y-52857400D03*
X30683200Y-60477400D03*
X30683200Y-80797400D03*
X30683200Y-65557400D03*
X30683200Y-63017400D03*
X30683200Y-83337400D03*
X30683200Y-75717400D03*
X30683200Y-85877400D03*
X30683200Y-73177400D03*
X30683200Y-70637400D03*
X30683200Y-68097400D03*
X30683200Y-78257400D03*
X30683200Y-55397400D03*
X30683200Y-57937400D03*
X30683200Y-50317400D03*
X45923200Y-50317400D03*
X64770000Y-50800000D03*
X20320000Y-88900000D03*
X64770000Y-88900000D03*
X23291800Y-74930000D03*
X23291800Y-77470000D03*
X23291800Y-80010000D03*
X23291800Y-59690000D03*
X23291800Y-62230000D03*
X23291800Y-64770000D03*
X58293000Y-73279000D03*
X58293000Y-70739000D03*
X58293000Y-68199000D03*
X58293000Y-65659000D03*
X58293000Y-63119000D03*
X51231800Y-58225200D03*
X51231800Y-49225200D03*
X58877200Y-81432400D03*
X58877200Y-90432400D03*
X58877000Y-58191400D03*
X58877000Y-49191400D03*
X51231800Y-81407000D03*
X51231800Y-90407000D03*
X20320000Y-50800000D03*
M02*
