%TF.GenerationSoftware,KiCad,Pcbnew,4.0.7-e2-6376~58~ubuntu16.04.1*%
%TF.CreationDate,2018-03-21T07:26:21-07:00*%
%TF.ProjectId,Arduino-Nano-Board,41726475696E6F2D4E616E6F2D426F61,v1.5*%
%TF.FileFunction,Copper,L1,Top,Signal*%
%FSLAX46Y46*%
G04 Gerber Fmt 4.6, Leading zero omitted, Abs format (unit mm)*
G04 Created by KiCad (PCBNEW 4.0.7-e2-6376~58~ubuntu16.04.1) date Wed Mar 21 07:26:21 2018*
%MOMM*%
%LPD*%
G01*
G04 APERTURE LIST*
%ADD10C,0.350000*%
%ADD11C,1.727200*%
%ADD12C,5.000000*%
%ADD13R,2.032000X1.727200*%
%ADD14O,2.032000X1.727200*%
%ADD15R,2.032000X2.032000*%
%ADD16O,2.032000X2.032000*%
%ADD17C,1.998980*%
%ADD18C,0.762000*%
%ADD19C,0.254000*%
%ADD20C,0.350000*%
G04 APERTURE END LIST*
D10*
D11*
X45923200Y-85877400D03*
X45923200Y-83337400D03*
X45923200Y-80797400D03*
X45923200Y-78257400D03*
X45923200Y-75717400D03*
X45923200Y-73177400D03*
X45923200Y-70637400D03*
X45923200Y-68097400D03*
X45923200Y-65557400D03*
X45923200Y-63017400D03*
X45923200Y-60477400D03*
X45923200Y-57937400D03*
X45923200Y-55397400D03*
X45923200Y-52857400D03*
X30683200Y-52857400D03*
X30683200Y-60477400D03*
X30683200Y-80797400D03*
X30683200Y-65557400D03*
X30683200Y-63017400D03*
X30683200Y-83337400D03*
X30683200Y-75717400D03*
X30683200Y-85877400D03*
X30683200Y-73177400D03*
X30683200Y-70637400D03*
X30683200Y-68097400D03*
X30683200Y-78257400D03*
X30683200Y-55397400D03*
X30683200Y-57937400D03*
X30683200Y-50317400D03*
X45923200Y-50317400D03*
D12*
X64770000Y-50800000D03*
X20320000Y-88900000D03*
X64770000Y-88900000D03*
D13*
X23291800Y-74930000D03*
D14*
X23291800Y-77470000D03*
X23291800Y-80010000D03*
D13*
X23291800Y-59690000D03*
D14*
X23291800Y-62230000D03*
X23291800Y-64770000D03*
D15*
X58293000Y-73279000D03*
D16*
X58293000Y-70739000D03*
X58293000Y-68199000D03*
X58293000Y-65659000D03*
X58293000Y-63119000D03*
D17*
X51231800Y-58225200D03*
X51231800Y-49225200D03*
X58877200Y-81432400D03*
X58877200Y-90432400D03*
X58877000Y-58191400D03*
X58877000Y-49191400D03*
X51231800Y-81407000D03*
X51231800Y-90407000D03*
D12*
X20320000Y-50800000D03*
D18*
X23291800Y-64770000D02*
X23291800Y-66878200D01*
X23291800Y-80010000D02*
X23291800Y-83388200D01*
X20320000Y-76276200D02*
X20320000Y-77419200D01*
X23291800Y-77470000D02*
X20370800Y-77470000D01*
X20320000Y-77419200D02*
X20320000Y-81940400D01*
X20370800Y-77470000D02*
X20320000Y-77419200D01*
X42697400Y-59941886D02*
X42697400Y-80746600D01*
X45923200Y-80797400D02*
X42748200Y-80797400D01*
X42748200Y-80797400D02*
X42697400Y-80746600D01*
X42697400Y-80746600D02*
X42697400Y-82270600D01*
X45923200Y-57937400D02*
X44701886Y-57937400D01*
X44701886Y-57937400D02*
X42697400Y-59941886D01*
X42697400Y-82270600D02*
X42697400Y-89890600D01*
X55092600Y-78638400D02*
X55092600Y-82270600D01*
X55092600Y-82270600D02*
X55143400Y-82321400D01*
X55143400Y-78206600D02*
X55143400Y-78689200D01*
X55143400Y-78689200D02*
X55143400Y-82321400D01*
X55092600Y-78155800D02*
X55092600Y-78638400D01*
X55092600Y-78638400D02*
X55143400Y-78689200D01*
X34950400Y-89941400D02*
X43205400Y-89941400D01*
X20320000Y-81940400D02*
X28321000Y-89941400D01*
X34950400Y-89941400D02*
X28321000Y-89941400D01*
X58242200Y-75006200D02*
X55092600Y-78155800D01*
X47523400Y-89941400D02*
X42748200Y-89941400D01*
X42748200Y-89941400D02*
X34950400Y-89941400D01*
X55143400Y-82321400D02*
X47523400Y-89941400D01*
X58293000Y-73279000D02*
X58293000Y-75057000D01*
X20320000Y-65049400D02*
X20320000Y-76276200D01*
X23291800Y-62230000D02*
X23139400Y-62230000D01*
X23139400Y-62230000D02*
X20320000Y-65049400D01*
X51231800Y-76363360D02*
X51231800Y-78232000D01*
X51231800Y-78232000D02*
X51231800Y-79993508D01*
X45923200Y-78257400D02*
X47144514Y-78257400D01*
X47169914Y-78232000D02*
X51231800Y-78232000D01*
X47144514Y-78257400D02*
X47169914Y-78232000D01*
X58293000Y-70739000D02*
X56856160Y-70739000D01*
X56856160Y-70739000D02*
X51231800Y-76363360D01*
X51231800Y-79993508D02*
X51231800Y-81407000D01*
X48133000Y-75717400D02*
X55651400Y-68199000D01*
X55651400Y-68199000D02*
X58293000Y-68199000D01*
X45923200Y-75717400D02*
X48133000Y-75717400D01*
X61137800Y-69606960D02*
X61137800Y-79171800D01*
X61137800Y-79171800D02*
X58877200Y-81432400D01*
X58293000Y-68199000D02*
X59729840Y-68199000D01*
X59729840Y-68199000D02*
X61137800Y-69606960D01*
X45923200Y-73177400D02*
X53441600Y-65659000D01*
X53441600Y-65659000D02*
X58293000Y-65659000D01*
X60833000Y-64555840D02*
X60833000Y-60147400D01*
X60833000Y-60147400D02*
X58877000Y-58191400D01*
X58293000Y-65659000D02*
X59729840Y-65659000D01*
X59729840Y-65659000D02*
X60833000Y-64555840D01*
X51231800Y-65328800D02*
X51231800Y-63169800D01*
X51231800Y-63169800D02*
X51231800Y-58225200D01*
X58293000Y-63119000D02*
X51282600Y-63119000D01*
X51282600Y-63119000D02*
X51231800Y-63169800D01*
X45923200Y-70637400D02*
X51231800Y-65328800D01*
X23291800Y-59690000D02*
X25069800Y-59690000D01*
X25069800Y-59690000D02*
X27940000Y-62560200D01*
X28727400Y-78257400D02*
X30683200Y-78257400D01*
X27940000Y-62560200D02*
X27940000Y-77470000D01*
X27940000Y-77470000D02*
X28727400Y-78257400D01*
X30683200Y-80797400D02*
X29819601Y-79933801D01*
X29819601Y-79933801D02*
X27863801Y-79933801D01*
X27863801Y-79933801D02*
X26670000Y-78740000D01*
X26670000Y-78740000D02*
X26670000Y-76200000D01*
X26670000Y-76200000D02*
X25400000Y-74930000D01*
X25400000Y-74930000D02*
X23291800Y-74930000D01*
D19*
G36*
X65652543Y-46873300D02*
X67477381Y-48092618D01*
X68696700Y-49917458D01*
X69138800Y-52140049D01*
X69138800Y-87559951D01*
X68696700Y-89782542D01*
X67477381Y-91607382D01*
X65652543Y-92826700D01*
X63429956Y-93268800D01*
X21660049Y-93268800D01*
X19437458Y-92826700D01*
X17612618Y-91607381D01*
X16393300Y-89782543D01*
X16360629Y-89618290D01*
X16692372Y-89618290D01*
X17243386Y-90951846D01*
X18262787Y-91973028D01*
X19595380Y-92526369D01*
X21038290Y-92527628D01*
X22371846Y-91976614D01*
X22790026Y-91559163D01*
X50259243Y-91559163D01*
X50357842Y-91825965D01*
X50967382Y-92052401D01*
X51617177Y-92028341D01*
X52105758Y-91825965D01*
X52194970Y-91584563D01*
X57904643Y-91584563D01*
X58003242Y-91851365D01*
X58612782Y-92077801D01*
X59262577Y-92053741D01*
X59751158Y-91851365D01*
X59849757Y-91584563D01*
X58877200Y-90612005D01*
X57904643Y-91584563D01*
X52194970Y-91584563D01*
X52204357Y-91559163D01*
X51231800Y-90586605D01*
X50259243Y-91559163D01*
X22790026Y-91559163D01*
X23393028Y-90957213D01*
X23946369Y-89624620D01*
X23947628Y-88181710D01*
X23396614Y-86848154D01*
X22377213Y-85826972D01*
X21044620Y-85273631D01*
X19601710Y-85272372D01*
X18268154Y-85823386D01*
X17246972Y-86842787D01*
X16693631Y-88175380D01*
X16692372Y-89618290D01*
X16360629Y-89618290D01*
X15951200Y-87559956D01*
X15951200Y-65049400D01*
X19304000Y-65049400D01*
X19304000Y-81940400D01*
X19329499Y-82068592D01*
X19381338Y-82329207D01*
X19601580Y-82658820D01*
X27602580Y-90659821D01*
X27932193Y-90880062D01*
X28321000Y-90957400D01*
X47523400Y-90957400D01*
X47847700Y-90892893D01*
X47912207Y-90880062D01*
X48241820Y-90659820D01*
X48759058Y-90142582D01*
X49586399Y-90142582D01*
X49610459Y-90792377D01*
X49812835Y-91280958D01*
X50079637Y-91379557D01*
X51052195Y-90407000D01*
X51411405Y-90407000D01*
X52383963Y-91379557D01*
X52650765Y-91280958D01*
X52877201Y-90671418D01*
X52858561Y-90167982D01*
X57231799Y-90167982D01*
X57255859Y-90817777D01*
X57458235Y-91306358D01*
X57725037Y-91404957D01*
X58697595Y-90432400D01*
X59056805Y-90432400D01*
X60029363Y-91404957D01*
X60296165Y-91306358D01*
X60522601Y-90696818D01*
X60498541Y-90047023D01*
X60320955Y-89618290D01*
X61142372Y-89618290D01*
X61693386Y-90951846D01*
X62712787Y-91973028D01*
X64045380Y-92526369D01*
X65488290Y-92527628D01*
X66821846Y-91976614D01*
X67843028Y-90957213D01*
X68396369Y-89624620D01*
X68397628Y-88181710D01*
X67846614Y-86848154D01*
X66827213Y-85826972D01*
X65494620Y-85273631D01*
X64051710Y-85272372D01*
X62718154Y-85823386D01*
X61696972Y-86842787D01*
X61143631Y-88175380D01*
X61142372Y-89618290D01*
X60320955Y-89618290D01*
X60296165Y-89558442D01*
X60029363Y-89459843D01*
X59056805Y-90432400D01*
X58697595Y-90432400D01*
X57725037Y-89459843D01*
X57458235Y-89558442D01*
X57231799Y-90167982D01*
X52858561Y-90167982D01*
X52853141Y-90021623D01*
X52650765Y-89533042D01*
X52383963Y-89434443D01*
X51411405Y-90407000D01*
X51052195Y-90407000D01*
X50079637Y-89434443D01*
X49812835Y-89533042D01*
X49586399Y-90142582D01*
X48759058Y-90142582D01*
X49646803Y-89254837D01*
X50259243Y-89254837D01*
X51231800Y-90227395D01*
X52178957Y-89280237D01*
X57904643Y-89280237D01*
X58877200Y-90252795D01*
X59849757Y-89280237D01*
X59751158Y-89013435D01*
X59141618Y-88786999D01*
X58491823Y-88811059D01*
X58003242Y-89013435D01*
X57904643Y-89280237D01*
X52178957Y-89280237D01*
X52204357Y-89254837D01*
X52105758Y-88988035D01*
X51496218Y-88761599D01*
X50846423Y-88785659D01*
X50357842Y-88988035D01*
X50259243Y-89254837D01*
X49646803Y-89254837D01*
X55861820Y-83039821D01*
X55969236Y-82879062D01*
X56082062Y-82710207D01*
X56134138Y-82448399D01*
X56159400Y-82321400D01*
X56159400Y-78525840D01*
X58705231Y-75980010D01*
X59011420Y-75775420D01*
X59231662Y-75445806D01*
X59309000Y-75057000D01*
X59309000Y-74942440D01*
X59544317Y-74898162D01*
X59760441Y-74759090D01*
X59905431Y-74546890D01*
X59956440Y-74295000D01*
X59956440Y-72263000D01*
X59912162Y-72027683D01*
X59773090Y-71811559D01*
X59624163Y-71709802D01*
X59850670Y-71370810D01*
X59976345Y-70739000D01*
X59850670Y-70107190D01*
X59492778Y-69571567D01*
X59339276Y-69469000D01*
X59473388Y-69379389D01*
X60121800Y-70027801D01*
X60121800Y-78750959D01*
X59074678Y-79798081D01*
X58553506Y-79797626D01*
X57952545Y-80045938D01*
X57492354Y-80505327D01*
X57242994Y-81105853D01*
X57242426Y-81756094D01*
X57490738Y-82357055D01*
X57950127Y-82817246D01*
X58550653Y-83066606D01*
X59200894Y-83067174D01*
X59801855Y-82818862D01*
X60262046Y-82359473D01*
X60511406Y-81758947D01*
X60511864Y-81234576D01*
X61856220Y-79890221D01*
X62076461Y-79560607D01*
X62076462Y-79560606D01*
X62153800Y-79171800D01*
X62153800Y-69606960D01*
X62076462Y-69218154D01*
X62076462Y-69218153D01*
X61856220Y-68888539D01*
X60448260Y-67480580D01*
X60118647Y-67260338D01*
X60053617Y-67247403D01*
X59729840Y-67183000D01*
X59593962Y-67183000D01*
X59492778Y-67031567D01*
X59339276Y-66929000D01*
X59492778Y-66826433D01*
X59593962Y-66675000D01*
X59729840Y-66675000D01*
X60054140Y-66610493D01*
X60118647Y-66597662D01*
X60448260Y-66377420D01*
X61551421Y-65274260D01*
X61771662Y-64944647D01*
X61831399Y-64644325D01*
X61849000Y-64555840D01*
X61849000Y-60147400D01*
X61771662Y-59758594D01*
X61771662Y-59758593D01*
X61551421Y-59428980D01*
X60511319Y-58388878D01*
X60511774Y-57867706D01*
X60263462Y-57266745D01*
X59804073Y-56806554D01*
X59203547Y-56557194D01*
X58553306Y-56556626D01*
X57952345Y-56804938D01*
X57492154Y-57264327D01*
X57242794Y-57864853D01*
X57242226Y-58515094D01*
X57490538Y-59116055D01*
X57949927Y-59576246D01*
X58550453Y-59825606D01*
X59074824Y-59826064D01*
X59817000Y-60568241D01*
X59817000Y-62436799D01*
X59492778Y-61951567D01*
X58957155Y-61593675D01*
X58325345Y-61468000D01*
X58260655Y-61468000D01*
X57628845Y-61593675D01*
X57093222Y-61951567D01*
X56992038Y-62103000D01*
X52247800Y-62103000D01*
X52247800Y-59520476D01*
X52616646Y-59152273D01*
X52866006Y-58551747D01*
X52866574Y-57901506D01*
X52618262Y-57300545D01*
X52158873Y-56840354D01*
X51558347Y-56590994D01*
X50908106Y-56590426D01*
X50307145Y-56838738D01*
X49846954Y-57298127D01*
X49597594Y-57898653D01*
X49597026Y-58548894D01*
X49845338Y-59149855D01*
X50215800Y-59520964D01*
X50215800Y-64907959D01*
X47393137Y-67730622D01*
X47194392Y-67249620D01*
X46773197Y-66827690D01*
X46772269Y-66827305D01*
X47192910Y-66407397D01*
X47421539Y-65856798D01*
X47422059Y-65260618D01*
X47194392Y-64709620D01*
X46773197Y-64287690D01*
X46772269Y-64287305D01*
X47192910Y-63867397D01*
X47421539Y-63316798D01*
X47422059Y-62720618D01*
X47194392Y-62169620D01*
X46773197Y-61747690D01*
X46772269Y-61747305D01*
X47192910Y-61327397D01*
X47421539Y-60776798D01*
X47422059Y-60180618D01*
X47194392Y-59629620D01*
X46773197Y-59207690D01*
X46772269Y-59207305D01*
X47192910Y-58787397D01*
X47421539Y-58236798D01*
X47422059Y-57640618D01*
X47194392Y-57089620D01*
X46773197Y-56667690D01*
X46772269Y-56667305D01*
X47192910Y-56247397D01*
X47421539Y-55696798D01*
X47422059Y-55100618D01*
X47194392Y-54549620D01*
X46773197Y-54127690D01*
X46732663Y-54110859D01*
X46797400Y-53911205D01*
X45923200Y-53037005D01*
X45049000Y-53911205D01*
X45113599Y-54110433D01*
X45075420Y-54126208D01*
X44653490Y-54547403D01*
X44424861Y-55098002D01*
X44424341Y-55694182D01*
X44652008Y-56245180D01*
X45073203Y-56667110D01*
X45074131Y-56667495D01*
X44819783Y-56921400D01*
X44701886Y-56921400D01*
X44313080Y-56998738D01*
X44313078Y-56998739D01*
X44313079Y-56998739D01*
X43983465Y-57218980D01*
X41978980Y-59223466D01*
X41758738Y-59553079D01*
X41747407Y-59610046D01*
X41681400Y-59941886D01*
X41681400Y-88925400D01*
X28741841Y-88925400D01*
X21336000Y-81519560D01*
X21336000Y-80369026D01*
X21684442Y-80369026D01*
X21687091Y-80384791D01*
X21941068Y-80912036D01*
X22377480Y-81301954D01*
X22929887Y-81495184D01*
X23164800Y-81350924D01*
X23164800Y-80137000D01*
X23418800Y-80137000D01*
X23418800Y-81350924D01*
X23653713Y-81495184D01*
X24206120Y-81301954D01*
X24642532Y-80912036D01*
X24896509Y-80384791D01*
X24899158Y-80369026D01*
X24778017Y-80137000D01*
X23418800Y-80137000D01*
X23164800Y-80137000D01*
X21805583Y-80137000D01*
X21684442Y-80369026D01*
X21336000Y-80369026D01*
X21336000Y-78486000D01*
X22018206Y-78486000D01*
X22047385Y-78529670D01*
X22356869Y-78736461D01*
X21941068Y-79107964D01*
X21687091Y-79635209D01*
X21684442Y-79650974D01*
X21805583Y-79883000D01*
X23164800Y-79883000D01*
X23164800Y-79863000D01*
X23418800Y-79863000D01*
X23418800Y-79883000D01*
X24778017Y-79883000D01*
X24899158Y-79650974D01*
X24896509Y-79635209D01*
X24642532Y-79107964D01*
X24226731Y-78736461D01*
X24536215Y-78529670D01*
X24861071Y-78043489D01*
X24975145Y-77470000D01*
X24861071Y-76896511D01*
X24536215Y-76410330D01*
X24521887Y-76400757D01*
X24543117Y-76396762D01*
X24759241Y-76257690D01*
X24904231Y-76045490D01*
X24924378Y-75946000D01*
X24979160Y-75946000D01*
X25654000Y-76620841D01*
X25654000Y-78740000D01*
X25700908Y-78975821D01*
X25731338Y-79128807D01*
X25951580Y-79458420D01*
X27145381Y-80652222D01*
X27474994Y-80872463D01*
X27863801Y-80949801D01*
X29184467Y-80949801D01*
X29184341Y-81094182D01*
X29412008Y-81645180D01*
X29833203Y-82067110D01*
X29834131Y-82067495D01*
X29413490Y-82487403D01*
X29184861Y-83038002D01*
X29184341Y-83634182D01*
X29412008Y-84185180D01*
X29833203Y-84607110D01*
X29834131Y-84607495D01*
X29413490Y-85027403D01*
X29184861Y-85578002D01*
X29184341Y-86174182D01*
X29412008Y-86725180D01*
X29833203Y-87147110D01*
X30383802Y-87375739D01*
X30979982Y-87376259D01*
X31530980Y-87148592D01*
X31952910Y-86727397D01*
X32181539Y-86176798D01*
X32182059Y-85580618D01*
X31954392Y-85029620D01*
X31533197Y-84607690D01*
X31532269Y-84607305D01*
X31952910Y-84187397D01*
X32181539Y-83636798D01*
X32182059Y-83040618D01*
X31954392Y-82489620D01*
X31533197Y-82067690D01*
X31532269Y-82067305D01*
X31952910Y-81647397D01*
X32181539Y-81096798D01*
X32182059Y-80500618D01*
X31954392Y-79949620D01*
X31533197Y-79527690D01*
X31532269Y-79527305D01*
X31952910Y-79107397D01*
X32181539Y-78556798D01*
X32182059Y-77960618D01*
X31954392Y-77409620D01*
X31533197Y-76987690D01*
X31532269Y-76987305D01*
X31952910Y-76567397D01*
X32181539Y-76016798D01*
X32182059Y-75420618D01*
X31954392Y-74869620D01*
X31533197Y-74447690D01*
X31532269Y-74447305D01*
X31952910Y-74027397D01*
X32181539Y-73476798D01*
X32182059Y-72880618D01*
X31954392Y-72329620D01*
X31533197Y-71907690D01*
X31532269Y-71907305D01*
X31952910Y-71487397D01*
X32181539Y-70936798D01*
X32182059Y-70340618D01*
X31954392Y-69789620D01*
X31533197Y-69367690D01*
X31532269Y-69367305D01*
X31952910Y-68947397D01*
X32181539Y-68396798D01*
X32182059Y-67800618D01*
X31954392Y-67249620D01*
X31533197Y-66827690D01*
X31532269Y-66827305D01*
X31952910Y-66407397D01*
X32181539Y-65856798D01*
X32182059Y-65260618D01*
X31954392Y-64709620D01*
X31533197Y-64287690D01*
X31532269Y-64287305D01*
X31952910Y-63867397D01*
X32181539Y-63316798D01*
X32182059Y-62720618D01*
X31954392Y-62169620D01*
X31533197Y-61747690D01*
X31532269Y-61747305D01*
X31952910Y-61327397D01*
X32181539Y-60776798D01*
X32182059Y-60180618D01*
X31954392Y-59629620D01*
X31533197Y-59207690D01*
X31492663Y-59190859D01*
X31557400Y-58991205D01*
X30683200Y-58117005D01*
X29809000Y-58991205D01*
X29873599Y-59190433D01*
X29835420Y-59206208D01*
X29413490Y-59627403D01*
X29184861Y-60178002D01*
X29184341Y-60774182D01*
X29412008Y-61325180D01*
X29833203Y-61747110D01*
X29834131Y-61747495D01*
X29413490Y-62167403D01*
X29184861Y-62718002D01*
X29184341Y-63314182D01*
X29412008Y-63865180D01*
X29833203Y-64287110D01*
X29834131Y-64287495D01*
X29413490Y-64707403D01*
X29184861Y-65258002D01*
X29184341Y-65854182D01*
X29412008Y-66405180D01*
X29833203Y-66827110D01*
X29834131Y-66827495D01*
X29413490Y-67247403D01*
X29184861Y-67798002D01*
X29184341Y-68394182D01*
X29412008Y-68945180D01*
X29833203Y-69367110D01*
X29834131Y-69367495D01*
X29413490Y-69787403D01*
X29184861Y-70338002D01*
X29184341Y-70934182D01*
X29412008Y-71485180D01*
X29833203Y-71907110D01*
X29834131Y-71907495D01*
X29413490Y-72327403D01*
X29184861Y-72878002D01*
X29184341Y-73474182D01*
X29412008Y-74025180D01*
X29833203Y-74447110D01*
X29834131Y-74447495D01*
X29413490Y-74867403D01*
X29184861Y-75418002D01*
X29184341Y-76014182D01*
X29412008Y-76565180D01*
X29833203Y-76987110D01*
X29834131Y-76987495D01*
X29579783Y-77241400D01*
X29148241Y-77241400D01*
X28956000Y-77049160D01*
X28956000Y-62560200D01*
X28878662Y-62171394D01*
X28878662Y-62171393D01*
X28658421Y-61841780D01*
X25788220Y-58971580D01*
X25458607Y-58751338D01*
X25394100Y-58738507D01*
X25069800Y-58674000D01*
X24926564Y-58674000D01*
X24910962Y-58591083D01*
X24771890Y-58374959D01*
X24559690Y-58229969D01*
X24307800Y-58178960D01*
X22275800Y-58178960D01*
X22040483Y-58223238D01*
X21824359Y-58362310D01*
X21679369Y-58574510D01*
X21628360Y-58826400D01*
X21628360Y-60553600D01*
X21672638Y-60788917D01*
X21811710Y-61005041D01*
X22023910Y-61150031D01*
X22065239Y-61158400D01*
X22047385Y-61170330D01*
X21722529Y-61656511D01*
X21608455Y-62230000D01*
X21624068Y-62308491D01*
X19601580Y-64330980D01*
X19381338Y-64660593D01*
X19381338Y-64660594D01*
X19304000Y-65049400D01*
X15951200Y-65049400D01*
X15951200Y-57705430D01*
X29172952Y-57705430D01*
X29199142Y-58301035D01*
X29376684Y-58729659D01*
X29629395Y-58811600D01*
X30503595Y-57937400D01*
X30862805Y-57937400D01*
X31737005Y-58811600D01*
X31989716Y-58729659D01*
X32193448Y-58169370D01*
X32167258Y-57573765D01*
X31989716Y-57145141D01*
X31737005Y-57063200D01*
X30862805Y-57937400D01*
X30503595Y-57937400D01*
X29629395Y-57063200D01*
X29376684Y-57145141D01*
X29172952Y-57705430D01*
X15951200Y-57705430D01*
X15951200Y-52140044D01*
X16074874Y-51518290D01*
X16692372Y-51518290D01*
X17243386Y-52851846D01*
X18262787Y-53873028D01*
X19595380Y-54426369D01*
X21038290Y-54427628D01*
X22371846Y-53876614D01*
X23393028Y-52857213D01*
X23946369Y-51524620D01*
X23947163Y-50614182D01*
X29184341Y-50614182D01*
X29412008Y-51165180D01*
X29833203Y-51587110D01*
X29834131Y-51587495D01*
X29413490Y-52007403D01*
X29184861Y-52558002D01*
X29184341Y-53154182D01*
X29412008Y-53705180D01*
X29833203Y-54127110D01*
X29834131Y-54127495D01*
X29413490Y-54547403D01*
X29184861Y-55098002D01*
X29184341Y-55694182D01*
X29412008Y-56245180D01*
X29833203Y-56667110D01*
X29873737Y-56683941D01*
X29809000Y-56883595D01*
X30683200Y-57757795D01*
X31557400Y-56883595D01*
X31492801Y-56684367D01*
X31530980Y-56668592D01*
X31952910Y-56247397D01*
X32181539Y-55696798D01*
X32182059Y-55100618D01*
X31954392Y-54549620D01*
X31533197Y-54127690D01*
X31532269Y-54127305D01*
X31952910Y-53707397D01*
X32181539Y-53156798D01*
X32182002Y-52625430D01*
X44412952Y-52625430D01*
X44439142Y-53221035D01*
X44616684Y-53649659D01*
X44869395Y-53731600D01*
X45743595Y-52857400D01*
X46102805Y-52857400D01*
X46977005Y-53731600D01*
X47229716Y-53649659D01*
X47433448Y-53089370D01*
X47407258Y-52493765D01*
X47229716Y-52065141D01*
X46977005Y-51983200D01*
X46102805Y-52857400D01*
X45743595Y-52857400D01*
X44869395Y-51983200D01*
X44616684Y-52065141D01*
X44412952Y-52625430D01*
X32182002Y-52625430D01*
X32182059Y-52560618D01*
X31954392Y-52009620D01*
X31533197Y-51587690D01*
X31532269Y-51587305D01*
X31952910Y-51167397D01*
X32181539Y-50616798D01*
X32181541Y-50614182D01*
X44424341Y-50614182D01*
X44652008Y-51165180D01*
X45073203Y-51587110D01*
X45113737Y-51603941D01*
X45049000Y-51803595D01*
X45923200Y-52677795D01*
X46797400Y-51803595D01*
X46732801Y-51604367D01*
X46770980Y-51588592D01*
X46841404Y-51518290D01*
X61142372Y-51518290D01*
X61693386Y-52851846D01*
X62712787Y-53873028D01*
X64045380Y-54426369D01*
X65488290Y-54427628D01*
X66821846Y-53876614D01*
X67843028Y-52857213D01*
X68396369Y-51524620D01*
X68397628Y-50081710D01*
X67846614Y-48748154D01*
X66827213Y-47726972D01*
X65494620Y-47173631D01*
X64051710Y-47172372D01*
X62718154Y-47723386D01*
X61696972Y-48742787D01*
X61143631Y-50075380D01*
X61142372Y-51518290D01*
X46841404Y-51518290D01*
X47192910Y-51167397D01*
X47421539Y-50616798D01*
X47421747Y-50377363D01*
X50259243Y-50377363D01*
X50357842Y-50644165D01*
X50967382Y-50870601D01*
X51617177Y-50846541D01*
X52105758Y-50644165D01*
X52204357Y-50377363D01*
X52170558Y-50343563D01*
X57904443Y-50343563D01*
X58003042Y-50610365D01*
X58612582Y-50836801D01*
X59262377Y-50812741D01*
X59750958Y-50610365D01*
X59849557Y-50343563D01*
X58877000Y-49371005D01*
X57904443Y-50343563D01*
X52170558Y-50343563D01*
X51231800Y-49404805D01*
X50259243Y-50377363D01*
X47421747Y-50377363D01*
X47422059Y-50020618D01*
X47194392Y-49469620D01*
X46773197Y-49047690D01*
X46563900Y-48960782D01*
X49586399Y-48960782D01*
X49610459Y-49610577D01*
X49812835Y-50099158D01*
X50079637Y-50197757D01*
X51052195Y-49225200D01*
X51411405Y-49225200D01*
X52383963Y-50197757D01*
X52650765Y-50099158D01*
X52877201Y-49489618D01*
X52856369Y-48926982D01*
X57231599Y-48926982D01*
X57255659Y-49576777D01*
X57458035Y-50065358D01*
X57724837Y-50163957D01*
X58697395Y-49191400D01*
X59056605Y-49191400D01*
X60029163Y-50163957D01*
X60295965Y-50065358D01*
X60522401Y-49455818D01*
X60498341Y-48806023D01*
X60295965Y-48317442D01*
X60029163Y-48218843D01*
X59056605Y-49191400D01*
X58697395Y-49191400D01*
X57724837Y-48218843D01*
X57458035Y-48317442D01*
X57231599Y-48926982D01*
X52856369Y-48926982D01*
X52853141Y-48839823D01*
X52650765Y-48351242D01*
X52383963Y-48252643D01*
X51411405Y-49225200D01*
X51052195Y-49225200D01*
X50079637Y-48252643D01*
X49812835Y-48351242D01*
X49586399Y-48960782D01*
X46563900Y-48960782D01*
X46222598Y-48819061D01*
X45626418Y-48818541D01*
X45075420Y-49046208D01*
X44653490Y-49467403D01*
X44424861Y-50018002D01*
X44424341Y-50614182D01*
X32181541Y-50614182D01*
X32182059Y-50020618D01*
X31954392Y-49469620D01*
X31533197Y-49047690D01*
X30982598Y-48819061D01*
X30386418Y-48818541D01*
X29835420Y-49046208D01*
X29413490Y-49467403D01*
X29184861Y-50018002D01*
X29184341Y-50614182D01*
X23947163Y-50614182D01*
X23947628Y-50081710D01*
X23396614Y-48748154D01*
X22722675Y-48073037D01*
X50259243Y-48073037D01*
X51231800Y-49045595D01*
X52204357Y-48073037D01*
X52191866Y-48039237D01*
X57904443Y-48039237D01*
X58877000Y-49011795D01*
X59849557Y-48039237D01*
X59750958Y-47772435D01*
X59141418Y-47545999D01*
X58491623Y-47570059D01*
X58003042Y-47772435D01*
X57904443Y-48039237D01*
X52191866Y-48039237D01*
X52105758Y-47806235D01*
X51496218Y-47579799D01*
X50846423Y-47603859D01*
X50357842Y-47806235D01*
X50259243Y-48073037D01*
X22722675Y-48073037D01*
X22377213Y-47726972D01*
X21044620Y-47173631D01*
X19601710Y-47172372D01*
X18268154Y-47723386D01*
X17246972Y-48742787D01*
X16693631Y-50075380D01*
X16692372Y-51518290D01*
X16074874Y-51518290D01*
X16393300Y-49917457D01*
X17612618Y-48092619D01*
X19437458Y-46873300D01*
X21660049Y-46431200D01*
X63429956Y-46431200D01*
X65652543Y-46873300D01*
X65652543Y-46873300D01*
G37*
X65652543Y-46873300D02*
X67477381Y-48092618D01*
X68696700Y-49917458D01*
X69138800Y-52140049D01*
X69138800Y-87559951D01*
X68696700Y-89782542D01*
X67477381Y-91607382D01*
X65652543Y-92826700D01*
X63429956Y-93268800D01*
X21660049Y-93268800D01*
X19437458Y-92826700D01*
X17612618Y-91607381D01*
X16393300Y-89782543D01*
X16360629Y-89618290D01*
X16692372Y-89618290D01*
X17243386Y-90951846D01*
X18262787Y-91973028D01*
X19595380Y-92526369D01*
X21038290Y-92527628D01*
X22371846Y-91976614D01*
X22790026Y-91559163D01*
X50259243Y-91559163D01*
X50357842Y-91825965D01*
X50967382Y-92052401D01*
X51617177Y-92028341D01*
X52105758Y-91825965D01*
X52194970Y-91584563D01*
X57904643Y-91584563D01*
X58003242Y-91851365D01*
X58612782Y-92077801D01*
X59262577Y-92053741D01*
X59751158Y-91851365D01*
X59849757Y-91584563D01*
X58877200Y-90612005D01*
X57904643Y-91584563D01*
X52194970Y-91584563D01*
X52204357Y-91559163D01*
X51231800Y-90586605D01*
X50259243Y-91559163D01*
X22790026Y-91559163D01*
X23393028Y-90957213D01*
X23946369Y-89624620D01*
X23947628Y-88181710D01*
X23396614Y-86848154D01*
X22377213Y-85826972D01*
X21044620Y-85273631D01*
X19601710Y-85272372D01*
X18268154Y-85823386D01*
X17246972Y-86842787D01*
X16693631Y-88175380D01*
X16692372Y-89618290D01*
X16360629Y-89618290D01*
X15951200Y-87559956D01*
X15951200Y-65049400D01*
X19304000Y-65049400D01*
X19304000Y-81940400D01*
X19329499Y-82068592D01*
X19381338Y-82329207D01*
X19601580Y-82658820D01*
X27602580Y-90659821D01*
X27932193Y-90880062D01*
X28321000Y-90957400D01*
X47523400Y-90957400D01*
X47847700Y-90892893D01*
X47912207Y-90880062D01*
X48241820Y-90659820D01*
X48759058Y-90142582D01*
X49586399Y-90142582D01*
X49610459Y-90792377D01*
X49812835Y-91280958D01*
X50079637Y-91379557D01*
X51052195Y-90407000D01*
X51411405Y-90407000D01*
X52383963Y-91379557D01*
X52650765Y-91280958D01*
X52877201Y-90671418D01*
X52858561Y-90167982D01*
X57231799Y-90167982D01*
X57255859Y-90817777D01*
X57458235Y-91306358D01*
X57725037Y-91404957D01*
X58697595Y-90432400D01*
X59056805Y-90432400D01*
X60029363Y-91404957D01*
X60296165Y-91306358D01*
X60522601Y-90696818D01*
X60498541Y-90047023D01*
X60320955Y-89618290D01*
X61142372Y-89618290D01*
X61693386Y-90951846D01*
X62712787Y-91973028D01*
X64045380Y-92526369D01*
X65488290Y-92527628D01*
X66821846Y-91976614D01*
X67843028Y-90957213D01*
X68396369Y-89624620D01*
X68397628Y-88181710D01*
X67846614Y-86848154D01*
X66827213Y-85826972D01*
X65494620Y-85273631D01*
X64051710Y-85272372D01*
X62718154Y-85823386D01*
X61696972Y-86842787D01*
X61143631Y-88175380D01*
X61142372Y-89618290D01*
X60320955Y-89618290D01*
X60296165Y-89558442D01*
X60029363Y-89459843D01*
X59056805Y-90432400D01*
X58697595Y-90432400D01*
X57725037Y-89459843D01*
X57458235Y-89558442D01*
X57231799Y-90167982D01*
X52858561Y-90167982D01*
X52853141Y-90021623D01*
X52650765Y-89533042D01*
X52383963Y-89434443D01*
X51411405Y-90407000D01*
X51052195Y-90407000D01*
X50079637Y-89434443D01*
X49812835Y-89533042D01*
X49586399Y-90142582D01*
X48759058Y-90142582D01*
X49646803Y-89254837D01*
X50259243Y-89254837D01*
X51231800Y-90227395D01*
X52178957Y-89280237D01*
X57904643Y-89280237D01*
X58877200Y-90252795D01*
X59849757Y-89280237D01*
X59751158Y-89013435D01*
X59141618Y-88786999D01*
X58491823Y-88811059D01*
X58003242Y-89013435D01*
X57904643Y-89280237D01*
X52178957Y-89280237D01*
X52204357Y-89254837D01*
X52105758Y-88988035D01*
X51496218Y-88761599D01*
X50846423Y-88785659D01*
X50357842Y-88988035D01*
X50259243Y-89254837D01*
X49646803Y-89254837D01*
X55861820Y-83039821D01*
X55969236Y-82879062D01*
X56082062Y-82710207D01*
X56134138Y-82448399D01*
X56159400Y-82321400D01*
X56159400Y-78525840D01*
X58705231Y-75980010D01*
X59011420Y-75775420D01*
X59231662Y-75445806D01*
X59309000Y-75057000D01*
X59309000Y-74942440D01*
X59544317Y-74898162D01*
X59760441Y-74759090D01*
X59905431Y-74546890D01*
X59956440Y-74295000D01*
X59956440Y-72263000D01*
X59912162Y-72027683D01*
X59773090Y-71811559D01*
X59624163Y-71709802D01*
X59850670Y-71370810D01*
X59976345Y-70739000D01*
X59850670Y-70107190D01*
X59492778Y-69571567D01*
X59339276Y-69469000D01*
X59473388Y-69379389D01*
X60121800Y-70027801D01*
X60121800Y-78750959D01*
X59074678Y-79798081D01*
X58553506Y-79797626D01*
X57952545Y-80045938D01*
X57492354Y-80505327D01*
X57242994Y-81105853D01*
X57242426Y-81756094D01*
X57490738Y-82357055D01*
X57950127Y-82817246D01*
X58550653Y-83066606D01*
X59200894Y-83067174D01*
X59801855Y-82818862D01*
X60262046Y-82359473D01*
X60511406Y-81758947D01*
X60511864Y-81234576D01*
X61856220Y-79890221D01*
X62076461Y-79560607D01*
X62076462Y-79560606D01*
X62153800Y-79171800D01*
X62153800Y-69606960D01*
X62076462Y-69218154D01*
X62076462Y-69218153D01*
X61856220Y-68888539D01*
X60448260Y-67480580D01*
X60118647Y-67260338D01*
X60053617Y-67247403D01*
X59729840Y-67183000D01*
X59593962Y-67183000D01*
X59492778Y-67031567D01*
X59339276Y-66929000D01*
X59492778Y-66826433D01*
X59593962Y-66675000D01*
X59729840Y-66675000D01*
X60054140Y-66610493D01*
X60118647Y-66597662D01*
X60448260Y-66377420D01*
X61551421Y-65274260D01*
X61771662Y-64944647D01*
X61831399Y-64644325D01*
X61849000Y-64555840D01*
X61849000Y-60147400D01*
X61771662Y-59758594D01*
X61771662Y-59758593D01*
X61551421Y-59428980D01*
X60511319Y-58388878D01*
X60511774Y-57867706D01*
X60263462Y-57266745D01*
X59804073Y-56806554D01*
X59203547Y-56557194D01*
X58553306Y-56556626D01*
X57952345Y-56804938D01*
X57492154Y-57264327D01*
X57242794Y-57864853D01*
X57242226Y-58515094D01*
X57490538Y-59116055D01*
X57949927Y-59576246D01*
X58550453Y-59825606D01*
X59074824Y-59826064D01*
X59817000Y-60568241D01*
X59817000Y-62436799D01*
X59492778Y-61951567D01*
X58957155Y-61593675D01*
X58325345Y-61468000D01*
X58260655Y-61468000D01*
X57628845Y-61593675D01*
X57093222Y-61951567D01*
X56992038Y-62103000D01*
X52247800Y-62103000D01*
X52247800Y-59520476D01*
X52616646Y-59152273D01*
X52866006Y-58551747D01*
X52866574Y-57901506D01*
X52618262Y-57300545D01*
X52158873Y-56840354D01*
X51558347Y-56590994D01*
X50908106Y-56590426D01*
X50307145Y-56838738D01*
X49846954Y-57298127D01*
X49597594Y-57898653D01*
X49597026Y-58548894D01*
X49845338Y-59149855D01*
X50215800Y-59520964D01*
X50215800Y-64907959D01*
X47393137Y-67730622D01*
X47194392Y-67249620D01*
X46773197Y-66827690D01*
X46772269Y-66827305D01*
X47192910Y-66407397D01*
X47421539Y-65856798D01*
X47422059Y-65260618D01*
X47194392Y-64709620D01*
X46773197Y-64287690D01*
X46772269Y-64287305D01*
X47192910Y-63867397D01*
X47421539Y-63316798D01*
X47422059Y-62720618D01*
X47194392Y-62169620D01*
X46773197Y-61747690D01*
X46772269Y-61747305D01*
X47192910Y-61327397D01*
X47421539Y-60776798D01*
X47422059Y-60180618D01*
X47194392Y-59629620D01*
X46773197Y-59207690D01*
X46772269Y-59207305D01*
X47192910Y-58787397D01*
X47421539Y-58236798D01*
X47422059Y-57640618D01*
X47194392Y-57089620D01*
X46773197Y-56667690D01*
X46772269Y-56667305D01*
X47192910Y-56247397D01*
X47421539Y-55696798D01*
X47422059Y-55100618D01*
X47194392Y-54549620D01*
X46773197Y-54127690D01*
X46732663Y-54110859D01*
X46797400Y-53911205D01*
X45923200Y-53037005D01*
X45049000Y-53911205D01*
X45113599Y-54110433D01*
X45075420Y-54126208D01*
X44653490Y-54547403D01*
X44424861Y-55098002D01*
X44424341Y-55694182D01*
X44652008Y-56245180D01*
X45073203Y-56667110D01*
X45074131Y-56667495D01*
X44819783Y-56921400D01*
X44701886Y-56921400D01*
X44313080Y-56998738D01*
X44313078Y-56998739D01*
X44313079Y-56998739D01*
X43983465Y-57218980D01*
X41978980Y-59223466D01*
X41758738Y-59553079D01*
X41747407Y-59610046D01*
X41681400Y-59941886D01*
X41681400Y-88925400D01*
X28741841Y-88925400D01*
X21336000Y-81519560D01*
X21336000Y-80369026D01*
X21684442Y-80369026D01*
X21687091Y-80384791D01*
X21941068Y-80912036D01*
X22377480Y-81301954D01*
X22929887Y-81495184D01*
X23164800Y-81350924D01*
X23164800Y-80137000D01*
X23418800Y-80137000D01*
X23418800Y-81350924D01*
X23653713Y-81495184D01*
X24206120Y-81301954D01*
X24642532Y-80912036D01*
X24896509Y-80384791D01*
X24899158Y-80369026D01*
X24778017Y-80137000D01*
X23418800Y-80137000D01*
X23164800Y-80137000D01*
X21805583Y-80137000D01*
X21684442Y-80369026D01*
X21336000Y-80369026D01*
X21336000Y-78486000D01*
X22018206Y-78486000D01*
X22047385Y-78529670D01*
X22356869Y-78736461D01*
X21941068Y-79107964D01*
X21687091Y-79635209D01*
X21684442Y-79650974D01*
X21805583Y-79883000D01*
X23164800Y-79883000D01*
X23164800Y-79863000D01*
X23418800Y-79863000D01*
X23418800Y-79883000D01*
X24778017Y-79883000D01*
X24899158Y-79650974D01*
X24896509Y-79635209D01*
X24642532Y-79107964D01*
X24226731Y-78736461D01*
X24536215Y-78529670D01*
X24861071Y-78043489D01*
X24975145Y-77470000D01*
X24861071Y-76896511D01*
X24536215Y-76410330D01*
X24521887Y-76400757D01*
X24543117Y-76396762D01*
X24759241Y-76257690D01*
X24904231Y-76045490D01*
X24924378Y-75946000D01*
X24979160Y-75946000D01*
X25654000Y-76620841D01*
X25654000Y-78740000D01*
X25700908Y-78975821D01*
X25731338Y-79128807D01*
X25951580Y-79458420D01*
X27145381Y-80652222D01*
X27474994Y-80872463D01*
X27863801Y-80949801D01*
X29184467Y-80949801D01*
X29184341Y-81094182D01*
X29412008Y-81645180D01*
X29833203Y-82067110D01*
X29834131Y-82067495D01*
X29413490Y-82487403D01*
X29184861Y-83038002D01*
X29184341Y-83634182D01*
X29412008Y-84185180D01*
X29833203Y-84607110D01*
X29834131Y-84607495D01*
X29413490Y-85027403D01*
X29184861Y-85578002D01*
X29184341Y-86174182D01*
X29412008Y-86725180D01*
X29833203Y-87147110D01*
X30383802Y-87375739D01*
X30979982Y-87376259D01*
X31530980Y-87148592D01*
X31952910Y-86727397D01*
X32181539Y-86176798D01*
X32182059Y-85580618D01*
X31954392Y-85029620D01*
X31533197Y-84607690D01*
X31532269Y-84607305D01*
X31952910Y-84187397D01*
X32181539Y-83636798D01*
X32182059Y-83040618D01*
X31954392Y-82489620D01*
X31533197Y-82067690D01*
X31532269Y-82067305D01*
X31952910Y-81647397D01*
X32181539Y-81096798D01*
X32182059Y-80500618D01*
X31954392Y-79949620D01*
X31533197Y-79527690D01*
X31532269Y-79527305D01*
X31952910Y-79107397D01*
X32181539Y-78556798D01*
X32182059Y-77960618D01*
X31954392Y-77409620D01*
X31533197Y-76987690D01*
X31532269Y-76987305D01*
X31952910Y-76567397D01*
X32181539Y-76016798D01*
X32182059Y-75420618D01*
X31954392Y-74869620D01*
X31533197Y-74447690D01*
X31532269Y-74447305D01*
X31952910Y-74027397D01*
X32181539Y-73476798D01*
X32182059Y-72880618D01*
X31954392Y-72329620D01*
X31533197Y-71907690D01*
X31532269Y-71907305D01*
X31952910Y-71487397D01*
X32181539Y-70936798D01*
X32182059Y-70340618D01*
X31954392Y-69789620D01*
X31533197Y-69367690D01*
X31532269Y-69367305D01*
X31952910Y-68947397D01*
X32181539Y-68396798D01*
X32182059Y-67800618D01*
X31954392Y-67249620D01*
X31533197Y-66827690D01*
X31532269Y-66827305D01*
X31952910Y-66407397D01*
X32181539Y-65856798D01*
X32182059Y-65260618D01*
X31954392Y-64709620D01*
X31533197Y-64287690D01*
X31532269Y-64287305D01*
X31952910Y-63867397D01*
X32181539Y-63316798D01*
X32182059Y-62720618D01*
X31954392Y-62169620D01*
X31533197Y-61747690D01*
X31532269Y-61747305D01*
X31952910Y-61327397D01*
X32181539Y-60776798D01*
X32182059Y-60180618D01*
X31954392Y-59629620D01*
X31533197Y-59207690D01*
X31492663Y-59190859D01*
X31557400Y-58991205D01*
X30683200Y-58117005D01*
X29809000Y-58991205D01*
X29873599Y-59190433D01*
X29835420Y-59206208D01*
X29413490Y-59627403D01*
X29184861Y-60178002D01*
X29184341Y-60774182D01*
X29412008Y-61325180D01*
X29833203Y-61747110D01*
X29834131Y-61747495D01*
X29413490Y-62167403D01*
X29184861Y-62718002D01*
X29184341Y-63314182D01*
X29412008Y-63865180D01*
X29833203Y-64287110D01*
X29834131Y-64287495D01*
X29413490Y-64707403D01*
X29184861Y-65258002D01*
X29184341Y-65854182D01*
X29412008Y-66405180D01*
X29833203Y-66827110D01*
X29834131Y-66827495D01*
X29413490Y-67247403D01*
X29184861Y-67798002D01*
X29184341Y-68394182D01*
X29412008Y-68945180D01*
X29833203Y-69367110D01*
X29834131Y-69367495D01*
X29413490Y-69787403D01*
X29184861Y-70338002D01*
X29184341Y-70934182D01*
X29412008Y-71485180D01*
X29833203Y-71907110D01*
X29834131Y-71907495D01*
X29413490Y-72327403D01*
X29184861Y-72878002D01*
X29184341Y-73474182D01*
X29412008Y-74025180D01*
X29833203Y-74447110D01*
X29834131Y-74447495D01*
X29413490Y-74867403D01*
X29184861Y-75418002D01*
X29184341Y-76014182D01*
X29412008Y-76565180D01*
X29833203Y-76987110D01*
X29834131Y-76987495D01*
X29579783Y-77241400D01*
X29148241Y-77241400D01*
X28956000Y-77049160D01*
X28956000Y-62560200D01*
X28878662Y-62171394D01*
X28878662Y-62171393D01*
X28658421Y-61841780D01*
X25788220Y-58971580D01*
X25458607Y-58751338D01*
X25394100Y-58738507D01*
X25069800Y-58674000D01*
X24926564Y-58674000D01*
X24910962Y-58591083D01*
X24771890Y-58374959D01*
X24559690Y-58229969D01*
X24307800Y-58178960D01*
X22275800Y-58178960D01*
X22040483Y-58223238D01*
X21824359Y-58362310D01*
X21679369Y-58574510D01*
X21628360Y-58826400D01*
X21628360Y-60553600D01*
X21672638Y-60788917D01*
X21811710Y-61005041D01*
X22023910Y-61150031D01*
X22065239Y-61158400D01*
X22047385Y-61170330D01*
X21722529Y-61656511D01*
X21608455Y-62230000D01*
X21624068Y-62308491D01*
X19601580Y-64330980D01*
X19381338Y-64660593D01*
X19381338Y-64660594D01*
X19304000Y-65049400D01*
X15951200Y-65049400D01*
X15951200Y-57705430D01*
X29172952Y-57705430D01*
X29199142Y-58301035D01*
X29376684Y-58729659D01*
X29629395Y-58811600D01*
X30503595Y-57937400D01*
X30862805Y-57937400D01*
X31737005Y-58811600D01*
X31989716Y-58729659D01*
X32193448Y-58169370D01*
X32167258Y-57573765D01*
X31989716Y-57145141D01*
X31737005Y-57063200D01*
X30862805Y-57937400D01*
X30503595Y-57937400D01*
X29629395Y-57063200D01*
X29376684Y-57145141D01*
X29172952Y-57705430D01*
X15951200Y-57705430D01*
X15951200Y-52140044D01*
X16074874Y-51518290D01*
X16692372Y-51518290D01*
X17243386Y-52851846D01*
X18262787Y-53873028D01*
X19595380Y-54426369D01*
X21038290Y-54427628D01*
X22371846Y-53876614D01*
X23393028Y-52857213D01*
X23946369Y-51524620D01*
X23947163Y-50614182D01*
X29184341Y-50614182D01*
X29412008Y-51165180D01*
X29833203Y-51587110D01*
X29834131Y-51587495D01*
X29413490Y-52007403D01*
X29184861Y-52558002D01*
X29184341Y-53154182D01*
X29412008Y-53705180D01*
X29833203Y-54127110D01*
X29834131Y-54127495D01*
X29413490Y-54547403D01*
X29184861Y-55098002D01*
X29184341Y-55694182D01*
X29412008Y-56245180D01*
X29833203Y-56667110D01*
X29873737Y-56683941D01*
X29809000Y-56883595D01*
X30683200Y-57757795D01*
X31557400Y-56883595D01*
X31492801Y-56684367D01*
X31530980Y-56668592D01*
X31952910Y-56247397D01*
X32181539Y-55696798D01*
X32182059Y-55100618D01*
X31954392Y-54549620D01*
X31533197Y-54127690D01*
X31532269Y-54127305D01*
X31952910Y-53707397D01*
X32181539Y-53156798D01*
X32182002Y-52625430D01*
X44412952Y-52625430D01*
X44439142Y-53221035D01*
X44616684Y-53649659D01*
X44869395Y-53731600D01*
X45743595Y-52857400D01*
X46102805Y-52857400D01*
X46977005Y-53731600D01*
X47229716Y-53649659D01*
X47433448Y-53089370D01*
X47407258Y-52493765D01*
X47229716Y-52065141D01*
X46977005Y-51983200D01*
X46102805Y-52857400D01*
X45743595Y-52857400D01*
X44869395Y-51983200D01*
X44616684Y-52065141D01*
X44412952Y-52625430D01*
X32182002Y-52625430D01*
X32182059Y-52560618D01*
X31954392Y-52009620D01*
X31533197Y-51587690D01*
X31532269Y-51587305D01*
X31952910Y-51167397D01*
X32181539Y-50616798D01*
X32181541Y-50614182D01*
X44424341Y-50614182D01*
X44652008Y-51165180D01*
X45073203Y-51587110D01*
X45113737Y-51603941D01*
X45049000Y-51803595D01*
X45923200Y-52677795D01*
X46797400Y-51803595D01*
X46732801Y-51604367D01*
X46770980Y-51588592D01*
X46841404Y-51518290D01*
X61142372Y-51518290D01*
X61693386Y-52851846D01*
X62712787Y-53873028D01*
X64045380Y-54426369D01*
X65488290Y-54427628D01*
X66821846Y-53876614D01*
X67843028Y-52857213D01*
X68396369Y-51524620D01*
X68397628Y-50081710D01*
X67846614Y-48748154D01*
X66827213Y-47726972D01*
X65494620Y-47173631D01*
X64051710Y-47172372D01*
X62718154Y-47723386D01*
X61696972Y-48742787D01*
X61143631Y-50075380D01*
X61142372Y-51518290D01*
X46841404Y-51518290D01*
X47192910Y-51167397D01*
X47421539Y-50616798D01*
X47421747Y-50377363D01*
X50259243Y-50377363D01*
X50357842Y-50644165D01*
X50967382Y-50870601D01*
X51617177Y-50846541D01*
X52105758Y-50644165D01*
X52204357Y-50377363D01*
X52170558Y-50343563D01*
X57904443Y-50343563D01*
X58003042Y-50610365D01*
X58612582Y-50836801D01*
X59262377Y-50812741D01*
X59750958Y-50610365D01*
X59849557Y-50343563D01*
X58877000Y-49371005D01*
X57904443Y-50343563D01*
X52170558Y-50343563D01*
X51231800Y-49404805D01*
X50259243Y-50377363D01*
X47421747Y-50377363D01*
X47422059Y-50020618D01*
X47194392Y-49469620D01*
X46773197Y-49047690D01*
X46563900Y-48960782D01*
X49586399Y-48960782D01*
X49610459Y-49610577D01*
X49812835Y-50099158D01*
X50079637Y-50197757D01*
X51052195Y-49225200D01*
X51411405Y-49225200D01*
X52383963Y-50197757D01*
X52650765Y-50099158D01*
X52877201Y-49489618D01*
X52856369Y-48926982D01*
X57231599Y-48926982D01*
X57255659Y-49576777D01*
X57458035Y-50065358D01*
X57724837Y-50163957D01*
X58697395Y-49191400D01*
X59056605Y-49191400D01*
X60029163Y-50163957D01*
X60295965Y-50065358D01*
X60522401Y-49455818D01*
X60498341Y-48806023D01*
X60295965Y-48317442D01*
X60029163Y-48218843D01*
X59056605Y-49191400D01*
X58697395Y-49191400D01*
X57724837Y-48218843D01*
X57458035Y-48317442D01*
X57231599Y-48926982D01*
X52856369Y-48926982D01*
X52853141Y-48839823D01*
X52650765Y-48351242D01*
X52383963Y-48252643D01*
X51411405Y-49225200D01*
X51052195Y-49225200D01*
X50079637Y-48252643D01*
X49812835Y-48351242D01*
X49586399Y-48960782D01*
X46563900Y-48960782D01*
X46222598Y-48819061D01*
X45626418Y-48818541D01*
X45075420Y-49046208D01*
X44653490Y-49467403D01*
X44424861Y-50018002D01*
X44424341Y-50614182D01*
X32181541Y-50614182D01*
X32182059Y-50020618D01*
X31954392Y-49469620D01*
X31533197Y-49047690D01*
X30982598Y-48819061D01*
X30386418Y-48818541D01*
X29835420Y-49046208D01*
X29413490Y-49467403D01*
X29184861Y-50018002D01*
X29184341Y-50614182D01*
X23947163Y-50614182D01*
X23947628Y-50081710D01*
X23396614Y-48748154D01*
X22722675Y-48073037D01*
X50259243Y-48073037D01*
X51231800Y-49045595D01*
X52204357Y-48073037D01*
X52191866Y-48039237D01*
X57904443Y-48039237D01*
X58877000Y-49011795D01*
X59849557Y-48039237D01*
X59750958Y-47772435D01*
X59141418Y-47545999D01*
X58491623Y-47570059D01*
X58003042Y-47772435D01*
X57904443Y-48039237D01*
X52191866Y-48039237D01*
X52105758Y-47806235D01*
X51496218Y-47579799D01*
X50846423Y-47603859D01*
X50357842Y-47806235D01*
X50259243Y-48073037D01*
X22722675Y-48073037D01*
X22377213Y-47726972D01*
X21044620Y-47173631D01*
X19601710Y-47172372D01*
X18268154Y-47723386D01*
X17246972Y-48742787D01*
X16693631Y-50075380D01*
X16692372Y-51518290D01*
X16074874Y-51518290D01*
X16393300Y-49917457D01*
X17612618Y-48092619D01*
X19437458Y-46873300D01*
X21660049Y-46431200D01*
X63429956Y-46431200D01*
X65652543Y-46873300D01*
G36*
X26924000Y-62981041D02*
X26924000Y-75017159D01*
X26118420Y-74211580D01*
X25788807Y-73991338D01*
X25724300Y-73978507D01*
X25400000Y-73914000D01*
X24926564Y-73914000D01*
X24910962Y-73831083D01*
X24771890Y-73614959D01*
X24559690Y-73469969D01*
X24307800Y-73418960D01*
X22275800Y-73418960D01*
X22040483Y-73463238D01*
X21824359Y-73602310D01*
X21679369Y-73814510D01*
X21628360Y-74066400D01*
X21628360Y-75793600D01*
X21672638Y-76028917D01*
X21811710Y-76245041D01*
X22023910Y-76390031D01*
X22065239Y-76398400D01*
X22047385Y-76410330D01*
X22018206Y-76454000D01*
X21336000Y-76454000D01*
X21336000Y-65470240D01*
X21692338Y-65113902D01*
X21684442Y-65129026D01*
X21687091Y-65144791D01*
X21941068Y-65672036D01*
X22377480Y-66061954D01*
X22929887Y-66255184D01*
X23164800Y-66110924D01*
X23164800Y-64897000D01*
X23418800Y-64897000D01*
X23418800Y-66110924D01*
X23653713Y-66255184D01*
X24206120Y-66061954D01*
X24642532Y-65672036D01*
X24896509Y-65144791D01*
X24899158Y-65129026D01*
X24778017Y-64897000D01*
X23418800Y-64897000D01*
X23164800Y-64897000D01*
X23144800Y-64897000D01*
X23144800Y-64643000D01*
X23164800Y-64643000D01*
X23164800Y-64623000D01*
X23418800Y-64623000D01*
X23418800Y-64643000D01*
X24778017Y-64643000D01*
X24899158Y-64410974D01*
X24896509Y-64395209D01*
X24642532Y-63867964D01*
X24226731Y-63496461D01*
X24536215Y-63289670D01*
X24861071Y-62803489D01*
X24975145Y-62230000D01*
X24861071Y-61656511D01*
X24536215Y-61170330D01*
X24521887Y-61160757D01*
X24543117Y-61156762D01*
X24759241Y-61017690D01*
X24840997Y-60898037D01*
X26924000Y-62981041D01*
X26924000Y-62981041D01*
G37*
X26924000Y-62981041D02*
X26924000Y-75017159D01*
X26118420Y-74211580D01*
X25788807Y-73991338D01*
X25724300Y-73978507D01*
X25400000Y-73914000D01*
X24926564Y-73914000D01*
X24910962Y-73831083D01*
X24771890Y-73614959D01*
X24559690Y-73469969D01*
X24307800Y-73418960D01*
X22275800Y-73418960D01*
X22040483Y-73463238D01*
X21824359Y-73602310D01*
X21679369Y-73814510D01*
X21628360Y-74066400D01*
X21628360Y-75793600D01*
X21672638Y-76028917D01*
X21811710Y-76245041D01*
X22023910Y-76390031D01*
X22065239Y-76398400D01*
X22047385Y-76410330D01*
X22018206Y-76454000D01*
X21336000Y-76454000D01*
X21336000Y-65470240D01*
X21692338Y-65113902D01*
X21684442Y-65129026D01*
X21687091Y-65144791D01*
X21941068Y-65672036D01*
X22377480Y-66061954D01*
X22929887Y-66255184D01*
X23164800Y-66110924D01*
X23164800Y-64897000D01*
X23418800Y-64897000D01*
X23418800Y-66110924D01*
X23653713Y-66255184D01*
X24206120Y-66061954D01*
X24642532Y-65672036D01*
X24896509Y-65144791D01*
X24899158Y-65129026D01*
X24778017Y-64897000D01*
X23418800Y-64897000D01*
X23164800Y-64897000D01*
X23144800Y-64897000D01*
X23144800Y-64643000D01*
X23164800Y-64643000D01*
X23164800Y-64623000D01*
X23418800Y-64623000D01*
X23418800Y-64643000D01*
X24778017Y-64643000D01*
X24899158Y-64410974D01*
X24896509Y-64395209D01*
X24642532Y-63867964D01*
X24226731Y-63496461D01*
X24536215Y-63289670D01*
X24861071Y-62803489D01*
X24975145Y-62230000D01*
X24861071Y-61656511D01*
X24536215Y-61170330D01*
X24521887Y-61160757D01*
X24543117Y-61156762D01*
X24759241Y-61017690D01*
X24840997Y-60898037D01*
X26924000Y-62981041D01*
D20*
X45923200Y-85877400D03*
X45923200Y-83337400D03*
X45923200Y-80797400D03*
X45923200Y-78257400D03*
X45923200Y-75717400D03*
X45923200Y-73177400D03*
X45923200Y-70637400D03*
X45923200Y-68097400D03*
X45923200Y-65557400D03*
X45923200Y-63017400D03*
X45923200Y-60477400D03*
X45923200Y-57937400D03*
X45923200Y-55397400D03*
X45923200Y-52857400D03*
X30683200Y-52857400D03*
X30683200Y-60477400D03*
X30683200Y-80797400D03*
X30683200Y-65557400D03*
X30683200Y-63017400D03*
X30683200Y-83337400D03*
X30683200Y-75717400D03*
X30683200Y-85877400D03*
X30683200Y-73177400D03*
X30683200Y-70637400D03*
X30683200Y-68097400D03*
X30683200Y-78257400D03*
X30683200Y-55397400D03*
X30683200Y-57937400D03*
X30683200Y-50317400D03*
X45923200Y-50317400D03*
X64770000Y-50800000D03*
X20320000Y-88900000D03*
X64770000Y-88900000D03*
X23291800Y-74930000D03*
X23291800Y-77470000D03*
X23291800Y-80010000D03*
X23291800Y-59690000D03*
X23291800Y-62230000D03*
X23291800Y-64770000D03*
X58293000Y-73279000D03*
X58293000Y-70739000D03*
X58293000Y-68199000D03*
X58293000Y-65659000D03*
X58293000Y-63119000D03*
X51231800Y-58225200D03*
X51231800Y-49225200D03*
X58877200Y-81432400D03*
X58877200Y-90432400D03*
X58877000Y-58191400D03*
X58877000Y-49191400D03*
X51231800Y-81407000D03*
X51231800Y-90407000D03*
X20320000Y-50800000D03*
M02*
