%TF.GenerationSoftware,KiCad,Pcbnew,4.0.7-e2-6376~58~ubuntu16.04.1*%
%TF.CreationDate,2018-03-21T07:26:21-07:00*%
%TF.ProjectId,Arduino-Nano-Board,41726475696E6F2D4E616E6F2D426F61,v1.5*%
%TF.FileFunction,Legend,Top*%
%FSLAX46Y46*%
G04 Gerber Fmt 4.6, Leading zero omitted, Abs format (unit mm)*
G04 Created by KiCad (PCBNEW 4.0.7-e2-6376~58~ubuntu16.04.1) date Wed Mar 21 07:26:21 2018*
%MOMM*%
%LPD*%
G01*
G04 APERTURE LIST*
%ADD10C,0.350000*%
%ADD11C,0.254000*%
%ADD12C,0.127000*%
%ADD13C,0.150000*%
%ADD14C,0.203200*%
%ADD15C,1.879600*%
%ADD16R,2.184400X1.879600*%
%ADD17O,2.184400X1.879600*%
%ADD18R,2.184400X2.184400*%
%ADD19O,2.184400X2.184400*%
%ADD20C,2.151380*%
G04 APERTURE END LIST*
D10*
D11*
X63584667Y-70648286D02*
X63766096Y-70708762D01*
X63826572Y-70769238D01*
X63887048Y-70890190D01*
X63887048Y-71071619D01*
X63826572Y-71192571D01*
X63766096Y-71253048D01*
X63645143Y-71313524D01*
X63161334Y-71313524D01*
X63161334Y-70043524D01*
X63584667Y-70043524D01*
X63705620Y-70104000D01*
X63766096Y-70164476D01*
X63826572Y-70285429D01*
X63826572Y-70406381D01*
X63766096Y-70527333D01*
X63705620Y-70587810D01*
X63584667Y-70648286D01*
X63161334Y-70648286D01*
X65036096Y-71313524D02*
X64431334Y-71313524D01*
X64431334Y-70043524D01*
X63010143Y-62423524D02*
X63735858Y-62423524D01*
X63373001Y-63693524D02*
X63373001Y-62423524D01*
X64884905Y-63693524D02*
X64461572Y-63088762D01*
X64159191Y-63693524D02*
X64159191Y-62423524D01*
X64643000Y-62423524D01*
X64763953Y-62484000D01*
X64824429Y-62544476D01*
X64884905Y-62665429D01*
X64884905Y-62846857D01*
X64824429Y-62967810D01*
X64763953Y-63028286D01*
X64643000Y-63088762D01*
X64159191Y-63088762D01*
X63131095Y-64963524D02*
X63856810Y-64963524D01*
X63493953Y-66233524D02*
X63493953Y-64963524D01*
X64884905Y-66233524D02*
X64280143Y-66233524D01*
X64280143Y-64963524D01*
X63463714Y-68108286D02*
X63645143Y-68168762D01*
X63705619Y-68229238D01*
X63766095Y-68350190D01*
X63766095Y-68531619D01*
X63705619Y-68652571D01*
X63645143Y-68713048D01*
X63524190Y-68773524D01*
X63040381Y-68773524D01*
X63040381Y-67503524D01*
X63463714Y-67503524D01*
X63584667Y-67564000D01*
X63645143Y-67624476D01*
X63705619Y-67745429D01*
X63705619Y-67866381D01*
X63645143Y-67987333D01*
X63584667Y-68047810D01*
X63463714Y-68108286D01*
X63040381Y-68108286D01*
X65036095Y-68773524D02*
X64612762Y-68168762D01*
X64310381Y-68773524D02*
X64310381Y-67503524D01*
X64794190Y-67503524D01*
X64915143Y-67564000D01*
X64975619Y-67624476D01*
X65036095Y-67745429D01*
X65036095Y-67926857D01*
X64975619Y-68047810D01*
X64915143Y-68108286D01*
X64794190Y-68168762D01*
X64310381Y-68168762D01*
X63766096Y-72583524D02*
X63161334Y-72583524D01*
X63100858Y-73188286D01*
X63161334Y-73127810D01*
X63282286Y-73067333D01*
X63584667Y-73067333D01*
X63705620Y-73127810D01*
X63766096Y-73188286D01*
X63826572Y-73309238D01*
X63826572Y-73611619D01*
X63766096Y-73732571D01*
X63705620Y-73793048D01*
X63584667Y-73853524D01*
X63282286Y-73853524D01*
X63161334Y-73793048D01*
X63100858Y-73732571D01*
X64189429Y-72583524D02*
X64612763Y-73853524D01*
X65036096Y-72583524D01*
X17858619Y-79375000D02*
X17737667Y-79314524D01*
X17556238Y-79314524D01*
X17374810Y-79375000D01*
X17253857Y-79495952D01*
X17193381Y-79616905D01*
X17132905Y-79858810D01*
X17132905Y-80040238D01*
X17193381Y-80282143D01*
X17253857Y-80403095D01*
X17374810Y-80524048D01*
X17556238Y-80584524D01*
X17677190Y-80584524D01*
X17858619Y-80524048D01*
X17919095Y-80463571D01*
X17919095Y-80040238D01*
X17677190Y-80040238D01*
X18463381Y-80584524D02*
X18463381Y-79314524D01*
X19189095Y-80584524D01*
X19189095Y-79314524D01*
X19793857Y-80584524D02*
X19793857Y-79314524D01*
X20096238Y-79314524D01*
X20277666Y-79375000D01*
X20398619Y-79495952D01*
X20459095Y-79616905D01*
X20519571Y-79858810D01*
X20519571Y-80040238D01*
X20459095Y-80282143D01*
X20398619Y-80403095D01*
X20277666Y-80524048D01*
X20096238Y-80584524D01*
X19793857Y-80584524D01*
X19370524Y-76774524D02*
X18765762Y-76774524D01*
X18705286Y-77379286D01*
X18765762Y-77318810D01*
X18886714Y-77258333D01*
X19189095Y-77258333D01*
X19310048Y-77318810D01*
X19370524Y-77379286D01*
X19431000Y-77500238D01*
X19431000Y-77802619D01*
X19370524Y-77923571D01*
X19310048Y-77984048D01*
X19189095Y-78044524D01*
X18886714Y-78044524D01*
X18765762Y-77984048D01*
X18705286Y-77923571D01*
X19793857Y-76774524D02*
X20217191Y-78044524D01*
X20640524Y-76774524D01*
X17858619Y-64109600D02*
X17737667Y-64049124D01*
X17556238Y-64049124D01*
X17374810Y-64109600D01*
X17253857Y-64230552D01*
X17193381Y-64351505D01*
X17132905Y-64593410D01*
X17132905Y-64774838D01*
X17193381Y-65016743D01*
X17253857Y-65137695D01*
X17374810Y-65258648D01*
X17556238Y-65319124D01*
X17677190Y-65319124D01*
X17858619Y-65258648D01*
X17919095Y-65198171D01*
X17919095Y-64774838D01*
X17677190Y-64774838D01*
X18463381Y-65319124D02*
X18463381Y-64049124D01*
X19189095Y-65319124D01*
X19189095Y-64049124D01*
X19793857Y-65319124D02*
X19793857Y-64049124D01*
X20096238Y-64049124D01*
X20277666Y-64109600D01*
X20398619Y-64230552D01*
X20459095Y-64351505D01*
X20519571Y-64593410D01*
X20519571Y-64774838D01*
X20459095Y-65016743D01*
X20398619Y-65137695D01*
X20277666Y-65258648D01*
X20096238Y-65319124D01*
X19793857Y-65319124D01*
X19370524Y-61509124D02*
X18765762Y-61509124D01*
X18705286Y-62113886D01*
X18765762Y-62053410D01*
X18886714Y-61992933D01*
X19189095Y-61992933D01*
X19310048Y-62053410D01*
X19370524Y-62113886D01*
X19431000Y-62234838D01*
X19431000Y-62537219D01*
X19370524Y-62658171D01*
X19310048Y-62718648D01*
X19189095Y-62779124D01*
X18886714Y-62779124D01*
X18765762Y-62718648D01*
X18705286Y-62658171D01*
X19793857Y-61509124D02*
X20217191Y-62779124D01*
X20640524Y-61509124D01*
X17919095Y-60178648D02*
X18100523Y-60239124D01*
X18402904Y-60239124D01*
X18523857Y-60178648D01*
X18584333Y-60118171D01*
X18644809Y-59997219D01*
X18644809Y-59876267D01*
X18584333Y-59755314D01*
X18523857Y-59694838D01*
X18402904Y-59634362D01*
X18161000Y-59573886D01*
X18040047Y-59513410D01*
X17979571Y-59452933D01*
X17919095Y-59331981D01*
X17919095Y-59211029D01*
X17979571Y-59090076D01*
X18040047Y-59029600D01*
X18161000Y-58969124D01*
X18463380Y-58969124D01*
X18644809Y-59029600D01*
X19189095Y-60239124D02*
X19189095Y-58969124D01*
X20459095Y-59029600D02*
X20338143Y-58969124D01*
X20156714Y-58969124D01*
X19975286Y-59029600D01*
X19854333Y-59150552D01*
X19793857Y-59271505D01*
X19733381Y-59513410D01*
X19733381Y-59694838D01*
X19793857Y-59936743D01*
X19854333Y-60057695D01*
X19975286Y-60178648D01*
X20156714Y-60239124D01*
X20277666Y-60239124D01*
X20459095Y-60178648D01*
X20519571Y-60118171D01*
X20519571Y-59694838D01*
X20277666Y-59694838D01*
X17919095Y-75418648D02*
X18100523Y-75479124D01*
X18402904Y-75479124D01*
X18523857Y-75418648D01*
X18584333Y-75358171D01*
X18644809Y-75237219D01*
X18644809Y-75116267D01*
X18584333Y-74995314D01*
X18523857Y-74934838D01*
X18402904Y-74874362D01*
X18161000Y-74813886D01*
X18040047Y-74753410D01*
X17979571Y-74692933D01*
X17919095Y-74571981D01*
X17919095Y-74451029D01*
X17979571Y-74330076D01*
X18040047Y-74269600D01*
X18161000Y-74209124D01*
X18463380Y-74209124D01*
X18644809Y-74269600D01*
X19189095Y-75479124D02*
X19189095Y-74209124D01*
X20459095Y-74269600D02*
X20338143Y-74209124D01*
X20156714Y-74209124D01*
X19975286Y-74269600D01*
X19854333Y-74390552D01*
X19793857Y-74511505D01*
X19733381Y-74753410D01*
X19733381Y-74934838D01*
X19793857Y-75176743D01*
X19854333Y-75297695D01*
X19975286Y-75418648D01*
X20156714Y-75479124D01*
X20277666Y-75479124D01*
X20459095Y-75418648D01*
X20519571Y-75358171D01*
X20519571Y-74934838D01*
X20277666Y-74934838D01*
D12*
X30063200Y-46846900D02*
X46479200Y-46846900D01*
X40764200Y-89772900D02*
X35811200Y-89772900D01*
X40764200Y-91804900D02*
X40763200Y-89797400D01*
X40764200Y-91804900D02*
X46606200Y-91804900D01*
X35811200Y-91797400D02*
X35811200Y-89797400D01*
X30096200Y-91804900D02*
X35811200Y-91804900D01*
D13*
X22021800Y-76200000D02*
X22021800Y-81280000D01*
X22021800Y-81280000D02*
X24561800Y-81280000D01*
X24561800Y-81280000D02*
X24561800Y-76200000D01*
X24841800Y-73380000D02*
X24841800Y-74930000D01*
X24561800Y-76200000D02*
X22021800Y-76200000D01*
X21741800Y-74930000D02*
X21741800Y-73380000D01*
X21741800Y-73380000D02*
X24841800Y-73380000D01*
X22021800Y-60960000D02*
X22021800Y-66040000D01*
X22021800Y-66040000D02*
X24561800Y-66040000D01*
X24561800Y-66040000D02*
X24561800Y-60960000D01*
X24841800Y-58140000D02*
X24841800Y-59690000D01*
X24561800Y-60960000D02*
X22021800Y-60960000D01*
X21741800Y-59690000D02*
X21741800Y-58140000D01*
X21741800Y-58140000D02*
X24841800Y-58140000D01*
X59843000Y-74829000D02*
X56743000Y-74829000D01*
X49961800Y-56955200D02*
X49961800Y-50605200D01*
X49961800Y-50605200D02*
X52501800Y-50605200D01*
X52501800Y-50605200D02*
X52501800Y-56955200D01*
X52501800Y-56955200D02*
X49961800Y-56955200D01*
X60147200Y-82702400D02*
X60147200Y-89052400D01*
X60147200Y-89052400D02*
X57607200Y-89052400D01*
X57607200Y-89052400D02*
X57607200Y-82702400D01*
X57607200Y-82702400D02*
X60147200Y-82702400D01*
X57607000Y-56921400D02*
X57607000Y-50571400D01*
X57607000Y-50571400D02*
X60147000Y-50571400D01*
X60147000Y-50571400D02*
X60147000Y-56921400D01*
X60147000Y-56921400D02*
X57607000Y-56921400D01*
X52501800Y-82677000D02*
X52501800Y-89027000D01*
X52501800Y-89027000D02*
X49961800Y-89027000D01*
X49961800Y-89027000D02*
X49961800Y-82677000D01*
X49961800Y-82677000D02*
X52501800Y-82677000D01*
X36962295Y-86812281D02*
X36962295Y-87621805D01*
X37009914Y-87717043D01*
X37057533Y-87764662D01*
X37152771Y-87812281D01*
X37343248Y-87812281D01*
X37438486Y-87764662D01*
X37486105Y-87717043D01*
X37533724Y-87621805D01*
X37533724Y-86812281D01*
X37962295Y-87764662D02*
X38105152Y-87812281D01*
X38343248Y-87812281D01*
X38438486Y-87764662D01*
X38486105Y-87717043D01*
X38533724Y-87621805D01*
X38533724Y-87526567D01*
X38486105Y-87431329D01*
X38438486Y-87383710D01*
X38343248Y-87336090D01*
X38152771Y-87288471D01*
X38057533Y-87240852D01*
X38009914Y-87193233D01*
X37962295Y-87097995D01*
X37962295Y-87002757D01*
X38009914Y-86907519D01*
X38057533Y-86859900D01*
X38152771Y-86812281D01*
X38390867Y-86812281D01*
X38533724Y-86859900D01*
X39295629Y-87288471D02*
X39438486Y-87336090D01*
X39486105Y-87383710D01*
X39533724Y-87478948D01*
X39533724Y-87621805D01*
X39486105Y-87717043D01*
X39438486Y-87764662D01*
X39343248Y-87812281D01*
X38962295Y-87812281D01*
X38962295Y-86812281D01*
X39295629Y-86812281D01*
X39390867Y-86859900D01*
X39438486Y-86907519D01*
X39486105Y-87002757D01*
X39486105Y-87097995D01*
X39438486Y-87193233D01*
X39390867Y-87240852D01*
X39295629Y-87288471D01*
X38962295Y-87288471D01*
X38786581Y-81279829D02*
X38786581Y-81089352D01*
X38834200Y-80994114D01*
X38929438Y-80898876D01*
X39119914Y-80851257D01*
X39453248Y-80851257D01*
X39643724Y-80898876D01*
X39738962Y-80994114D01*
X39786581Y-81089352D01*
X39786581Y-81279829D01*
X39738962Y-81375067D01*
X39643724Y-81470305D01*
X39453248Y-81517924D01*
X39119914Y-81517924D01*
X38929438Y-81470305D01*
X38834200Y-81375067D01*
X38786581Y-81279829D01*
X39786581Y-79851257D02*
X39310390Y-80184591D01*
X39786581Y-80422686D02*
X38786581Y-80422686D01*
X38786581Y-80041733D01*
X38834200Y-79946495D01*
X38881819Y-79898876D01*
X38977057Y-79851257D01*
X39119914Y-79851257D01*
X39215152Y-79898876D01*
X39262771Y-79946495D01*
X39310390Y-80041733D01*
X39310390Y-80422686D01*
X39786581Y-78660781D02*
X38786581Y-78660781D01*
X38786581Y-78422686D01*
X38834200Y-78279828D01*
X38929438Y-78184590D01*
X39024676Y-78136971D01*
X39215152Y-78089352D01*
X39358010Y-78089352D01*
X39548486Y-78136971D01*
X39643724Y-78184590D01*
X39738962Y-78279828D01*
X39786581Y-78422686D01*
X39786581Y-78660781D01*
X39786581Y-77089352D02*
X39310390Y-77422686D01*
X39786581Y-77660781D02*
X38786581Y-77660781D01*
X38786581Y-77279828D01*
X38834200Y-77184590D01*
X38881819Y-77136971D01*
X38977057Y-77089352D01*
X39119914Y-77089352D01*
X39215152Y-77136971D01*
X39262771Y-77184590D01*
X39310390Y-77279828D01*
X39310390Y-77660781D01*
X38786581Y-76470305D02*
X38786581Y-76279828D01*
X38834200Y-76184590D01*
X38929438Y-76089352D01*
X39119914Y-76041733D01*
X39453248Y-76041733D01*
X39643724Y-76089352D01*
X39738962Y-76184590D01*
X39786581Y-76279828D01*
X39786581Y-76470305D01*
X39738962Y-76565543D01*
X39643724Y-76660781D01*
X39453248Y-76708400D01*
X39119914Y-76708400D01*
X38929438Y-76660781D01*
X38834200Y-76565543D01*
X38786581Y-76470305D01*
X39786581Y-75613162D02*
X38786581Y-75613162D01*
X38786581Y-75232209D01*
X38834200Y-75136971D01*
X38881819Y-75089352D01*
X38977057Y-75041733D01*
X39119914Y-75041733D01*
X39215152Y-75089352D01*
X39262771Y-75136971D01*
X39310390Y-75232209D01*
X39310390Y-75613162D01*
X39405629Y-74613162D02*
X39405629Y-73851257D01*
X39786581Y-73375067D02*
X38786581Y-73375067D01*
X39786581Y-72898877D02*
X38786581Y-72898877D01*
X39786581Y-72327448D01*
X38786581Y-72327448D01*
X39691343Y-70517924D02*
X39738962Y-70565543D01*
X39786581Y-70708400D01*
X39786581Y-70803638D01*
X39738962Y-70946496D01*
X39643724Y-71041734D01*
X39548486Y-71089353D01*
X39358010Y-71136972D01*
X39215152Y-71136972D01*
X39024676Y-71089353D01*
X38929438Y-71041734D01*
X38834200Y-70946496D01*
X38786581Y-70803638D01*
X38786581Y-70708400D01*
X38834200Y-70565543D01*
X38881819Y-70517924D01*
X38786581Y-69898877D02*
X38786581Y-69708400D01*
X38834200Y-69613162D01*
X38929438Y-69517924D01*
X39119914Y-69470305D01*
X39453248Y-69470305D01*
X39643724Y-69517924D01*
X39738962Y-69613162D01*
X39786581Y-69708400D01*
X39786581Y-69898877D01*
X39738962Y-69994115D01*
X39643724Y-70089353D01*
X39453248Y-70136972D01*
X39119914Y-70136972D01*
X38929438Y-70089353D01*
X38834200Y-69994115D01*
X38786581Y-69898877D01*
X39786581Y-69041734D02*
X38786581Y-69041734D01*
X39500867Y-68708400D01*
X38786581Y-68375067D01*
X39786581Y-68375067D01*
X39786581Y-67898877D02*
X38786581Y-67898877D01*
X38786581Y-67517924D01*
X38834200Y-67422686D01*
X38881819Y-67375067D01*
X38977057Y-67327448D01*
X39119914Y-67327448D01*
X39215152Y-67375067D01*
X39262771Y-67422686D01*
X39310390Y-67517924D01*
X39310390Y-67898877D01*
X39500867Y-66946496D02*
X39500867Y-66470305D01*
X39786581Y-67041734D02*
X38786581Y-66708401D01*
X39786581Y-66375067D01*
X38786581Y-66184591D02*
X38786581Y-65613162D01*
X39786581Y-65898877D02*
X38786581Y-65898877D01*
X39786581Y-65279829D02*
X38786581Y-65279829D01*
X39262771Y-64470305D02*
X39310390Y-64327448D01*
X39358010Y-64279829D01*
X39453248Y-64232210D01*
X39596105Y-64232210D01*
X39691343Y-64279829D01*
X39738962Y-64327448D01*
X39786581Y-64422686D01*
X39786581Y-64803639D01*
X38786581Y-64803639D01*
X38786581Y-64470305D01*
X38834200Y-64375067D01*
X38881819Y-64327448D01*
X38977057Y-64279829D01*
X39072295Y-64279829D01*
X39167533Y-64327448D01*
X39215152Y-64375067D01*
X39262771Y-64470305D01*
X39262771Y-64803639D01*
X39786581Y-63327448D02*
X39786581Y-63803639D01*
X38786581Y-63803639D01*
X39262771Y-62994115D02*
X39262771Y-62660781D01*
X39786581Y-62517924D02*
X39786581Y-62994115D01*
X38786581Y-62994115D01*
X38786581Y-62517924D01*
X39262771Y-60994114D02*
X39310390Y-60851257D01*
X39358010Y-60803638D01*
X39453248Y-60756019D01*
X39596105Y-60756019D01*
X39691343Y-60803638D01*
X39738962Y-60851257D01*
X39786581Y-60946495D01*
X39786581Y-61327448D01*
X38786581Y-61327448D01*
X38786581Y-60994114D01*
X38834200Y-60898876D01*
X38881819Y-60851257D01*
X38977057Y-60803638D01*
X39072295Y-60803638D01*
X39167533Y-60851257D01*
X39215152Y-60898876D01*
X39262771Y-60994114D01*
X39262771Y-61327448D01*
X38786581Y-60136972D02*
X38786581Y-59946495D01*
X38834200Y-59851257D01*
X38929438Y-59756019D01*
X39119914Y-59708400D01*
X39453248Y-59708400D01*
X39643724Y-59756019D01*
X39738962Y-59851257D01*
X39786581Y-59946495D01*
X39786581Y-60136972D01*
X39738962Y-60232210D01*
X39643724Y-60327448D01*
X39453248Y-60375067D01*
X39119914Y-60375067D01*
X38929438Y-60327448D01*
X38834200Y-60232210D01*
X38786581Y-60136972D01*
X39500867Y-59327448D02*
X39500867Y-58851257D01*
X39786581Y-59422686D02*
X38786581Y-59089353D01*
X39786581Y-58756019D01*
X39786581Y-57851257D02*
X39310390Y-58184591D01*
X39786581Y-58422686D02*
X38786581Y-58422686D01*
X38786581Y-58041733D01*
X38834200Y-57946495D01*
X38881819Y-57898876D01*
X38977057Y-57851257D01*
X39119914Y-57851257D01*
X39215152Y-57898876D01*
X39262771Y-57946495D01*
X39310390Y-58041733D01*
X39310390Y-58422686D01*
X39786581Y-57422686D02*
X38786581Y-57422686D01*
X38786581Y-57184591D01*
X38834200Y-57041733D01*
X38929438Y-56946495D01*
X39024676Y-56898876D01*
X39215152Y-56851257D01*
X39358010Y-56851257D01*
X39548486Y-56898876D01*
X39643724Y-56946495D01*
X39738962Y-57041733D01*
X39786581Y-57184591D01*
X39786581Y-57422686D01*
X39738962Y-56470305D02*
X39786581Y-56327448D01*
X39786581Y-56089352D01*
X39738962Y-55994114D01*
X39691343Y-55946495D01*
X39596105Y-55898876D01*
X39500867Y-55898876D01*
X39405629Y-55946495D01*
X39358010Y-55994114D01*
X39310390Y-56089352D01*
X39262771Y-56279829D01*
X39215152Y-56375067D01*
X39167533Y-56422686D01*
X39072295Y-56470305D01*
X38977057Y-56470305D01*
X38881819Y-56422686D01*
X38834200Y-56375067D01*
X38786581Y-56279829D01*
X38786581Y-56041733D01*
X38834200Y-55898876D01*
X35484581Y-80279829D02*
X36294105Y-80279829D01*
X36389343Y-80232210D01*
X36436962Y-80184591D01*
X36484581Y-80089353D01*
X36484581Y-79898876D01*
X36436962Y-79803638D01*
X36389343Y-79756019D01*
X36294105Y-79708400D01*
X35484581Y-79708400D01*
X36436962Y-79279829D02*
X36484581Y-79136972D01*
X36484581Y-78898876D01*
X36436962Y-78803638D01*
X36389343Y-78756019D01*
X36294105Y-78708400D01*
X36198867Y-78708400D01*
X36103629Y-78756019D01*
X36056010Y-78803638D01*
X36008390Y-78898876D01*
X35960771Y-79089353D01*
X35913152Y-79184591D01*
X35865533Y-79232210D01*
X35770295Y-79279829D01*
X35675057Y-79279829D01*
X35579819Y-79232210D01*
X35532200Y-79184591D01*
X35484581Y-79089353D01*
X35484581Y-78851257D01*
X35532200Y-78708400D01*
X35960771Y-78279829D02*
X35960771Y-77946495D01*
X36484581Y-77803638D02*
X36484581Y-78279829D01*
X35484581Y-78279829D01*
X35484581Y-77803638D01*
X35484581Y-76422686D02*
X35484581Y-76232209D01*
X35532200Y-76136971D01*
X35627438Y-76041733D01*
X35817914Y-75994114D01*
X36151248Y-75994114D01*
X36341724Y-76041733D01*
X36436962Y-76136971D01*
X36484581Y-76232209D01*
X36484581Y-76422686D01*
X36436962Y-76517924D01*
X36341724Y-76613162D01*
X36151248Y-76660781D01*
X35817914Y-76660781D01*
X35627438Y-76613162D01*
X35532200Y-76517924D01*
X35484581Y-76422686D01*
X36484581Y-75565543D02*
X35484581Y-75565543D01*
X36484581Y-74994114D01*
X35484581Y-74994114D01*
X36484581Y-74041733D02*
X36484581Y-74517924D01*
X35484581Y-74517924D01*
X36008390Y-73517924D02*
X36484581Y-73517924D01*
X35484581Y-73851257D02*
X36008390Y-73517924D01*
X35484581Y-73184590D01*
X35484581Y-72184590D02*
X36484581Y-71946495D01*
X35770295Y-71756018D01*
X36484581Y-71565542D01*
X35484581Y-71327447D01*
X36484581Y-70946495D02*
X35484581Y-70946495D01*
X35484581Y-70613162D02*
X35484581Y-70041733D01*
X36484581Y-70327448D02*
X35484581Y-70327448D01*
X36484581Y-69708400D02*
X35484581Y-69708400D01*
X35960771Y-69708400D02*
X35960771Y-69136971D01*
X36484581Y-69136971D02*
X35484581Y-69136971D01*
X36198867Y-67946495D02*
X36198867Y-67470304D01*
X36484581Y-68041733D02*
X35484581Y-67708400D01*
X36484581Y-67375066D01*
X36484581Y-66470304D02*
X36008390Y-66803638D01*
X36484581Y-67041733D02*
X35484581Y-67041733D01*
X35484581Y-66660780D01*
X35532200Y-66565542D01*
X35579819Y-66517923D01*
X35675057Y-66470304D01*
X35817914Y-66470304D01*
X35913152Y-66517923D01*
X35960771Y-66565542D01*
X36008390Y-66660780D01*
X36008390Y-67041733D01*
X36484581Y-66041733D02*
X35484581Y-66041733D01*
X35484581Y-65803638D01*
X35532200Y-65660780D01*
X35627438Y-65565542D01*
X35722676Y-65517923D01*
X35913152Y-65470304D01*
X36056010Y-65470304D01*
X36246486Y-65517923D01*
X36341724Y-65565542D01*
X36436962Y-65660780D01*
X36484581Y-65803638D01*
X36484581Y-66041733D01*
X35484581Y-65041733D02*
X36294105Y-65041733D01*
X36389343Y-64994114D01*
X36436962Y-64946495D01*
X36484581Y-64851257D01*
X36484581Y-64660780D01*
X36436962Y-64565542D01*
X36389343Y-64517923D01*
X36294105Y-64470304D01*
X35484581Y-64470304D01*
X36484581Y-63994114D02*
X35484581Y-63994114D01*
X36484581Y-63517924D02*
X35484581Y-63517924D01*
X36484581Y-62946495D01*
X35484581Y-62946495D01*
X35484581Y-62279829D02*
X35484581Y-62089352D01*
X35532200Y-61994114D01*
X35627438Y-61898876D01*
X35817914Y-61851257D01*
X36151248Y-61851257D01*
X36341724Y-61898876D01*
X36436962Y-61994114D01*
X36484581Y-62089352D01*
X36484581Y-62279829D01*
X36436962Y-62375067D01*
X36341724Y-62470305D01*
X36151248Y-62517924D01*
X35817914Y-62517924D01*
X35627438Y-62470305D01*
X35532200Y-62375067D01*
X35484581Y-62279829D01*
X36484581Y-60660781D02*
X35484581Y-60660781D01*
X36484581Y-60089352D01*
X35484581Y-60089352D01*
X36198867Y-59660781D02*
X36198867Y-59184590D01*
X36484581Y-59756019D02*
X35484581Y-59422686D01*
X36484581Y-59089352D01*
X36484581Y-58756019D02*
X35484581Y-58756019D01*
X36484581Y-58184590D01*
X35484581Y-58184590D01*
X35484581Y-57517924D02*
X35484581Y-57327447D01*
X35532200Y-57232209D01*
X35627438Y-57136971D01*
X35817914Y-57089352D01*
X36151248Y-57089352D01*
X36341724Y-57136971D01*
X36436962Y-57232209D01*
X36484581Y-57327447D01*
X36484581Y-57517924D01*
X36436962Y-57613162D01*
X36341724Y-57708400D01*
X36151248Y-57756019D01*
X35817914Y-57756019D01*
X35627438Y-57708400D01*
X35532200Y-57613162D01*
X35484581Y-57517924D01*
X20526714Y-71461381D02*
X20860047Y-72461381D01*
X21193381Y-71461381D01*
X21479095Y-72413762D02*
X21621952Y-72461381D01*
X21860048Y-72461381D01*
X21955286Y-72413762D01*
X22002905Y-72366143D01*
X22050524Y-72270905D01*
X22050524Y-72175667D01*
X22002905Y-72080429D01*
X21955286Y-72032810D01*
X21860048Y-71985190D01*
X21669571Y-71937571D01*
X21574333Y-71889952D01*
X21526714Y-71842333D01*
X21479095Y-71747095D01*
X21479095Y-71651857D01*
X21526714Y-71556619D01*
X21574333Y-71509000D01*
X21669571Y-71461381D01*
X21907667Y-71461381D01*
X22050524Y-71509000D01*
X22479095Y-71937571D02*
X22812429Y-71937571D01*
X22955286Y-72461381D02*
X22479095Y-72461381D01*
X22479095Y-71461381D01*
X22955286Y-71461381D01*
X23955286Y-72461381D02*
X23621952Y-71985190D01*
X23383857Y-72461381D02*
X23383857Y-71461381D01*
X23764810Y-71461381D01*
X23860048Y-71509000D01*
X23907667Y-71556619D01*
X23955286Y-71651857D01*
X23955286Y-71794714D01*
X23907667Y-71889952D01*
X23860048Y-71937571D01*
X23764810Y-71985190D01*
X23383857Y-71985190D01*
X24241000Y-71461381D02*
X24574333Y-72461381D01*
X24907667Y-71461381D01*
X25431476Y-71461381D02*
X25621953Y-71461381D01*
X25717191Y-71509000D01*
X25812429Y-71604238D01*
X25860048Y-71794714D01*
X25860048Y-72128048D01*
X25812429Y-72318524D01*
X25717191Y-72413762D01*
X25621953Y-72461381D01*
X25431476Y-72461381D01*
X25336238Y-72413762D01*
X25241000Y-72318524D01*
X25193381Y-72128048D01*
X25193381Y-71794714D01*
X25241000Y-71604238D01*
X25336238Y-71509000D01*
X25431476Y-71461381D01*
X20523533Y-57221381D02*
X20523533Y-56221381D01*
X20523533Y-56697571D02*
X21094962Y-56697571D01*
X21094962Y-57221381D02*
X21094962Y-56221381D01*
X21523533Y-57173762D02*
X21666390Y-57221381D01*
X21904486Y-57221381D01*
X21999724Y-57173762D01*
X22047343Y-57126143D01*
X22094962Y-57030905D01*
X22094962Y-56935667D01*
X22047343Y-56840429D01*
X21999724Y-56792810D01*
X21904486Y-56745190D01*
X21714009Y-56697571D01*
X21618771Y-56649952D01*
X21571152Y-56602333D01*
X21523533Y-56507095D01*
X21523533Y-56411857D01*
X21571152Y-56316619D01*
X21618771Y-56269000D01*
X21714009Y-56221381D01*
X21952105Y-56221381D01*
X22094962Y-56269000D01*
X22523533Y-56697571D02*
X22856867Y-56697571D01*
X22999724Y-57221381D02*
X22523533Y-57221381D01*
X22523533Y-56221381D01*
X22999724Y-56221381D01*
X23999724Y-57221381D02*
X23666390Y-56745190D01*
X23428295Y-57221381D02*
X23428295Y-56221381D01*
X23809248Y-56221381D01*
X23904486Y-56269000D01*
X23952105Y-56316619D01*
X23999724Y-56411857D01*
X23999724Y-56554714D01*
X23952105Y-56649952D01*
X23904486Y-56697571D01*
X23809248Y-56745190D01*
X23428295Y-56745190D01*
X24285438Y-56221381D02*
X24618771Y-57221381D01*
X24952105Y-56221381D01*
X25475914Y-56221381D02*
X25666391Y-56221381D01*
X25761629Y-56269000D01*
X25856867Y-56364238D01*
X25904486Y-56554714D01*
X25904486Y-56888048D01*
X25856867Y-57078524D01*
X25761629Y-57173762D01*
X25666391Y-57221381D01*
X25475914Y-57221381D01*
X25380676Y-57173762D01*
X25285438Y-57078524D01*
X25237819Y-56888048D01*
X25237819Y-56554714D01*
X25285438Y-56364238D01*
X25380676Y-56269000D01*
X25475914Y-56221381D01*
D14*
X55088972Y-76253219D02*
X55669543Y-76253219D01*
X55379258Y-77269219D02*
X55379258Y-76253219D01*
X56201734Y-76253219D02*
X56395257Y-76253219D01*
X56492019Y-76301600D01*
X56588781Y-76398362D01*
X56637162Y-76591886D01*
X56637162Y-76930552D01*
X56588781Y-77124076D01*
X56492019Y-77220838D01*
X56395257Y-77269219D01*
X56201734Y-77269219D01*
X56104972Y-77220838D01*
X56008210Y-77124076D01*
X55959829Y-76930552D01*
X55959829Y-76591886D01*
X56008210Y-76398362D01*
X56104972Y-76301600D01*
X56201734Y-76253219D01*
X58330495Y-77269219D02*
X57846686Y-77269219D01*
X57846686Y-76253219D01*
X58669162Y-77269219D02*
X58669162Y-76253219D01*
X58911067Y-76253219D01*
X59056209Y-76301600D01*
X59152971Y-76398362D01*
X59201352Y-76495124D01*
X59249733Y-76688648D01*
X59249733Y-76833790D01*
X59201352Y-77027314D01*
X59152971Y-77124076D01*
X59056209Y-77220838D01*
X58911067Y-77269219D01*
X58669162Y-77269219D01*
X60265733Y-77269219D02*
X59927067Y-76785410D01*
X59685162Y-77269219D02*
X59685162Y-76253219D01*
X60072209Y-76253219D01*
X60168971Y-76301600D01*
X60217352Y-76349981D01*
X60265733Y-76446743D01*
X60265733Y-76591886D01*
X60217352Y-76688648D01*
X60168971Y-76737029D01*
X60072209Y-76785410D01*
X59685162Y-76785410D01*
X61813923Y-76737029D02*
X61959066Y-76785410D01*
X62007447Y-76833790D01*
X62055828Y-76930552D01*
X62055828Y-77075695D01*
X62007447Y-77172457D01*
X61959066Y-77220838D01*
X61862304Y-77269219D01*
X61475257Y-77269219D01*
X61475257Y-76253219D01*
X61813923Y-76253219D01*
X61910685Y-76301600D01*
X61959066Y-76349981D01*
X62007447Y-76446743D01*
X62007447Y-76543505D01*
X61959066Y-76640267D01*
X61910685Y-76688648D01*
X61813923Y-76737029D01*
X61475257Y-76737029D01*
X62684781Y-76253219D02*
X62878304Y-76253219D01*
X62975066Y-76301600D01*
X63071828Y-76398362D01*
X63120209Y-76591886D01*
X63120209Y-76930552D01*
X63071828Y-77124076D01*
X62975066Y-77220838D01*
X62878304Y-77269219D01*
X62684781Y-77269219D01*
X62588019Y-77220838D01*
X62491257Y-77124076D01*
X62442876Y-76930552D01*
X62442876Y-76591886D01*
X62491257Y-76398362D01*
X62588019Y-76301600D01*
X62684781Y-76253219D01*
X63507257Y-76978933D02*
X63991066Y-76978933D01*
X63410495Y-77269219D02*
X63749162Y-76253219D01*
X64087828Y-77269219D01*
X65007066Y-77269219D02*
X64668400Y-76785410D01*
X64426495Y-77269219D02*
X64426495Y-76253219D01*
X64813542Y-76253219D01*
X64910304Y-76301600D01*
X64958685Y-76349981D01*
X65007066Y-76446743D01*
X65007066Y-76591886D01*
X64958685Y-76688648D01*
X64910304Y-76737029D01*
X64813542Y-76785410D01*
X64426495Y-76785410D01*
X65442495Y-77269219D02*
X65442495Y-76253219D01*
X65684400Y-76253219D01*
X65829542Y-76301600D01*
X65926304Y-76398362D01*
X65974685Y-76495124D01*
X66023066Y-76688648D01*
X66023066Y-76833790D01*
X65974685Y-77027314D01*
X65926304Y-77124076D01*
X65829542Y-77220838D01*
X65684400Y-77269219D01*
X65442495Y-77269219D01*
D13*
X54122581Y-54491866D02*
X53646390Y-54825200D01*
X54122581Y-55063295D02*
X53122581Y-55063295D01*
X53122581Y-54682342D01*
X53170200Y-54587104D01*
X53217819Y-54539485D01*
X53313057Y-54491866D01*
X53455914Y-54491866D01*
X53551152Y-54539485D01*
X53598771Y-54587104D01*
X53646390Y-54682342D01*
X53646390Y-55063295D01*
X53455914Y-53634723D02*
X54122581Y-53634723D01*
X53074962Y-53872819D02*
X53789248Y-54110914D01*
X53789248Y-53491866D01*
X56992781Y-85637666D02*
X56516590Y-85971000D01*
X56992781Y-86209095D02*
X55992781Y-86209095D01*
X55992781Y-85828142D01*
X56040400Y-85732904D01*
X56088019Y-85685285D01*
X56183257Y-85637666D01*
X56326114Y-85637666D01*
X56421352Y-85685285D01*
X56468971Y-85732904D01*
X56516590Y-85828142D01*
X56516590Y-86209095D01*
X56088019Y-85256714D02*
X56040400Y-85209095D01*
X55992781Y-85113857D01*
X55992781Y-84875761D01*
X56040400Y-84780523D01*
X56088019Y-84732904D01*
X56183257Y-84685285D01*
X56278495Y-84685285D01*
X56421352Y-84732904D01*
X56992781Y-85304333D01*
X56992781Y-84685285D01*
X57029381Y-54458066D02*
X56553190Y-54791400D01*
X57029381Y-55029495D02*
X56029381Y-55029495D01*
X56029381Y-54648542D01*
X56077000Y-54553304D01*
X56124619Y-54505685D01*
X56219857Y-54458066D01*
X56362714Y-54458066D01*
X56457952Y-54505685D01*
X56505571Y-54553304D01*
X56553190Y-54648542D01*
X56553190Y-55029495D01*
X56029381Y-54124733D02*
X56029381Y-53505685D01*
X56410333Y-53839019D01*
X56410333Y-53696161D01*
X56457952Y-53600923D01*
X56505571Y-53553304D01*
X56600810Y-53505685D01*
X56838905Y-53505685D01*
X56934143Y-53553304D01*
X56981762Y-53600923D01*
X57029381Y-53696161D01*
X57029381Y-53981876D01*
X56981762Y-54077114D01*
X56934143Y-54124733D01*
X54198781Y-85510666D02*
X53722590Y-85844000D01*
X54198781Y-86082095D02*
X53198781Y-86082095D01*
X53198781Y-85701142D01*
X53246400Y-85605904D01*
X53294019Y-85558285D01*
X53389257Y-85510666D01*
X53532114Y-85510666D01*
X53627352Y-85558285D01*
X53674971Y-85605904D01*
X53722590Y-85701142D01*
X53722590Y-86082095D01*
X54198781Y-84558285D02*
X54198781Y-85129714D01*
X54198781Y-84844000D02*
X53198781Y-84844000D01*
X53341638Y-84939238D01*
X53436876Y-85034476D01*
X53484495Y-85129714D01*
%LPC*%
D15*
X45923200Y-85877400D03*
X45923200Y-83337400D03*
X45923200Y-80797400D03*
X45923200Y-78257400D03*
X45923200Y-75717400D03*
X45923200Y-73177400D03*
X45923200Y-70637400D03*
X45923200Y-68097400D03*
X45923200Y-65557400D03*
X45923200Y-63017400D03*
X45923200Y-60477400D03*
X45923200Y-57937400D03*
X45923200Y-55397400D03*
X45923200Y-52857400D03*
X30683200Y-52857400D03*
X30683200Y-60477400D03*
X30683200Y-80797400D03*
X30683200Y-65557400D03*
X30683200Y-63017400D03*
X30683200Y-83337400D03*
X30683200Y-75717400D03*
X30683200Y-85877400D03*
X30683200Y-73177400D03*
X30683200Y-70637400D03*
X30683200Y-68097400D03*
X30683200Y-78257400D03*
X30683200Y-55397400D03*
X30683200Y-57937400D03*
X30683200Y-50317400D03*
X45923200Y-50317400D03*
D16*
X23291800Y-74930000D03*
D17*
X23291800Y-77470000D03*
X23291800Y-80010000D03*
D16*
X23291800Y-59690000D03*
D17*
X23291800Y-62230000D03*
X23291800Y-64770000D03*
D18*
X58293000Y-73279000D03*
D19*
X58293000Y-70739000D03*
X58293000Y-68199000D03*
X58293000Y-65659000D03*
X58293000Y-63119000D03*
D20*
X51231800Y-58225200D03*
X51231800Y-49225200D03*
X58877200Y-81432400D03*
X58877200Y-90432400D03*
X58877000Y-58191400D03*
X58877000Y-49191400D03*
X51231800Y-81407000D03*
X51231800Y-90407000D03*
M02*
