M48
;DRILL file {KiCad 4.0.7-e2-6376~58~ubuntu16.04.1} date Wed Mar 21 07:26:21 2018
;FORMAT={-:-/ absolute / metric / decimal}
FMAT,2
METRIC,TZ
T1C1.001
T2C1.016
T3C3.600
%
G90
G05
M71
T1
X51.232Y-49.225
X51.232Y-58.225
X51.232Y-81.407
X51.232Y-90.407
X58.877Y-49.191
X58.877Y-58.191
X58.877Y-81.432
X58.877Y-90.432
T2
X23.292Y-59.69
X23.292Y-62.23
X23.292Y-64.77
X23.292Y-74.93
X23.292Y-77.47
X23.292Y-80.01
X30.683Y-50.317
X30.683Y-52.857
X30.683Y-55.397
X30.683Y-57.937
X30.683Y-60.477
X30.683Y-63.017
X30.683Y-65.557
X30.683Y-68.097
X30.683Y-70.637
X30.683Y-73.177
X30.683Y-75.717
X30.683Y-78.257
X30.683Y-80.797
X30.683Y-83.337
X30.683Y-85.877
X45.923Y-50.317
X45.923Y-52.857
X45.923Y-55.397
X45.923Y-57.937
X45.923Y-60.477
X45.923Y-63.017
X45.923Y-65.557
X45.923Y-68.097
X45.923Y-70.637
X45.923Y-73.177
X45.923Y-75.717
X45.923Y-78.257
X45.923Y-80.797
X45.923Y-83.337
X45.923Y-85.877
X58.293Y-63.119
X58.293Y-65.659
X58.293Y-68.199
X58.293Y-70.739
X58.293Y-73.279
T3
X20.32Y-50.8
X20.32Y-88.9
X64.77Y-50.8
X64.77Y-88.9
T0
M30
