%TF.GenerationSoftware,KiCad,Pcbnew,4.0.7-e2-6376~58~ubuntu16.04.1*%
%TF.CreationDate,2018-02-09T09:49:05-08:00*%
%TF.ProjectId,Arduino-Shield,41726475696E6F2D536869656C642E6B,v1.1*%
%TF.FileFunction,Copper,L1,Top,Signal*%
%FSLAX46Y46*%
G04 Gerber Fmt 4.6, Leading zero omitted, Abs format (unit mm)*
G04 Created by KiCad (PCBNEW 4.0.7-e2-6376~58~ubuntu16.04.1) date Fri Feb  9 09:49:05 2018*
%MOMM*%
%LPD*%
G01*
G04 APERTURE LIST*
%ADD10C,0.350000*%
%ADD11R,2.032000X1.727200*%
%ADD12O,2.032000X1.727200*%
%ADD13R,2.032000X2.032000*%
%ADD14O,2.032000X2.032000*%
%ADD15O,1.524000X2.540000*%
%ADD16C,1.998980*%
%ADD17C,0.508000*%
%ADD18C,0.330200*%
%ADD19C,0.254000*%
%ADD20C,0.350000*%
G04 APERTURE END LIST*
D10*
D11*
X30226000Y-79883000D03*
D12*
X30226000Y-82423000D03*
X30226000Y-84963000D03*
D11*
X30226000Y-64643000D03*
D12*
X30226000Y-67183000D03*
X30226000Y-69723000D03*
D13*
X52451000Y-79883000D03*
D14*
X52451000Y-77343000D03*
X52451000Y-74803000D03*
X52451000Y-72263000D03*
X52451000Y-69723000D03*
D15*
X58928000Y-98552000D03*
X51308000Y-98552000D03*
X53848000Y-98552000D03*
X56388000Y-98552000D03*
X46228000Y-98552000D03*
X43688000Y-98552000D03*
X41148000Y-98552000D03*
X36068000Y-98552000D03*
X33528000Y-98552000D03*
X58928000Y-50292000D03*
X56388000Y-50292000D03*
X53848000Y-50292000D03*
X51308000Y-50292000D03*
X48768000Y-50292000D03*
X46228000Y-50292000D03*
X42164000Y-50292000D03*
X39624000Y-50292000D03*
X37084000Y-50292000D03*
X34544000Y-50292000D03*
X32004000Y-50292000D03*
X29464000Y-50292000D03*
X26924000Y-50292000D03*
X24384000Y-50292000D03*
X38608000Y-98552000D03*
X30988000Y-98552000D03*
X28448000Y-98552000D03*
D16*
X44831000Y-62103000D03*
X35831000Y-62103000D03*
X44831000Y-84963000D03*
X35831000Y-84963000D03*
X44831000Y-77343000D03*
X35831000Y-77343000D03*
X44831000Y-69723000D03*
X35831000Y-69723000D03*
D17*
X52451000Y-79883000D02*
X52451000Y-83261200D01*
X52451000Y-83261200D02*
X38684200Y-97028000D01*
X27686000Y-86029800D02*
X27686000Y-84810600D01*
X27686000Y-84810600D02*
X30073600Y-82423000D01*
X30073600Y-82423000D02*
X30226000Y-82423000D01*
X38684200Y-98552000D02*
X38684200Y-97028000D01*
X38684200Y-97028000D02*
X27686000Y-86029800D01*
D18*
X52451000Y-77343000D02*
X54356000Y-77343000D01*
X54356000Y-77343000D02*
X55626000Y-78613000D01*
X55626000Y-78613000D02*
X55626000Y-88138000D01*
X55626000Y-88138000D02*
X51409600Y-92354400D01*
X51409600Y-92354400D02*
X51409600Y-98552000D01*
X52451000Y-77343000D02*
X51014160Y-77343000D01*
X51014160Y-77343000D02*
X44831000Y-83526160D01*
X44831000Y-83526160D02*
X44831000Y-84963000D01*
X53949600Y-94488000D02*
X53949600Y-97205800D01*
X52451000Y-74803000D02*
X53086000Y-74803000D01*
X53086000Y-74803000D02*
X56896000Y-78613000D01*
X56896000Y-78613000D02*
X56896000Y-91541600D01*
X56896000Y-91541600D02*
X53949600Y-94488000D01*
X53949600Y-97205800D02*
X53949600Y-98552000D01*
X52451000Y-74803000D02*
X47371000Y-74803000D01*
X47371000Y-74803000D02*
X44831000Y-77343000D01*
X56489600Y-97663000D02*
X56489600Y-98552000D01*
X52451000Y-72263000D02*
X58166000Y-77978000D01*
X58166000Y-77978000D02*
X58166000Y-95986600D01*
X58166000Y-95986600D02*
X56489600Y-97663000D01*
X52451000Y-72263000D02*
X47371000Y-72263000D01*
X47371000Y-72263000D02*
X44831000Y-69723000D01*
X52451000Y-69723000D02*
X59029600Y-76301600D01*
X59029600Y-76301600D02*
X59029600Y-98552000D01*
X44831000Y-62103000D02*
X52451000Y-69723000D01*
X39725600Y-50292000D02*
X39725600Y-51638200D01*
X30226000Y-61137800D02*
X30226000Y-64643000D01*
X39725600Y-51638200D02*
X30226000Y-61137800D01*
X27686000Y-66040000D02*
X27686000Y-77343000D01*
X37185600Y-50292000D02*
X37185600Y-52984400D01*
X37185600Y-52984400D02*
X27686000Y-62484000D01*
X27686000Y-62484000D02*
X27686000Y-66040000D01*
X27686000Y-77343000D02*
X30226000Y-79883000D01*
D19*
G36*
X54825900Y-78944412D02*
X54825900Y-87806588D01*
X50843844Y-91788644D01*
X50670404Y-92048215D01*
X50609500Y-92354400D01*
X50609500Y-96825528D01*
X50320172Y-97018851D01*
X50017340Y-97472070D01*
X49911000Y-98006679D01*
X49911000Y-99097321D01*
X50017340Y-99631930D01*
X50320172Y-100085149D01*
X50764440Y-100382000D01*
X46771560Y-100382000D01*
X47215828Y-100085149D01*
X47518660Y-99631930D01*
X47625000Y-99097321D01*
X47625000Y-98006679D01*
X47518660Y-97472070D01*
X47215828Y-97018851D01*
X46762609Y-96716019D01*
X46228000Y-96609679D01*
X45693391Y-96716019D01*
X45240172Y-97018851D01*
X44948670Y-97455113D01*
X44930059Y-97392059D01*
X44586026Y-96966370D01*
X44105277Y-96704740D01*
X44031070Y-96689780D01*
X43815000Y-96812280D01*
X43815000Y-98425000D01*
X43835000Y-98425000D01*
X43835000Y-98679000D01*
X43815000Y-98679000D01*
X43815000Y-98699000D01*
X43561000Y-98699000D01*
X43561000Y-98679000D01*
X41275000Y-98679000D01*
X41275000Y-98699000D01*
X41021000Y-98699000D01*
X41021000Y-98679000D01*
X41001000Y-98679000D01*
X41001000Y-98425000D01*
X41021000Y-98425000D01*
X41021000Y-96812280D01*
X41275000Y-96812280D01*
X41275000Y-98425000D01*
X43561000Y-98425000D01*
X43561000Y-96812280D01*
X43344930Y-96689780D01*
X43270723Y-96704740D01*
X42789974Y-96966370D01*
X42445941Y-97392059D01*
X42418000Y-97486723D01*
X42390059Y-97392059D01*
X42046026Y-96966370D01*
X41565277Y-96704740D01*
X41491070Y-96689780D01*
X41275000Y-96812280D01*
X41021000Y-96812280D01*
X40804930Y-96689780D01*
X40730723Y-96704740D01*
X40249974Y-96966370D01*
X39905941Y-97392059D01*
X39887330Y-97455113D01*
X39737924Y-97231512D01*
X53079618Y-83889818D01*
X53272329Y-83601406D01*
X53340000Y-83261200D01*
X53340000Y-81546440D01*
X53467000Y-81546440D01*
X53702317Y-81502162D01*
X53918441Y-81363090D01*
X54063431Y-81150890D01*
X54114440Y-80899000D01*
X54114440Y-78867000D01*
X54070162Y-78631683D01*
X53931090Y-78415559D01*
X53782163Y-78313802D01*
X53896222Y-78143100D01*
X54024588Y-78143100D01*
X54825900Y-78944412D01*
X54825900Y-78944412D01*
G37*
X54825900Y-78944412D02*
X54825900Y-87806588D01*
X50843844Y-91788644D01*
X50670404Y-92048215D01*
X50609500Y-92354400D01*
X50609500Y-96825528D01*
X50320172Y-97018851D01*
X50017340Y-97472070D01*
X49911000Y-98006679D01*
X49911000Y-99097321D01*
X50017340Y-99631930D01*
X50320172Y-100085149D01*
X50764440Y-100382000D01*
X46771560Y-100382000D01*
X47215828Y-100085149D01*
X47518660Y-99631930D01*
X47625000Y-99097321D01*
X47625000Y-98006679D01*
X47518660Y-97472070D01*
X47215828Y-97018851D01*
X46762609Y-96716019D01*
X46228000Y-96609679D01*
X45693391Y-96716019D01*
X45240172Y-97018851D01*
X44948670Y-97455113D01*
X44930059Y-97392059D01*
X44586026Y-96966370D01*
X44105277Y-96704740D01*
X44031070Y-96689780D01*
X43815000Y-96812280D01*
X43815000Y-98425000D01*
X43835000Y-98425000D01*
X43835000Y-98679000D01*
X43815000Y-98679000D01*
X43815000Y-98699000D01*
X43561000Y-98699000D01*
X43561000Y-98679000D01*
X41275000Y-98679000D01*
X41275000Y-98699000D01*
X41021000Y-98699000D01*
X41021000Y-98679000D01*
X41001000Y-98679000D01*
X41001000Y-98425000D01*
X41021000Y-98425000D01*
X41021000Y-96812280D01*
X41275000Y-96812280D01*
X41275000Y-98425000D01*
X43561000Y-98425000D01*
X43561000Y-96812280D01*
X43344930Y-96689780D01*
X43270723Y-96704740D01*
X42789974Y-96966370D01*
X42445941Y-97392059D01*
X42418000Y-97486723D01*
X42390059Y-97392059D01*
X42046026Y-96966370D01*
X41565277Y-96704740D01*
X41491070Y-96689780D01*
X41275000Y-96812280D01*
X41021000Y-96812280D01*
X40804930Y-96689780D01*
X40730723Y-96704740D01*
X40249974Y-96966370D01*
X39905941Y-97392059D01*
X39887330Y-97455113D01*
X39737924Y-97231512D01*
X53079618Y-83889818D01*
X53272329Y-83601406D01*
X53340000Y-83261200D01*
X53340000Y-81546440D01*
X53467000Y-81546440D01*
X53702317Y-81502162D01*
X53918441Y-81363090D01*
X54063431Y-81150890D01*
X54114440Y-80899000D01*
X54114440Y-78867000D01*
X54070162Y-78631683D01*
X53931090Y-78415559D01*
X53782163Y-78313802D01*
X53896222Y-78143100D01*
X54024588Y-78143100D01*
X54825900Y-78944412D01*
G36*
X27051000Y-50165000D02*
X27071000Y-50165000D01*
X27071000Y-50419000D01*
X27051000Y-50419000D01*
X27051000Y-52031720D01*
X27267070Y-52154220D01*
X27341277Y-52139260D01*
X27822026Y-51877630D01*
X28166059Y-51451941D01*
X28184670Y-51388887D01*
X28476172Y-51825149D01*
X28929391Y-52127981D01*
X29464000Y-52234321D01*
X29998609Y-52127981D01*
X30451828Y-51825149D01*
X30734000Y-51402850D01*
X31016172Y-51825149D01*
X31469391Y-52127981D01*
X32004000Y-52234321D01*
X32538609Y-52127981D01*
X32991828Y-51825149D01*
X33274000Y-51402850D01*
X33556172Y-51825149D01*
X34009391Y-52127981D01*
X34544000Y-52234321D01*
X35078609Y-52127981D01*
X35531828Y-51825149D01*
X35814000Y-51402850D01*
X36096172Y-51825149D01*
X36385500Y-52018472D01*
X36385500Y-52652988D01*
X27120244Y-61918244D01*
X26946804Y-62177815D01*
X26885900Y-62484000D01*
X26885900Y-77343000D01*
X26946804Y-77649185D01*
X27120244Y-77908756D01*
X28562560Y-79351072D01*
X28562560Y-80746600D01*
X28606838Y-80981917D01*
X28745910Y-81198041D01*
X28958110Y-81343031D01*
X28999439Y-81351400D01*
X28981585Y-81363330D01*
X28656729Y-81849511D01*
X28542655Y-82423000D01*
X28588066Y-82651298D01*
X27057382Y-84181982D01*
X26864671Y-84470394D01*
X26797000Y-84810600D01*
X26797000Y-86029800D01*
X26864671Y-86370006D01*
X27016861Y-86597774D01*
X27057382Y-86658418D01*
X37539119Y-97140155D01*
X37338000Y-97441150D01*
X37055828Y-97018851D01*
X36602609Y-96716019D01*
X36068000Y-96609679D01*
X35533391Y-96716019D01*
X35080172Y-97018851D01*
X34798000Y-97441150D01*
X34515828Y-97018851D01*
X34062609Y-96716019D01*
X33528000Y-96609679D01*
X32993391Y-96716019D01*
X32540172Y-97018851D01*
X32258000Y-97441150D01*
X31975828Y-97018851D01*
X31522609Y-96716019D01*
X30988000Y-96609679D01*
X30453391Y-96716019D01*
X30000172Y-97018851D01*
X29718000Y-97441150D01*
X29435828Y-97018851D01*
X28982609Y-96716019D01*
X28448000Y-96609679D01*
X27913391Y-96716019D01*
X27460172Y-97018851D01*
X27157340Y-97472070D01*
X27051000Y-98006679D01*
X27051000Y-99097321D01*
X27157340Y-99631930D01*
X27460172Y-100085149D01*
X27904440Y-100382000D01*
X23316000Y-100382000D01*
X23316000Y-51705163D01*
X23396172Y-51825149D01*
X23849391Y-52127981D01*
X24384000Y-52234321D01*
X24918609Y-52127981D01*
X25371828Y-51825149D01*
X25663330Y-51388887D01*
X25681941Y-51451941D01*
X26025974Y-51877630D01*
X26506723Y-52139260D01*
X26580930Y-52154220D01*
X26797000Y-52031720D01*
X26797000Y-50419000D01*
X26777000Y-50419000D01*
X26777000Y-50165000D01*
X26797000Y-50165000D01*
X26797000Y-50145000D01*
X27051000Y-50145000D01*
X27051000Y-50165000D01*
X27051000Y-50165000D01*
G37*
X27051000Y-50165000D02*
X27071000Y-50165000D01*
X27071000Y-50419000D01*
X27051000Y-50419000D01*
X27051000Y-52031720D01*
X27267070Y-52154220D01*
X27341277Y-52139260D01*
X27822026Y-51877630D01*
X28166059Y-51451941D01*
X28184670Y-51388887D01*
X28476172Y-51825149D01*
X28929391Y-52127981D01*
X29464000Y-52234321D01*
X29998609Y-52127981D01*
X30451828Y-51825149D01*
X30734000Y-51402850D01*
X31016172Y-51825149D01*
X31469391Y-52127981D01*
X32004000Y-52234321D01*
X32538609Y-52127981D01*
X32991828Y-51825149D01*
X33274000Y-51402850D01*
X33556172Y-51825149D01*
X34009391Y-52127981D01*
X34544000Y-52234321D01*
X35078609Y-52127981D01*
X35531828Y-51825149D01*
X35814000Y-51402850D01*
X36096172Y-51825149D01*
X36385500Y-52018472D01*
X36385500Y-52652988D01*
X27120244Y-61918244D01*
X26946804Y-62177815D01*
X26885900Y-62484000D01*
X26885900Y-77343000D01*
X26946804Y-77649185D01*
X27120244Y-77908756D01*
X28562560Y-79351072D01*
X28562560Y-80746600D01*
X28606838Y-80981917D01*
X28745910Y-81198041D01*
X28958110Y-81343031D01*
X28999439Y-81351400D01*
X28981585Y-81363330D01*
X28656729Y-81849511D01*
X28542655Y-82423000D01*
X28588066Y-82651298D01*
X27057382Y-84181982D01*
X26864671Y-84470394D01*
X26797000Y-84810600D01*
X26797000Y-86029800D01*
X26864671Y-86370006D01*
X27016861Y-86597774D01*
X27057382Y-86658418D01*
X37539119Y-97140155D01*
X37338000Y-97441150D01*
X37055828Y-97018851D01*
X36602609Y-96716019D01*
X36068000Y-96609679D01*
X35533391Y-96716019D01*
X35080172Y-97018851D01*
X34798000Y-97441150D01*
X34515828Y-97018851D01*
X34062609Y-96716019D01*
X33528000Y-96609679D01*
X32993391Y-96716019D01*
X32540172Y-97018851D01*
X32258000Y-97441150D01*
X31975828Y-97018851D01*
X31522609Y-96716019D01*
X30988000Y-96609679D01*
X30453391Y-96716019D01*
X30000172Y-97018851D01*
X29718000Y-97441150D01*
X29435828Y-97018851D01*
X28982609Y-96716019D01*
X28448000Y-96609679D01*
X27913391Y-96716019D01*
X27460172Y-97018851D01*
X27157340Y-97472070D01*
X27051000Y-98006679D01*
X27051000Y-99097321D01*
X27157340Y-99631930D01*
X27460172Y-100085149D01*
X27904440Y-100382000D01*
X23316000Y-100382000D01*
X23316000Y-51705163D01*
X23396172Y-51825149D01*
X23849391Y-52127981D01*
X24384000Y-52234321D01*
X24918609Y-52127981D01*
X25371828Y-51825149D01*
X25663330Y-51388887D01*
X25681941Y-51451941D01*
X26025974Y-51877630D01*
X26506723Y-52139260D01*
X26580930Y-52154220D01*
X26797000Y-52031720D01*
X26797000Y-50419000D01*
X26777000Y-50419000D01*
X26777000Y-50165000D01*
X26797000Y-50165000D01*
X26797000Y-50145000D01*
X27051000Y-50145000D01*
X27051000Y-50165000D01*
G36*
X45240172Y-48758851D02*
X44937340Y-49212070D01*
X44831000Y-49746679D01*
X44831000Y-50837321D01*
X44937340Y-51371930D01*
X45240172Y-51825149D01*
X45693391Y-52127981D01*
X46228000Y-52234321D01*
X46762609Y-52127981D01*
X47215828Y-51825149D01*
X47498000Y-51402850D01*
X47780172Y-51825149D01*
X48233391Y-52127981D01*
X48768000Y-52234321D01*
X49302609Y-52127981D01*
X49755828Y-51825149D01*
X50038000Y-51402850D01*
X50320172Y-51825149D01*
X50773391Y-52127981D01*
X51308000Y-52234321D01*
X51842609Y-52127981D01*
X52295828Y-51825149D01*
X52578000Y-51402850D01*
X52860172Y-51825149D01*
X53313391Y-52127981D01*
X53848000Y-52234321D01*
X54382609Y-52127981D01*
X54835828Y-51825149D01*
X55118000Y-51402850D01*
X55400172Y-51825149D01*
X55853391Y-52127981D01*
X56388000Y-52234321D01*
X56922609Y-52127981D01*
X57375828Y-51825149D01*
X57658000Y-51402850D01*
X57940172Y-51825149D01*
X58393391Y-52127981D01*
X58928000Y-52234321D01*
X59462609Y-52127981D01*
X59742000Y-51941297D01*
X59742000Y-75955312D01*
X59595356Y-75735844D01*
X54042790Y-70183278D01*
X54134345Y-69723000D01*
X54008670Y-69091190D01*
X53650778Y-68555567D01*
X53115155Y-68197675D01*
X52483345Y-68072000D01*
X52418655Y-68072000D01*
X52012334Y-68152822D01*
X46413524Y-62554012D01*
X46465206Y-62429547D01*
X46465774Y-61779306D01*
X46217462Y-61178345D01*
X45758073Y-60718154D01*
X45157547Y-60468794D01*
X44507306Y-60468226D01*
X43906345Y-60716538D01*
X43446154Y-61175927D01*
X43196794Y-61776453D01*
X43196226Y-62426694D01*
X43444538Y-63027655D01*
X43903927Y-63487846D01*
X44504453Y-63737206D01*
X45154694Y-63737774D01*
X45281760Y-63685272D01*
X50859210Y-69262722D01*
X50767655Y-69723000D01*
X50893330Y-70354810D01*
X51251222Y-70890433D01*
X51404724Y-70993000D01*
X51251222Y-71095567D01*
X51005778Y-71462900D01*
X47702412Y-71462900D01*
X46413524Y-70174012D01*
X46465206Y-70049547D01*
X46465774Y-69399306D01*
X46217462Y-68798345D01*
X45758073Y-68338154D01*
X45157547Y-68088794D01*
X44507306Y-68088226D01*
X43906345Y-68336538D01*
X43446154Y-68795927D01*
X43196794Y-69396453D01*
X43196226Y-70046694D01*
X43444538Y-70647655D01*
X43903927Y-71107846D01*
X44504453Y-71357206D01*
X45154694Y-71357774D01*
X45281760Y-71305272D01*
X46805244Y-72828756D01*
X47064815Y-73002196D01*
X47371000Y-73063100D01*
X51005778Y-73063100D01*
X51251222Y-73430433D01*
X51404724Y-73533000D01*
X51251222Y-73635567D01*
X51005778Y-74002900D01*
X47371000Y-74002900D01*
X47064815Y-74063804D01*
X46805244Y-74237244D01*
X45282012Y-75760476D01*
X45157547Y-75708794D01*
X44507306Y-75708226D01*
X43906345Y-75956538D01*
X43446154Y-76415927D01*
X43196794Y-77016453D01*
X43196226Y-77666694D01*
X43444538Y-78267655D01*
X43903927Y-78727846D01*
X44504453Y-78977206D01*
X45154694Y-78977774D01*
X45755655Y-78729462D01*
X46215846Y-78270073D01*
X46465206Y-77669547D01*
X46465774Y-77019306D01*
X46413272Y-76892240D01*
X47702412Y-75603100D01*
X51005778Y-75603100D01*
X51251222Y-75970433D01*
X51404724Y-76073000D01*
X51251222Y-76175567D01*
X51004493Y-76544823D01*
X50707975Y-76603804D01*
X50448404Y-76777244D01*
X44265244Y-82960404D01*
X44091804Y-83219975D01*
X44031136Y-83524976D01*
X43906345Y-83576538D01*
X43446154Y-84035927D01*
X43196794Y-84636453D01*
X43196226Y-85286694D01*
X43444538Y-85887655D01*
X43903927Y-86347846D01*
X44504453Y-86597206D01*
X45154694Y-86597774D01*
X45755655Y-86349462D01*
X46215846Y-85890073D01*
X46465206Y-85289547D01*
X46465774Y-84639306D01*
X46217462Y-84038345D01*
X45834229Y-83654443D01*
X50829683Y-78658989D01*
X50787560Y-78867000D01*
X50787560Y-80899000D01*
X50831838Y-81134317D01*
X50970910Y-81350441D01*
X51183110Y-81495431D01*
X51435000Y-81546440D01*
X51562000Y-81546440D01*
X51562000Y-82892964D01*
X38684200Y-95770764D01*
X28575000Y-85661564D01*
X28575000Y-85178836D01*
X28663834Y-85090002D01*
X28739782Y-85090002D01*
X28618642Y-85322026D01*
X28621291Y-85337791D01*
X28875268Y-85865036D01*
X29311680Y-86254954D01*
X29864087Y-86448184D01*
X30099000Y-86303924D01*
X30099000Y-85090000D01*
X30353000Y-85090000D01*
X30353000Y-86303924D01*
X30587913Y-86448184D01*
X31140320Y-86254954D01*
X31296779Y-86115163D01*
X34858443Y-86115163D01*
X34957042Y-86381965D01*
X35566582Y-86608401D01*
X36216377Y-86584341D01*
X36704958Y-86381965D01*
X36803557Y-86115163D01*
X35831000Y-85142605D01*
X34858443Y-86115163D01*
X31296779Y-86115163D01*
X31576732Y-85865036D01*
X31830709Y-85337791D01*
X31833358Y-85322026D01*
X31712217Y-85090000D01*
X30353000Y-85090000D01*
X30099000Y-85090000D01*
X30079000Y-85090000D01*
X30079000Y-84836000D01*
X30099000Y-84836000D01*
X30099000Y-84816000D01*
X30353000Y-84816000D01*
X30353000Y-84836000D01*
X31712217Y-84836000D01*
X31783963Y-84698582D01*
X34185599Y-84698582D01*
X34209659Y-85348377D01*
X34412035Y-85836958D01*
X34678837Y-85935557D01*
X35651395Y-84963000D01*
X36010605Y-84963000D01*
X36983163Y-85935557D01*
X37249965Y-85836958D01*
X37476401Y-85227418D01*
X37452341Y-84577623D01*
X37249965Y-84089042D01*
X36983163Y-83990443D01*
X36010605Y-84963000D01*
X35651395Y-84963000D01*
X34678837Y-83990443D01*
X34412035Y-84089042D01*
X34185599Y-84698582D01*
X31783963Y-84698582D01*
X31833358Y-84603974D01*
X31830709Y-84588209D01*
X31576732Y-84060964D01*
X31296780Y-83810837D01*
X34858443Y-83810837D01*
X35831000Y-84783395D01*
X36803557Y-83810837D01*
X36704958Y-83544035D01*
X36095418Y-83317599D01*
X35445623Y-83341659D01*
X34957042Y-83544035D01*
X34858443Y-83810837D01*
X31296780Y-83810837D01*
X31160931Y-83689461D01*
X31470415Y-83482670D01*
X31795271Y-82996489D01*
X31909345Y-82423000D01*
X31795271Y-81849511D01*
X31470415Y-81363330D01*
X31456087Y-81353757D01*
X31477317Y-81349762D01*
X31693441Y-81210690D01*
X31838431Y-80998490D01*
X31889440Y-80746600D01*
X31889440Y-79019400D01*
X31845162Y-78784083D01*
X31706090Y-78567959D01*
X31599550Y-78495163D01*
X34858443Y-78495163D01*
X34957042Y-78761965D01*
X35566582Y-78988401D01*
X36216377Y-78964341D01*
X36704958Y-78761965D01*
X36803557Y-78495163D01*
X35831000Y-77522605D01*
X34858443Y-78495163D01*
X31599550Y-78495163D01*
X31493890Y-78422969D01*
X31242000Y-78371960D01*
X29846472Y-78371960D01*
X28553094Y-77078582D01*
X34185599Y-77078582D01*
X34209659Y-77728377D01*
X34412035Y-78216958D01*
X34678837Y-78315557D01*
X35651395Y-77343000D01*
X36010605Y-77343000D01*
X36983163Y-78315557D01*
X37249965Y-78216958D01*
X37476401Y-77607418D01*
X37452341Y-76957623D01*
X37249965Y-76469042D01*
X36983163Y-76370443D01*
X36010605Y-77343000D01*
X35651395Y-77343000D01*
X34678837Y-76370443D01*
X34412035Y-76469042D01*
X34185599Y-77078582D01*
X28553094Y-77078582D01*
X28486100Y-77011588D01*
X28486100Y-76190837D01*
X34858443Y-76190837D01*
X35831000Y-77163395D01*
X36803557Y-76190837D01*
X36704958Y-75924035D01*
X36095418Y-75697599D01*
X35445623Y-75721659D01*
X34957042Y-75924035D01*
X34858443Y-76190837D01*
X28486100Y-76190837D01*
X28486100Y-70082026D01*
X28618642Y-70082026D01*
X28621291Y-70097791D01*
X28875268Y-70625036D01*
X29311680Y-71014954D01*
X29864087Y-71208184D01*
X30099000Y-71063924D01*
X30099000Y-69850000D01*
X30353000Y-69850000D01*
X30353000Y-71063924D01*
X30587913Y-71208184D01*
X31140320Y-71014954D01*
X31296779Y-70875163D01*
X34858443Y-70875163D01*
X34957042Y-71141965D01*
X35566582Y-71368401D01*
X36216377Y-71344341D01*
X36704958Y-71141965D01*
X36803557Y-70875163D01*
X35831000Y-69902605D01*
X34858443Y-70875163D01*
X31296779Y-70875163D01*
X31576732Y-70625036D01*
X31830709Y-70097791D01*
X31833358Y-70082026D01*
X31712217Y-69850000D01*
X30353000Y-69850000D01*
X30099000Y-69850000D01*
X28739783Y-69850000D01*
X28618642Y-70082026D01*
X28486100Y-70082026D01*
X28486100Y-62815412D01*
X29425900Y-61875612D01*
X29425900Y-63131960D01*
X29210000Y-63131960D01*
X28974683Y-63176238D01*
X28758559Y-63315310D01*
X28613569Y-63527510D01*
X28562560Y-63779400D01*
X28562560Y-65506600D01*
X28606838Y-65741917D01*
X28745910Y-65958041D01*
X28958110Y-66103031D01*
X28999439Y-66111400D01*
X28981585Y-66123330D01*
X28656729Y-66609511D01*
X28542655Y-67183000D01*
X28656729Y-67756489D01*
X28981585Y-68242670D01*
X29291069Y-68449461D01*
X28875268Y-68820964D01*
X28621291Y-69348209D01*
X28618642Y-69363974D01*
X28739783Y-69596000D01*
X30099000Y-69596000D01*
X30099000Y-69576000D01*
X30353000Y-69576000D01*
X30353000Y-69596000D01*
X31712217Y-69596000D01*
X31783963Y-69458582D01*
X34185599Y-69458582D01*
X34209659Y-70108377D01*
X34412035Y-70596958D01*
X34678837Y-70695557D01*
X35651395Y-69723000D01*
X36010605Y-69723000D01*
X36983163Y-70695557D01*
X37249965Y-70596958D01*
X37476401Y-69987418D01*
X37452341Y-69337623D01*
X37249965Y-68849042D01*
X36983163Y-68750443D01*
X36010605Y-69723000D01*
X35651395Y-69723000D01*
X34678837Y-68750443D01*
X34412035Y-68849042D01*
X34185599Y-69458582D01*
X31783963Y-69458582D01*
X31833358Y-69363974D01*
X31830709Y-69348209D01*
X31576732Y-68820964D01*
X31296780Y-68570837D01*
X34858443Y-68570837D01*
X35831000Y-69543395D01*
X36803557Y-68570837D01*
X36704958Y-68304035D01*
X36095418Y-68077599D01*
X35445623Y-68101659D01*
X34957042Y-68304035D01*
X34858443Y-68570837D01*
X31296780Y-68570837D01*
X31160931Y-68449461D01*
X31470415Y-68242670D01*
X31795271Y-67756489D01*
X31909345Y-67183000D01*
X31795271Y-66609511D01*
X31470415Y-66123330D01*
X31456087Y-66113757D01*
X31477317Y-66109762D01*
X31693441Y-65970690D01*
X31838431Y-65758490D01*
X31889440Y-65506600D01*
X31889440Y-63779400D01*
X31845162Y-63544083D01*
X31706090Y-63327959D01*
X31599550Y-63255163D01*
X34858443Y-63255163D01*
X34957042Y-63521965D01*
X35566582Y-63748401D01*
X36216377Y-63724341D01*
X36704958Y-63521965D01*
X36803557Y-63255163D01*
X35831000Y-62282605D01*
X34858443Y-63255163D01*
X31599550Y-63255163D01*
X31493890Y-63182969D01*
X31242000Y-63131960D01*
X31026100Y-63131960D01*
X31026100Y-61838582D01*
X34185599Y-61838582D01*
X34209659Y-62488377D01*
X34412035Y-62976958D01*
X34678837Y-63075557D01*
X35651395Y-62103000D01*
X36010605Y-62103000D01*
X36983163Y-63075557D01*
X37249965Y-62976958D01*
X37476401Y-62367418D01*
X37452341Y-61717623D01*
X37249965Y-61229042D01*
X36983163Y-61130443D01*
X36010605Y-62103000D01*
X35651395Y-62103000D01*
X34678837Y-61130443D01*
X34412035Y-61229042D01*
X34185599Y-61838582D01*
X31026100Y-61838582D01*
X31026100Y-61469212D01*
X31544475Y-60950837D01*
X34858443Y-60950837D01*
X35831000Y-61923395D01*
X36803557Y-60950837D01*
X36704958Y-60684035D01*
X36095418Y-60457599D01*
X35445623Y-60481659D01*
X34957042Y-60684035D01*
X34858443Y-60950837D01*
X31544475Y-60950837D01*
X40291356Y-52203956D01*
X40464796Y-51944385D01*
X40469612Y-51920175D01*
X40611828Y-51825149D01*
X40894000Y-51402850D01*
X41176172Y-51825149D01*
X41629391Y-52127981D01*
X42164000Y-52234321D01*
X42698609Y-52127981D01*
X43151828Y-51825149D01*
X43454660Y-51371930D01*
X43561000Y-50837321D01*
X43561000Y-49746679D01*
X43454660Y-49212070D01*
X43151828Y-48758851D01*
X43087697Y-48716000D01*
X45304303Y-48716000D01*
X45240172Y-48758851D01*
X45240172Y-48758851D01*
G37*
X45240172Y-48758851D02*
X44937340Y-49212070D01*
X44831000Y-49746679D01*
X44831000Y-50837321D01*
X44937340Y-51371930D01*
X45240172Y-51825149D01*
X45693391Y-52127981D01*
X46228000Y-52234321D01*
X46762609Y-52127981D01*
X47215828Y-51825149D01*
X47498000Y-51402850D01*
X47780172Y-51825149D01*
X48233391Y-52127981D01*
X48768000Y-52234321D01*
X49302609Y-52127981D01*
X49755828Y-51825149D01*
X50038000Y-51402850D01*
X50320172Y-51825149D01*
X50773391Y-52127981D01*
X51308000Y-52234321D01*
X51842609Y-52127981D01*
X52295828Y-51825149D01*
X52578000Y-51402850D01*
X52860172Y-51825149D01*
X53313391Y-52127981D01*
X53848000Y-52234321D01*
X54382609Y-52127981D01*
X54835828Y-51825149D01*
X55118000Y-51402850D01*
X55400172Y-51825149D01*
X55853391Y-52127981D01*
X56388000Y-52234321D01*
X56922609Y-52127981D01*
X57375828Y-51825149D01*
X57658000Y-51402850D01*
X57940172Y-51825149D01*
X58393391Y-52127981D01*
X58928000Y-52234321D01*
X59462609Y-52127981D01*
X59742000Y-51941297D01*
X59742000Y-75955312D01*
X59595356Y-75735844D01*
X54042790Y-70183278D01*
X54134345Y-69723000D01*
X54008670Y-69091190D01*
X53650778Y-68555567D01*
X53115155Y-68197675D01*
X52483345Y-68072000D01*
X52418655Y-68072000D01*
X52012334Y-68152822D01*
X46413524Y-62554012D01*
X46465206Y-62429547D01*
X46465774Y-61779306D01*
X46217462Y-61178345D01*
X45758073Y-60718154D01*
X45157547Y-60468794D01*
X44507306Y-60468226D01*
X43906345Y-60716538D01*
X43446154Y-61175927D01*
X43196794Y-61776453D01*
X43196226Y-62426694D01*
X43444538Y-63027655D01*
X43903927Y-63487846D01*
X44504453Y-63737206D01*
X45154694Y-63737774D01*
X45281760Y-63685272D01*
X50859210Y-69262722D01*
X50767655Y-69723000D01*
X50893330Y-70354810D01*
X51251222Y-70890433D01*
X51404724Y-70993000D01*
X51251222Y-71095567D01*
X51005778Y-71462900D01*
X47702412Y-71462900D01*
X46413524Y-70174012D01*
X46465206Y-70049547D01*
X46465774Y-69399306D01*
X46217462Y-68798345D01*
X45758073Y-68338154D01*
X45157547Y-68088794D01*
X44507306Y-68088226D01*
X43906345Y-68336538D01*
X43446154Y-68795927D01*
X43196794Y-69396453D01*
X43196226Y-70046694D01*
X43444538Y-70647655D01*
X43903927Y-71107846D01*
X44504453Y-71357206D01*
X45154694Y-71357774D01*
X45281760Y-71305272D01*
X46805244Y-72828756D01*
X47064815Y-73002196D01*
X47371000Y-73063100D01*
X51005778Y-73063100D01*
X51251222Y-73430433D01*
X51404724Y-73533000D01*
X51251222Y-73635567D01*
X51005778Y-74002900D01*
X47371000Y-74002900D01*
X47064815Y-74063804D01*
X46805244Y-74237244D01*
X45282012Y-75760476D01*
X45157547Y-75708794D01*
X44507306Y-75708226D01*
X43906345Y-75956538D01*
X43446154Y-76415927D01*
X43196794Y-77016453D01*
X43196226Y-77666694D01*
X43444538Y-78267655D01*
X43903927Y-78727846D01*
X44504453Y-78977206D01*
X45154694Y-78977774D01*
X45755655Y-78729462D01*
X46215846Y-78270073D01*
X46465206Y-77669547D01*
X46465774Y-77019306D01*
X46413272Y-76892240D01*
X47702412Y-75603100D01*
X51005778Y-75603100D01*
X51251222Y-75970433D01*
X51404724Y-76073000D01*
X51251222Y-76175567D01*
X51004493Y-76544823D01*
X50707975Y-76603804D01*
X50448404Y-76777244D01*
X44265244Y-82960404D01*
X44091804Y-83219975D01*
X44031136Y-83524976D01*
X43906345Y-83576538D01*
X43446154Y-84035927D01*
X43196794Y-84636453D01*
X43196226Y-85286694D01*
X43444538Y-85887655D01*
X43903927Y-86347846D01*
X44504453Y-86597206D01*
X45154694Y-86597774D01*
X45755655Y-86349462D01*
X46215846Y-85890073D01*
X46465206Y-85289547D01*
X46465774Y-84639306D01*
X46217462Y-84038345D01*
X45834229Y-83654443D01*
X50829683Y-78658989D01*
X50787560Y-78867000D01*
X50787560Y-80899000D01*
X50831838Y-81134317D01*
X50970910Y-81350441D01*
X51183110Y-81495431D01*
X51435000Y-81546440D01*
X51562000Y-81546440D01*
X51562000Y-82892964D01*
X38684200Y-95770764D01*
X28575000Y-85661564D01*
X28575000Y-85178836D01*
X28663834Y-85090002D01*
X28739782Y-85090002D01*
X28618642Y-85322026D01*
X28621291Y-85337791D01*
X28875268Y-85865036D01*
X29311680Y-86254954D01*
X29864087Y-86448184D01*
X30099000Y-86303924D01*
X30099000Y-85090000D01*
X30353000Y-85090000D01*
X30353000Y-86303924D01*
X30587913Y-86448184D01*
X31140320Y-86254954D01*
X31296779Y-86115163D01*
X34858443Y-86115163D01*
X34957042Y-86381965D01*
X35566582Y-86608401D01*
X36216377Y-86584341D01*
X36704958Y-86381965D01*
X36803557Y-86115163D01*
X35831000Y-85142605D01*
X34858443Y-86115163D01*
X31296779Y-86115163D01*
X31576732Y-85865036D01*
X31830709Y-85337791D01*
X31833358Y-85322026D01*
X31712217Y-85090000D01*
X30353000Y-85090000D01*
X30099000Y-85090000D01*
X30079000Y-85090000D01*
X30079000Y-84836000D01*
X30099000Y-84836000D01*
X30099000Y-84816000D01*
X30353000Y-84816000D01*
X30353000Y-84836000D01*
X31712217Y-84836000D01*
X31783963Y-84698582D01*
X34185599Y-84698582D01*
X34209659Y-85348377D01*
X34412035Y-85836958D01*
X34678837Y-85935557D01*
X35651395Y-84963000D01*
X36010605Y-84963000D01*
X36983163Y-85935557D01*
X37249965Y-85836958D01*
X37476401Y-85227418D01*
X37452341Y-84577623D01*
X37249965Y-84089042D01*
X36983163Y-83990443D01*
X36010605Y-84963000D01*
X35651395Y-84963000D01*
X34678837Y-83990443D01*
X34412035Y-84089042D01*
X34185599Y-84698582D01*
X31783963Y-84698582D01*
X31833358Y-84603974D01*
X31830709Y-84588209D01*
X31576732Y-84060964D01*
X31296780Y-83810837D01*
X34858443Y-83810837D01*
X35831000Y-84783395D01*
X36803557Y-83810837D01*
X36704958Y-83544035D01*
X36095418Y-83317599D01*
X35445623Y-83341659D01*
X34957042Y-83544035D01*
X34858443Y-83810837D01*
X31296780Y-83810837D01*
X31160931Y-83689461D01*
X31470415Y-83482670D01*
X31795271Y-82996489D01*
X31909345Y-82423000D01*
X31795271Y-81849511D01*
X31470415Y-81363330D01*
X31456087Y-81353757D01*
X31477317Y-81349762D01*
X31693441Y-81210690D01*
X31838431Y-80998490D01*
X31889440Y-80746600D01*
X31889440Y-79019400D01*
X31845162Y-78784083D01*
X31706090Y-78567959D01*
X31599550Y-78495163D01*
X34858443Y-78495163D01*
X34957042Y-78761965D01*
X35566582Y-78988401D01*
X36216377Y-78964341D01*
X36704958Y-78761965D01*
X36803557Y-78495163D01*
X35831000Y-77522605D01*
X34858443Y-78495163D01*
X31599550Y-78495163D01*
X31493890Y-78422969D01*
X31242000Y-78371960D01*
X29846472Y-78371960D01*
X28553094Y-77078582D01*
X34185599Y-77078582D01*
X34209659Y-77728377D01*
X34412035Y-78216958D01*
X34678837Y-78315557D01*
X35651395Y-77343000D01*
X36010605Y-77343000D01*
X36983163Y-78315557D01*
X37249965Y-78216958D01*
X37476401Y-77607418D01*
X37452341Y-76957623D01*
X37249965Y-76469042D01*
X36983163Y-76370443D01*
X36010605Y-77343000D01*
X35651395Y-77343000D01*
X34678837Y-76370443D01*
X34412035Y-76469042D01*
X34185599Y-77078582D01*
X28553094Y-77078582D01*
X28486100Y-77011588D01*
X28486100Y-76190837D01*
X34858443Y-76190837D01*
X35831000Y-77163395D01*
X36803557Y-76190837D01*
X36704958Y-75924035D01*
X36095418Y-75697599D01*
X35445623Y-75721659D01*
X34957042Y-75924035D01*
X34858443Y-76190837D01*
X28486100Y-76190837D01*
X28486100Y-70082026D01*
X28618642Y-70082026D01*
X28621291Y-70097791D01*
X28875268Y-70625036D01*
X29311680Y-71014954D01*
X29864087Y-71208184D01*
X30099000Y-71063924D01*
X30099000Y-69850000D01*
X30353000Y-69850000D01*
X30353000Y-71063924D01*
X30587913Y-71208184D01*
X31140320Y-71014954D01*
X31296779Y-70875163D01*
X34858443Y-70875163D01*
X34957042Y-71141965D01*
X35566582Y-71368401D01*
X36216377Y-71344341D01*
X36704958Y-71141965D01*
X36803557Y-70875163D01*
X35831000Y-69902605D01*
X34858443Y-70875163D01*
X31296779Y-70875163D01*
X31576732Y-70625036D01*
X31830709Y-70097791D01*
X31833358Y-70082026D01*
X31712217Y-69850000D01*
X30353000Y-69850000D01*
X30099000Y-69850000D01*
X28739783Y-69850000D01*
X28618642Y-70082026D01*
X28486100Y-70082026D01*
X28486100Y-62815412D01*
X29425900Y-61875612D01*
X29425900Y-63131960D01*
X29210000Y-63131960D01*
X28974683Y-63176238D01*
X28758559Y-63315310D01*
X28613569Y-63527510D01*
X28562560Y-63779400D01*
X28562560Y-65506600D01*
X28606838Y-65741917D01*
X28745910Y-65958041D01*
X28958110Y-66103031D01*
X28999439Y-66111400D01*
X28981585Y-66123330D01*
X28656729Y-66609511D01*
X28542655Y-67183000D01*
X28656729Y-67756489D01*
X28981585Y-68242670D01*
X29291069Y-68449461D01*
X28875268Y-68820964D01*
X28621291Y-69348209D01*
X28618642Y-69363974D01*
X28739783Y-69596000D01*
X30099000Y-69596000D01*
X30099000Y-69576000D01*
X30353000Y-69576000D01*
X30353000Y-69596000D01*
X31712217Y-69596000D01*
X31783963Y-69458582D01*
X34185599Y-69458582D01*
X34209659Y-70108377D01*
X34412035Y-70596958D01*
X34678837Y-70695557D01*
X35651395Y-69723000D01*
X36010605Y-69723000D01*
X36983163Y-70695557D01*
X37249965Y-70596958D01*
X37476401Y-69987418D01*
X37452341Y-69337623D01*
X37249965Y-68849042D01*
X36983163Y-68750443D01*
X36010605Y-69723000D01*
X35651395Y-69723000D01*
X34678837Y-68750443D01*
X34412035Y-68849042D01*
X34185599Y-69458582D01*
X31783963Y-69458582D01*
X31833358Y-69363974D01*
X31830709Y-69348209D01*
X31576732Y-68820964D01*
X31296780Y-68570837D01*
X34858443Y-68570837D01*
X35831000Y-69543395D01*
X36803557Y-68570837D01*
X36704958Y-68304035D01*
X36095418Y-68077599D01*
X35445623Y-68101659D01*
X34957042Y-68304035D01*
X34858443Y-68570837D01*
X31296780Y-68570837D01*
X31160931Y-68449461D01*
X31470415Y-68242670D01*
X31795271Y-67756489D01*
X31909345Y-67183000D01*
X31795271Y-66609511D01*
X31470415Y-66123330D01*
X31456087Y-66113757D01*
X31477317Y-66109762D01*
X31693441Y-65970690D01*
X31838431Y-65758490D01*
X31889440Y-65506600D01*
X31889440Y-63779400D01*
X31845162Y-63544083D01*
X31706090Y-63327959D01*
X31599550Y-63255163D01*
X34858443Y-63255163D01*
X34957042Y-63521965D01*
X35566582Y-63748401D01*
X36216377Y-63724341D01*
X36704958Y-63521965D01*
X36803557Y-63255163D01*
X35831000Y-62282605D01*
X34858443Y-63255163D01*
X31599550Y-63255163D01*
X31493890Y-63182969D01*
X31242000Y-63131960D01*
X31026100Y-63131960D01*
X31026100Y-61838582D01*
X34185599Y-61838582D01*
X34209659Y-62488377D01*
X34412035Y-62976958D01*
X34678837Y-63075557D01*
X35651395Y-62103000D01*
X36010605Y-62103000D01*
X36983163Y-63075557D01*
X37249965Y-62976958D01*
X37476401Y-62367418D01*
X37452341Y-61717623D01*
X37249965Y-61229042D01*
X36983163Y-61130443D01*
X36010605Y-62103000D01*
X35651395Y-62103000D01*
X34678837Y-61130443D01*
X34412035Y-61229042D01*
X34185599Y-61838582D01*
X31026100Y-61838582D01*
X31026100Y-61469212D01*
X31544475Y-60950837D01*
X34858443Y-60950837D01*
X35831000Y-61923395D01*
X36803557Y-60950837D01*
X36704958Y-60684035D01*
X36095418Y-60457599D01*
X35445623Y-60481659D01*
X34957042Y-60684035D01*
X34858443Y-60950837D01*
X31544475Y-60950837D01*
X40291356Y-52203956D01*
X40464796Y-51944385D01*
X40469612Y-51920175D01*
X40611828Y-51825149D01*
X40894000Y-51402850D01*
X41176172Y-51825149D01*
X41629391Y-52127981D01*
X42164000Y-52234321D01*
X42698609Y-52127981D01*
X43151828Y-51825149D01*
X43454660Y-51371930D01*
X43561000Y-50837321D01*
X43561000Y-49746679D01*
X43454660Y-49212070D01*
X43151828Y-48758851D01*
X43087697Y-48716000D01*
X45304303Y-48716000D01*
X45240172Y-48758851D01*
D20*
X30226000Y-79883000D03*
X30226000Y-82423000D03*
X30226000Y-84963000D03*
X30226000Y-64643000D03*
X30226000Y-67183000D03*
X30226000Y-69723000D03*
X52451000Y-79883000D03*
X52451000Y-77343000D03*
X52451000Y-74803000D03*
X52451000Y-72263000D03*
X52451000Y-69723000D03*
X58928000Y-98552000D03*
X51308000Y-98552000D03*
X53848000Y-98552000D03*
X56388000Y-98552000D03*
X46228000Y-98552000D03*
X43688000Y-98552000D03*
X41148000Y-98552000D03*
X36068000Y-98552000D03*
X33528000Y-98552000D03*
X58928000Y-50292000D03*
X56388000Y-50292000D03*
X53848000Y-50292000D03*
X51308000Y-50292000D03*
X48768000Y-50292000D03*
X46228000Y-50292000D03*
X42164000Y-50292000D03*
X39624000Y-50292000D03*
X37084000Y-50292000D03*
X34544000Y-50292000D03*
X32004000Y-50292000D03*
X29464000Y-50292000D03*
X26924000Y-50292000D03*
X24384000Y-50292000D03*
X38608000Y-98552000D03*
X30988000Y-98552000D03*
X28448000Y-98552000D03*
X44831000Y-62103000D03*
X35831000Y-62103000D03*
X44831000Y-84963000D03*
X35831000Y-84963000D03*
X44831000Y-77343000D03*
X35831000Y-77343000D03*
X44831000Y-69723000D03*
X35831000Y-69723000D03*
M02*
