%TF.GenerationSoftware,KiCad,Pcbnew,4.0.7-e2-6376~58~ubuntu16.04.1*%
%TF.CreationDate,2018-02-09T09:49:05-08:00*%
%TF.ProjectId,Arduino-Shield,41726475696E6F2D536869656C642E6B,v1.1*%
%TF.FileFunction,Soldermask,Bot*%
%FSLAX46Y46*%
G04 Gerber Fmt 4.6, Leading zero omitted, Abs format (unit mm)*
G04 Created by KiCad (PCBNEW 4.0.7-e2-6376~58~ubuntu16.04.1) date Fri Feb  9 09:49:05 2018*
%MOMM*%
%LPD*%
G01*
G04 APERTURE LIST*
%ADD10C,0.350000*%
G04 APERTURE END LIST*
D10*
G36*
X38776544Y-97216406D02*
X38932816Y-97264780D01*
X39076715Y-97342587D01*
X39202762Y-97446862D01*
X39306155Y-97573633D01*
X39382954Y-97718073D01*
X39430237Y-97874679D01*
X39446200Y-98037486D01*
X39446200Y-99066546D01*
X39446133Y-99076159D01*
X39446132Y-99076165D01*
X39446118Y-99078217D01*
X39427883Y-99240786D01*
X39378419Y-99396716D01*
X39299610Y-99540069D01*
X39194458Y-99665385D01*
X39066967Y-99767890D01*
X38921995Y-99843680D01*
X38765063Y-99889867D01*
X38765022Y-99889871D01*
X38765018Y-99889872D01*
X38602151Y-99904694D01*
X38602148Y-99904694D01*
X38439456Y-99887594D01*
X38283184Y-99839220D01*
X38139285Y-99761413D01*
X38013238Y-99657138D01*
X37909845Y-99530367D01*
X37833046Y-99385927D01*
X37785763Y-99229321D01*
X37769800Y-99066514D01*
X37769800Y-98037454D01*
X37769867Y-98027841D01*
X37769868Y-98027835D01*
X37769882Y-98025783D01*
X37788117Y-97863214D01*
X37837581Y-97707284D01*
X37916390Y-97563931D01*
X38021542Y-97438615D01*
X38149033Y-97336110D01*
X38294005Y-97260320D01*
X38450937Y-97214133D01*
X38450978Y-97214129D01*
X38450982Y-97214128D01*
X38613850Y-97199306D01*
X38613852Y-97199306D01*
X38776544Y-97216406D01*
X38776544Y-97216406D01*
G37*
G36*
X31156544Y-97216406D02*
X31312816Y-97264780D01*
X31456715Y-97342587D01*
X31582762Y-97446862D01*
X31686155Y-97573633D01*
X31762954Y-97718073D01*
X31810237Y-97874679D01*
X31826200Y-98037486D01*
X31826200Y-99066546D01*
X31826133Y-99076159D01*
X31826132Y-99076165D01*
X31826118Y-99078217D01*
X31807883Y-99240786D01*
X31758419Y-99396716D01*
X31679610Y-99540069D01*
X31574458Y-99665385D01*
X31446967Y-99767890D01*
X31301995Y-99843680D01*
X31145063Y-99889867D01*
X31145022Y-99889871D01*
X31145018Y-99889872D01*
X30982151Y-99904694D01*
X30982148Y-99904694D01*
X30819456Y-99887594D01*
X30663184Y-99839220D01*
X30519285Y-99761413D01*
X30393238Y-99657138D01*
X30289845Y-99530367D01*
X30213046Y-99385927D01*
X30165763Y-99229321D01*
X30149800Y-99066514D01*
X30149800Y-98037454D01*
X30149867Y-98027841D01*
X30149868Y-98027835D01*
X30149882Y-98025783D01*
X30168117Y-97863214D01*
X30217581Y-97707284D01*
X30296390Y-97563931D01*
X30401542Y-97438615D01*
X30529033Y-97336110D01*
X30674005Y-97260320D01*
X30830937Y-97214133D01*
X30830978Y-97214129D01*
X30830982Y-97214128D01*
X30993850Y-97199306D01*
X30993852Y-97199306D01*
X31156544Y-97216406D01*
X31156544Y-97216406D01*
G37*
G36*
X33696544Y-97216406D02*
X33852816Y-97264780D01*
X33996715Y-97342587D01*
X34122762Y-97446862D01*
X34226155Y-97573633D01*
X34302954Y-97718073D01*
X34350237Y-97874679D01*
X34366200Y-98037486D01*
X34366200Y-99066546D01*
X34366133Y-99076159D01*
X34366132Y-99076165D01*
X34366118Y-99078217D01*
X34347883Y-99240786D01*
X34298419Y-99396716D01*
X34219610Y-99540069D01*
X34114458Y-99665385D01*
X33986967Y-99767890D01*
X33841995Y-99843680D01*
X33685063Y-99889867D01*
X33685022Y-99889871D01*
X33685018Y-99889872D01*
X33522151Y-99904694D01*
X33522148Y-99904694D01*
X33359456Y-99887594D01*
X33203184Y-99839220D01*
X33059285Y-99761413D01*
X32933238Y-99657138D01*
X32829845Y-99530367D01*
X32753046Y-99385927D01*
X32705763Y-99229321D01*
X32689800Y-99066514D01*
X32689800Y-98037454D01*
X32689867Y-98027841D01*
X32689868Y-98027835D01*
X32689882Y-98025783D01*
X32708117Y-97863214D01*
X32757581Y-97707284D01*
X32836390Y-97563931D01*
X32941542Y-97438615D01*
X33069033Y-97336110D01*
X33214005Y-97260320D01*
X33370937Y-97214133D01*
X33370978Y-97214129D01*
X33370982Y-97214128D01*
X33533850Y-97199306D01*
X33533852Y-97199306D01*
X33696544Y-97216406D01*
X33696544Y-97216406D01*
G37*
G36*
X36236544Y-97216406D02*
X36392816Y-97264780D01*
X36536715Y-97342587D01*
X36662762Y-97446862D01*
X36766155Y-97573633D01*
X36842954Y-97718073D01*
X36890237Y-97874679D01*
X36906200Y-98037486D01*
X36906200Y-99066546D01*
X36906133Y-99076159D01*
X36906132Y-99076165D01*
X36906118Y-99078217D01*
X36887883Y-99240786D01*
X36838419Y-99396716D01*
X36759610Y-99540069D01*
X36654458Y-99665385D01*
X36526967Y-99767890D01*
X36381995Y-99843680D01*
X36225063Y-99889867D01*
X36225022Y-99889871D01*
X36225018Y-99889872D01*
X36062151Y-99904694D01*
X36062148Y-99904694D01*
X35899456Y-99887594D01*
X35743184Y-99839220D01*
X35599285Y-99761413D01*
X35473238Y-99657138D01*
X35369845Y-99530367D01*
X35293046Y-99385927D01*
X35245763Y-99229321D01*
X35229800Y-99066514D01*
X35229800Y-98037454D01*
X35229867Y-98027841D01*
X35229868Y-98027835D01*
X35229882Y-98025783D01*
X35248117Y-97863214D01*
X35297581Y-97707284D01*
X35376390Y-97563931D01*
X35481542Y-97438615D01*
X35609033Y-97336110D01*
X35754005Y-97260320D01*
X35910937Y-97214133D01*
X35910978Y-97214129D01*
X35910982Y-97214128D01*
X36073850Y-97199306D01*
X36073852Y-97199306D01*
X36236544Y-97216406D01*
X36236544Y-97216406D01*
G37*
G36*
X41316544Y-97216406D02*
X41472816Y-97264780D01*
X41616715Y-97342587D01*
X41742762Y-97446862D01*
X41846155Y-97573633D01*
X41922954Y-97718073D01*
X41970237Y-97874679D01*
X41986200Y-98037486D01*
X41986200Y-99066546D01*
X41986133Y-99076159D01*
X41986132Y-99076165D01*
X41986118Y-99078217D01*
X41967883Y-99240786D01*
X41918419Y-99396716D01*
X41839610Y-99540069D01*
X41734458Y-99665385D01*
X41606967Y-99767890D01*
X41461995Y-99843680D01*
X41305063Y-99889867D01*
X41305022Y-99889871D01*
X41305018Y-99889872D01*
X41142151Y-99904694D01*
X41142148Y-99904694D01*
X40979456Y-99887594D01*
X40823184Y-99839220D01*
X40679285Y-99761413D01*
X40553238Y-99657138D01*
X40449845Y-99530367D01*
X40373046Y-99385927D01*
X40325763Y-99229321D01*
X40309800Y-99066514D01*
X40309800Y-98037454D01*
X40309867Y-98027841D01*
X40309868Y-98027835D01*
X40309882Y-98025783D01*
X40328117Y-97863214D01*
X40377581Y-97707284D01*
X40456390Y-97563931D01*
X40561542Y-97438615D01*
X40689033Y-97336110D01*
X40834005Y-97260320D01*
X40990937Y-97214133D01*
X40990978Y-97214129D01*
X40990982Y-97214128D01*
X41153850Y-97199306D01*
X41153852Y-97199306D01*
X41316544Y-97216406D01*
X41316544Y-97216406D01*
G37*
G36*
X43856544Y-97216406D02*
X44012816Y-97264780D01*
X44156715Y-97342587D01*
X44282762Y-97446862D01*
X44386155Y-97573633D01*
X44462954Y-97718073D01*
X44510237Y-97874679D01*
X44526200Y-98037486D01*
X44526200Y-99066546D01*
X44526133Y-99076159D01*
X44526132Y-99076165D01*
X44526118Y-99078217D01*
X44507883Y-99240786D01*
X44458419Y-99396716D01*
X44379610Y-99540069D01*
X44274458Y-99665385D01*
X44146967Y-99767890D01*
X44001995Y-99843680D01*
X43845063Y-99889867D01*
X43845022Y-99889871D01*
X43845018Y-99889872D01*
X43682151Y-99904694D01*
X43682148Y-99904694D01*
X43519456Y-99887594D01*
X43363184Y-99839220D01*
X43219285Y-99761413D01*
X43093238Y-99657138D01*
X42989845Y-99530367D01*
X42913046Y-99385927D01*
X42865763Y-99229321D01*
X42849800Y-99066514D01*
X42849800Y-98037454D01*
X42849867Y-98027841D01*
X42849868Y-98027835D01*
X42849882Y-98025783D01*
X42868117Y-97863214D01*
X42917581Y-97707284D01*
X42996390Y-97563931D01*
X43101542Y-97438615D01*
X43229033Y-97336110D01*
X43374005Y-97260320D01*
X43530937Y-97214133D01*
X43530978Y-97214129D01*
X43530982Y-97214128D01*
X43693850Y-97199306D01*
X43693852Y-97199306D01*
X43856544Y-97216406D01*
X43856544Y-97216406D01*
G37*
G36*
X56556544Y-97216406D02*
X56712816Y-97264780D01*
X56856715Y-97342587D01*
X56982762Y-97446862D01*
X57086155Y-97573633D01*
X57162954Y-97718073D01*
X57210237Y-97874679D01*
X57226200Y-98037486D01*
X57226200Y-99066546D01*
X57226133Y-99076159D01*
X57226132Y-99076165D01*
X57226118Y-99078217D01*
X57207883Y-99240786D01*
X57158419Y-99396716D01*
X57079610Y-99540069D01*
X56974458Y-99665385D01*
X56846967Y-99767890D01*
X56701995Y-99843680D01*
X56545063Y-99889867D01*
X56545022Y-99889871D01*
X56545018Y-99889872D01*
X56382151Y-99904694D01*
X56382148Y-99904694D01*
X56219456Y-99887594D01*
X56063184Y-99839220D01*
X55919285Y-99761413D01*
X55793238Y-99657138D01*
X55689845Y-99530367D01*
X55613046Y-99385927D01*
X55565763Y-99229321D01*
X55549800Y-99066514D01*
X55549800Y-98037454D01*
X55549867Y-98027841D01*
X55549868Y-98027835D01*
X55549882Y-98025783D01*
X55568117Y-97863214D01*
X55617581Y-97707284D01*
X55696390Y-97563931D01*
X55801542Y-97438615D01*
X55929033Y-97336110D01*
X56074005Y-97260320D01*
X56230937Y-97214133D01*
X56230978Y-97214129D01*
X56230982Y-97214128D01*
X56393850Y-97199306D01*
X56393852Y-97199306D01*
X56556544Y-97216406D01*
X56556544Y-97216406D01*
G37*
G36*
X28616544Y-97216406D02*
X28772816Y-97264780D01*
X28916715Y-97342587D01*
X29042762Y-97446862D01*
X29146155Y-97573633D01*
X29222954Y-97718073D01*
X29270237Y-97874679D01*
X29286200Y-98037486D01*
X29286200Y-99066546D01*
X29286133Y-99076159D01*
X29286132Y-99076165D01*
X29286118Y-99078217D01*
X29267883Y-99240786D01*
X29218419Y-99396716D01*
X29139610Y-99540069D01*
X29034458Y-99665385D01*
X28906967Y-99767890D01*
X28761995Y-99843680D01*
X28605063Y-99889867D01*
X28605022Y-99889871D01*
X28605018Y-99889872D01*
X28442151Y-99904694D01*
X28442148Y-99904694D01*
X28279456Y-99887594D01*
X28123184Y-99839220D01*
X27979285Y-99761413D01*
X27853238Y-99657138D01*
X27749845Y-99530367D01*
X27673046Y-99385927D01*
X27625763Y-99229321D01*
X27609800Y-99066514D01*
X27609800Y-98037454D01*
X27609867Y-98027841D01*
X27609868Y-98027835D01*
X27609882Y-98025783D01*
X27628117Y-97863214D01*
X27677581Y-97707284D01*
X27756390Y-97563931D01*
X27861542Y-97438615D01*
X27989033Y-97336110D01*
X28134005Y-97260320D01*
X28290937Y-97214133D01*
X28290978Y-97214129D01*
X28290982Y-97214128D01*
X28453850Y-97199306D01*
X28453852Y-97199306D01*
X28616544Y-97216406D01*
X28616544Y-97216406D01*
G37*
G36*
X59096544Y-97216406D02*
X59252816Y-97264780D01*
X59396715Y-97342587D01*
X59522762Y-97446862D01*
X59626155Y-97573633D01*
X59702954Y-97718073D01*
X59750237Y-97874679D01*
X59766200Y-98037486D01*
X59766200Y-99066546D01*
X59766133Y-99076159D01*
X59766132Y-99076165D01*
X59766118Y-99078217D01*
X59747883Y-99240786D01*
X59698419Y-99396716D01*
X59619610Y-99540069D01*
X59514458Y-99665385D01*
X59386967Y-99767890D01*
X59241995Y-99843680D01*
X59085063Y-99889867D01*
X59085022Y-99889871D01*
X59085018Y-99889872D01*
X58922151Y-99904694D01*
X58922148Y-99904694D01*
X58759456Y-99887594D01*
X58603184Y-99839220D01*
X58459285Y-99761413D01*
X58333238Y-99657138D01*
X58229845Y-99530367D01*
X58153046Y-99385927D01*
X58105763Y-99229321D01*
X58089800Y-99066514D01*
X58089800Y-98037454D01*
X58089867Y-98027841D01*
X58089868Y-98027835D01*
X58089882Y-98025783D01*
X58108117Y-97863214D01*
X58157581Y-97707284D01*
X58236390Y-97563931D01*
X58341542Y-97438615D01*
X58469033Y-97336110D01*
X58614005Y-97260320D01*
X58770937Y-97214133D01*
X58770978Y-97214129D01*
X58770982Y-97214128D01*
X58933850Y-97199306D01*
X58933852Y-97199306D01*
X59096544Y-97216406D01*
X59096544Y-97216406D01*
G37*
G36*
X51476544Y-97216406D02*
X51632816Y-97264780D01*
X51776715Y-97342587D01*
X51902762Y-97446862D01*
X52006155Y-97573633D01*
X52082954Y-97718073D01*
X52130237Y-97874679D01*
X52146200Y-98037486D01*
X52146200Y-99066546D01*
X52146133Y-99076159D01*
X52146132Y-99076165D01*
X52146118Y-99078217D01*
X52127883Y-99240786D01*
X52078419Y-99396716D01*
X51999610Y-99540069D01*
X51894458Y-99665385D01*
X51766967Y-99767890D01*
X51621995Y-99843680D01*
X51465063Y-99889867D01*
X51465022Y-99889871D01*
X51465018Y-99889872D01*
X51302151Y-99904694D01*
X51302148Y-99904694D01*
X51139456Y-99887594D01*
X50983184Y-99839220D01*
X50839285Y-99761413D01*
X50713238Y-99657138D01*
X50609845Y-99530367D01*
X50533046Y-99385927D01*
X50485763Y-99229321D01*
X50469800Y-99066514D01*
X50469800Y-98037454D01*
X50469867Y-98027841D01*
X50469868Y-98027835D01*
X50469882Y-98025783D01*
X50488117Y-97863214D01*
X50537581Y-97707284D01*
X50616390Y-97563931D01*
X50721542Y-97438615D01*
X50849033Y-97336110D01*
X50994005Y-97260320D01*
X51150937Y-97214133D01*
X51150978Y-97214129D01*
X51150982Y-97214128D01*
X51313850Y-97199306D01*
X51313852Y-97199306D01*
X51476544Y-97216406D01*
X51476544Y-97216406D01*
G37*
G36*
X54016544Y-97216406D02*
X54172816Y-97264780D01*
X54316715Y-97342587D01*
X54442762Y-97446862D01*
X54546155Y-97573633D01*
X54622954Y-97718073D01*
X54670237Y-97874679D01*
X54686200Y-98037486D01*
X54686200Y-99066546D01*
X54686133Y-99076159D01*
X54686132Y-99076165D01*
X54686118Y-99078217D01*
X54667883Y-99240786D01*
X54618419Y-99396716D01*
X54539610Y-99540069D01*
X54434458Y-99665385D01*
X54306967Y-99767890D01*
X54161995Y-99843680D01*
X54005063Y-99889867D01*
X54005022Y-99889871D01*
X54005018Y-99889872D01*
X53842151Y-99904694D01*
X53842148Y-99904694D01*
X53679456Y-99887594D01*
X53523184Y-99839220D01*
X53379285Y-99761413D01*
X53253238Y-99657138D01*
X53149845Y-99530367D01*
X53073046Y-99385927D01*
X53025763Y-99229321D01*
X53009800Y-99066514D01*
X53009800Y-98037454D01*
X53009867Y-98027841D01*
X53009868Y-98027835D01*
X53009882Y-98025783D01*
X53028117Y-97863214D01*
X53077581Y-97707284D01*
X53156390Y-97563931D01*
X53261542Y-97438615D01*
X53389033Y-97336110D01*
X53534005Y-97260320D01*
X53690937Y-97214133D01*
X53690978Y-97214129D01*
X53690982Y-97214128D01*
X53853850Y-97199306D01*
X53853852Y-97199306D01*
X54016544Y-97216406D01*
X54016544Y-97216406D01*
G37*
G36*
X46396544Y-97216406D02*
X46552816Y-97264780D01*
X46696715Y-97342587D01*
X46822762Y-97446862D01*
X46926155Y-97573633D01*
X47002954Y-97718073D01*
X47050237Y-97874679D01*
X47066200Y-98037486D01*
X47066200Y-99066546D01*
X47066133Y-99076159D01*
X47066132Y-99076165D01*
X47066118Y-99078217D01*
X47047883Y-99240786D01*
X46998419Y-99396716D01*
X46919610Y-99540069D01*
X46814458Y-99665385D01*
X46686967Y-99767890D01*
X46541995Y-99843680D01*
X46385063Y-99889867D01*
X46385022Y-99889871D01*
X46385018Y-99889872D01*
X46222151Y-99904694D01*
X46222148Y-99904694D01*
X46059456Y-99887594D01*
X45903184Y-99839220D01*
X45759285Y-99761413D01*
X45633238Y-99657138D01*
X45529845Y-99530367D01*
X45453046Y-99385927D01*
X45405763Y-99229321D01*
X45389800Y-99066514D01*
X45389800Y-98037454D01*
X45389867Y-98027841D01*
X45389868Y-98027835D01*
X45389882Y-98025783D01*
X45408117Y-97863214D01*
X45457581Y-97707284D01*
X45536390Y-97563931D01*
X45641542Y-97438615D01*
X45769033Y-97336110D01*
X45914005Y-97260320D01*
X46070937Y-97214133D01*
X46070978Y-97214129D01*
X46070982Y-97214128D01*
X46233850Y-97199306D01*
X46233852Y-97199306D01*
X46396544Y-97216406D01*
X46396544Y-97216406D01*
G37*
G36*
X44943988Y-83888024D02*
X45150626Y-83930441D01*
X45345104Y-84012192D01*
X45519991Y-84130155D01*
X45668636Y-84279841D01*
X45785375Y-84455548D01*
X45865763Y-84650584D01*
X45906669Y-84857174D01*
X45906669Y-84857184D01*
X45906736Y-84857523D01*
X45903372Y-85098472D01*
X45903295Y-85098810D01*
X45903295Y-85098819D01*
X45856637Y-85304187D01*
X45770836Y-85496899D01*
X45649234Y-85669280D01*
X45496466Y-85814759D01*
X45318353Y-85927793D01*
X45121672Y-86004080D01*
X44913927Y-86040712D01*
X44703017Y-86036293D01*
X44496984Y-85990995D01*
X44303672Y-85906538D01*
X44130451Y-85786146D01*
X43983909Y-85634399D01*
X43869633Y-85457076D01*
X43791973Y-85260931D01*
X43753893Y-85053449D01*
X43756838Y-84842515D01*
X43800699Y-84636168D01*
X43883802Y-84442274D01*
X44002985Y-84268212D01*
X44153704Y-84120616D01*
X44330225Y-84005105D01*
X44525819Y-83926079D01*
X44733033Y-83886552D01*
X44943988Y-83888024D01*
X44943988Y-83888024D01*
G37*
G36*
X35943988Y-83888024D02*
X36150626Y-83930441D01*
X36345104Y-84012192D01*
X36519991Y-84130155D01*
X36668636Y-84279841D01*
X36785375Y-84455548D01*
X36865763Y-84650584D01*
X36906669Y-84857174D01*
X36906669Y-84857184D01*
X36906736Y-84857523D01*
X36903372Y-85098472D01*
X36903295Y-85098810D01*
X36903295Y-85098819D01*
X36856637Y-85304187D01*
X36770836Y-85496899D01*
X36649234Y-85669280D01*
X36496466Y-85814759D01*
X36318353Y-85927793D01*
X36121672Y-86004080D01*
X35913927Y-86040712D01*
X35703017Y-86036293D01*
X35496984Y-85990995D01*
X35303672Y-85906538D01*
X35130451Y-85786146D01*
X34983909Y-85634399D01*
X34869633Y-85457076D01*
X34791973Y-85260931D01*
X34753893Y-85053449D01*
X34756838Y-84842515D01*
X34800699Y-84636168D01*
X34883802Y-84442274D01*
X35002985Y-84268212D01*
X35153704Y-84120616D01*
X35330225Y-84005105D01*
X35525819Y-83926079D01*
X35733033Y-83886552D01*
X35943988Y-83888024D01*
X35943988Y-83888024D01*
G37*
G36*
X30394749Y-84023277D02*
X30394754Y-84023278D01*
X30396807Y-84023292D01*
X30579080Y-84043737D01*
X30753912Y-84099197D01*
X30914641Y-84187558D01*
X31055146Y-84305456D01*
X31170076Y-84448400D01*
X31255052Y-84610945D01*
X31306839Y-84786899D01*
X31306843Y-84786940D01*
X31306844Y-84786944D01*
X31323463Y-84969558D01*
X31309913Y-85098472D01*
X31304290Y-85151973D01*
X31250052Y-85327187D01*
X31162815Y-85488529D01*
X31045900Y-85629855D01*
X30903762Y-85745779D01*
X30741815Y-85831888D01*
X30566226Y-85884902D01*
X30383685Y-85902800D01*
X30068283Y-85902800D01*
X30057251Y-85902723D01*
X30057246Y-85902722D01*
X30055193Y-85902708D01*
X29872920Y-85882263D01*
X29698088Y-85826803D01*
X29537359Y-85738442D01*
X29396854Y-85620544D01*
X29281924Y-85477600D01*
X29196948Y-85315055D01*
X29145161Y-85139101D01*
X29145157Y-85139060D01*
X29145156Y-85139056D01*
X29128537Y-84956442D01*
X29147705Y-84774074D01*
X29147710Y-84774027D01*
X29201948Y-84598813D01*
X29289185Y-84437471D01*
X29406100Y-84296145D01*
X29548238Y-84180221D01*
X29710185Y-84094112D01*
X29885774Y-84041098D01*
X30068315Y-84023200D01*
X30383717Y-84023200D01*
X30394749Y-84023277D01*
X30394749Y-84023277D01*
G37*
G36*
X30394749Y-81483277D02*
X30394754Y-81483278D01*
X30396807Y-81483292D01*
X30579080Y-81503737D01*
X30753912Y-81559197D01*
X30914641Y-81647558D01*
X31055146Y-81765456D01*
X31170076Y-81908400D01*
X31255052Y-82070945D01*
X31306839Y-82246899D01*
X31306843Y-82246940D01*
X31306844Y-82246944D01*
X31323463Y-82429558D01*
X31305648Y-82599056D01*
X31304290Y-82611973D01*
X31250052Y-82787187D01*
X31162815Y-82948529D01*
X31045900Y-83089855D01*
X30903762Y-83205779D01*
X30741815Y-83291888D01*
X30566226Y-83344902D01*
X30383685Y-83362800D01*
X30068283Y-83362800D01*
X30057251Y-83362723D01*
X30057246Y-83362722D01*
X30055193Y-83362708D01*
X29872920Y-83342263D01*
X29698088Y-83286803D01*
X29537359Y-83198442D01*
X29396854Y-83080544D01*
X29281924Y-82937600D01*
X29196948Y-82775055D01*
X29145161Y-82599101D01*
X29145157Y-82599060D01*
X29145156Y-82599056D01*
X29128537Y-82416442D01*
X29147705Y-82234074D01*
X29147710Y-82234027D01*
X29201948Y-82058813D01*
X29289185Y-81897471D01*
X29406100Y-81756145D01*
X29548238Y-81640221D01*
X29710185Y-81554112D01*
X29885774Y-81501098D01*
X30068315Y-81483200D01*
X30383717Y-81483200D01*
X30394749Y-81483277D01*
X30394749Y-81483277D01*
G37*
G36*
X53543200Y-80975200D02*
X51358800Y-80975200D01*
X51358800Y-78790800D01*
X53543200Y-78790800D01*
X53543200Y-80975200D01*
X53543200Y-80975200D01*
G37*
G36*
X31318200Y-80822800D02*
X29133800Y-80822800D01*
X29133800Y-78943200D01*
X31318200Y-78943200D01*
X31318200Y-80822800D01*
X31318200Y-80822800D01*
G37*
G36*
X52462395Y-76250842D02*
X52471534Y-76250906D01*
X52683366Y-76274667D01*
X52886548Y-76339120D01*
X53073342Y-76441811D01*
X53236632Y-76578828D01*
X53370199Y-76744951D01*
X53468955Y-76933855D01*
X53529139Y-77138342D01*
X53529143Y-77138383D01*
X53529144Y-77138387D01*
X53548459Y-77350623D01*
X53526183Y-77562570D01*
X53526181Y-77562575D01*
X53526177Y-77562617D01*
X53463144Y-77766245D01*
X53361760Y-77953750D01*
X53225886Y-78117993D01*
X53060699Y-78252717D01*
X52872490Y-78352789D01*
X52668428Y-78414399D01*
X52456285Y-78435200D01*
X52445679Y-78435200D01*
X52439605Y-78435158D01*
X52430466Y-78435094D01*
X52218634Y-78411333D01*
X52015452Y-78346880D01*
X51828658Y-78244189D01*
X51665368Y-78107172D01*
X51531801Y-77941049D01*
X51433045Y-77752145D01*
X51372861Y-77547658D01*
X51372857Y-77547617D01*
X51372856Y-77547613D01*
X51353541Y-77335377D01*
X51375817Y-77123430D01*
X51375819Y-77123425D01*
X51375823Y-77123383D01*
X51438856Y-76919755D01*
X51540240Y-76732250D01*
X51676114Y-76568007D01*
X51841301Y-76433283D01*
X52029510Y-76333211D01*
X52233572Y-76271601D01*
X52445715Y-76250800D01*
X52456321Y-76250800D01*
X52462395Y-76250842D01*
X52462395Y-76250842D01*
G37*
G36*
X35943988Y-76268024D02*
X36150626Y-76310441D01*
X36345104Y-76392192D01*
X36519991Y-76510155D01*
X36668636Y-76659841D01*
X36785375Y-76835548D01*
X36865763Y-77030584D01*
X36906669Y-77237174D01*
X36906669Y-77237184D01*
X36906736Y-77237523D01*
X36903372Y-77478472D01*
X36903295Y-77478810D01*
X36903295Y-77478819D01*
X36856637Y-77684187D01*
X36770836Y-77876899D01*
X36649234Y-78049280D01*
X36496466Y-78194759D01*
X36318353Y-78307793D01*
X36121672Y-78384080D01*
X35913927Y-78420712D01*
X35703017Y-78416293D01*
X35496984Y-78370995D01*
X35303672Y-78286538D01*
X35130451Y-78166146D01*
X34983909Y-78014399D01*
X34869633Y-77837076D01*
X34791973Y-77640931D01*
X34753893Y-77433449D01*
X34756838Y-77222515D01*
X34800699Y-77016168D01*
X34883802Y-76822274D01*
X35002985Y-76648212D01*
X35153704Y-76500616D01*
X35330225Y-76385105D01*
X35525819Y-76306079D01*
X35733033Y-76266552D01*
X35943988Y-76268024D01*
X35943988Y-76268024D01*
G37*
G36*
X44943988Y-76268024D02*
X45150626Y-76310441D01*
X45345104Y-76392192D01*
X45519991Y-76510155D01*
X45668636Y-76659841D01*
X45785375Y-76835548D01*
X45865763Y-77030584D01*
X45906669Y-77237174D01*
X45906669Y-77237184D01*
X45906736Y-77237523D01*
X45903372Y-77478472D01*
X45903295Y-77478810D01*
X45903295Y-77478819D01*
X45856637Y-77684187D01*
X45770836Y-77876899D01*
X45649234Y-78049280D01*
X45496466Y-78194759D01*
X45318353Y-78307793D01*
X45121672Y-78384080D01*
X44913927Y-78420712D01*
X44703017Y-78416293D01*
X44496984Y-78370995D01*
X44303672Y-78286538D01*
X44130451Y-78166146D01*
X43983909Y-78014399D01*
X43869633Y-77837076D01*
X43791973Y-77640931D01*
X43753893Y-77433449D01*
X43756838Y-77222515D01*
X43800699Y-77016168D01*
X43883802Y-76822274D01*
X44002985Y-76648212D01*
X44153704Y-76500616D01*
X44330225Y-76385105D01*
X44525819Y-76306079D01*
X44733033Y-76266552D01*
X44943988Y-76268024D01*
X44943988Y-76268024D01*
G37*
G36*
X52462395Y-73710842D02*
X52471534Y-73710906D01*
X52683366Y-73734667D01*
X52886548Y-73799120D01*
X53073342Y-73901811D01*
X53236632Y-74038828D01*
X53370199Y-74204951D01*
X53468955Y-74393855D01*
X53529139Y-74598342D01*
X53529143Y-74598383D01*
X53529144Y-74598387D01*
X53548459Y-74810623D01*
X53526183Y-75022570D01*
X53526181Y-75022575D01*
X53526177Y-75022617D01*
X53463144Y-75226245D01*
X53361760Y-75413750D01*
X53225886Y-75577993D01*
X53060699Y-75712717D01*
X52872490Y-75812789D01*
X52668428Y-75874399D01*
X52456285Y-75895200D01*
X52445679Y-75895200D01*
X52439605Y-75895158D01*
X52430466Y-75895094D01*
X52218634Y-75871333D01*
X52015452Y-75806880D01*
X51828658Y-75704189D01*
X51665368Y-75567172D01*
X51531801Y-75401049D01*
X51433045Y-75212145D01*
X51372861Y-75007658D01*
X51372857Y-75007617D01*
X51372856Y-75007613D01*
X51353541Y-74795377D01*
X51375817Y-74583430D01*
X51375819Y-74583425D01*
X51375823Y-74583383D01*
X51438856Y-74379755D01*
X51540240Y-74192250D01*
X51676114Y-74028007D01*
X51841301Y-73893283D01*
X52029510Y-73793211D01*
X52233572Y-73731601D01*
X52445715Y-73710800D01*
X52456321Y-73710800D01*
X52462395Y-73710842D01*
X52462395Y-73710842D01*
G37*
G36*
X52462395Y-71170842D02*
X52471534Y-71170906D01*
X52683366Y-71194667D01*
X52886548Y-71259120D01*
X53073342Y-71361811D01*
X53236632Y-71498828D01*
X53370199Y-71664951D01*
X53468955Y-71853855D01*
X53529139Y-72058342D01*
X53529143Y-72058383D01*
X53529144Y-72058387D01*
X53548459Y-72270623D01*
X53526183Y-72482570D01*
X53526181Y-72482575D01*
X53526177Y-72482617D01*
X53463144Y-72686245D01*
X53361760Y-72873750D01*
X53225886Y-73037993D01*
X53060699Y-73172717D01*
X52872490Y-73272789D01*
X52668428Y-73334399D01*
X52456285Y-73355200D01*
X52445679Y-73355200D01*
X52439605Y-73355158D01*
X52430466Y-73355094D01*
X52218634Y-73331333D01*
X52015452Y-73266880D01*
X51828658Y-73164189D01*
X51665368Y-73027172D01*
X51531801Y-72861049D01*
X51433045Y-72672145D01*
X51372861Y-72467658D01*
X51372857Y-72467617D01*
X51372856Y-72467613D01*
X51353541Y-72255377D01*
X51375817Y-72043430D01*
X51375819Y-72043425D01*
X51375823Y-72043383D01*
X51438856Y-71839755D01*
X51540240Y-71652250D01*
X51676114Y-71488007D01*
X51841301Y-71353283D01*
X52029510Y-71253211D01*
X52233572Y-71191601D01*
X52445715Y-71170800D01*
X52456321Y-71170800D01*
X52462395Y-71170842D01*
X52462395Y-71170842D01*
G37*
G36*
X52462395Y-68630842D02*
X52471534Y-68630906D01*
X52683366Y-68654667D01*
X52886548Y-68719120D01*
X53073342Y-68821811D01*
X53236632Y-68958828D01*
X53370199Y-69124951D01*
X53468955Y-69313855D01*
X53529139Y-69518342D01*
X53529143Y-69518383D01*
X53529144Y-69518387D01*
X53548459Y-69730623D01*
X53526183Y-69942570D01*
X53526181Y-69942575D01*
X53526177Y-69942617D01*
X53463144Y-70146245D01*
X53361760Y-70333750D01*
X53225886Y-70497993D01*
X53060699Y-70632717D01*
X52872490Y-70732789D01*
X52668428Y-70794399D01*
X52456285Y-70815200D01*
X52445679Y-70815200D01*
X52439605Y-70815158D01*
X52430466Y-70815094D01*
X52218634Y-70791333D01*
X52015452Y-70726880D01*
X51828658Y-70624189D01*
X51665368Y-70487172D01*
X51531801Y-70321049D01*
X51433045Y-70132145D01*
X51372861Y-69927658D01*
X51372857Y-69927617D01*
X51372856Y-69927613D01*
X51353541Y-69715377D01*
X51375817Y-69503430D01*
X51375819Y-69503425D01*
X51375823Y-69503383D01*
X51438856Y-69299755D01*
X51540240Y-69112250D01*
X51676114Y-68948007D01*
X51841301Y-68813283D01*
X52029510Y-68713211D01*
X52233572Y-68651601D01*
X52445715Y-68630800D01*
X52456321Y-68630800D01*
X52462395Y-68630842D01*
X52462395Y-68630842D01*
G37*
G36*
X35943988Y-68648024D02*
X36150626Y-68690441D01*
X36345104Y-68772192D01*
X36519991Y-68890155D01*
X36668636Y-69039841D01*
X36785375Y-69215548D01*
X36865763Y-69410584D01*
X36906669Y-69617174D01*
X36906669Y-69617184D01*
X36906736Y-69617523D01*
X36903372Y-69858472D01*
X36903295Y-69858810D01*
X36903295Y-69858819D01*
X36856637Y-70064187D01*
X36770836Y-70256899D01*
X36649234Y-70429280D01*
X36496466Y-70574759D01*
X36318353Y-70687793D01*
X36121672Y-70764080D01*
X35913927Y-70800712D01*
X35703017Y-70796293D01*
X35496984Y-70750995D01*
X35303672Y-70666538D01*
X35130451Y-70546146D01*
X34983909Y-70394399D01*
X34869633Y-70217076D01*
X34791973Y-70020931D01*
X34753893Y-69813449D01*
X34756838Y-69602515D01*
X34800699Y-69396168D01*
X34883802Y-69202274D01*
X35002985Y-69028212D01*
X35153704Y-68880616D01*
X35330225Y-68765105D01*
X35525819Y-68686079D01*
X35733033Y-68646552D01*
X35943988Y-68648024D01*
X35943988Y-68648024D01*
G37*
G36*
X44943988Y-68648024D02*
X45150626Y-68690441D01*
X45345104Y-68772192D01*
X45519991Y-68890155D01*
X45668636Y-69039841D01*
X45785375Y-69215548D01*
X45865763Y-69410584D01*
X45906669Y-69617174D01*
X45906669Y-69617184D01*
X45906736Y-69617523D01*
X45903372Y-69858472D01*
X45903295Y-69858810D01*
X45903295Y-69858819D01*
X45856637Y-70064187D01*
X45770836Y-70256899D01*
X45649234Y-70429280D01*
X45496466Y-70574759D01*
X45318353Y-70687793D01*
X45121672Y-70764080D01*
X44913927Y-70800712D01*
X44703017Y-70796293D01*
X44496984Y-70750995D01*
X44303672Y-70666538D01*
X44130451Y-70546146D01*
X43983909Y-70394399D01*
X43869633Y-70217076D01*
X43791973Y-70020931D01*
X43753893Y-69813449D01*
X43756838Y-69602515D01*
X43800699Y-69396168D01*
X43883802Y-69202274D01*
X44002985Y-69028212D01*
X44153704Y-68880616D01*
X44330225Y-68765105D01*
X44525819Y-68686079D01*
X44733033Y-68646552D01*
X44943988Y-68648024D01*
X44943988Y-68648024D01*
G37*
G36*
X30394749Y-68783277D02*
X30394754Y-68783278D01*
X30396807Y-68783292D01*
X30579080Y-68803737D01*
X30753912Y-68859197D01*
X30914641Y-68947558D01*
X31055146Y-69065456D01*
X31170076Y-69208400D01*
X31255052Y-69370945D01*
X31306839Y-69546899D01*
X31306843Y-69546940D01*
X31306844Y-69546944D01*
X31323463Y-69729558D01*
X31309913Y-69858472D01*
X31304290Y-69911973D01*
X31250052Y-70087187D01*
X31162815Y-70248529D01*
X31045900Y-70389855D01*
X30903762Y-70505779D01*
X30741815Y-70591888D01*
X30566226Y-70644902D01*
X30383685Y-70662800D01*
X30068283Y-70662800D01*
X30057251Y-70662723D01*
X30057246Y-70662722D01*
X30055193Y-70662708D01*
X29872920Y-70642263D01*
X29698088Y-70586803D01*
X29537359Y-70498442D01*
X29396854Y-70380544D01*
X29281924Y-70237600D01*
X29196948Y-70075055D01*
X29145161Y-69899101D01*
X29145157Y-69899060D01*
X29145156Y-69899056D01*
X29128537Y-69716442D01*
X29147705Y-69534074D01*
X29147710Y-69534027D01*
X29201948Y-69358813D01*
X29289185Y-69197471D01*
X29406100Y-69056145D01*
X29548238Y-68940221D01*
X29710185Y-68854112D01*
X29885774Y-68801098D01*
X30068315Y-68783200D01*
X30383717Y-68783200D01*
X30394749Y-68783277D01*
X30394749Y-68783277D01*
G37*
G36*
X30394749Y-66243277D02*
X30394754Y-66243278D01*
X30396807Y-66243292D01*
X30579080Y-66263737D01*
X30753912Y-66319197D01*
X30914641Y-66407558D01*
X31055146Y-66525456D01*
X31170076Y-66668400D01*
X31255052Y-66830945D01*
X31306839Y-67006899D01*
X31306843Y-67006940D01*
X31306844Y-67006944D01*
X31323463Y-67189558D01*
X31305648Y-67359056D01*
X31304290Y-67371973D01*
X31250052Y-67547187D01*
X31162815Y-67708529D01*
X31045900Y-67849855D01*
X30903762Y-67965779D01*
X30741815Y-68051888D01*
X30566226Y-68104902D01*
X30383685Y-68122800D01*
X30068283Y-68122800D01*
X30057251Y-68122723D01*
X30057246Y-68122722D01*
X30055193Y-68122708D01*
X29872920Y-68102263D01*
X29698088Y-68046803D01*
X29537359Y-67958442D01*
X29396854Y-67840544D01*
X29281924Y-67697600D01*
X29196948Y-67535055D01*
X29145161Y-67359101D01*
X29145157Y-67359060D01*
X29145156Y-67359056D01*
X29128537Y-67176442D01*
X29147705Y-66994074D01*
X29147710Y-66994027D01*
X29201948Y-66818813D01*
X29289185Y-66657471D01*
X29406100Y-66516145D01*
X29548238Y-66400221D01*
X29710185Y-66314112D01*
X29885774Y-66261098D01*
X30068315Y-66243200D01*
X30383717Y-66243200D01*
X30394749Y-66243277D01*
X30394749Y-66243277D01*
G37*
G36*
X31318200Y-65582800D02*
X29133800Y-65582800D01*
X29133800Y-63703200D01*
X31318200Y-63703200D01*
X31318200Y-65582800D01*
X31318200Y-65582800D01*
G37*
G36*
X44943988Y-61028024D02*
X45150626Y-61070441D01*
X45345104Y-61152192D01*
X45519991Y-61270155D01*
X45668636Y-61419841D01*
X45785375Y-61595548D01*
X45865763Y-61790584D01*
X45906669Y-61997174D01*
X45906669Y-61997184D01*
X45906736Y-61997523D01*
X45903372Y-62238472D01*
X45903295Y-62238810D01*
X45903295Y-62238819D01*
X45856637Y-62444187D01*
X45770836Y-62636899D01*
X45649234Y-62809280D01*
X45496466Y-62954759D01*
X45318353Y-63067793D01*
X45121672Y-63144080D01*
X44913927Y-63180712D01*
X44703017Y-63176293D01*
X44496984Y-63130995D01*
X44303672Y-63046538D01*
X44130451Y-62926146D01*
X43983909Y-62774399D01*
X43869633Y-62597076D01*
X43791973Y-62400931D01*
X43753893Y-62193449D01*
X43756838Y-61982515D01*
X43800699Y-61776168D01*
X43883802Y-61582274D01*
X44002985Y-61408212D01*
X44153704Y-61260616D01*
X44330225Y-61145105D01*
X44525819Y-61066079D01*
X44733033Y-61026552D01*
X44943988Y-61028024D01*
X44943988Y-61028024D01*
G37*
G36*
X35943988Y-61028024D02*
X36150626Y-61070441D01*
X36345104Y-61152192D01*
X36519991Y-61270155D01*
X36668636Y-61419841D01*
X36785375Y-61595548D01*
X36865763Y-61790584D01*
X36906669Y-61997174D01*
X36906669Y-61997184D01*
X36906736Y-61997523D01*
X36903372Y-62238472D01*
X36903295Y-62238810D01*
X36903295Y-62238819D01*
X36856637Y-62444187D01*
X36770836Y-62636899D01*
X36649234Y-62809280D01*
X36496466Y-62954759D01*
X36318353Y-63067793D01*
X36121672Y-63144080D01*
X35913927Y-63180712D01*
X35703017Y-63176293D01*
X35496984Y-63130995D01*
X35303672Y-63046538D01*
X35130451Y-62926146D01*
X34983909Y-62774399D01*
X34869633Y-62597076D01*
X34791973Y-62400931D01*
X34753893Y-62193449D01*
X34756838Y-61982515D01*
X34800699Y-61776168D01*
X34883802Y-61582274D01*
X35002985Y-61408212D01*
X35153704Y-61260616D01*
X35330225Y-61145105D01*
X35525819Y-61066079D01*
X35733033Y-61026552D01*
X35943988Y-61028024D01*
X35943988Y-61028024D01*
G37*
G36*
X59096544Y-48956406D02*
X59252816Y-49004780D01*
X59396715Y-49082587D01*
X59522762Y-49186862D01*
X59626155Y-49313633D01*
X59702954Y-49458073D01*
X59750237Y-49614679D01*
X59766200Y-49777486D01*
X59766200Y-50806546D01*
X59766133Y-50816159D01*
X59766132Y-50816165D01*
X59766118Y-50818217D01*
X59747883Y-50980786D01*
X59698419Y-51136716D01*
X59619610Y-51280069D01*
X59514458Y-51405385D01*
X59386967Y-51507890D01*
X59241995Y-51583680D01*
X59085063Y-51629867D01*
X59085022Y-51629871D01*
X59085018Y-51629872D01*
X58922151Y-51644694D01*
X58922148Y-51644694D01*
X58759456Y-51627594D01*
X58603184Y-51579220D01*
X58459285Y-51501413D01*
X58333238Y-51397138D01*
X58229845Y-51270367D01*
X58153046Y-51125927D01*
X58105763Y-50969321D01*
X58089800Y-50806514D01*
X58089800Y-49777454D01*
X58089867Y-49767841D01*
X58089868Y-49767835D01*
X58089882Y-49765783D01*
X58108117Y-49603214D01*
X58157581Y-49447284D01*
X58236390Y-49303931D01*
X58341542Y-49178615D01*
X58469033Y-49076110D01*
X58614005Y-49000320D01*
X58770937Y-48954133D01*
X58770978Y-48954129D01*
X58770982Y-48954128D01*
X58933850Y-48939306D01*
X58933852Y-48939306D01*
X59096544Y-48956406D01*
X59096544Y-48956406D01*
G37*
G36*
X32172544Y-48956406D02*
X32328816Y-49004780D01*
X32472715Y-49082587D01*
X32598762Y-49186862D01*
X32702155Y-49313633D01*
X32778954Y-49458073D01*
X32826237Y-49614679D01*
X32842200Y-49777486D01*
X32842200Y-50806546D01*
X32842133Y-50816159D01*
X32842132Y-50816165D01*
X32842118Y-50818217D01*
X32823883Y-50980786D01*
X32774419Y-51136716D01*
X32695610Y-51280069D01*
X32590458Y-51405385D01*
X32462967Y-51507890D01*
X32317995Y-51583680D01*
X32161063Y-51629867D01*
X32161022Y-51629871D01*
X32161018Y-51629872D01*
X31998151Y-51644694D01*
X31998148Y-51644694D01*
X31835456Y-51627594D01*
X31679184Y-51579220D01*
X31535285Y-51501413D01*
X31409238Y-51397138D01*
X31305845Y-51270367D01*
X31229046Y-51125927D01*
X31181763Y-50969321D01*
X31165800Y-50806514D01*
X31165800Y-49777454D01*
X31165867Y-49767841D01*
X31165868Y-49767835D01*
X31165882Y-49765783D01*
X31184117Y-49603214D01*
X31233581Y-49447284D01*
X31312390Y-49303931D01*
X31417542Y-49178615D01*
X31545033Y-49076110D01*
X31690005Y-49000320D01*
X31846937Y-48954133D01*
X31846978Y-48954129D01*
X31846982Y-48954128D01*
X32009850Y-48939306D01*
X32009852Y-48939306D01*
X32172544Y-48956406D01*
X32172544Y-48956406D01*
G37*
G36*
X37252544Y-48956406D02*
X37408816Y-49004780D01*
X37552715Y-49082587D01*
X37678762Y-49186862D01*
X37782155Y-49313633D01*
X37858954Y-49458073D01*
X37906237Y-49614679D01*
X37922200Y-49777486D01*
X37922200Y-50806546D01*
X37922133Y-50816159D01*
X37922132Y-50816165D01*
X37922118Y-50818217D01*
X37903883Y-50980786D01*
X37854419Y-51136716D01*
X37775610Y-51280069D01*
X37670458Y-51405385D01*
X37542967Y-51507890D01*
X37397995Y-51583680D01*
X37241063Y-51629867D01*
X37241022Y-51629871D01*
X37241018Y-51629872D01*
X37078151Y-51644694D01*
X37078148Y-51644694D01*
X36915456Y-51627594D01*
X36759184Y-51579220D01*
X36615285Y-51501413D01*
X36489238Y-51397138D01*
X36385845Y-51270367D01*
X36309046Y-51125927D01*
X36261763Y-50969321D01*
X36245800Y-50806514D01*
X36245800Y-49777454D01*
X36245867Y-49767841D01*
X36245868Y-49767835D01*
X36245882Y-49765783D01*
X36264117Y-49603214D01*
X36313581Y-49447284D01*
X36392390Y-49303931D01*
X36497542Y-49178615D01*
X36625033Y-49076110D01*
X36770005Y-49000320D01*
X36926937Y-48954133D01*
X36926978Y-48954129D01*
X36926982Y-48954128D01*
X37089850Y-48939306D01*
X37089852Y-48939306D01*
X37252544Y-48956406D01*
X37252544Y-48956406D01*
G37*
G36*
X39792544Y-48956406D02*
X39948816Y-49004780D01*
X40092715Y-49082587D01*
X40218762Y-49186862D01*
X40322155Y-49313633D01*
X40398954Y-49458073D01*
X40446237Y-49614679D01*
X40462200Y-49777486D01*
X40462200Y-50806546D01*
X40462133Y-50816159D01*
X40462132Y-50816165D01*
X40462118Y-50818217D01*
X40443883Y-50980786D01*
X40394419Y-51136716D01*
X40315610Y-51280069D01*
X40210458Y-51405385D01*
X40082967Y-51507890D01*
X39937995Y-51583680D01*
X39781063Y-51629867D01*
X39781022Y-51629871D01*
X39781018Y-51629872D01*
X39618151Y-51644694D01*
X39618148Y-51644694D01*
X39455456Y-51627594D01*
X39299184Y-51579220D01*
X39155285Y-51501413D01*
X39029238Y-51397138D01*
X38925845Y-51270367D01*
X38849046Y-51125927D01*
X38801763Y-50969321D01*
X38785800Y-50806514D01*
X38785800Y-49777454D01*
X38785867Y-49767841D01*
X38785868Y-49767835D01*
X38785882Y-49765783D01*
X38804117Y-49603214D01*
X38853581Y-49447284D01*
X38932390Y-49303931D01*
X39037542Y-49178615D01*
X39165033Y-49076110D01*
X39310005Y-49000320D01*
X39466937Y-48954133D01*
X39466978Y-48954129D01*
X39466982Y-48954128D01*
X39629850Y-48939306D01*
X39629852Y-48939306D01*
X39792544Y-48956406D01*
X39792544Y-48956406D01*
G37*
G36*
X42332544Y-48956406D02*
X42488816Y-49004780D01*
X42632715Y-49082587D01*
X42758762Y-49186862D01*
X42862155Y-49313633D01*
X42938954Y-49458073D01*
X42986237Y-49614679D01*
X43002200Y-49777486D01*
X43002200Y-50806546D01*
X43002133Y-50816159D01*
X43002132Y-50816165D01*
X43002118Y-50818217D01*
X42983883Y-50980786D01*
X42934419Y-51136716D01*
X42855610Y-51280069D01*
X42750458Y-51405385D01*
X42622967Y-51507890D01*
X42477995Y-51583680D01*
X42321063Y-51629867D01*
X42321022Y-51629871D01*
X42321018Y-51629872D01*
X42158151Y-51644694D01*
X42158148Y-51644694D01*
X41995456Y-51627594D01*
X41839184Y-51579220D01*
X41695285Y-51501413D01*
X41569238Y-51397138D01*
X41465845Y-51270367D01*
X41389046Y-51125927D01*
X41341763Y-50969321D01*
X41325800Y-50806514D01*
X41325800Y-49777454D01*
X41325867Y-49767841D01*
X41325868Y-49767835D01*
X41325882Y-49765783D01*
X41344117Y-49603214D01*
X41393581Y-49447284D01*
X41472390Y-49303931D01*
X41577542Y-49178615D01*
X41705033Y-49076110D01*
X41850005Y-49000320D01*
X42006937Y-48954133D01*
X42006978Y-48954129D01*
X42006982Y-48954128D01*
X42169850Y-48939306D01*
X42169852Y-48939306D01*
X42332544Y-48956406D01*
X42332544Y-48956406D01*
G37*
G36*
X46396544Y-48956406D02*
X46552816Y-49004780D01*
X46696715Y-49082587D01*
X46822762Y-49186862D01*
X46926155Y-49313633D01*
X47002954Y-49458073D01*
X47050237Y-49614679D01*
X47066200Y-49777486D01*
X47066200Y-50806546D01*
X47066133Y-50816159D01*
X47066132Y-50816165D01*
X47066118Y-50818217D01*
X47047883Y-50980786D01*
X46998419Y-51136716D01*
X46919610Y-51280069D01*
X46814458Y-51405385D01*
X46686967Y-51507890D01*
X46541995Y-51583680D01*
X46385063Y-51629867D01*
X46385022Y-51629871D01*
X46385018Y-51629872D01*
X46222151Y-51644694D01*
X46222148Y-51644694D01*
X46059456Y-51627594D01*
X45903184Y-51579220D01*
X45759285Y-51501413D01*
X45633238Y-51397138D01*
X45529845Y-51270367D01*
X45453046Y-51125927D01*
X45405763Y-50969321D01*
X45389800Y-50806514D01*
X45389800Y-49777454D01*
X45389867Y-49767841D01*
X45389868Y-49767835D01*
X45389882Y-49765783D01*
X45408117Y-49603214D01*
X45457581Y-49447284D01*
X45536390Y-49303931D01*
X45641542Y-49178615D01*
X45769033Y-49076110D01*
X45914005Y-49000320D01*
X46070937Y-48954133D01*
X46070978Y-48954129D01*
X46070982Y-48954128D01*
X46233850Y-48939306D01*
X46233852Y-48939306D01*
X46396544Y-48956406D01*
X46396544Y-48956406D01*
G37*
G36*
X48936544Y-48956406D02*
X49092816Y-49004780D01*
X49236715Y-49082587D01*
X49362762Y-49186862D01*
X49466155Y-49313633D01*
X49542954Y-49458073D01*
X49590237Y-49614679D01*
X49606200Y-49777486D01*
X49606200Y-50806546D01*
X49606133Y-50816159D01*
X49606132Y-50816165D01*
X49606118Y-50818217D01*
X49587883Y-50980786D01*
X49538419Y-51136716D01*
X49459610Y-51280069D01*
X49354458Y-51405385D01*
X49226967Y-51507890D01*
X49081995Y-51583680D01*
X48925063Y-51629867D01*
X48925022Y-51629871D01*
X48925018Y-51629872D01*
X48762151Y-51644694D01*
X48762148Y-51644694D01*
X48599456Y-51627594D01*
X48443184Y-51579220D01*
X48299285Y-51501413D01*
X48173238Y-51397138D01*
X48069845Y-51270367D01*
X47993046Y-51125927D01*
X47945763Y-50969321D01*
X47929800Y-50806514D01*
X47929800Y-49777454D01*
X47929867Y-49767841D01*
X47929868Y-49767835D01*
X47929882Y-49765783D01*
X47948117Y-49603214D01*
X47997581Y-49447284D01*
X48076390Y-49303931D01*
X48181542Y-49178615D01*
X48309033Y-49076110D01*
X48454005Y-49000320D01*
X48610937Y-48954133D01*
X48610978Y-48954129D01*
X48610982Y-48954128D01*
X48773850Y-48939306D01*
X48773852Y-48939306D01*
X48936544Y-48956406D01*
X48936544Y-48956406D01*
G37*
G36*
X51476544Y-48956406D02*
X51632816Y-49004780D01*
X51776715Y-49082587D01*
X51902762Y-49186862D01*
X52006155Y-49313633D01*
X52082954Y-49458073D01*
X52130237Y-49614679D01*
X52146200Y-49777486D01*
X52146200Y-50806546D01*
X52146133Y-50816159D01*
X52146132Y-50816165D01*
X52146118Y-50818217D01*
X52127883Y-50980786D01*
X52078419Y-51136716D01*
X51999610Y-51280069D01*
X51894458Y-51405385D01*
X51766967Y-51507890D01*
X51621995Y-51583680D01*
X51465063Y-51629867D01*
X51465022Y-51629871D01*
X51465018Y-51629872D01*
X51302151Y-51644694D01*
X51302148Y-51644694D01*
X51139456Y-51627594D01*
X50983184Y-51579220D01*
X50839285Y-51501413D01*
X50713238Y-51397138D01*
X50609845Y-51270367D01*
X50533046Y-51125927D01*
X50485763Y-50969321D01*
X50469800Y-50806514D01*
X50469800Y-49777454D01*
X50469867Y-49767841D01*
X50469868Y-49767835D01*
X50469882Y-49765783D01*
X50488117Y-49603214D01*
X50537581Y-49447284D01*
X50616390Y-49303931D01*
X50721542Y-49178615D01*
X50849033Y-49076110D01*
X50994005Y-49000320D01*
X51150937Y-48954133D01*
X51150978Y-48954129D01*
X51150982Y-48954128D01*
X51313850Y-48939306D01*
X51313852Y-48939306D01*
X51476544Y-48956406D01*
X51476544Y-48956406D01*
G37*
G36*
X54016544Y-48956406D02*
X54172816Y-49004780D01*
X54316715Y-49082587D01*
X54442762Y-49186862D01*
X54546155Y-49313633D01*
X54622954Y-49458073D01*
X54670237Y-49614679D01*
X54686200Y-49777486D01*
X54686200Y-50806546D01*
X54686133Y-50816159D01*
X54686132Y-50816165D01*
X54686118Y-50818217D01*
X54667883Y-50980786D01*
X54618419Y-51136716D01*
X54539610Y-51280069D01*
X54434458Y-51405385D01*
X54306967Y-51507890D01*
X54161995Y-51583680D01*
X54005063Y-51629867D01*
X54005022Y-51629871D01*
X54005018Y-51629872D01*
X53842151Y-51644694D01*
X53842148Y-51644694D01*
X53679456Y-51627594D01*
X53523184Y-51579220D01*
X53379285Y-51501413D01*
X53253238Y-51397138D01*
X53149845Y-51270367D01*
X53073046Y-51125927D01*
X53025763Y-50969321D01*
X53009800Y-50806514D01*
X53009800Y-49777454D01*
X53009867Y-49767841D01*
X53009868Y-49767835D01*
X53009882Y-49765783D01*
X53028117Y-49603214D01*
X53077581Y-49447284D01*
X53156390Y-49303931D01*
X53261542Y-49178615D01*
X53389033Y-49076110D01*
X53534005Y-49000320D01*
X53690937Y-48954133D01*
X53690978Y-48954129D01*
X53690982Y-48954128D01*
X53853850Y-48939306D01*
X53853852Y-48939306D01*
X54016544Y-48956406D01*
X54016544Y-48956406D01*
G37*
G36*
X56556544Y-48956406D02*
X56712816Y-49004780D01*
X56856715Y-49082587D01*
X56982762Y-49186862D01*
X57086155Y-49313633D01*
X57162954Y-49458073D01*
X57210237Y-49614679D01*
X57226200Y-49777486D01*
X57226200Y-50806546D01*
X57226133Y-50816159D01*
X57226132Y-50816165D01*
X57226118Y-50818217D01*
X57207883Y-50980786D01*
X57158419Y-51136716D01*
X57079610Y-51280069D01*
X56974458Y-51405385D01*
X56846967Y-51507890D01*
X56701995Y-51583680D01*
X56545063Y-51629867D01*
X56545022Y-51629871D01*
X56545018Y-51629872D01*
X56382151Y-51644694D01*
X56382148Y-51644694D01*
X56219456Y-51627594D01*
X56063184Y-51579220D01*
X55919285Y-51501413D01*
X55793238Y-51397138D01*
X55689845Y-51270367D01*
X55613046Y-51125927D01*
X55565763Y-50969321D01*
X55549800Y-50806514D01*
X55549800Y-49777454D01*
X55549867Y-49767841D01*
X55549868Y-49767835D01*
X55549882Y-49765783D01*
X55568117Y-49603214D01*
X55617581Y-49447284D01*
X55696390Y-49303931D01*
X55801542Y-49178615D01*
X55929033Y-49076110D01*
X56074005Y-49000320D01*
X56230937Y-48954133D01*
X56230978Y-48954129D01*
X56230982Y-48954128D01*
X56393850Y-48939306D01*
X56393852Y-48939306D01*
X56556544Y-48956406D01*
X56556544Y-48956406D01*
G37*
G36*
X24552544Y-48956406D02*
X24708816Y-49004780D01*
X24852715Y-49082587D01*
X24978762Y-49186862D01*
X25082155Y-49313633D01*
X25158954Y-49458073D01*
X25206237Y-49614679D01*
X25222200Y-49777486D01*
X25222200Y-50806546D01*
X25222133Y-50816159D01*
X25222132Y-50816165D01*
X25222118Y-50818217D01*
X25203883Y-50980786D01*
X25154419Y-51136716D01*
X25075610Y-51280069D01*
X24970458Y-51405385D01*
X24842967Y-51507890D01*
X24697995Y-51583680D01*
X24541063Y-51629867D01*
X24541022Y-51629871D01*
X24541018Y-51629872D01*
X24378151Y-51644694D01*
X24378148Y-51644694D01*
X24215456Y-51627594D01*
X24059184Y-51579220D01*
X23915285Y-51501413D01*
X23789238Y-51397138D01*
X23685845Y-51270367D01*
X23609046Y-51125927D01*
X23561763Y-50969321D01*
X23545800Y-50806514D01*
X23545800Y-49777454D01*
X23545867Y-49767841D01*
X23545868Y-49767835D01*
X23545882Y-49765783D01*
X23564117Y-49603214D01*
X23613581Y-49447284D01*
X23692390Y-49303931D01*
X23797542Y-49178615D01*
X23925033Y-49076110D01*
X24070005Y-49000320D01*
X24226937Y-48954133D01*
X24226978Y-48954129D01*
X24226982Y-48954128D01*
X24389850Y-48939306D01*
X24389852Y-48939306D01*
X24552544Y-48956406D01*
X24552544Y-48956406D01*
G37*
G36*
X27092544Y-48956406D02*
X27248816Y-49004780D01*
X27392715Y-49082587D01*
X27518762Y-49186862D01*
X27622155Y-49313633D01*
X27698954Y-49458073D01*
X27746237Y-49614679D01*
X27762200Y-49777486D01*
X27762200Y-50806546D01*
X27762133Y-50816159D01*
X27762132Y-50816165D01*
X27762118Y-50818217D01*
X27743883Y-50980786D01*
X27694419Y-51136716D01*
X27615610Y-51280069D01*
X27510458Y-51405385D01*
X27382967Y-51507890D01*
X27237995Y-51583680D01*
X27081063Y-51629867D01*
X27081022Y-51629871D01*
X27081018Y-51629872D01*
X26918151Y-51644694D01*
X26918148Y-51644694D01*
X26755456Y-51627594D01*
X26599184Y-51579220D01*
X26455285Y-51501413D01*
X26329238Y-51397138D01*
X26225845Y-51270367D01*
X26149046Y-51125927D01*
X26101763Y-50969321D01*
X26085800Y-50806514D01*
X26085800Y-49777454D01*
X26085867Y-49767841D01*
X26085868Y-49767835D01*
X26085882Y-49765783D01*
X26104117Y-49603214D01*
X26153581Y-49447284D01*
X26232390Y-49303931D01*
X26337542Y-49178615D01*
X26465033Y-49076110D01*
X26610005Y-49000320D01*
X26766937Y-48954133D01*
X26766978Y-48954129D01*
X26766982Y-48954128D01*
X26929850Y-48939306D01*
X26929852Y-48939306D01*
X27092544Y-48956406D01*
X27092544Y-48956406D01*
G37*
G36*
X34712544Y-48956406D02*
X34868816Y-49004780D01*
X35012715Y-49082587D01*
X35138762Y-49186862D01*
X35242155Y-49313633D01*
X35318954Y-49458073D01*
X35366237Y-49614679D01*
X35382200Y-49777486D01*
X35382200Y-50806546D01*
X35382133Y-50816159D01*
X35382132Y-50816165D01*
X35382118Y-50818217D01*
X35363883Y-50980786D01*
X35314419Y-51136716D01*
X35235610Y-51280069D01*
X35130458Y-51405385D01*
X35002967Y-51507890D01*
X34857995Y-51583680D01*
X34701063Y-51629867D01*
X34701022Y-51629871D01*
X34701018Y-51629872D01*
X34538151Y-51644694D01*
X34538148Y-51644694D01*
X34375456Y-51627594D01*
X34219184Y-51579220D01*
X34075285Y-51501413D01*
X33949238Y-51397138D01*
X33845845Y-51270367D01*
X33769046Y-51125927D01*
X33721763Y-50969321D01*
X33705800Y-50806514D01*
X33705800Y-49777454D01*
X33705867Y-49767841D01*
X33705868Y-49767835D01*
X33705882Y-49765783D01*
X33724117Y-49603214D01*
X33773581Y-49447284D01*
X33852390Y-49303931D01*
X33957542Y-49178615D01*
X34085033Y-49076110D01*
X34230005Y-49000320D01*
X34386937Y-48954133D01*
X34386978Y-48954129D01*
X34386982Y-48954128D01*
X34549850Y-48939306D01*
X34549852Y-48939306D01*
X34712544Y-48956406D01*
X34712544Y-48956406D01*
G37*
G36*
X29632544Y-48956406D02*
X29788816Y-49004780D01*
X29932715Y-49082587D01*
X30058762Y-49186862D01*
X30162155Y-49313633D01*
X30238954Y-49458073D01*
X30286237Y-49614679D01*
X30302200Y-49777486D01*
X30302200Y-50806546D01*
X30302133Y-50816159D01*
X30302132Y-50816165D01*
X30302118Y-50818217D01*
X30283883Y-50980786D01*
X30234419Y-51136716D01*
X30155610Y-51280069D01*
X30050458Y-51405385D01*
X29922967Y-51507890D01*
X29777995Y-51583680D01*
X29621063Y-51629867D01*
X29621022Y-51629871D01*
X29621018Y-51629872D01*
X29458151Y-51644694D01*
X29458148Y-51644694D01*
X29295456Y-51627594D01*
X29139184Y-51579220D01*
X28995285Y-51501413D01*
X28869238Y-51397138D01*
X28765845Y-51270367D01*
X28689046Y-51125927D01*
X28641763Y-50969321D01*
X28625800Y-50806514D01*
X28625800Y-49777454D01*
X28625867Y-49767841D01*
X28625868Y-49767835D01*
X28625882Y-49765783D01*
X28644117Y-49603214D01*
X28693581Y-49447284D01*
X28772390Y-49303931D01*
X28877542Y-49178615D01*
X29005033Y-49076110D01*
X29150005Y-49000320D01*
X29306937Y-48954133D01*
X29306978Y-48954129D01*
X29306982Y-48954128D01*
X29469850Y-48939306D01*
X29469852Y-48939306D01*
X29632544Y-48956406D01*
X29632544Y-48956406D01*
G37*
M02*
